<svg xmlns="http://www.w3.org/2000/svg" xml:space="preserve" width="512" height="512" viewBox="0 0 135.46666 135.46667"><path d="M 33.866666 0 A 33.866665 33.866665 0 0 0 0 33.866666 L 0 101.6 A 33.866665 33.866665 0 0 0 33.866666 135.46666 L 101.6 135.46666 A 33.866665 33.866665 0 0 0 135.46666 101.6 L 135.46666 33.866666 A 33.866665 33.866665 0 0 0 101.6 0 L 33.866666 0 z" style="fill:#000;fill-opacity:1;stroke-width:4.23333;stroke-linecap:round;stroke-linejoin:round;stroke-miterlimit:128;stroke-opacity:0"/><path d="M 33.866666 8.4666666 C 19.838648 8.4666669 8.4666669 19.838648 8.4666666 33.866666 L 8.4666666 101.6 L 127 101.6 L 127 33.866666 C 127 19.838648 115.62801 8.4666666 101.6 8.4666666 L 33.866666 8.4666666 z M 63.499999 16.93385 L 71.966666 16.93385 C 73.136017 16.933681 74.084018 17.881682 74.083849 19.051033 L 74.083849 25.400516 L 97.367182 25.400516 C 97.928193 25.400487 98.466273 25.623153 98.863215 26.0196 L 107.32988 34.486267 C 108.15685 35.312999 108.15685 36.653667 107.32988 37.480399 L 98.863215 45.947066 C 98.466273 46.343505 97.928193 46.566179 97.367182 46.566149 L 74.083849 46.566149 L 74.083849 50.801033 C 75.494764 50.801033 74.789147 50.801999 76.199999 50.799999 C 77.368995 50.799999 78.316666 51.74767 78.316666 52.916666 C 78.316666 54.085662 77.368995 55.033333 76.199999 55.033333 L 38.976432 55.033333 L 32.626949 61.382816 L 38.976432 67.732299 L 95.249999 67.732299 L 95.249999 55.033333 L 93.133332 55.033333 C 91.964336 55.033333 91.016666 54.085662 91.016666 52.916666 C 91.016666 51.464566 92.310745 50.771003 93.174673 50.801033 L 97.367182 50.801033 C 98.534919 50.802003 99.481328 51.748412 99.482299 52.916149 L 99.482299 69.849482 C 99.482469 71.018027 98.535726 71.965695 97.367182 71.966666 L 74.083849 71.966666 L 74.083849 80.433849 L 78.316149 80.433849 C 78.982189 80.433557 79.609541 80.746751 80.009586 81.279276 L 86.359586 89.745942 C 87.406017 91.141418 86.410388 93.132682 84.666149 93.132815 L 50.801033 93.132815 C 49.056788 93.132682 48.061158 91.141418 49.107596 89.745942 L 55.457079 81.279276 C 55.857124 80.746751 56.484476 80.433557 57.150516 80.433849 L 61.382816 80.433849 L 61.382816 71.966666 L 38.099483 71.966666 C 37.538472 71.966695 37.000392 71.744029 36.60345 71.347582 L 28.136784 62.880916 C 27.309814 62.054177 27.309814 60.713515 28.136784 59.886783 L 36.60345 51.420117 C 37.000392 51.02367 37.538472 50.801004 38.099483 50.801033 L 61.382816 50.801033 L 61.382816 46.566149 L 38.099483 46.566149 C 36.930132 46.566319 35.98213 45.618317 35.982299 44.448966 L 35.982299 27.5177 C 35.982129 26.348348 36.930131 25.400346 38.099483 25.400516 C 40.216288 25.400516 40.216562 25.401 42.333333 25.4 C 43.502329 25.4 44.449999 26.34767 44.449999 27.516666 C 44.449999 29.112798 42.927835 29.676946 42.326098 29.632816 L 40.216666 29.632816 L 40.216666 42.33385 L 96.490233 42.33385 L 102.83972 35.984366 L 96.490233 29.632816 C 83.376932 29.632816 72.379934 29.632333 59.266666 29.633333 C 58.09767 29.633333 57.149999 28.685662 57.149999 27.516666 C 57.149999 26.046228 58.469534 25.376096 59.287337 25.400516 L 61.382816 25.400516 L 61.382816 19.051033 C 61.382647 17.881682 62.330648 16.933681 63.499999 16.93385 z M 65.617183 21.16615 L 65.617183 25.400516 L 69.849482 25.400516 L 69.849482 21.16615 L 65.617183 21.16615 z M 48.683333 25.4 L 52.916666 25.4 C 54.085663 25.4 55.033333 26.347669 55.033333 27.516666 C 55.033333 28.685663 54.085663 29.633333 52.916666 29.633333 L 48.683333 29.633333 C 47.514336 29.633333 46.566666 28.685663 46.566666 27.516666 C 46.566666 26.34767 47.514337 25.4 48.683333 25.4 z M 46.566149 33.867183 L 78.316149 33.867183 A 2.1166649 2.1166649 0 0 1 80.433849 35.982299 A 2.1166649 2.1166649 0 0 1 78.316149 38.099483 L 46.566149 38.099483 A 2.1166649 2.1166649 0 0 1 44.448966 35.982299 A 2.1166649 2.1166649 0 0 1 46.566149 33.867183 z M 84.666149 33.867183 L 93.132815 33.867183 A 2.1166649 2.1166649 0 0 1 95.249999 35.982299 A 2.1166649 2.1166649 0 0 1 93.132815 38.099483 L 84.666149 38.099483 A 2.1166649 2.1166649 0 0 1 82.551033 35.982299 A 2.1166649 2.1166649 0 0 1 84.666149 33.867183 z M 65.617183 46.566149 L 65.617183 50.801033 L 69.849482 50.801033 L 69.849482 46.566149 L 65.617183 46.566149 z M 82.549999 50.799999 L 86.783332 50.799999 C 87.952329 50.799999 88.899999 51.747669 88.899999 52.916666 C 88.899999 54.085663 87.952329 55.033333 86.783332 55.033333 L 82.549999 55.033333 C 81.381002 55.033333 80.433332 54.085663 80.433332 52.916666 C 80.433332 51.747669 81.381002 50.799999 82.549999 50.799999 z M 42.33385 59.267699 L 59.267699 59.267699 A 2.1166649 2.1166649 0 0 1 61.382816 61.382816 A 2.1166649 2.1166649 0 0 1 59.267699 63.499999 L 42.33385 63.499999 A 2.1166649 2.1166649 0 0 1 40.216666 61.382816 A 2.1166649 2.1166649 0 0 1 42.33385 59.267699 z M 65.617183 59.267699 L 88.900516 59.267699 A 2.1166649 2.1166649 0 0 1 91.017699 61.382816 A 2.1166649 2.1166649 0 0 1 88.900516 63.499999 L 65.617183 63.499999 A 2.1166649 2.1166649 0 0 1 63.499999 61.382816 A 2.1166649 2.1166649 0 0 1 65.617183 59.267699 z M 65.617183 71.966666 L 65.617183 80.433849 L 69.849482 80.433849 L 69.849482 71.966666 L 65.617183 71.966666 z M 58.208849 84.666149 L 55.033333 88.900516 L 80.433849 88.900516 L 77.257816 84.666149 L 58.208849 84.666149 z" style="fill:#ff3a18;fill-opacity:1;stroke-width:4.23333;stroke-linecap:round;stroke-linejoin:round;stroke-miterlimit:128;stroke-opacity:0"/><path d="m 59.662697,112.18333 c -0.726037,0 -1.410092,0.13946 -2.052355,0.41871 -0.642264,0.27924 -1.200688,0.65642 -1.675404,1.13113 -0.474717,0.48868 -0.85161,1.04706 -1.130855,1.68933 -0.279245,0.64226 -0.418993,1.32631 -0.418993,2.05235 0,0.72604 0.139748,1.41038 0.418993,2.05264 0.279245,0.64227 0.656138,1.20069 1.130855,1.67541 0.474716,0.48868 1.03314,0.86553 1.675404,1.14477 0.642263,0.27925 1.326318,0.41899 2.052355,0.41899 0.726037,0 1.410375,-0.13974 2.052639,-0.41899 0.642264,-0.27924 1.200644,-0.65609 1.689323,-1.14477 0.474717,-0.47472 0.85161,-1.03314 1.130855,-1.67541 0.279245,-0.64226 0.418993,-1.3266 0.418993,-2.05264 0,-0.72604 -0.139748,-1.41009 -0.418993,-2.05235 -0.279245,-0.64227 -0.656138,-1.20065 -1.130855,-1.68933 -0.488679,-0.47471 -1.047059,-0.85189 -1.689323,-1.13113 -0.642264,-0.27925 -1.326602,-0.41871 -2.052639,-0.41871 z m 23.261352,0 c -0.726037,0 -1.410376,0.13946 -2.05264,0.41871 -0.642263,0.27924 -1.200687,0.65642 -1.675403,1.13113 -0.474717,0.48868 -0.85161,1.04706 -1.130855,1.68933 -0.279245,0.64226 -0.418993,1.32631 -0.418993,2.05235 0,0.72604 0.139748,1.41038 0.418993,2.05264 0.279245,0.64227 0.656138,1.20069 1.130855,1.67541 0.474716,0.48868 1.03314,0.86553 1.675403,1.14477 0.642264,0.27925 1.326603,0.41899 2.05264,0.41899 0.726036,0 1.410089,-0.13974 2.052353,-0.41899 0.642264,-0.27924 1.200645,-0.65609 1.689324,-1.14477 0.474717,-0.47472 0.851896,-1.03314 1.131141,-1.67541 0.279246,-0.64226 0.418709,-1.3266 0.418709,-2.05264 0,-0.72604 -0.139463,-1.41009 -0.418709,-2.05235 -0.279245,-0.64227 -0.656424,-1.20065 -1.131141,-1.68933 -0.488679,-0.47471 -1.04706,-0.85189 -1.689324,-1.13113 -0.642264,-0.27925 -1.326317,-0.41871 -2.052353,-0.41871 z m -36.874504,0.18152 c -0.09774,0 -0.167381,0.0279 -0.237192,0.0977 -0.06981,0.0698 -0.09772,0.13945 -0.09772,0.23718 v 1.89896 c 0,0.0977 0.02791,0.16767 0.09772,0.23748 0.06981,0.0698 0.139457,0.0977 0.237192,0.0977 h 1.98276 c 0.09774,0 0.181584,0.0279 0.251396,0.0977 0.05585,0.0698 0.08351,0.13945 0.08351,0.23719 v 6.98113 c 0,0.0977 0.02819,0.16767 0.098,0.23748 0.06981,0.0698 0.139457,0.0977 0.237193,0.0977 H 50.7968 c 0.09774,0 0.181585,-0.0279 0.251396,-0.0977 0.05585,-0.0698 0.0838,-0.13974 0.0838,-0.23748 v -6.98113 c 0,-0.0977 0.02791,-0.16738 0.09772,-0.23719 0.06981,-0.0698 0.139457,-0.0977 0.237193,-0.0977 h 1.954637 c 0.09774,0 0.181585,-0.0279 0.251396,-0.0977 0.05585,-0.0698 0.0838,-0.13974 0.0838,-0.23748 v -1.89896 c 0,-0.0977 -0.02795,-0.16737 -0.0838,-0.23718 -0.06981,-0.0698 -0.15366,-0.0977 -0.251396,-0.0977 z m 20.692002,0 c -0.09774,0 -0.167381,0.0279 -0.237192,0.0977 -0.06981,0.0698 -0.09772,0.13945 -0.09772,0.23718 v 9.5502 c 0,0.0977 0.02791,0.16767 0.09772,0.23748 0.06981,0.0698 0.139456,0.0977 0.237192,0.0977 h 2.080478 c 0.09774,0 0.167665,-0.0279 0.237476,-0.0977 0.06981,-0.0698 0.09772,-0.13974 0.09772,-0.23748 v -4.99837 c 0,-0.0977 0.02791,-0.15364 0.09772,-0.1676 0.05585,-0.014 0.111748,0.0279 0.167597,0.0977 l 3.64396,5.12421 c 0.05585,0.0698 0.139741,0.13959 0.237477,0.19544 0.09774,0.0559 0.195417,0.0838 0.293153,0.0838 h 2.066558 c 0.09774,0 0.167382,-0.0279 0.237193,-0.0977 0.06981,-0.0698 0.09772,-0.13974 0.09772,-0.23748 v -9.5502 c 0,-0.0977 -0.02791,-0.16737 -0.09772,-0.23718 -0.06981,-0.0698 -0.139457,-0.0977 -0.237193,-0.0977 h -2.066558 c -0.09774,0 -0.167666,0.0279 -0.237477,0.0977 -0.06981,0.0698 -0.09772,0.13945 -0.09772,0.23718 v 4.99866 c 0,0.0977 -0.02767,0.13943 -0.08351,0.15339 -0.06981,0.014 -0.125667,-0.0279 -0.181516,-0.0977 l -3.630326,-5.12393 c -0.05585,-0.0698 -0.139741,-0.13959 -0.237476,-0.19543 -0.09774,-0.0419 -0.195418,-0.0699 -0.293154,-0.0699 z m -39.066334,0.0139 c -0.09774,0 -0.19546,0.028 -0.279233,0.0838 -0.09774,0.0698 -0.153549,0.13949 -0.195436,0.22326 l -4.049034,9.45248 c -0.04189,0.0698 -0.05572,0.13959 -0.04176,0.19544 0.01396,0.0559 0.02771,0.0979 0.06959,0.13976 0.02792,0.0419 0.06999,0.0698 0.12584,0.0838 0.04189,0.014 0.09759,0.0278 0.139475,0.0278 h 2.401469 c 0.09774,0 0.181498,-0.0279 0.279233,-0.0977 0.08377,-0.0558 0.13963,-0.12558 0.181517,-0.20935 l 0.391155,-0.8377 c 0.04189,-0.0838 0.0977,-0.15375 0.195435,-0.22356 0.08377,-0.0558 0.181498,-0.0838 0.279234,-0.0838 h 2.946017 c 0.09774,0 0.181498,0.0279 0.279234,0.0838 0.08377,0.0698 0.153549,0.13978 0.195436,0.22356 l 0.376951,0.8377 c 0.04189,0.0838 0.111619,0.15351 0.209355,0.20935 0.08377,0.0698 0.181498,0.0977 0.279234,0.0977 h 2.38755 c 0.153584,0 0.251507,-0.042 0.307356,-0.13976 0.04189,-0.0977 0.05581,-0.18125 0.01392,-0.26503 l -4.076872,-9.4945 c -0.04189,-0.0838 -0.09774,-0.15345 -0.181516,-0.22326 -0.09774,-0.0559 -0.181782,-0.0838 -0.279518,-0.0838 z m 7.804916,0 c -0.09774,0 -0.167382,0.0279 -0.237193,0.0977 -0.06981,0.0698 -0.09772,0.13973 -0.09772,0.23746 v 5.65456 c 0,0.65623 0.111558,1.25672 0.320992,1.80124 0.209433,0.54453 0.516637,1.00528 0.907581,1.38226 0.390943,0.37698 0.865561,0.67002 1.410089,0.87946 0.544527,0.20943 1.158893,0.32127 1.829081,0.32127 0.670188,0 1.284554,-0.11184 1.829082,-0.32127 0.544528,-0.20944 1.019146,-0.50248 1.410089,-0.87946 0.390943,-0.37698 0.698148,-0.83773 0.907582,-1.38226 0.209433,-0.54452 0.307356,-1.14501 0.307356,-1.80124 v -5.65456 c 0,-0.0977 -0.02791,-0.16765 -0.09772,-0.23746 -0.06981,-0.0698 -0.139741,-0.0977 -0.237477,-0.0977 h -2.108314 c -0.09774,0 -0.167665,0.0279 -0.237476,0.0977 -0.06981,0.0698 -0.09772,0.13973 -0.09772,0.23746 v 5.65456 c 0,0.36302 -0.05561,0.65631 -0.167313,0.89366 -0.125661,0.23736 -0.265365,0.43281 -0.432912,0.55847 -0.167547,0.13963 -0.349077,0.23731 -0.544549,0.29316 -0.195472,0.0558 -0.377045,0.0838 -0.53063,0.0838 -0.153584,0 -0.335158,-0.0279 -0.530629,-0.0838 -0.195472,-0.0559 -0.377002,-0.15353 -0.544549,-0.29316 -0.181509,-0.12566 -0.32093,-0.32111 -0.432628,-0.55847 -0.125661,-0.23735 -0.181516,-0.53064 -0.181516,-0.89366 v -5.65456 c 0,-0.0977 -0.02791,-0.16765 -0.09772,-0.23747 -0.06981,-0.0698 -0.139741,-0.0977 -0.237477,-0.0977 z m 54.550607,0 c -0.09774,0 -0.167662,0.0279 -0.237474,0.0977 -0.06981,0.0698 -0.09772,0.13973 -0.09772,0.23746 v 9.536 c 0,0.0977 0.02792,0.16767 0.09772,0.23747 0.06981,0.0698 0.139738,0.0977 0.237474,0.0977 h 2.108319 c 0.09774,0 0.167377,-0.0279 0.237188,-0.0977 0.06981,-0.0698 0.09772,-0.13973 0.09772,-0.23747 v -4.49587 c 0,-0.0977 0.04205,-0.13943 0.125842,-0.15339 0.08377,-0.014 0.153546,0.0279 0.195433,0.0977 l 2.345793,3.78372 c 0.05585,0.0698 0.139457,0.11163 0.237193,0.11163 0.09774,0 0.181669,-0.0418 0.223556,-0.11163 l 2.345512,-3.78372 c 0.05585,-0.0698 0.125578,-0.11168 0.209352,-0.0977 0.08377,0.014 0.125841,0.0557 0.125841,0.15339 v 4.49587 c 0,0.0977 0.02793,0.16767 0.09771,0.23747 0.06981,0.0698 0.139458,0.0977 0.237194,0.0977 h 2.108321 c 0.0977,0 0.16766,-0.0279 0.23747,-0.0977 0.0698,-0.0698 0.0977,-0.13973 0.0977,-0.23747 v -9.536 c 0,-0.0977 -0.0279,-0.16765 -0.0977,-0.23746 -0.0698,-0.0698 -0.13974,-0.0977 -0.23747,-0.0977 h -1.954643 c -0.09774,0 -0.195416,0.028 -0.293152,0.0838 -0.09774,0.0559 -0.181625,0.12561 -0.237474,0.19543 l -2.680706,3.93739 c -0.04189,0.0698 -0.111703,0.11164 -0.181515,0.11164 -0.06981,0 -0.139584,-0.0418 -0.195433,-0.11164 l -2.680705,-3.93739 c -0.04189,-0.0698 -0.12582,-0.13958 -0.223556,-0.19543 -0.09774,-0.0558 -0.195417,-0.0838 -0.293153,-0.0838 z m 12.342534,0 c -0.0977,0 -0.15359,0.0418 -0.18151,0.12555 -0.0279,0.0977 -0.0137,0.18154 0.0281,0.26531 0.57245,0.97736 1.15887,1.9268 1.74528,2.8483 0.57245,0.92151 1.14475,1.85707 1.70324,2.82047 0.0419,0.0698 0.084,0.16749 0.12584,0.29315 0.0279,0.12566 0.0418,0.23746 0.0418,0.33519 v 3.18321 c 0,0.0977 0.0279,0.16767 0.0977,0.23747 0.0698,0.0698 0.13974,0.0977 0.23748,0.0977 h 2.10831 c 0.0977,0 0.16739,-0.0279 0.2372,-0.0977 0.0698,-0.0698 0.0977,-0.13973 0.0977,-0.23747 v -3.19713 c 0,-0.0977 0.0141,-0.19561 0.056,-0.32127 0.0419,-0.12566 0.0837,-0.2233 0.12555,-0.30708 l 3.49057,-5.65484 c 0.0698,-0.12566 0.0978,-0.22333 0.056,-0.29314 -0.0419,-0.0698 -0.11162,-0.0977 -0.20935,-0.0977 h -2.51339 c -0.0977,0 -0.1815,0.028 -0.27924,0.0838 -0.0977,0.0559 -0.18138,0.12557 -0.22327,0.20934 l -1.70352,2.98806 c -0.0419,0.0698 -0.0978,0.11164 -0.1676,0.11164 -0.0698,0 -0.12543,-0.0418 -0.16732,-0.11164 l -1.71744,-2.98806 c -0.0419,-0.0838 -0.11162,-0.1535 -0.20935,-0.20934 -0.0977,-0.0558 -0.19571,-0.0838 -0.29344,-0.0838 z m -42.710573,2.47134 c 0.349056,0 0.670291,0.0697 0.977461,0.20935 0.307169,0.15359 0.572505,0.33504 0.809863,0.57239 0.237359,0.23736 0.418889,0.51657 0.544549,0.8377 0.12566,0.32113 0.195435,0.65624 0.195435,1.0053 0,0.34906 -0.06977,0.68417 -0.195435,1.0053 -0.12566,0.32113 -0.30719,0.60034 -0.544549,0.8377 -0.237358,0.23736 -0.502694,0.43305 -0.809863,0.57268 -0.30717,0.15358 -0.628405,0.22327 -0.977461,0.22327 -0.349056,0 -0.670008,-0.0697 -0.977177,-0.22327 -0.307169,-0.13963 -0.572548,-0.33532 -0.795945,-0.57268 -0.237358,-0.23736 -0.418888,-0.51657 -0.544548,-0.8377 -0.125661,-0.32113 -0.195436,-0.65624 -0.195436,-1.0053 0,-0.34906 0.06977,-0.68417 0.195436,-1.0053 0.12566,-0.32113 0.30719,-0.60034 0.544548,-0.8377 0.223397,-0.23735 0.488776,-0.4188 0.795945,-0.57239 0.307169,-0.13962 0.628121,-0.20935 0.977177,-0.20935 z m 23.261352,0 c 0.349055,0 0.670006,0.0697 0.977176,0.20935 0.30717,0.15359 0.572508,0.33504 0.809866,0.57239 0.237359,0.23736 0.418885,0.51657 0.544545,0.8377 0.12566,0.32113 0.195439,0.65624 0.195439,1.0053 0,0.34906 -0.06978,0.68417 -0.195439,1.0053 -0.12566,0.32113 -0.307186,0.60034 -0.544545,0.8377 -0.237358,0.23736 -0.502696,0.43305 -0.809866,0.57268 -0.30717,0.15358 -0.628121,0.22327 -0.977176,0.22327 -0.349057,0 -0.670292,-0.0697 -0.977461,-0.22327 -0.30717,-0.13963 -0.572549,-0.33532 -0.795945,-0.57268 -0.237358,-0.23736 -0.418888,-0.51657 -0.544548,-0.8377 -0.125661,-0.32113 -0.195436,-0.65624 -0.195436,-1.0053 0,-0.34906 0.06977,-0.68417 0.195436,-1.0053 0.12566,-0.32113 0.30719,-0.60034 0.544548,-0.8377 0.223396,-0.23735 0.488775,-0.4188 0.795945,-0.57239 0.307169,-0.13962 0.628404,-0.20935 0.977461,-0.20935 z m -54.285294,1.78704 c 0.04189,0 0.08367,0.0421 0.125556,0.12584 0.111698,0.26528 0.237372,0.55837 0.363033,0.86554 0.12566,0.32113 0.237458,0.58643 0.335194,0.82378 0.04189,0.0838 0.05581,0.15351 0.01392,0.20936 -0.04189,0.0698 -0.111619,0.0977 -0.209355,0.0977 h -1.242775 c -0.09774,0 -0.167468,-0.0279 -0.209355,-0.0977 -0.04189,-0.0559 -0.04189,-0.12558 0,-0.20936 l 0.697943,-1.68932 c 0.04189,-0.0838 0.08395,-0.12584 0.12584,-0.12584 z" style="font-size:25.4px;line-height:1;font-family:Heavitas;-inkscape-font-specification:Heavitas;letter-spacing:0;word-spacing:0;text-orientation:upright;fill:#fff;fill-opacity:1;stroke-width:.529167;stroke-linecap:round;stroke-linejoin:round;stroke-miterlimit:128"/></svg>