<svg xmlns="http://www.w3.org/2000/svg" xml:space="preserve" width="512" height="512" viewBox="0 0 135.46666 135.46667"><path d="M 33.866666,0 A 33.866665,33.866665 0 0 0 0,33.866666 V 101.6 a 33.866665,33.866665 0 0 0 33.866666,33.86666 H 101.6 A 33.866665,33.866665 0 0 0 135.46666,101.6 V 33.866666 A 33.866665,33.866665 0 0 0 101.6,0 Z" style="fill:#000;fill-opacity:1;stroke-width:4.23333;stroke-linecap:round;stroke-linejoin:round;stroke-miterlimit:128;stroke-opacity:0"/><path d="M 33.866666 8.4666666 C 19.838648 8.4666669 8.4666669 19.838648 8.4666666 33.866666 L 8.4666666 101.6 L 127 101.6 L 127 33.866666 C 127 19.838648 115.62801 8.4666666 101.6 8.4666666 L 33.866666 8.4666666 z M 65.821305 16.933333 C 71.647373 16.946614 77.849438 18.214879 84.012959 21.373889 L 84.05585 21.298958 C 84.639902 20.286782 85.933652 19.939223 86.946113 20.522778 C 87.959274 21.106992 88.306643 22.402323 87.721776 23.415108 L 87.678885 23.490039 C 98.019802 30.17056 103.24821 39.946546 105.29228 49.009928 C 107.42848 58.481741 106.45004 67.00664 103.87118 71.627668 C 103.86918 71.631768 103.86646 71.635971 103.86446 71.640071 C 103.83686 71.689304 103.81174 71.744693 103.78384 71.793033 L 103.77764 71.789416 C 103.49932 72.276246 103.03903 72.632688 102.49814 72.78057 C 101.36866 73.083494 100.20741 72.413119 99.905012 71.283503 C 99.221565 68.732859 98.20218 67.347996 96.980126 66.642443 C 95.758075 65.936893 94.051001 65.747643 91.500357 66.431086 C 90.370899 66.733893 89.209723 66.063563 88.907234 64.93402 C 88.223788 62.383375 87.204916 60.99851 85.982864 60.29296 C 84.760819 59.587411 83.051675 59.397125 80.501028 60.08057 C 79.372243 60.382567 78.21231 59.713096 77.909455 58.584537 C 77.226013 56.033893 76.20662 54.649028 74.984569 53.943477 C 73.90023 53.317432 72.428968 53.10052 70.330073 53.536266 L 59.334362 73.300951 C 61.006042 75.291929 61.370496 78.235045 60.014941 80.588878 L 60.014941 80.589395 L 60.014424 80.589912 L 60.014424 80.590429 L 60.013907 80.590945 L 57.898274 84.257905 L 56.064794 83.199572 L 57.89724 84.257905 L 55.781607 87.925381 C 52.884193 92.943852 46.343596 94.694919 41.325126 91.797496 C 36.306653 88.900083 34.552496 82.360002 37.44991 77.341531 C 38.618725 75.31584 41.2087 74.621324 43.234053 75.790722 L 43.233536 75.791755 L 46.898946 77.907905 L 50.564872 80.024572 L 48.448205 83.691015 C 47.863706 84.703399 46.569292 85.050146 45.556909 84.465644 C 44.544527 83.881145 44.197777 82.586731 44.782279 81.574348 L 41.11687 79.458198 C 39.363738 82.495272 40.404291 86.378684 43.441276 88.132087 C 46.478414 89.885583 50.362188 88.844822 52.115681 85.807681 L 54.232348 82.141238 L 56.349015 78.474279 C 56.93265 77.461812 56.585265 76.167203 55.572835 75.583499 L 55.572318 75.582982 C 54.560966 74.999902 53.268055 75.347413 52.683605 76.358129 L 50.566939 80.025089 L 46.901529 77.908939 L 49.018196 74.242496 L 49.01923 74.240429 C 50.378566 71.889655 53.109362 70.734443 55.668953 71.185835 L 66.665181 51.420117 C 65.993101 49.384546 65.06958 48.219002 63.985241 47.59296 C 62.763191 46.88741 61.054048 46.697127 58.503405 47.38057 C 57.37484 47.682302 56.215322 47.012769 55.912349 45.884537 C 55.228904 43.333893 54.209513 41.949028 52.987463 41.243477 C 51.765414 40.537928 50.05627 40.347127 47.505627 41.03057 C 46.376169 41.333377 45.214993 40.663047 44.912504 39.533504 C 44.22906 36.982857 43.209667 35.597997 41.987617 34.892443 C 40.765571 34.186894 39.058493 33.997642 36.507849 34.681087 C 35.378374 34.984019 34.217117 34.313638 33.914725 33.184021 C 33.797673 32.64446 33.896259 32.080573 34.189127 31.61254 L 34.127632 31.5774 C 36.773447 26.994717 43.726408 21.799173 53.104251 18.879984 C 56.98558 17.671783 61.289917 16.923003 65.821305 16.933333 z M 65.345365 21.144446 C 61.455807 21.195323 57.750743 21.866071 54.361539 22.921081 C 48.766051 24.66288 44.056789 27.585983 41.031087 30.166117 C 42.126629 30.338033 43.158644 30.681368 44.103767 31.227034 C 45.492256 32.028678 46.532402 33.279534 47.353698 34.778239 C 50.397512 31.074097 55.221571 26.911632 60.976122 23.801131 C 62.88936 22.76697 64.922183 21.861942 67.023298 21.161499 C 66.460486 21.142749 65.901015 21.137146 65.345365 21.144446 z M 75.157685 23.896732 C 71.072596 23.995045 66.896086 25.413514 62.988919 27.525451 C 58.330516 30.043456 54.175875 33.597539 51.469726 36.562109 C 52.777797 36.645425 54.008265 36.945666 55.103613 37.578068 C 56.442059 38.35082 57.454688 39.540974 58.261559 40.967525 C 60.867659 37.25557 64.671233 32.702822 68.791149 28.874723 C 70.863168 26.949467 73.001186 25.21722 75.157685 23.896732 z M 81.483397 25.753466 C 80.783574 25.875759 79.979726 26.139053 79.045303 26.585974 C 76.832441 27.64435 74.212918 29.613472 71.671593 31.974792 C 68.036479 35.352431 64.536264 39.540087 62.116104 42.889371 C 63.55648 42.937026 64.907866 43.238467 66.101391 43.927551 C 67.377579 44.664358 68.359417 45.779919 69.148233 47.11857 L 75.5897 35.961629 C 76.174336 34.950721 77.467168 34.604359 78.47893 35.187516 C 79.491106 35.771565 79.838665 37.065318 79.25511 38.077779 L 72.813126 49.235754 C 74.367082 49.24909 75.824312 49.541132 77.100719 50.278067 C 78.294244 50.967151 79.231075 51.986614 79.992532 53.210188 C 81.682526 49.439342 83.557553 44.313582 84.665115 39.47666 C 85.439417 36.095148 85.83527 32.842178 85.645417 30.396594 C 85.56536 29.365328 85.391235 28.538447 85.147773 27.871683 L 83.487409 30.747477 C 82.902371 31.759082 81.608003 32.105103 80.596113 31.520556 C 79.585207 30.935922 79.238848 29.643089 79.822 28.631327 L 81.483397 25.753466 z M 89.919575 32.421276 C 89.854149 34.948774 89.423724 37.665713 88.792512 40.422338 C 87.537288 45.904124 85.496089 51.474427 83.584561 55.587304 C 85.22316 55.572889 86.760765 55.854909 88.099014 56.627551 C 89.194299 57.259913 90.069328 58.175591 90.79549 59.266666 C 92.009807 55.440786 93.010063 50.065758 92.861514 44.77246 C 92.736938 40.33346 91.876824 36.008184 89.919575 32.421276 z M 96.356908 38.097416 C 96.800889 40.267019 97.032297 42.479965 97.093297 44.653605 C 97.276801 51.192433 96.084338 57.451281 94.398371 61.939371 C 96.106274 61.901058 97.707907 62.17546 99.096276 62.977034 C 100.04186 63.522966 100.8563 64.246171 101.55349 65.10972 C 102.27519 61.199278 102.45216 55.658704 101.16282 49.941654 C 100.27043 45.984858 98.737733 41.921604 96.356908 38.097416 z" style="fill:#ff16a8;fill-opacity:1;stroke-width:4.23333;stroke-linecap:round;stroke-linejoin:round;stroke-miterlimit:128;stroke-opacity:0"/><path d="m 92.523396,112.18333 c -0.72604,0 -1.4101,0.13946 -2.05236,0.41871 -0.64226,0.27924 -1.20097,0.65642 -1.67569,1.13113 -0.47471,0.48868 -0.85161,1.04706 -1.13085,1.68933 -0.27925,0.64226 -0.41871,1.32632 -0.41871,2.05235 0,0.72604 0.13946,1.41038 0.41871,2.05264 0.27924,0.64227 0.65614,1.20069 1.13085,1.67541 0.47472,0.48868 1.03343,0.86552 1.67569,1.14477 0.64226,0.27925 1.32632,0.41899 2.05236,0.41899 0.72603,0 1.41009,-0.13974 2.05235,-0.41899 0.64226,-0.27925 1.20093,-0.65609 1.6896,-1.14477 0.47472,-0.47472 0.85161,-1.03314 1.13086,-1.67541 0.27925,-0.64226 0.41899,-1.3266 0.41899,-2.05264 0,-0.72603 -0.13974,-1.41009 -0.41899,-2.05235 -0.27925,-0.64227 -0.65614,-1.20065 -1.13086,-1.68933 -0.48867,-0.47471 -1.04734,-0.85189 -1.6896,-1.13113 -0.64226,-0.27925 -1.32632,-0.41871 -2.05235,-0.41871 z m -44.679125,0.0278 c -0.74,0 -1.43817,0.13974 -2.094396,0.41899 -0.656226,0.27924 -1.214847,0.65614 -1.703526,1.13085 -0.488678,0.47472 -0.879447,1.03315 -1.158692,1.6754 -0.279245,0.64227 -0.418993,1.32661 -0.418993,2.05264 0,0.72604 0.139748,1.4101 0.418993,2.05236 0.279245,0.64226 0.670014,1.20069 1.158692,1.6754 0.488679,0.47472 1.0473,0.85161 1.703526,1.13086 0.656226,0.27924 1.354396,0.41899 2.094396,0.41899 0.600376,0 1.144683,-0.0697 1.633362,-0.20935 0.488678,-0.13963 0.949506,-0.33527 1.354411,-0.5866 0.404905,-0.25132 0.767966,-0.55848 1.089098,-0.92149 0.321131,-0.34906 0.628379,-0.75399 0.893662,-1.18682 0.04189,-0.0838 0.05576,-0.16734 0.02784,-0.25111 -0.02792,-0.0698 -0.08382,-0.12571 -0.167597,-0.1676 l -1.982475,-0.78202 c -0.09774,-0.0419 -0.181541,-0.0419 -0.265315,0 -0.09774,0.0419 -0.167751,0.0978 -0.209638,0.1676 -0.237359,0.39094 -0.572271,0.71197 -0.977176,0.94933 -0.418868,0.25132 -0.879567,0.37724 -1.39617,0.37724 -0.349056,0 -0.68421,-0.07 -0.991379,-0.22356 -0.321132,-0.15359 -0.586425,-0.34895 -0.823783,-0.58631 -0.237358,-0.23735 -0.418888,-0.53077 -0.544549,-0.8519 -0.12566,-0.32113 -0.195435,-0.65596 -0.195435,-1.00502 0,-0.34905 0.06977,-0.68416 0.195435,-1.0053 0.125661,-0.32113 0.307191,-0.61449 0.544549,-0.86581 0.237358,-0.23736 0.502651,-0.43273 0.823783,-0.58632 0.307169,-0.15358 0.642323,-0.22355 0.991379,-0.22355 0.544528,0 1.00527,0.1118 1.38225,0.33519 0.376981,0.23736 0.711894,0.55855 0.977176,0.99138 0.04189,0.0698 0.111904,0.12571 0.209639,0.1676 0.09774,0.0419 0.181498,0.0419 0.279234,0 l 1.982475,-0.78202 c 0.08377,-0.0419 0.139673,-0.0978 0.167597,-0.18152 0.02792,-0.0838 0.01405,-0.16738 -0.02784,-0.23719 -0.265283,-0.43283 -0.558612,-0.8238 -0.879743,-1.18682 -0.321132,-0.34905 -0.684192,-0.65626 -1.089097,-0.90758 -0.404906,-0.25132 -0.85153,-0.44696 -1.340209,-0.58659 -0.488679,-0.13962 -1.047145,-0.20935 -1.661484,-0.20935 z m 29.306772,0.0139 c -0.446792,0 -0.907536,0.042 -1.382253,0.13976 -0.474717,0.0977 -0.907552,0.27907 -1.284528,0.51643 -0.390943,0.25132 -0.712223,0.58643 -0.963544,1.0053 -0.251321,0.41887 -0.376954,0.94963 -0.376954,1.59188 0,0.43283 0.06974,0.80973 0.209357,1.13086 0.125661,0.32113 0.307236,0.60034 0.530632,0.8377 0.223391,0.23736 0.474613,0.4188 0.76782,0.57239 0.279245,0.15358 0.558699,0.2653 0.851907,0.36303 0.293202,0.0977 0.572376,0.18167 0.851615,0.22356 0.265283,0.0558 0.502713,0.0976 0.712147,0.13947 0.209434,0.0419 0.418917,0.0837 0.628351,0.11164 0.209434,0.0279 0.39068,0.07 0.544265,0.11192 0.153584,0.0419 0.265298,0.0975 0.363028,0.16732 0.0977,0.0698 0.13976,0.16777 0.13976,0.29343 0,0.23736 -0.11184,0.40473 -0.321274,0.51643 -0.209433,0.12566 -0.530516,0.18152 -0.935422,0.18152 -0.43283,0 -0.893568,-0.0977 -1.382247,-0.27924 -0.488679,-0.18151 -0.991249,-0.44669 -1.49389,-0.76782 -0.06981,-0.0419 -0.153657,-0.056 -0.251392,-0.042 -0.09774,0.014 -0.167427,0.0699 -0.223276,0.13976 l -1.075176,1.54985 c -0.05585,0.0698 -0.08384,0.15365 -0.06988,0.25139 0.01396,0.0977 0.05603,0.18134 0.125842,0.23719 0.265283,0.20943 0.544407,0.419 0.865539,0.60051 0.30717,0.19547 0.64228,0.36289 1.005299,0.50251 0.363019,0.13962 0.754028,0.25146 1.172896,0.32127 0.418868,0.0838 0.865732,0.12556 1.354411,0.12556 0.600377,0 1.14468,-0.0698 1.63336,-0.19544 0.48868,-0.12566 0.90764,-0.3071 1.25669,-0.57239 0.34906,-0.26528 0.6144,-0.60039 0.80987,-1.00529 0.19547,-0.40491 0.29315,-0.87972 0.29315,-1.43821 0,-0.60038 -0.11175,-1.08899 -0.34911,-1.49389 -0.23736,-0.39094 -0.53041,-0.71222 -0.87946,-0.96354 -0.34906,-0.23736 -0.72623,-0.43281 -1.13114,-0.55847 -0.4049,-0.12566 -0.76792,-0.20942 -1.103014,-0.27923 -0.06981,-0.014 -0.209472,-0.0419 -0.446831,-0.0838 -0.237358,-0.0419 -0.474458,-0.0978 -0.725779,-0.1676 -0.251321,-0.0698 -0.474915,-0.16729 -0.670387,-0.26503 -0.195471,-0.0977 -0.293158,-0.22345 -0.293158,-0.34911 0,-0.12566 0.04178,-0.23755 0.125556,-0.30736 0.06981,-0.0698 0.167778,-0.12542 0.293439,-0.16731 0.12566,-0.0279 0.251249,-0.042 0.390872,-0.056 h 0.349111 c 0.349057,0 0.72595,0.0559 1.130855,0.18152 0.404906,0.12566 0.851576,0.34905 1.326286,0.64226 0.0698,0.0559 0.15366,0.0699 0.2514,0.056 0.0977,-0.014 0.1677,-0.0699 0.22355,-0.13976 l 1.08882,-1.54984 c 0.0558,-0.0698 0.0838,-0.15367 0.0699,-0.2514 -0.014,-0.0977 -0.0557,-0.16738 -0.12556,-0.2372 -0.57245,-0.43283 -1.15878,-0.76794 -1.77312,-1.00529 -0.6283,-0.2234 -1.326423,-0.3352 -2.10831,-0.3352 z m -45.558864,0.1398 c -0.09774,0 -0.167666,0.0279 -0.237477,0.0977 -0.06981,0.0698 -0.09772,0.13945 -0.09772,0.23719 v 9.55019 c 0,0.0977 0.02791,0.16767 0.09772,0.23748 0.06981,0.0698 0.139741,0.0977 0.237477,0.0977 h 2.080192 c 0.09774,0 0.167666,-0.0279 0.237477,-0.0977 0.06981,-0.0698 0.09772,-0.13974 0.09772,-0.23748 v -4.99837 c 0,-0.0977 0.02791,-0.15363 0.09772,-0.16759 0.05585,-0.014 0.111749,0.0279 0.167598,0.0977 l 3.644243,5.12422 c 0.05585,0.0698 0.139457,0.13958 0.237193,0.19543 0.09774,0.0559 0.195417,0.0838 0.293152,0.0838 h 2.066558 c 0.09774,0 0.167381,-0.0279 0.237193,-0.0977 0.06981,-0.0698 0.09772,-0.13974 0.09772,-0.23748 v -9.55019 c 0,-0.0977 -0.02791,-0.16738 -0.09772,-0.23719 -0.06981,-0.0698 -0.139457,-0.0977 -0.237193,-0.0977 h -2.066558 c -0.09774,0 -0.167381,0.0279 -0.237192,0.0977 -0.06981,0.0698 -0.09772,0.13945 -0.09772,0.23719 v 4.99865 c 0,0.0977 -0.02795,0.13943 -0.0838,0.1534 -0.06981,0.014 -0.125668,-0.0279 -0.181517,-0.0977 l -3.630324,-5.12393 c -0.05585,-0.0698 -0.139457,-0.13987 -0.237192,-0.19572 -0.09774,-0.0419 -0.195701,-0.0696 -0.293437,-0.0696 z m 22.590956,0 c -0.09774,0 -0.181628,0.0279 -0.237477,0.0977 -0.06981,0.0698 -0.09772,0.13945 -0.09772,0.23719 v 9.55019 c 0,0.0977 0.02791,0.16767 0.09772,0.23748 0.05585,0.0698 0.139741,0.0977 0.237477,0.0977 h 6.966926 c 0.09774,0 0.167668,-0.0279 0.23748,-0.0977 0.06981,-0.0698 0.09771,-0.13974 0.09771,-0.23748 v -1.89867 c 0,-0.0977 -0.02792,-0.16767 -0.09771,-0.23748 -0.06981,-0.0698 -0.139744,-0.0977 -0.23748,-0.0977 h -4.202426 c -0.09774,0 -0.181625,-0.0279 -0.237474,-0.0977 -0.06981,-0.0698 -0.09772,-0.13974 -0.09772,-0.23747 v -6.98113 c 0,-0.0977 -0.02793,-0.16738 -0.09772,-0.23719 -0.06981,-0.0698 -0.139738,-0.0977 -0.237474,-0.0977 z m 45.419101,0 c -0.0977,0 -0.16766,0.0279 -0.23747,0.0977 -0.0698,0.0698 -0.0977,0.13945 -0.0977,0.23719 v 9.55019 c 0,0.0977 0.0279,0.16767 0.0977,0.23748 0.0698,0.0698 0.13974,0.0977 0.23747,0.0977 h 2.080484 c 0.0977,0 0.16738,-0.0279 0.23719,-0.0977 0.0698,-0.0698 0.0977,-0.13974 0.0977,-0.23748 v -4.99837 c 0,-0.0977 0.0279,-0.15363 0.0977,-0.16759 0.0558,-0.014 0.11175,0.0279 0.1676,0.0977 l 3.64424,5.12422 c 0.0559,0.0698 0.13946,0.13958 0.23719,0.19543 0.0977,0.0559 0.1957,0.0838 0.29344,0.0838 h 2.06627 c 0.0977,0 0.16767,-0.0279 0.23748,-0.0977 0.0698,-0.0698 0.0977,-0.13974 0.0977,-0.23748 v -9.55019 c 0,-0.0977 -0.0279,-0.16738 -0.0977,-0.23719 -0.0698,-0.0698 -0.13974,-0.0977 -0.23748,-0.0977 h -2.06627 c -0.0977,0 -0.16767,0.0279 -0.23748,0.0977 -0.0698,0.0698 -0.0977,0.13945 -0.0977,0.23719 v 4.99865 c 0,0.0977 -0.0279,0.13943 -0.0838,0.1534 -0.0698,0.014 -0.12567,-0.0279 -0.18152,-0.0977 l -3.63004,-5.12393 c -0.0559,-0.0698 -0.13974,-0.13987 -0.23748,-0.19572 -0.0977,-0.0419 -0.19541,-0.0696 -0.29315,-0.0696 z m -72.659599,0.0139 c -0.09774,0 -0.181628,0.0279 -0.237477,0.0977 -0.06981,0.0698 -0.09772,0.13974 -0.09772,0.23748 v 9.53599 c 0,0.0977 0.02791,0.16767 0.09772,0.23748 0.05585,0.0698 0.139741,0.0977 0.237477,0.0977 h 2.108315 c 0.09774,0 0.167665,-0.0279 0.237477,-0.0977 0.06981,-0.0698 0.09772,-0.13974 0.09772,-0.23748 v -9.53598 c 0,-0.0977 -0.02791,-0.16767 -0.09772,-0.23748 -0.06981,-0.0698 -0.139742,-0.0977 -0.237477,-0.0977 z m 35.841069,0 c -0.09774,0 -0.167382,0.0279 -0.237193,0.0977 -0.06981,0.0698 -0.09771,0.13974 -0.09771,0.23748 v 5.65456 c 0,0.65622 0.111555,1.25671 0.320989,1.80124 0.209434,0.54453 0.516637,1.00527 0.90758,1.38225 0.390943,0.37698 0.865561,0.67003 1.410089,0.87946 0.544528,0.20943 1.158895,0.32127 1.829084,0.32127 0.670188,0 1.28455,-0.11184 1.829078,-0.32127 0.544528,-0.20943 1.019146,-0.50248 1.41009,-0.87946 0.390943,-0.37698 0.698146,-0.83772 0.907579,-1.38225 0.209434,-0.54453 0.307357,-1.14502 0.307357,-1.80124 v -5.65455 c 0,-0.0977 -0.02792,-0.16767 -0.09772,-0.23748 -0.06981,-0.0698 -0.139738,-0.0977 -0.237474,-0.0977 h -2.108318 c -0.09773,0 -0.167663,0.0279 -0.237474,0.0977 -0.06981,0.0698 -0.09772,0.13974 -0.09772,0.23748 v 5.65456 c 0,0.36301 -0.05561,0.6563 -0.167311,0.89366 -0.12566,0.23736 -0.265365,0.4328 -0.432913,0.55846 -0.167547,0.13963 -0.349078,0.23731 -0.54455,0.29316 -0.195471,0.0559 -0.377041,0.0838 -0.530626,0.0838 -0.153585,0 -0.33516,-0.0279 -0.530632,-0.0838 -0.195472,-0.0558 -0.377003,-0.15353 -0.54455,-0.29316 -0.181509,-0.12566 -0.320929,-0.3211 -0.432627,-0.55846 -0.12566,-0.23736 -0.181515,-0.53065 -0.181515,-0.89366 v -5.65456 c 0,-0.0977 -0.02792,-0.16767 -0.09772,-0.23748 -0.06981,-0.0698 -0.139738,-0.0977 -0.237474,-0.0977 z m 20.60848,0 c -0.0977,0 -0.18163,0.0279 -0.23748,0.0977 -0.0698,0.0698 -0.0977,0.13974 -0.0977,0.23748 v 9.53599 c 0,0.0977 0.0279,0.16767 0.0977,0.23748 0.0559,0.0698 0.13975,0.0977 0.23748,0.0977 h 2.10832 c 0.0977,0 0.16738,-0.0279 0.23719,-0.0977 0.0698,-0.0698 0.0977,-0.13974 0.0977,-0.23748 v -9.53598 c 0,-0.0977 -0.0279,-0.16767 -0.0977,-0.23748 -0.0698,-0.0698 -0.13946,-0.0977 -0.23719,-0.0977 z m 9.13121,2.47135 c 0.34905,0 0.67028,0.0697 0.97745,0.20936 0.30717,0.15358 0.57223,0.33503 0.80958,0.57238 0.23736,0.23736 0.41889,0.51658 0.54455,0.83771 0.12567,0.32113 0.19544,0.65624 0.19544,1.00529 0,0.34906 -0.0698,0.68417 -0.19544,1.0053 -0.12566,0.32113 -0.30719,0.60034 -0.54455,0.8377 -0.23735,0.23736 -0.50241,0.43305 -0.80958,0.57268 -0.30717,0.15358 -0.6284,0.22327 -0.97745,0.22327 -0.34906,0 -0.6703,-0.0697 -0.97747,-0.22327 -0.30717,-0.13963 -0.57226,-0.33532 -0.79566,-0.57268 -0.23736,-0.23736 -0.41888,-0.51657 -0.54454,-0.8377 -0.12566,-0.32113 -0.19544,-0.65624 -0.19544,-1.0053 0,-0.34905 0.0698,-0.68416 0.19544,-1.00529 0.12566,-0.32113 0.30718,-0.60035 0.54454,-0.83771 0.2234,-0.23735 0.48849,-0.4188 0.79566,-0.57238 0.30717,-0.13962 0.62841,-0.20936 0.97747,-0.20936 z" style="font-size:25.4px;line-height:1;font-family:Heavitas;-inkscape-font-specification:Heavitas;letter-spacing:0;word-spacing:0;text-orientation:upright;display:inline;fill:#fff;fill-opacity:1;stroke:none;stroke-width:4.23333;stroke-linejoin:round;stroke-miterlimit:128;paint-order:stroke fill markers"/></svg>