<svg xmlns="http://www.w3.org/2000/svg" xml:space="preserve" width="512" height="512" viewBox="0 0 135.46666 135.46667"><path d="M 33.866666,0 A 33.866665,33.866665 0 0 0 0,33.866666 V 101.6 a 33.866665,33.866665 0 0 0 33.866666,33.86666 H 101.6 A 33.866665,33.866665 0 0 0 135.46666,101.6 V 33.866666 A 33.866665,33.866665 0 0 0 101.6,0 Z" style="fill:#000;fill-opacity:1;stroke-width:4.23333;stroke-linecap:round;stroke-linejoin:round;stroke-miterlimit:128;stroke-opacity:0" transform="translate(0.16338715)"/><path d="M 33.866577 8.4666666 C 19.838559 8.4666669 8.4665772 19.838648 8.4665769 33.866666 L 8.4665769 101.6 L 126.99991 101.6 L 126.99991 33.866666 C 126.99991 19.838648 115.62793 8.4666666 101.59991 8.4666666 L 33.866577 8.4666666 z M 67.073852 14.380001 C 67.75105 14.380236 68.387256 14.704485 68.785375 15.252299 L 68.785892 15.251782 L 74.636181 23.293668 C 75.41646 23.118627 76.208653 22.994716 77.008646 22.937618 C 80.071141 22.719036 83.226007 23.378549 86.074759 25.023279 C 89.668637 27.098205 92.14689 30.380179 93.29809 34.066137 L 103.15072 35.108451 C 103.16054 35.109416 103.17037 35.110449 103.18017 35.111551 C 104.2567 35.225461 105.07378 36.133283 105.07412 37.215816 C 105.07412 38.384814 104.12645 39.332479 102.95745 39.332482 C 102.88332 39.331029 102.80933 39.325682 102.73576 39.316463 L 102.73524 39.32008 L 94.023111 38.398689 C 94.104195 41.244402 93.427496 44.143885 91.904894 46.781123 L 91.904894 46.78164 L 91.904894 46.782157 L 91.904894 46.782674 L 91.904894 46.78319 C 90.880764 48.55652 89.530317 50.096482 87.944929 51.340018 C 93.002261 55.006788 96.129894 62.477594 96.862214 70.847871 C 97.38851 76.863613 96.538424 82.447519 94.603954 86.781265 C 92.669484 91.115015 89.467673 94.414561 85.275841 94.781294 C 82.083551 95.060147 79.061899 93.508115 76.670682 90.990311 C 74.890595 89.115987 73.384151 86.680032 72.209972 83.807803 C 66.307865 87.155358 59.581316 87.894242 53.804894 85.149323 L 50.018045 91.70913 C 49.432946 92.721453 48.137864 93.067611 47.125715 92.482209 C 46.114444 91.897345 45.768211 90.60377 46.352119 89.591946 L 50.228885 82.876594 C 45.509533 78.987325 43.181016 72.836302 43.368322 66.215596 C 39.820618 66.847298 36.517802 66.836029 33.666589 66.154101 C 30.281796 65.344556 27.419063 63.503315 26.061368 60.593717 C 24.283035 56.780119 25.538895 52.357558 28.324796 48.515384 C 31.110698 44.67321 35.523953 41.145595 40.996891 38.593509 C 45.008055 36.72308 49.135218 35.551809 52.977038 35.234541 C 56.429867 34.949401 59.650571 35.356618 62.350626 36.562626 C 62.634227 34.568492 63.292331 32.629337 64.315364 30.855481 L 64.315364 30.853414 C 65.838086 28.215977 68.011888 26.181169 70.517569 24.828458 L 65.361811 17.742069 L 65.366462 17.738969 C 65.102304 17.378462 64.959035 16.943592 64.957185 16.496667 C 64.957185 15.327666 65.90485 14.38 67.073852 14.380001 z M 77.853555 27.113073 C 73.907992 27.196982 70.111367 29.284735 67.983357 32.96853 L 67.98129 32.970597 C 66.951189 34.757617 66.421552 36.773923 66.422212 38.812101 C 67.512593 38.671675 68.603645 38.617285 69.686095 38.662239 C 72.469919 38.777853 75.198306 39.522629 77.709895 40.972692 C 80.812415 42.763935 83.143097 45.379647 84.685696 48.485412 C 86.132526 47.502844 87.351693 46.202362 88.238968 44.666007 C 91.48098 39.050675 89.572904 31.931216 83.957575 28.689205 C 82.027587 27.574927 79.920279 27.069121 77.853555 27.113073 z M 55.659561 39.506632 C 51.904174 39.417773 47.264892 40.340883 42.785929 42.429451 C 37.888962 44.712956 34.001793 47.899935 31.752494 51.002054 C 29.503194 54.104173 28.989185 56.857223 29.89731 58.804679 C 30.583832 60.275926 32.120304 61.431764 34.651025 62.037039 C 37.061862 62.613644 40.279231 62.592784 43.859248 61.800361 C 44.466767 58.645177 45.627575 55.475151 47.35981 52.474833 C 50.615935 46.835056 55.397743 42.642455 60.597761 40.425956 C 59.277272 39.867815 57.587292 39.552245 55.659561 39.506632 z M 69.389473 42.912109 C 66.57502 42.822416 63.623763 43.548005 60.81997 44.998286 L 73.106041 52.089843 C 74.118553 52.674765 74.464953 53.969889 73.879638 54.982173 C 73.294759 55.993754 72.000797 56.340029 70.988858 55.755769 L 56.881709 47.61208 C 55.051749 49.123047 53.363578 50.975773 51.920772 53.150243 L 80.054971 69.392146 C 81.313871 66.859293 82.105812 64.266391 82.464643 61.739383 C 81.950821 61.853688 81.41284 61.772439 80.955691 61.51149 L 76.969372 59.208788 C 75.957538 58.624455 75.610578 57.330755 76.194225 56.318526 C 76.474839 55.832262 76.937144 55.477402 77.479418 55.332022 C 78.021884 55.186273 78.60004 55.262121 79.086555 55.542862 L 82.669282 57.612503 C 82.409116 51.996975 79.909628 47.130993 75.592711 44.638618 C 73.70029 43.546033 71.586555 42.982129 69.389473 42.912109 z M 86.796679 55.998132 C 87.350813 61.483196 86.085609 67.527202 82.922496 73.005879 C 81.005133 76.326847 78.559675 79.149101 75.810786 81.360924 C 76.876116 84.216519 78.264819 86.522182 79.740779 88.076277 C 81.52746 89.957542 83.294804 90.705497 84.908938 90.564497 C 87.048924 90.376347 89.177649 88.554838 90.739073 85.056823 C 92.300937 81.557811 93.114262 76.599485 92.64335 71.216841 C 92.077854 64.753323 89.634951 59.058836 86.796679 55.998132 z M 49.86405 56.85131 C 48.767968 59.242806 48.080606 61.675789 47.775805 64.046219 L 51.627766 66.271406 C 52.639911 66.855754 52.986913 68.149841 52.402913 69.162186 C 51.818522 70.17526 50.523273 70.522388 49.510583 69.937332 L 47.684338 68.8821 C 48.182553 74.066418 50.634681 78.502242 54.690112 80.843643 C 58.745362 83.184945 63.812728 83.090958 68.551281 80.93046 L 55.491096 73.390868 C 54.478275 72.805932 54.131833 71.510421 54.7175 70.498022 C 55.302379 69.48644 56.59634 69.140165 57.60828 69.724425 L 72.290587 78.202461 C 72.372359 78.151942 72.457479 78.107052 72.545352 78.068102 C 72.773826 78.00739 73.010856 77.985381 73.246601 78.00299 C 74.937677 76.631134 76.506982 74.962231 77.881977 73.025516 L 49.86405 56.85131 z" style="fill:#2976ff;fill-opacity:1;stroke-width:4.23333;stroke-linecap:round;stroke-linejoin:round;stroke-miterlimit:128;stroke-opacity:0" transform="translate(0.16338715)"/><path d="m 26.789062,112.18333 c -0.726037,0 -1.410375,0.13946 -2.052639,0.41871 -0.642263,0.27924 -1.200686,0.65642 -1.675403,1.13114 -0.474716,0.48868 -0.85161,1.04706 -1.130855,1.68932 -0.279244,0.64226 -0.418992,1.32632 -0.418992,2.05236 0,0.72603 0.139748,1.41037 0.418992,2.05263 0.279245,0.64227 0.656139,1.20069 1.130855,1.67541 0.474717,0.48868 1.03314,0.86552 1.675403,1.14477 0.642264,0.27924 1.326602,0.41899 2.052639,0.41899 0.726037,0 1.410092,-0.13975 2.052355,-0.41899 0.642264,-0.27925 1.200928,-0.65609 1.689607,-1.14477 0.474716,-0.47472 0.851609,-1.03314 1.130854,-1.67541 0.279245,-0.64226 0.418709,-1.3266 0.418709,-2.05263 0,-0.72604 -0.139464,-1.4101 -0.418709,-2.05236 -0.279245,-0.64226 -0.656138,-1.20064 -1.130854,-1.68932 -0.488679,-0.47472 -1.047343,-0.8519 -1.689607,-1.13114 -0.642263,-0.27925 -1.326318,-0.41871 -2.052355,-0.41871 z m 70.830531,0 c -0.726038,0 -1.41009,0.13946 -2.052354,0.41871 -0.642264,0.27924 -1.200969,0.65642 -1.675686,1.13114 -0.474717,0.48868 -0.85161,1.04706 -1.130855,1.68932 -0.279246,0.64226 -0.418995,1.32632 -0.418995,2.05236 0,0.72603 0.139749,1.41037 0.418995,2.05263 0.279245,0.64227 0.656138,1.20069 1.130855,1.67541 0.474717,0.48868 1.033422,0.86552 1.675686,1.14477 0.642264,0.27924 1.326316,0.41899 2.052354,0.41899 0.726037,0 1.410095,-0.13975 2.052353,-0.41899 0.642264,-0.27925 1.200934,-0.65609 1.689614,-1.14477 0.47471,-0.47472 0.85161,-1.03314 1.13085,-1.67541 0.27925,-0.64226 0.41871,-1.3266 0.41871,-2.05263 0,-0.72604 -0.13946,-1.4101 -0.41871,-2.05236 -0.27924,-0.64226 -0.65614,-1.20064 -1.13085,-1.68932 -0.48868,-0.47472 -1.04735,-0.8519 -1.689614,-1.13114 -0.642258,-0.27925 -1.326316,-0.41871 -2.052353,-0.41871 z m -36.064633,0.0139 c -0.739999,0 -1.438171,0.13946 -2.094396,0.41871 -0.656226,0.27924 -1.214563,0.65642 -1.703242,1.13114 -0.488679,0.48868 -0.879732,1.04706 -1.158977,1.68932 -0.293207,0.64226 -0.432627,1.3266 -0.432627,2.05264 0,0.72604 0.13942,1.41009 0.432627,2.05235 0.279245,0.64227 0.670298,1.20069 1.158977,1.67541 0.488679,0.47471 1.047016,0.8516 1.703242,1.13085 0.656225,0.27925 1.354397,0.41899 2.094396,0.41899 0.68415,0 1.326422,-0.11175 1.926799,-0.34911 0.600377,-0.22339 1.145011,-0.53051 1.619727,-0.93542 0.460754,-0.4049 0.851567,-0.87976 1.144774,-1.42429 0.293207,-0.54453 0.474737,-1.14478 0.544548,-1.78704 0.02792,-0.23736 0.04204,-0.47479 0.04204,-0.71215 0,-0.22339 -0.01416,-0.4188 -0.02812,-0.57238 -0.01396,-0.0977 -0.04183,-0.18159 -0.111638,-0.2514 -0.06981,-0.0558 -0.153659,-0.0838 -0.251395,-0.0838 H 61.63876 c -0.09774,0 -0.167382,0.0279 -0.237193,0.0977 -0.06981,0.0698 -0.09772,0.13974 -0.09772,0.23748 v 1.66148 c 0,0.0977 0.02791,0.16767 0.09772,0.23748 0.06981,0.0698 0.139457,0.0977 0.237193,0.0977 h 1.605808 c 0.09774,0 0.153548,0.028 0.195435,0.0838 0.04189,0.0698 0.02797,0.13954 -0.01392,0.20935 -0.209434,0.29321 -0.474726,0.51661 -0.823783,0.64227 -0.349056,0.12566 -0.698283,0.19544 -1.04734,0.19544 -0.349056,0 -0.68421,-0.0697 -0.991379,-0.22328 -0.321132,-0.13962 -0.586425,-0.33531 -0.823783,-0.57267 -0.237358,-0.23736 -0.418604,-0.50265 -0.544264,-0.82378 -0.139623,-0.32113 -0.209639,-0.65596 -0.209639,-1.00502 0,-0.34905 0.07002,-0.68416 0.209639,-1.00529 0.12566,-0.32114 0.306906,-0.60063 0.544264,-0.83799 0.237358,-0.23736 0.502651,-0.43272 0.823783,-0.58631 0.307169,-0.13962 0.642323,-0.20935 0.991379,-0.20935 0.488679,0 0.921515,0.11156 1.284533,0.32099 0.349056,0.20943 0.670335,0.50285 0.963542,0.85191 0.06981,0.0698 0.139457,0.11159 0.237192,0.12555 0.09774,0.014 0.181585,-1.5e-4 0.251396,-0.042 l 1.675404,-1.07489 c 0.06981,-0.0419 0.125753,-0.12582 0.153677,-0.22356 0.01396,-0.0977 -1.54e-4,-0.1813 -0.04204,-0.25111 -0.474717,-0.74 -1.089039,-1.3125 -1.843001,-1.73137 -0.767923,-0.41886 -1.661458,-0.62834 -2.680702,-0.62834 z m -27.700968,0.1676 c -0.09774,0 -0.167666,0.0279 -0.237476,0.0977 -0.06981,0.0698 -0.09772,0.13945 -0.09772,0.23719 v 9.5502 c 0,0.0977 0.02791,0.16766 0.09772,0.23747 0.06981,0.0698 0.13974,0.0977 0.237476,0.0977 h 4.425985 c 0.460755,0 0.907379,-0.0559 1.340209,-0.15368 0.418868,-0.0977 0.796088,-0.26515 1.117219,-0.50251 0.321133,-0.23735 0.58627,-0.54443 0.781742,-0.94933 0.181509,-0.39095 0.279234,-0.8938 0.279234,-1.49417 0,-0.29321 -0.04183,-0.55831 -0.111637,-0.79566 -0.08377,-0.23736 -0.181412,-0.43292 -0.307072,-0.61443 -0.12566,-0.18151 -0.265408,-0.32117 -0.418993,-0.44683 -0.153584,-0.12566 -0.293246,-0.2233 -0.446831,-0.30708 -0.181509,-0.0977 -0.195385,-0.19561 -0.02784,-0.32127 0.237358,-0.18151 0.47459,-0.4189 0.684024,-0.72607 0.209433,-0.30717 0.307356,-0.67023 0.307356,-1.08909 0,-0.51661 -0.09773,-0.96328 -0.279235,-1.32629 -0.195471,-0.34906 -0.447017,-0.64215 -0.754187,-0.86554 -0.321131,-0.2234 -0.683908,-0.39114 -1.088813,-0.48888 -0.404905,-0.0977 -0.837741,-0.13947 -1.284533,-0.13947 z m 9.773471,0 c -0.09774,0 -0.181628,0.0279 -0.237477,0.0977 -0.06981,0.0698 -0.09772,0.13945 -0.09772,0.23719 v 9.5502 c 0,0.0977 0.02791,0.16766 0.09772,0.23747 0.05585,0.0698 0.139741,0.0977 0.237477,0.0977 h 6.967212 c 0.09774,0 0.167665,-0.0279 0.237476,-0.0977 0.06981,-0.0698 0.09772,-0.13974 0.09772,-0.23747 v -1.89868 c 0,-0.0977 -0.02791,-0.16767 -0.09772,-0.23748 -0.06981,-0.0698 -0.139741,-0.0977 -0.237476,-0.0977 h -4.202712 c -0.09774,0 -0.181343,-0.0279 -0.237192,-0.0977 -0.06981,-0.0698 -0.09772,-0.13974 -0.09772,-0.23747 v -6.98113 c 0,-0.0977 -0.02819,-0.16739 -0.098,-0.2372 -0.06981,-0.0698 -0.139457,-0.0977 -0.237192,-0.0977 z m 35.631721,0 c -0.09774,0 -0.167663,0.0279 -0.237474,0.0977 -0.06981,0.0698 -0.09772,0.13945 -0.09772,0.23719 v 1.89896 c 0,0.0977 0.02792,0.16767 0.09772,0.23748 0.06981,0.0698 0.139738,0.0977 0.237474,0.0977 h 1.982762 c 0.09774,0 0.181301,0.0279 0.251112,0.0977 0.05584,0.0698 0.0838,0.13945 0.0838,0.23719 v 6.98113 c 0,0.0977 0.02792,0.16766 0.09772,0.23748 0.06981,0.0698 0.139738,0.0977 0.237474,0.0977 h 2.0944 c 0.09774,0 0.1813,-0.0279 0.251112,-0.0977 0.05585,-0.0698 0.0838,-0.13974 0.0838,-0.23748 v -6.98113 c 0,-0.0977 0.02792,-0.16738 0.09772,-0.23719 0.06981,-0.0698 0.139738,-0.0977 0.237474,-0.0977 h 1.95464 c 0.09774,0 0.181581,-0.0279 0.251392,-0.0977 0.05585,-0.0698 0.0838,-0.13974 0.0838,-0.23748 v -1.89896 c 0,-0.0977 -0.02792,-0.16738 -0.0838,-0.23719 -0.06981,-0.0698 -0.153656,-0.0977 -0.251392,-0.0977 z m 25.439256,0 c -0.0977,0 -0.16766,0.0279 -0.23748,0.0977 -0.0698,0.0698 -0.0977,0.13945 -0.0977,0.23719 v 9.5502 c 0,0.0977 0.0279,0.16766 0.0977,0.23747 0.0698,0.0698 0.13975,0.0977 0.23748,0.0977 h 2.08048 c 0.0977,0 0.16738,-0.0279 0.23719,-0.0977 0.0698,-0.0698 0.0977,-0.13974 0.0977,-0.23747 v -4.99838 c 0,-0.0977 0.0279,-0.15363 0.0977,-0.16759 0.0559,-0.014 0.11175,0.0279 0.1676,0.0977 l 3.64424,5.12421 c 0.0558,0.0698 0.13946,0.13958 0.2372,0.19543 0.0977,0.0559 0.1957,0.0838 0.29344,0.0838 h 2.06627 c 0.0977,0 0.16767,-0.0279 0.23748,-0.0977 0.0698,-0.0698 0.0977,-0.13974 0.0977,-0.23747 v -9.5502 c 0,-0.0977 -0.0279,-0.16738 -0.0977,-0.23719 -0.0698,-0.0698 -0.13975,-0.0977 -0.23748,-0.0977 h -2.06627 c -0.0977,0 -0.16767,0.0279 -0.23748,0.0977 -0.0698,0.0698 -0.0977,0.13945 -0.0977,0.23719 v 4.99866 c 0,0.0977 -0.0279,0.13943 -0.0838,0.15339 -0.0698,0.014 -0.12567,-0.0279 -0.18152,-0.0977 l -3.63032,-5.12393 c -0.0558,-0.0698 -0.13946,-0.13987 -0.2372,-0.19572 -0.0977,-0.0419 -0.19541,-0.0696 -0.29315,-0.0696 z m -52.358483,0.0139 c -0.09774,0 -0.181627,0.0279 -0.237476,0.0977 -0.06981,0.0698 -0.09772,0.13974 -0.09772,0.23747 v 9.536 c 0,0.0977 0.02791,0.16766 0.09772,0.23747 0.05585,0.0698 0.139741,0.0977 0.237476,0.0977 h 2.108316 c 0.09774,0 0.167381,-0.0279 0.237192,-0.0977 0.06981,-0.0698 0.098,-0.13974 0.098,-0.23747 v -9.536 c 0,-0.0977 -0.02819,-0.16766 -0.098,-0.23747 -0.06981,-0.0698 -0.139456,-0.0977 -0.237192,-0.0977 z m 19.547225,0 c -0.09774,0 -0.195461,0.028 -0.279234,0.0838 -0.09774,0.0698 -0.153548,0.1395 -0.195435,0.22327 l -4.049034,9.45248 c -0.04189,0.0698 -0.056,0.13958 -0.04204,0.19543 0.01396,0.0558 0.02799,0.0979 0.06988,0.13976 0.02792,0.0419 0.06971,0.0698 0.125556,0.0838 0.04189,0.014 0.09787,0.0278 0.139759,0.0278 h 2.401468 c 0.09774,0 0.181498,-0.0279 0.279234,-0.0977 0.08377,-0.0558 0.139629,-0.12557 0.181516,-0.20935 l 0.390871,-0.8377 c 0.04189,-0.0838 0.0977,-0.15375 0.195435,-0.22356 0.08377,-0.0559 0.181498,-0.0838 0.279234,-0.0838 h 2.946017 c 0.09774,0 0.181498,0.0279 0.279234,0.0838 0.08377,0.0698 0.153833,0.13978 0.19572,0.22356 l 0.376951,0.8377 c 0.04189,0.0838 0.111618,0.1535 0.209354,0.20935 0.08377,0.0698 0.181499,0.0977 0.279234,0.0977 h 2.387551 c 0.153585,0 0.251222,-0.042 0.307071,-0.13976 0.04189,-0.0977 0.0558,-0.18125 0.01391,-0.26503 l -4.076871,-9.49452 c -0.04189,-0.0838 -0.09774,-0.15346 -0.181517,-0.22327 -0.09774,-0.0559 -0.181497,-0.0838 -0.279233,-0.0838 z m 16.600926,0 c -0.09774,0 -0.181345,0.0279 -0.237194,0.0977 -0.06981,0.0698 -0.09772,0.13974 -0.09772,0.23747 v 9.536 c 0,0.0977 0.02792,0.16766 0.09772,0.23747 0.05585,0.0698 0.139458,0.0977 0.237194,0.0977 h 2.108312 c 0.09774,0 0.167668,-0.0279 0.23748,-0.0977 0.06981,-0.0698 0.09771,-0.13974 0.09771,-0.23747 v -9.536 c 0,-0.0977 -0.02792,-0.16766 -0.09771,-0.23747 -0.06981,-0.0698 -0.139744,-0.0977 -0.23748,-0.0977 z m -61.699046,2.47134 c 0.349057,0 0.670008,0.0697 0.977177,0.20936 0.30717,0.15358 0.572505,0.33503 0.809864,0.57238 0.237358,0.23736 0.418888,0.51657 0.544548,0.83771 0.125661,0.32113 0.195436,0.65624 0.195436,1.00529 0,0.34906 -0.06977,0.68417 -0.195436,1.0053 -0.12566,0.32114 -0.30719,0.60035 -0.544548,0.83771 -0.237359,0.23735 -0.502694,0.43304 -0.809864,0.57267 -0.307169,0.15358 -0.62812,0.22327 -0.977177,0.22327 -0.349056,0 -0.670291,-0.0697 -0.97746,-0.22327 -0.30717,-0.13963 -0.572549,-0.33532 -0.795945,-0.57267 -0.237358,-0.23736 -0.418604,-0.51657 -0.544264,-0.83771 -0.125661,-0.32113 -0.19572,-0.65624 -0.19572,-1.0053 0,-0.34905 0.07006,-0.68416 0.19572,-1.00529 0.12566,-0.32114 0.306906,-0.60035 0.544264,-0.83771 0.223396,-0.23735 0.488775,-0.4188 0.795945,-0.57238 0.307169,-0.13963 0.628404,-0.20936 0.97746,-0.20936 z m 70.830531,0 c 0.349056,0 0.670293,0.0697 0.977462,0.20936 0.30717,0.15358 0.572222,0.33503 0.809581,0.57238 0.237358,0.23736 0.418884,0.51657 0.544544,0.83771 0.12566,0.32113 0.19544,0.65624 0.19544,1.00529 0,0.34906 -0.0698,0.68417 -0.19544,1.0053 -0.12566,0.32114 -0.307186,0.60035 -0.544544,0.83771 -0.237359,0.23735 -0.502411,0.43304 -0.809581,0.57267 -0.307169,0.15358 -0.628406,0.22327 -0.977462,0.22327 -0.349057,0 -0.670288,-0.0697 -0.977458,-0.22327 -0.30717,-0.13963 -0.572266,-0.33532 -0.795662,-0.57267 -0.237358,-0.23736 -0.41889,-0.51657 -0.54455,-0.83771 -0.125661,-0.32113 -0.195433,-0.65624 -0.195433,-1.0053 0,-0.34905 0.06977,-0.68416 0.195433,-1.00529 0.12566,-0.32114 0.307192,-0.60035 0.54455,-0.83771 0.223396,-0.23735 0.488492,-0.4188 0.795662,-0.57238 0.30717,-0.13963 0.628401,-0.20936 0.977458,-0.20936 z m -61.0011,0.0838 h 1.326289 c 0.125661,0 0.251249,0.0559 0.390871,0.18152 0.125661,0.12566 0.19572,0.26508 0.19572,0.43263 0,0.18151 -0.0559,0.33533 -0.167597,0.47495 -0.111698,0.15358 -0.265322,0.22327 -0.446831,0.22327 h -1.298452 c -0.09774,0 -0.167666,-0.0279 -0.237477,-0.0977 -0.06981,-0.0698 -0.09772,-0.13974 -0.09772,-0.23747 v -0.64227 c 0,-0.0977 0.02791,-0.16738 0.09772,-0.23719 0.06981,-0.0698 0.139741,-0.0977 0.237477,-0.0977 z m 36.231947,1.70324 c 0.04189,0 0.08395,0.0421 0.125839,0.12584 0.111698,0.26529 0.237373,0.55837 0.363033,0.86554 0.12566,0.32114 0.237174,0.58643 0.33491,0.82379 0.04189,0.0838 0.05581,0.1535 0.01392,0.20935 -0.04189,0.0698 -0.111619,0.0977 -0.209354,0.0977 h -1.242492 c -0.09774,0 -0.167751,-0.0279 -0.209638,-0.0977 -0.04189,-0.0558 -0.04189,-0.12558 0,-0.20935 l 0.698227,-1.68933 c 0.04189,-0.0838 0.08367,-0.12584 0.125555,-0.12584 z m -36.231947,1.91288 h 1.466049 c 0.237358,0 0.432721,0.0838 0.586306,0.2514 0.139622,0.18151 0.209354,0.34888 0.209354,0.51643 0,0.18151 -0.06969,0.34925 -0.223273,0.48887 -0.153585,0.13962 -0.307123,0.20935 -0.47467,0.20935 h -1.563766 c -0.09774,0 -0.167666,-0.0279 -0.237477,-0.0977 -0.06981,-0.0698 -0.09772,-0.13974 -0.09772,-0.23747 v -0.79566 c 0,-0.0977 0.02791,-0.16767 0.09772,-0.23748 0.06981,-0.0698 0.139741,-0.0977 0.237477,-0.0977 z" style="font-size:25.4px;line-height:1;font-family:Heavitas;-inkscape-font-specification:Heavitas;letter-spacing:0;word-spacing:0;text-orientation:upright;fill:#fff;stroke-width:8.46668;stroke-linecap:round;stroke-linejoin:round;stroke-miterlimit:128;paint-order:stroke fill markers"/></svg>