<svg xmlns="http://www.w3.org/2000/svg" xml:space="preserve" width="512" height="512" viewBox="0 0 135.46666 135.46667"><path d="M 33.866666,0 A 33.866665,33.866665 0 0 0 0,33.866666 V 101.6 a 33.866665,33.866665 0 0 0 33.866666,33.86666 H 101.6 A 33.866665,33.866665 0 0 0 135.46666,101.6 V 33.866666 A 33.866665,33.866665 0 0 0 101.6,0 Z" style="fill:#000;fill-opacity:1;stroke-width:4.23333;stroke-linecap:round;stroke-linejoin:round;stroke-miterlimit:128;stroke-opacity:0"/><path d="M 33.866666 8.4666666 C 19.838648 8.4666669 8.4666669 19.838648 8.4666666 33.866666 L 8.4666666 101.6 L 127 101.6 L 127 33.866666 C 127 19.838648 115.62801 8.4666666 101.6 8.4666666 L 33.866666 8.4666666 z M 67.733332 14.817183 C 68.133157 14.817183 68.53286 14.930025 68.882616 15.156181 L 104.86698 38.439514 C 106.63916 39.585369 105.82694 42.334836 103.71667 42.33385 L 101.6 42.33385 L 101.6 48.683333 C 101.6 49.852326 100.65233 50.8 99.483332 50.799999 L 95.249999 50.799999 L 95.249999 71.966666 L 99.483332 71.966666 C 100.65233 71.966665 101.6 72.914349 101.6 74.083332 L 101.6 80.433332 L 103.71667 80.433332 C 104.88557 80.433336 105.83333 81.381009 105.83333 82.549999 L 105.83333 91.016666 C 105.83333 92.185646 104.88557 93.133328 103.71667 93.133332 L 31.75 93.133332 C 30.581007 93.133332 29.633333 92.185649 29.633333 91.016666 L 29.633333 82.549999 C 29.633333 81.381006 30.581007 80.433332 31.75 80.433332 L 33.866666 80.433332 L 33.866666 74.083332 C 33.866666 72.914349 34.81434 71.966666 35.983333 71.966666 L 40.216666 71.966666 L 40.216666 50.799999 L 35.983333 50.799999 C 34.81434 50.799999 33.866666 49.852326 33.866666 48.683333 L 33.866666 42.33385 L 31.75 42.33385 C 29.639653 42.334837 28.827516 39.58537 30.599682 38.439514 L 66.584049 15.156181 C 66.933805 14.930025 67.333516 14.817183 67.733332 14.817183 z M 67.732299 19.455143 L 38.920105 38.099483 L 96.547077 38.099483 L 67.732299 19.455143 z M 38.1 42.33385 L 38.1 46.566666 L 97.366665 46.566666 L 97.366665 42.33385 L 38.1 42.33385 z M 44.449999 50.799999 L 44.449999 71.966666 L 48.683333 71.966666 L 48.683333 50.799999 L 44.449999 50.799999 z M 52.916666 50.799999 L 52.916666 71.966666 L 61.383333 71.966666 L 61.383333 50.799999 L 52.916666 50.799999 z M 65.616666 50.799999 L 65.616666 71.966666 L 69.849999 71.966666 L 69.849999 50.799999 L 65.616666 50.799999 z M 74.083332 50.799999 L 74.083332 71.966666 L 82.549999 71.966666 L 82.549999 50.799999 L 74.083332 50.799999 z M 86.783332 50.799999 L 86.783332 71.966666 L 91.016666 71.966666 L 91.016666 50.799999 L 86.783332 50.799999 z M 38.1 76.199999 L 38.1 80.433332 L 82.549999 80.433332 C 83.718995 80.433332 84.666666 81.381001 84.666666 82.549999 C 84.666666 83.718997 83.718995 84.666666 82.549999 84.666666 L 33.866666 84.666666 L 33.866666 88.899999 L 101.6 88.899999 L 101.6 84.666666 L 99.483332 84.666666 C 98.314332 84.666666 97.366665 83.718999 97.366665 82.549999 L 97.366665 76.199999 L 38.1 76.199999 z M 88.899999 80.433332 L 93.133332 80.433332 C 94.30233 80.433332 95.249999 81.381001 95.249999 82.549999 C 95.249999 83.718997 94.30233 84.666666 93.133332 84.666666 L 88.899999 84.666666 C 87.731 84.666666 86.783332 83.718998 86.783332 82.549999 C 86.783332 81.381 87.731 80.433332 88.899999 80.433332 z" style="fill:#0fd1a5;fill-opacity:1;stroke-width:4.23333;stroke-linecap:round;stroke-linejoin:round;stroke-miterlimit:128;stroke-opacity:0"/><path d="m 56.258099,112.18333 c -0.09958,0 -0.17082,0.0284 -0.241944,0.0996 -0.07112,0.0712 -0.09956,0.14208 -0.09956,0.24165 v 9.72987 c 0,0.0996 0.02843,0.17083 0.09956,0.24195 0.07113,0.0712 0.142369,0.0995 0.241944,0.0995 h 2.119329 c 0.09957,0 0.17082,-0.0284 0.241944,-0.0995 0.07113,-0.0712 0.09956,-0.14237 0.09956,-0.24195 v -5.09241 c 0,-0.0996 0.02843,-0.15652 0.09956,-0.17075 0.0569,-0.0143 0.113851,0.0284 0.17075,0.0996 l 3.712806,5.22062 c 0.0569,0.0712 0.142081,0.14221 0.241654,0.19911 0.09958,0.0569 0.199094,0.0854 0.298669,0.0854 h 2.105438 c 0.09957,0 0.17053,-0.0284 0.241655,-0.0995 0.07113,-0.0712 0.09985,-0.14237 0.09985,-0.24195 v -9.72987 c 0,-0.0996 -0.02872,-0.17053 -0.09985,-0.24165 -0.07112,-0.0711 -0.142081,-0.0996 -0.241655,-0.0996 h -2.105438 c -0.09958,0 -0.170531,0.0284 -0.241655,0.0996 -0.07113,0.0712 -0.09956,0.14208 -0.09956,0.24165 v 5.0927 c 0,0.0996 -0.02848,0.14205 -0.08537,0.15628 -0.07112,0.0143 -0.128031,-0.0284 -0.18493,-0.0995 l -3.698625,-5.22033 c -0.0569,-0.0711 -0.14208,-0.1425 -0.241655,-0.1994 -0.09958,-0.0427 -0.199094,-0.0709 -0.298669,-0.0709 z m 16.30173,0 c -0.09957,0 -0.170819,0.0284 -0.241944,0.0996 -0.07113,0.0712 -0.09956,0.14208 -0.09956,0.24165 v 1.93469 c 0,0.0996 0.02843,0.17082 0.09956,0.24195 0.07112,0.0712 0.142371,0.0995 0.241944,0.0995 h 2.020062 c 0.09958,0 0.184712,0.0284 0.255837,0.0996 0.0569,0.0712 0.08537,0.14208 0.08537,0.24165 v 7.11247 c 0,0.0996 0.02843,0.17083 0.09956,0.24195 0.07113,0.0712 0.14237,0.0995 0.241944,0.0995 h 2.1338 c 0.09957,0 0.184711,-0.0284 0.255836,-0.0995 0.0569,-0.0712 0.08538,-0.14237 0.08538,-0.24195 v -7.11247 c 0,-0.0996 0.02843,-0.17053 0.09956,-0.24165 0.07112,-0.0711 0.142369,-0.0996 0.241944,-0.0996 h 1.991411 c 0.09957,0 0.185,-0.0284 0.256125,-0.0995 0.0569,-0.0712 0.08537,-0.14238 0.08537,-0.24195 v -1.93469 c 0,-0.0149 -0.0051,-0.0256 -0.0063,-0.0393 0.0067,0.0375 0.01654,0.0742 0.03472,0.11055 0.583222,0.99575 1.180671,1.96304 1.778117,2.90189 0.583223,0.93884 1.166578,1.892 1.735575,2.87352 0.04268,0.0712 0.08524,0.17065 0.127919,0.29867 0.02845,0.12803 0.04283,0.24193 0.04283,0.3415 v 3.2431 c 0,0.0996 0.02843,0.17082 0.09956,0.24195 0.07112,0.0712 0.14208,0.0996 0.241655,0.0996 h 2.147981 c 0.09957,0 0.170819,-0.0284 0.241944,-0.0996 0.07112,-0.0712 0.09956,-0.14238 0.09956,-0.24195 v -3.25728 c 0,-0.0996 0.01405,-0.19929 0.05672,-0.32732 0.04268,-0.12802 0.08553,-0.2275 0.128207,-0.31285 l 3.556236,-5.76123 c 0.07113,-0.12802 0.0994,-0.22754 0.05673,-0.29867 -0.04267,-0.0712 -0.113718,-0.0996 -0.213293,-0.0996 h -2.560386 c -0.09957,0 -0.184913,0.0285 -0.284487,0.0854 -0.09958,0.0569 -0.185089,0.12794 -0.227764,0.21329 l -1.735286,3.04428 c -0.04268,0.0711 -0.09963,0.11374 -0.17075,0.11374 -0.07112,0 -0.128076,-0.0426 -0.170751,-0.11374 l -1.749755,-3.04428 c -0.04268,-0.0853 -0.113719,-0.15639 -0.213294,-0.21329 -0.09957,-0.0569 -0.199093,-0.0854 -0.298668,-0.0854 h -2.532022 c -0.09957,0 -0.156481,0.0426 -0.184931,0.12791 -0.01306,0.0457 -0.01483,0.088 -0.01128,0.12909 -0.01113,-0.0634 -0.03235,-0.11945 -0.07409,-0.17163 -0.07112,-0.0712 -0.15655,-0.0995 -0.256125,-0.0995 z m -27.525231,0.0142 c -0.09958,0 -0.17082,0.0284 -0.241944,0.0996 -0.07113,0.0711 -0.09956,0.14238 -0.09956,0.24194 v 5.76095 c 0,0.66857 0.113946,1.28035 0.32732,1.83513 0.213373,0.55477 0.526357,1.02418 0.924656,1.40826 0.398298,0.38407 0.881845,0.68262 1.436617,0.896 0.554773,0.21337 1.180697,0.32732 1.863493,0.32732 0.682797,0 1.30872,-0.11395 1.863493,-0.32732 0.554772,-0.21338 1.03832,-0.51193 1.436617,-0.896 0.398299,-0.38408 0.711283,-0.85349 0.924656,-1.40826 0.213374,-0.55478 0.31285,-1.16656 0.31285,-1.83513 v -5.76095 c 0,-0.0996 -0.02843,-0.17081 -0.09956,-0.24194 -0.07112,-0.0712 -0.14208,-0.0996 -0.241655,-0.0996 h -2.14798 c -0.09958,0 -0.17082,0.0284 -0.241945,0.0996 -0.07112,0.0711 -0.09956,0.14238 -0.09956,0.24194 v 5.76095 c 0,0.36985 -0.05695,0.66865 -0.17075,0.91047 -0.128024,0.24183 -0.270068,0.44095 -0.440768,0.56898 -0.170699,0.14225 -0.355644,0.24177 -0.554793,0.29867 -0.199149,0.0569 -0.384138,0.0854 -0.540613,0.0854 -0.156475,0 -0.341464,-0.0285 -0.540613,-0.0854 -0.199148,-0.0569 -0.384094,-0.15642 -0.554793,-0.29867 -0.184924,-0.12803 -0.327258,-0.32715 -0.441057,-0.56898 -0.128024,-0.24182 -0.184931,-0.54062 -0.184931,-0.91047 v -5.76095 c 0,-0.0996 -0.02843,-0.17081 -0.09956,-0.24194 -0.07113,-0.0712 -0.14208,-0.0996 -0.241655,-0.0996 z m 23.243451,0 c -0.09957,0 -0.184755,0.0284 -0.241654,0.0996 -0.07113,0.0711 -0.09956,0.14238 -0.09956,0.24194 v 9.71541 c 0,0.0996 0.02843,0.17082 0.09956,0.24194 0.0569,0.0712 0.14208,0.0996 0.241654,0.0996 h 2.147981 c 0.09958,0 0.17082,-0.0284 0.241945,-0.0996 0.07112,-0.0712 0.09956,-0.14236 0.09956,-0.24194 v -9.7154 c 0,-0.0996 -0.02843,-0.17082 -0.09956,-0.24195 -0.07112,-0.0712 -0.14237,-0.0996 -0.241945,-0.0996 z" style="font-size:25.4px;line-height:1;font-family:Heavitas;-inkscape-font-specification:Heavitas;letter-spacing:0;word-spacing:0;text-orientation:upright;fill:#fff;fill-opacity:1;stroke-width:25.4;stroke-miterlimit:128"/></svg>