<svg xmlns="http://www.w3.org/2000/svg" xml:space="preserve" id="svg3" width="512" height="512" version="1.1" viewBox="0 0 135.46666 135.46667"><path id="path3-3" d="M 33.866666,0 A 33.866665,33.866665 0 0 0 0,33.866666 V 101.6 a 33.866665,33.866665 0 0 0 33.866666,33.86666 H 101.6 A 33.866665,33.866665 0 0 0 135.46666,101.6 V 33.866666 A 33.866665,33.866665 0 0 0 101.6,0 Z" style="fill:#000;fill-opacity:1;stroke-width:4.23333;stroke-linecap:round;stroke-linejoin:round;stroke-miterlimit:128;stroke-opacity:0"/><path id="path4" d="M 33.866666 8.4666666 A 25.4 25.4 0 0 0 8.4666666 33.866666 L 8.4666666 101.6 L 127 101.6 L 127 33.866666 A 25.4 25.4 0 0 0 101.6 8.4666666 L 33.866666 8.4666666 z M 57.149999 16.933333 L 78.316666 16.933333 C 79.485656 16.933333 80.433332 17.88101 80.433332 19.05 L 80.433332 24.341666 L 82.549999 24.341666 C 83.296907 24.350861 83.983692 24.753066 84.357124 25.4 L 97.366665 25.4 C 98.535655 25.4 99.483332 26.347676 99.483332 27.516666 L 99.483332 91.016666 C 99.483332 92.185643 98.535655 93.133332 97.366665 93.133332 L 38.1 93.133332 C 36.93101 93.133332 35.983333 92.185643 35.983333 91.016666 L 35.983333 27.516666 C 35.983333 26.347676 36.93101 25.4 38.1 25.4 L 51.109541 25.4 C 51.482973 24.753066 52.169758 24.350866 52.916666 24.341666 L 55.033333 24.341666 L 55.033333 19.05 C 55.033333 17.88101 55.981009 16.933333 57.149999 16.933333 z M 59.266666 21.166666 L 59.266666 24.341666 L 76.199999 24.341666 L 76.199999 21.166666 L 59.266666 21.166666 z M 55.033333 28.575 L 55.033333 32.808333 L 80.433332 32.808333 L 80.433332 28.575 L 55.033333 28.575 z M 40.216666 29.633333 L 40.216666 88.899999 L 95.249999 88.899999 L 95.249999 29.633333 L 84.666666 29.633333 L 84.666666 31.75 L 91.016666 31.75 C 92.185636 31.75 93.133332 32.69768 93.133332 33.866666 L 93.133332 48.683333 C 93.133332 49.852332 92.185661 50.799999 91.016666 50.799999 C 89.847667 50.8 88.899999 49.852332 88.899999 48.683333 L 88.899999 35.983333 L 84.357124 35.983333 C 83.983692 36.630254 83.296907 37.032466 82.549999 37.041666 L 52.916666 37.041666 C 52.169758 37.032471 51.482973 36.630254 51.109541 35.983333 L 46.566666 35.983333 L 46.566666 82.549999 L 76.198449 82.549999 L 76.198449 71.967183 C 76.198279 70.797838 77.146287 69.849828 78.315632 69.849999 L 88.899999 69.849999 L 88.899999 65.616666 C 88.899999 64.447667 89.847667 63.499999 91.016666 63.499999 C 92.185661 63.499999 93.133332 64.447667 93.133332 65.616666 L 93.133332 71.966666 L 93.132815 71.966666 C 93.136781 72.491654 92.947997 73.027666 92.512698 73.463215 L 79.811665 86.162698 C 79.376639 86.597459 78.841031 86.785799 78.316666 86.782299 L 78.316666 86.783332 L 44.449999 86.783332 C 43.281029 86.783332 42.333333 85.835636 42.333333 84.666666 L 42.333333 33.866666 C 42.333333 32.69768 43.281029 31.75 44.449999 31.75 L 50.799999 31.75 L 50.799999 29.633333 L 40.216666 29.633333 z M 57.149999 40.216666 L 82.549999 40.216666 C 83.718994 40.216666 84.666666 41.164338 84.666666 42.333333 C 84.666666 43.502328 83.718994 44.449999 82.549999 44.449999 L 57.149999 44.449999 C 55.981005 44.449999 55.033333 43.502327 55.033333 42.333333 C 55.033333 41.164338 55.981004 40.216666 57.149999 40.216666 z M 52.916666 47.624999 L 82.549999 47.624999 C 83.718994 47.624999 84.666666 48.572671 84.666666 49.741666 C 84.666666 50.910661 83.718994 51.858333 82.549999 51.858333 L 52.916666 51.858333 C 51.747671 51.858333 50.799999 50.910661 50.799999 49.741666 C 50.799999 48.572671 51.747671 47.624999 52.916666 47.624999 z M 91.016666 52.916666 C 92.185661 52.916666 93.133332 53.864334 93.133332 55.033333 L 93.133332 59.266666 C 93.133332 60.435664 92.185661 61.383333 91.016666 61.383333 C 89.847667 61.383333 88.899999 60.435665 88.899999 59.266666 L 88.899999 55.033333 C 88.899999 53.864334 89.847667 52.916666 91.016666 52.916666 z M 52.916666 55.033333 L 82.549999 55.033333 C 83.718994 55.033333 84.666666 55.981004 84.666666 57.149999 C 84.666666 58.318994 83.718994 59.266666 82.549999 59.266666 L 52.916666 59.266666 C 51.747671 59.266666 50.799999 58.318994 50.799999 57.149999 C 50.799999 55.981004 51.747671 55.033333 52.916666 55.033333 z M 52.916666 62.441666 L 82.549999 62.441666 C 83.718994 62.441666 84.666666 63.389338 84.666666 64.558333 C 84.666666 65.72732 83.718994 66.674999 82.549999 66.674999 L 52.916666 66.674999 C 51.747671 66.674999 50.799999 65.72732 50.799999 64.558333 C 50.799999 63.389338 51.747671 62.441666 52.916666 62.441666 z M 52.916666 69.849999 L 69.849999 69.849999 C 71.018994 69.849999 71.966666 70.797671 71.966666 71.966666 C 71.966666 73.135661 71.018994 74.083332 69.849999 74.083332 L 52.916666 74.083332 C 51.747671 74.083332 50.799999 73.135661 50.799999 71.966666 C 50.799999 70.797671 51.747671 69.849999 52.916666 69.849999 z M 80.432816 74.082299 L 80.432816 79.5569 L 85.90535 74.082299 L 80.432816 74.082299 z" style="fill:#b900d3;stroke-width:4.23333;stroke-linecap:round;stroke-linejoin:round;stroke-miterlimit:128;stroke-opacity:0;fill-opacity:1"/><path id="path3" d="m 42.887626,112.18333 c -0.726037,0 -1.410375,0.13947 -2.052639,0.41871 -0.642264,0.27924 -1.200687,0.65642 -1.675404,1.13114 -0.474716,0.48867 -0.851609,1.04706 -1.130854,1.68932 -0.279245,0.64226 -0.418992,1.32631 -0.418992,2.05235 0,0.72604 0.139747,1.41038 0.418992,2.05265 0.279245,0.64225 0.656138,1.20068 1.130854,1.6754 0.474717,0.48867 1.03314,0.86552 1.675404,1.14477 0.642264,0.27924 1.326602,0.41899 2.052639,0.41899 0.726036,0 1.410091,-0.13975 2.052355,-0.41899 0.642265,-0.27925 1.200645,-0.6561 1.689325,-1.14477 0.47471,-0.47472 0.85189,-1.03315 1.131135,-1.6754 0.279245,-0.64227 0.418709,-1.32661 0.418709,-2.05265 0,-0.72604 -0.139464,-1.41009 -0.418709,-2.05235 -0.279245,-0.64226 -0.656425,-1.20065 -1.131135,-1.68932 -0.48868,-0.47472 -1.04706,-0.8519 -1.689325,-1.13114 -0.642264,-0.27924 -1.326319,-0.41871 -2.052355,-0.41871 z m -10.848648,0.0278 c -0.74,0 -1.43817,0.13975 -2.094396,0.41899 -0.656226,0.27925 -1.214847,0.65615 -1.703526,1.13086 -0.488678,0.47472 -0.879448,1.03314 -1.158693,1.6754 -0.279245,0.64227 -0.418992,1.3266 -0.418992,2.05264 0,0.72604 0.139747,1.4101 0.418992,2.05235 0.279245,0.64227 0.670015,1.2007 1.158693,1.67541 0.488679,0.47472 1.0473,0.85161 1.703526,1.13085 0.656226,0.27925 1.354396,0.41899 2.094396,0.41899 0.600376,0 1.144683,-0.0697 1.633362,-0.20935 0.488678,-0.13962 0.949507,-0.33526 1.354412,-0.58659 0.404905,-0.25131 0.767965,-0.55848 1.089097,-0.9215 0.321132,-0.34906 0.628379,-0.75398 0.893663,-1.18681 0.04188,-0.0838 0.05576,-0.16734 0.02783,-0.25111 -0.02792,-0.0698 -0.08382,-0.12571 -0.167597,-0.1676 l -1.982472,-0.782 c -0.09774,-0.0419 -0.181541,-0.0419 -0.265315,0 -0.09774,0.0419 -0.167751,0.0978 -0.209638,0.1676 -0.237358,0.39094 -0.572272,0.71198 -0.977178,0.94934 -0.418866,0.25132 -0.879565,0.37724 -1.396169,0.37724 -0.349055,0 -0.68421,-0.07 -0.99138,-0.22356 -0.32113,-0.15358 -0.586424,-0.34895 -0.823781,-0.58631 -0.237359,-0.23736 -0.418889,-0.53077 -0.544549,-0.8519 -0.12566,-0.32113 -0.195435,-0.65597 -0.195435,-1.00502 0,-0.34905 0.06977,-0.68416 0.195435,-1.0053 0.12566,-0.32113 0.30719,-0.6145 0.544549,-0.86582 0.237357,-0.23736 0.502651,-0.43273 0.823781,-0.58631 0.30717,-0.15358 0.642325,-0.22356 0.99138,-0.22356 0.544529,0 1.00527,0.1118 1.382251,0.3352 0.37698,0.23736 0.711893,0.55855 0.977176,0.99138 0.04188,0.0698 0.111902,0.12571 0.209638,0.1676 0.09774,0.0419 0.181499,0.0419 0.279235,0 l 1.982475,-0.78203 c 0.08377,-0.0419 0.139673,-0.0977 0.167597,-0.18151 0.02792,-0.0838 0.01405,-0.16739 -0.02783,-0.2372 -0.265284,-0.43283 -0.558612,-0.8238 -0.879744,-1.18681 -0.321131,-0.34906 -0.684191,-0.65626 -1.089097,-0.90759 -0.404905,-0.25131 -0.851531,-0.44696 -1.340209,-0.58658 -0.488679,-0.13962 -1.047145,-0.20936 -1.661484,-0.20936 z m 56.114081,0.15368 c -0.09774,0 -0.167383,0.0279 -0.2372,0.0977 -0.06983,0.0698 -0.09772,0.13946 -0.09772,0.2372 v 9.5502 c 0,0.0977 0.02792,0.16766 0.09772,0.23747 0.06983,0.0698 0.139458,0.0977 0.2372,0.0977 h 2.080475 c 0.09773,0 0.167667,-0.0279 0.237475,-0.0977 0.06983,-0.0698 0.09772,-0.13974 0.09772,-0.23747 v -4.99837 c 0,-0.0977 0.02792,-0.15364 0.09772,-0.1676 0.05583,-0.014 0.11175,0.0279 0.1676,0.0977 l 3.643959,5.1242 c 0.05583,0.0698 0.139741,0.1396 0.237473,0.19545 0.09774,0.0558 0.195417,0.0838 0.293158,0.0838 h 2.066559 c 0.09773,0 0.167375,-0.0279 0.237191,-0.0977 0.06983,-0.0698 0.09772,-0.13974 0.09772,-0.23747 v -9.5502 c 0,-0.0977 -0.02792,-0.16738 -0.09772,-0.2372 -0.06983,-0.0698 -0.139458,-0.0977 -0.237191,-0.0977 h -2.066559 c -0.09774,0 -0.167666,0.0279 -0.237483,0.0977 -0.06983,0.0698 -0.09771,0.13946 -0.09771,0.2372 v 4.99865 c 0,0.0978 -0.02792,0.13944 -0.08381,0.1534 -0.06983,0.014 -0.125667,-0.0279 -0.181508,-0.0977 l -3.630042,-5.12393 c -0.05583,-0.0698 -0.139742,-0.13986 -0.237483,-0.19571 -0.09773,-0.0419 -0.195417,-0.0696 -0.29315,-0.0696 z m 11.714465,0 c -0.09773,0 -0.167658,0.0279 -0.237475,0.0977 -0.06983,0.0698 -0.09772,0.13946 -0.09772,0.2372 v 9.5502 c 0,0.0977 0.02792,0.16766 0.09772,0.23747 0.06983,0.0698 0.139742,0.0977 0.237475,0.0977 h 3.811556 c 0.72604,0 1.3963,-0.11155 1.99668,-0.32099 0.60038,-0.20944 1.13085,-0.53075 1.5916,-0.94962 0.50265,-0.46076 0.87978,-1.01918 1.14507,-1.67541 0.26528,-0.64226 0.39087,-1.36842 0.39087,-2.16427 0,-0.79585 -0.12559,-1.52173 -0.39087,-2.164 -0.26529,-0.64225 -0.64242,-1.20072 -1.14507,-1.66148 -0.93546,-0.85169 -2.12225,-1.28453 -3.58828,-1.28453 z m -49.873209,0.0139 c -0.09774,0 -0.167668,0.0279 -0.237479,0.0977 -0.06981,0.0698 -0.09772,0.13974 -0.09772,0.23748 v 9.536 c 0,0.0977 0.02792,0.16766 0.09772,0.23747 0.06981,0.0698 0.139743,0.0977 0.237479,0.0977 h 2.108312 c 0.09774,0 0.167383,-0.0279 0.237194,-0.0977 0.06981,-0.0698 0.098,-0.13974 0.098,-0.23747 v -4.49587 c 0,-0.0977 0.04178,-0.13943 0.125555,-0.15339 0.08378,-0.014 0.153553,0.0279 0.19544,0.0977 l 2.345794,3.78372 c 0.05583,0.0698 0.13945,0.11164 0.237183,0.11164 0.09774,0 0.181675,-0.0418 0.223567,-0.11164 l 2.3455,-3.78372 c 0.05583,-0.0698 0.125583,-0.11168 0.209358,-0.0977 0.08378,0.014 0.125842,0.0557 0.125842,0.15339 v 4.49587 c 0,0.0977 0.02792,0.16766 0.09772,0.23747 0.06983,0.0698 0.139459,0.0977 0.237192,0.0977 h 2.108317 c 0.09773,0 0.167666,-0.0279 0.237475,-0.0977 0.06983,-0.0698 0.09772,-0.13974 0.09772,-0.23747 v -9.536 c 0,-0.0977 -0.02792,-0.16766 -0.09772,-0.23747 -0.06983,-0.0698 -0.139742,-0.0977 -0.237475,-0.0977 h -1.954642 c -0.09773,0 -0.195417,0.0279 -0.29315,0.0838 -0.09773,0.0558 -0.181625,0.12563 -0.237475,0.19545 l -2.6807,3.93739 c -0.04192,0.0698 -0.111708,0.11164 -0.181525,0.11164 -0.06983,0 -0.139583,-0.0418 -0.195433,-0.11164 l -2.680703,-3.93739 c -0.04188,-0.0698 -0.12582,-0.1396 -0.223556,-0.19545 -0.09773,-0.0558 -0.195416,-0.0838 -0.293152,-0.0838 z m 13.613144,0 c -0.09773,0 -0.167383,0.0279 -0.237191,0.0977 -0.06983,0.0698 -0.09772,0.13974 -0.09772,0.23748 v 9.536 c 0,0.0977 0.02792,0.16766 0.09772,0.23747 0.06983,0.0698 0.139458,0.0977 0.237191,0.0977 h 2.108317 c 0.09774,0 0.167667,-0.0279 0.237475,-0.0977 0.06983,-0.0698 0.09772,-0.13974 0.09772,-0.23747 v -4.49587 c 0,-0.0977 0.04175,-0.13943 0.125558,-0.15339 0.08377,-0.014 0.15355,0.0279 0.195433,0.0977 l 2.345792,3.78372 c 0.05583,0.0698 0.139458,0.11164 0.237192,0.11164 0.09774,0 0.181675,-0.0418 0.223558,-0.11164 l 2.345508,-3.78372 c 0.05583,-0.0698 0.125867,-0.11168 0.209642,-0.0977 0.08378,0.014 0.125558,0.0557 0.125558,0.15339 v 4.49587 c 0,0.0977 0.02792,0.16766 0.09772,0.23747 0.06983,0.0698 0.139742,0.0977 0.237475,0.0977 h 2.108317 c 0.09773,0 0.167375,-0.0279 0.237191,-0.0977 0.06983,-0.0698 0.09772,-0.13974 0.09772,-0.23747 v -9.536 c 0,-0.0977 -0.02792,-0.16766 -0.09772,-0.23747 -0.06983,-0.0698 -0.139458,-0.0977 -0.237191,-0.0977 h -1.954925 c -0.09773,0 -0.195417,0.0279 -0.29315,0.0838 -0.09774,0.0558 -0.18135,0.12563 -0.2372,0.19545 l -2.680984,3.93739 c -0.04192,0.0698 -0.1117,0.11164 -0.181516,0.11164 -0.06983,0 -0.139584,-0.0418 -0.195434,-0.11164 l -2.6807,-3.93739 c -0.04192,-0.0698 -0.125541,-0.1396 -0.223275,-0.19545 -0.09774,-0.0558 -0.1957,-0.0838 -0.293433,-0.0838 z m 16.726767,0 c -0.09774,0 -0.195467,0.0279 -0.279242,0.0838 -0.09773,0.0698 -0.153541,0.1395 -0.195425,0.22328 l -4.049041,9.45247 c -0.04192,0.0698 -0.05575,0.1396 -0.04175,0.19545 0.014,0.0558 0.02767,0.0979 0.06958,0.13975 0.02792,0.0419 0.07,0.0698 0.125842,0.0838 0.04192,0.014 0.09759,0.0278 0.139475,0.0278 h 2.401475 c 0.09773,0 0.181491,-0.0279 0.279233,-0.0977 0.08377,-0.0558 0.139625,-0.12557 0.181508,-0.20935 l 0.391159,-0.8377 c 0.04192,-0.0838 0.0977,-0.15375 0.195433,-0.22356 0.08378,-0.0558 0.1815,-0.0838 0.279233,-0.0838 h 2.946017 c 0.09774,0 0.1815,0.0279 0.279233,0.0838 0.08378,0.0698 0.15355,0.13979 0.195434,0.22356 l 0.376958,0.8377 c 0.04192,0.0838 0.111617,0.15351 0.20935,0.20935 0.08377,0.0698 0.1815,0.0977 0.279233,0.0977 h 2.38755 c 0.153592,0 0.251508,-0.042 0.307358,-0.13976 0.04192,-0.0977 0.05583,-0.18126 0.01392,-0.26503 l -4.076866,-9.49453 c -0.04192,-0.0838 -0.09775,-0.15346 -0.181525,-0.22327 -0.09773,-0.0558 -0.1815,-0.0838 -0.279234,-0.0838 z m -37.4466,2.47135 c 0.349055,0 0.670007,0.0697 0.977176,0.20936 0.307167,0.15359 0.572505,0.33503 0.809864,0.57239 0.237358,0.23735 0.41889,0.51656 0.54455,0.8377 0.12566,0.32113 0.195433,0.65624 0.195433,1.0053 0,0.34905 -0.06977,0.68416 -0.195433,1.0053 -0.12566,0.32113 -0.307192,0.60034 -0.54455,0.8377 -0.237359,0.23735 -0.502697,0.43305 -0.809864,0.57267 -0.307169,0.15358 -0.628121,0.22327 -0.977176,0.22327 -0.349057,0 -0.670291,-0.0697 -0.977461,-0.22327 -0.307169,-0.13962 -0.572548,-0.33532 -0.795944,-0.57267 -0.237359,-0.23736 -0.418889,-0.51657 -0.544549,-0.8377 -0.12566,-0.32114 -0.195435,-0.65625 -0.195435,-1.0053 0,-0.34906 0.06977,-0.68417 0.195435,-1.0053 0.12566,-0.32114 0.30719,-0.60035 0.544549,-0.8377 0.223396,-0.23736 0.488775,-0.4188 0.795944,-0.57239 0.30717,-0.13962 0.628404,-0.20936 0.977461,-0.20936 z m 59.744394,0.11164 h 1.04706 c 0.26529,0 0.53062,0.0279 0.80987,0.0977 0.26528,0.0698 0.51654,0.18152 0.7539,0.36304 0.22339,0.1815 0.40516,0.44668 0.55875,0.76781 0.13962,0.33509 0.20936,0.76818 0.20936,1.29874 0,0.53056 -0.0697,0.9634 -0.20936,1.28453 -0.15359,0.3351 -0.33536,0.58632 -0.55875,0.76782 -0.2234,0.18151 -0.47466,0.30715 -0.7539,0.37695 -0.27925,0.0698 -0.54458,0.0977 -0.80987,0.0977 h -1.04706 c -0.0977,0 -0.16765,-0.0279 -0.23747,-0.0977 -0.0698,-0.0698 -0.0977,-0.13974 -0.0977,-0.23747 v -4.38394 c 0,-0.0977 0.0279,-0.16767 0.0977,-0.23748 0.0698,-0.0698 0.13974,-0.0977 0.23747,-0.0977 z m -21.334252,1.67541 c 0.04192,0 0.08367,0.0421 0.125558,0.12584 0.111692,0.26528 0.237367,0.55836 0.363025,0.86553 0.125658,0.32113 0.237458,0.58643 0.335192,0.82378 0.04192,0.0838 0.05583,0.15351 0.01392,0.20936 -0.04192,0.0698 -0.111616,0.0977 -0.20935,0.0977 h -1.242775 c -0.09773,0 -0.167466,-0.0279 -0.209358,-0.0977 -0.04192,-0.0558 -0.04192,-0.12558 0,-0.20936 l 0.69795,-1.68931 c 0.04192,-0.0838 0.08395,-0.12584 0.125842,-0.12584 z" style="font-size:25.4px;line-height:1;font-family:Heavitas;-inkscape-font-specification:Heavitas;letter-spacing:0;word-spacing:0;text-orientation:upright;fill:#fff;stroke-width:25.4;stroke-miterlimit:128"/><style id="style1" type="text/css">.st0{opacity:.2;fill:none;stroke:#000;stroke-width:2;stroke-linecap:round;stroke-linejoin:round;stroke-miterlimit:10}</style></svg>