<svg xmlns="http://www.w3.org/2000/svg" xml:space="preserve" id="svg3" width="512" height="512" version="1.1" viewBox="0 0 135.46666 135.46667"><path id="path3-1" d="M 33.866666,0 A 33.866665,33.866665 0 0 0 0,33.866666 V 101.6 a 33.866665,33.866665 0 0 0 33.866666,33.86666 H 101.6 A 33.866665,33.866665 0 0 0 135.46666,101.6 V 33.866666 A 33.866665,33.866665 0 0 0 101.6,0 Z" style="fill:#000;fill-opacity:1;stroke-width:4.23333;stroke-linecap:round;stroke-linejoin:round;stroke-miterlimit:128;stroke-opacity:0"/><path id="path4" d="M 33.866577 8.4665769 C 19.838559 8.4665772 8.4665772 19.838559 8.4665769 33.866577 L 8.4665769 101.59991 L 126.99991 101.59991 L 126.99991 33.866577 C 126.99991 19.838559 115.62793 8.4665769 101.59991 8.4665769 L 33.866577 8.4665769 z M 63.336612 16.769946 C 70.147028 16.791936 76.281549 20.891865 78.906721 27.176029 L 80.996516 25.086234 C 81.409819 24.672935 81.951369 24.466117 82.493065 24.466117 C 83.034766 24.466117 83.576309 24.672936 83.989615 25.086234 L 86.619945 27.716564 L 86.619945 27.353279 C 86.619945 26.184284 87.567617 25.236613 88.736612 25.236613 L 103.55328 25.236613 C 104.72222 25.236613 105.66994 26.184284 105.66994 27.353279 L 105.66994 37.936612 L 109.90328 37.936612 C 111.07222 37.936616 112.01994 38.884286 112.01994 40.053279 C 112.01916 40.344944 111.95812 40.6333 111.84063 40.900256 L 111.84269 40.901289 L 111.82874 40.932812 L 97.026028 74.768472 L 97.023961 74.767439 C 96.687443 75.537611 95.927095 76.03572 95.086612 76.036612 L 44.286612 76.036612 L 44.286612 80.681806 C 46.084464 81.310743 47.505066 82.713514 48.15666 84.503278 L 82.765917 84.503278 C 83.660936 81.971749 86.051536 80.276745 88.736612 80.269945 C 92.243592 80.269945 95.086612 83.112965 95.086612 86.619945 C 95.086612 90.126932 92.243592 92.969945 88.736612 92.969945 C 86.051537 92.963116 83.660936 91.268134 82.765917 88.736612 L 48.140641 88.736612 C 47.245621 91.268134 44.85502 92.963145 42.169946 92.969945 C 38.662959 92.969945 35.819946 90.126932 35.819946 86.619945 C 35.840692 83.947026 37.533124 81.573242 40.053279 80.682323 L 40.053279 74.114249 L 31.936462 29.469429 L 25.237129 29.469429 C 24.068543 29.469715 23.120801 28.522905 23.119946 27.354313 C 23.119659 26.184913 24.067735 25.236843 25.237129 25.237129 L 33.703796 25.237129 C 34.726649 25.237479 35.602966 25.969153 35.785839 26.975524 L 37.778999 37.936612 L 42.169946 37.936612 L 42.169946 29.469946 C 42.169946 28.300949 43.117619 27.353279 44.286612 27.353279 L 47.682271 27.353279 C 50.263874 20.971319 56.452298 16.78755 63.336612 16.769946 z M 63.336612 21.003279 C 58.819007 21.02287 54.651875 23.440857 52.393094 27.353279 L 61.219945 27.353279 C 62.388938 27.353279 63.336612 28.300949 63.336612 29.469946 L 63.336612 37.936612 L 68.145621 37.936612 L 75.593228 30.489522 C 74.134375 24.912052 69.101699 21.016917 63.336612 21.003279 z M 90.853278 29.469946 L 90.853278 31.949898 L 96.84051 37.936612 L 101.43661 37.936612 L 101.43661 29.469946 L 90.853278 29.469946 z M 82.493065 29.576399 L 74.132852 37.936612 L 90.853278 37.936612 L 82.493065 29.576399 z M 46.403279 31.586612 L 46.403279 37.936612 L 59.103279 37.936612 L 59.103279 31.586612 L 46.403279 31.586612 z M 38.548461 42.169946 L 39.31844 46.403279 L 84.503278 46.403279 C 85.67228 46.403279 86.619945 47.350944 86.619945 48.519946 C 86.619945 49.688947 85.67228 50.636612 84.503278 50.636612 L 40.087902 50.636612 L 40.857364 54.869946 L 73.919945 54.869946 C 75.088947 54.869945 76.036612 55.817611 76.036612 56.986612 C 76.036612 58.155614 75.088947 59.103279 73.919945 59.103279 L 41.627343 59.103279 L 42.396805 63.336612 L 88.736612 63.336612 C 89.905614 63.336612 90.853279 64.284277 90.853278 65.453279 C 90.853278 66.62228 89.905613 67.569946 88.736612 67.569945 L 43.166784 67.569945 L 43.936246 71.803279 L 93.701683 71.803279 L 106.66627 42.169946 L 38.548461 42.169946 z M 90.853278 46.403279 L 95.086612 46.403279 C 96.255613 46.403279 97.203279 47.350944 97.203278 48.519946 C 97.203278 49.688947 96.255613 50.636612 95.086612 50.636612 L 90.853278 50.636612 C 89.684277 50.636612 88.736612 49.688947 88.736612 48.519946 C 88.736612 47.350944 89.684277 46.403279 90.853278 46.403279 z M 80.269945 54.869946 L 84.503278 54.869946 C 85.67228 54.869946 86.619945 55.817611 86.619945 56.986612 C 86.619945 58.155614 85.67228 59.103278 84.503278 59.103279 L 80.269945 59.103279 C 79.100944 59.103278 78.153278 58.155614 78.153279 56.986612 C 78.153279 55.817611 79.100944 54.869946 80.269945 54.869946 z M 42.169946 84.503278 C 41.00095 84.503278 40.053279 85.450949 40.053279 86.619945 C 40.053279 87.788941 41.00095 88.736612 42.169946 88.736612 C 43.338941 88.736612 44.286612 87.788941 44.286612 86.619945 C 44.286612 85.45095 43.33894 84.503278 42.169946 84.503278 z M 88.736612 84.503278 C 87.567616 84.503278 86.619945 85.450949 86.619945 86.619945 C 86.619945 87.788941 87.567616 88.736612 88.736612 88.736612 C 89.905608 88.736612 90.853278 87.788941 90.853278 86.619945 C 90.853278 85.450949 89.905608 84.503278 88.736612 84.503278 z" style="fill:#ffc103;fill-opacity:1;stroke-width:4.23333;stroke-linecap:round;stroke-linejoin:round;stroke-miterlimit:128;stroke-opacity:0" transform="translate(0.16338715,0.16338715)"/><path id="path3" d="m 33.879298,112.18333 c -0.101207,0 -0.173326,0.0289 -0.245618,0.10118 -0.07229,0.0723 -0.101189,0.14471 -0.101189,0.24592 v 9.88942 c 0,0.1012 0.0289,0.17331 0.101189,0.24561 0.07229,0.0723 0.144411,0.10119 0.245618,0.10119 h 3.947234 c 0.751825,0 1.445603,-0.11552 2.067305,-0.33239 0.621701,-0.21688 1.171311,-0.54961 1.648431,-0.98336 0.520494,-0.47712 0.910731,-1.05537 1.185435,-1.73491 0.274706,-0.66508 0.404754,-1.41674 0.404754,-2.24085 0,-0.82412 -0.130048,-1.57607 -0.404754,-2.24116 -0.274704,-0.66507 -0.664941,-1.24338 -1.185435,-1.72049 -0.968697,-0.88195 -2.197627,-1.33016 -3.715736,-1.33016 z m 11.320759,0 c -0.101208,0 -0.173327,0.0289 -0.245618,0.10118 -0.07229,0.0723 -0.101483,0.14471 -0.101483,0.24592 v 9.88942 c 0,0.1012 0.02919,0.17331 0.101483,0.24561 0.07229,0.0723 0.14441,0.10119 0.245618,0.10119 h 7.359405 c 0.101207,0 0.173326,-0.0289 0.245617,-0.10119 0.07229,-0.0722 0.101189,-0.14441 0.101189,-0.24561 v -1.99525 c 0,-0.10121 -0.0289,-0.17362 -0.101189,-0.24591 -0.07229,-0.0723 -0.14441,-0.10119 -0.245617,-0.10119 H 48.06275 c -0.101207,0 -0.173327,-0.0289 -0.245618,-0.10119 -0.07229,-0.0722 -0.101188,-0.1447 -0.101188,-0.24591 v -0.54918 c 0,-0.10121 0.0289,-0.17362 0.101188,-0.24591 0.07229,-0.0723 0.144411,-0.10119 0.245618,-0.10119 h 3.918113 c 0.101208,0 0.173621,-0.0289 0.245912,-0.10119 0.07229,-0.0722 0.101189,-0.1447 0.101189,-0.24591 v -1.99524 c 0,-0.10121 -0.0289,-0.17332 -0.101189,-0.24561 -0.07229,-0.0722 -0.144704,-0.1012 -0.245912,-0.1012 H 48.06275 c -0.101207,0 -0.173327,-0.0289 -0.245618,-0.10119 -0.07229,-0.0722 -0.101188,-0.1447 -0.101188,-0.24591 v -0.60712 c 0,-0.10121 0.0289,-0.17362 0.101188,-0.24592 0.07229,-0.0722 0.144411,-0.10119 0.245618,-0.10119 h 4.496712 c 0.101207,0 0.173326,-0.0289 0.245617,-0.10118 0.07229,-0.0722 0.101189,-0.14471 0.101189,-0.24592 v -1.96611 c 0,-0.10121 -0.0289,-0.17362 -0.101189,-0.24592 -0.07229,-0.0722 -0.14441,-0.10118 -0.245617,-0.10118 z m 35.350383,0 c -0.101208,0 -0.173621,0.0289 -0.245912,0.10118 -0.07229,0.0723 -0.101189,0.14471 -0.101189,0.24592 v 9.88942 c 0,0.1012 0.0289,0.17331 0.101189,0.24561 0.07229,0.0723 0.144704,0.10119 0.245912,0.10119 h 2.15408 c 0.101207,0 0.17362,-0.0289 0.245912,-0.10119 0.07229,-0.0722 0.101188,-0.14441 0.101188,-0.24561 v -5.17622 c 0,-0.1012 0.0289,-0.15909 0.101188,-0.17355 0.05783,-0.0145 0.115717,0.0289 0.17355,0.10119 l 3.773682,5.30623 c 0.05783,0.0723 0.144411,0.14454 0.245618,0.20237 0.101207,0.0578 0.202358,0.0868 0.303565,0.0868 h 2.13996 c 0.101208,0 0.173624,-0.0289 0.245915,-0.10119 0.07229,-0.0722 0.101191,-0.14441 0.101191,-0.24561 v -9.88942 c 0,-0.10121 -0.02892,-0.17362 -0.101191,-0.24592 -0.07229,-0.0722 -0.144707,-0.10118 -0.245915,-0.10118 h -2.13996 c -0.101207,0 -0.173322,0.0289 -0.245613,0.10118 -0.07229,0.0723 -0.101189,0.14471 -0.101189,0.24592 v 5.17591 c 0,0.10121 -0.02892,0.14467 -0.08678,0.15913 -0.07229,0.0144 -0.130129,-0.0289 -0.187962,-0.10118 l -3.75927,-5.30622 c -0.05783,-0.0722 -0.144409,-0.14455 -0.245617,-0.20238 -0.101207,-0.0433 -0.202359,-0.0723 -0.303566,-0.0723 z m 12.130268,0 c -0.101207,0 -0.173327,0.0289 -0.245618,0.10118 -0.07229,0.0723 -0.101191,0.14471 -0.101191,0.24592 v 9.88942 c 0,0.1012 0.02892,0.17331 0.101191,0.24561 0.07229,0.0723 0.144411,0.10119 0.245618,0.10119 h 3.947234 c 0.751824,0 1.445898,-0.11552 2.067597,-0.33239 0.621699,-0.21688 1.171023,-0.54961 1.648141,-0.98336 0.52049,-0.47712 0.91073,-1.05537 1.18543,-1.73491 0.27471,-0.66508 0.40505,-1.41674 0.40505,-2.24085 0,-0.82412 -0.13034,-1.57607 -0.40505,-2.24116 -0.2747,-0.66507 -0.66494,-1.24338 -1.18543,-1.72049 -0.9687,-0.88195 -2.197632,-1.33016 -3.715738,-1.33016 z m -37.547705,0.0144 c -0.101207,0 -0.17362,0.0289 -0.245911,0.10119 -0.07229,0.0723 -0.101189,0.1447 -0.101189,0.24591 v 9.875 c 0,0.10121 0.0289,0.17332 0.101189,0.24561 0.07229,0.0722 0.144704,0.1012 0.245911,0.1012 h 2.183201 c 0.101207,0 0.173326,-0.0289 0.245618,-0.1012 0.07229,-0.0723 0.101188,-0.1444 0.101188,-0.24561 v -4.65555 c 0,-0.10121 0.04357,-0.14469 0.13031,-0.15914 0.08675,-0.0144 0.159002,0.0289 0.202376,0.10118 l 2.428819,3.91812 c 0.05783,0.0722 0.144705,0.1159 0.245912,0.1159 0.101207,0 0.18783,-0.0436 0.231204,-0.1159 l 2.429113,-3.91812 c 0.05783,-0.0722 0.130041,-0.11564 0.21679,-0.10118 0.08675,0.0145 0.130016,0.0579 0.130016,0.15914 v 4.65555 c 0,0.10121 0.0289,0.17332 0.101188,0.24561 0.07229,0.0722 0.144705,0.1012 0.245912,0.1012 h 2.1832 c 0.101207,0 0.173621,-0.0289 0.245912,-0.1012 0.07229,-0.0723 0.101188,-0.1444 0.101188,-0.24561 v -9.875 c 0,-0.10121 -0.0289,-0.17362 -0.101188,-0.24591 -0.07229,-0.0723 -0.144705,-0.10119 -0.245912,-0.10119 h -2.024063 c -0.101208,0 -0.202359,0.0289 -0.303567,0.0868 -0.101207,0.0578 -0.188079,0.13009 -0.245911,0.20238 l -2.775919,4.07725 c -0.04338,0.0722 -0.115672,0.11561 -0.187963,0.11561 -0.07229,0 -0.144545,-0.0433 -0.202377,-0.11561 l -2.776212,-4.07725 c -0.04337,-0.0722 -0.129998,-0.14454 -0.231205,-0.20238 -0.101207,-0.0578 -0.202358,-0.0868 -0.303565,-0.0868 z m 17.320885,0 c -0.101207,0 -0.202403,0.0289 -0.289153,0.0868 -0.101206,0.0722 -0.159002,0.14475 -0.202376,0.2315 l -4.193147,9.78793 c -0.04337,0.0722 -0.0577,0.14484 -0.04324,0.20267 0.01446,0.0578 0.02898,0.10105 0.07236,0.14443 0.02892,0.0434 0.07218,0.0723 0.130015,0.0868 0.04338,0.0145 0.101349,0.0288 0.144723,0.0288 h 2.486767 c 0.101207,0 0.187945,-0.0289 0.289152,-0.10119 0.08675,-0.0578 0.144589,-0.13004 0.187963,-0.21679 l 0.404754,-0.86746 c 0.04337,-0.0868 0.10117,-0.1592 0.202377,-0.23149 0.08675,-0.0578 0.187945,-0.0865 0.289153,-0.0865 h 3.050657 c 0.101208,0 0.187944,0.0287 0.289151,0.0865 0.08675,0.0723 0.159003,0.14474 0.202378,0.23149 l 0.390635,0.86746 c 0.04338,0.0867 0.115582,0.15896 0.216789,0.21679 0.08675,0.0723 0.187946,0.10119 0.289152,0.10119 h 2.472354 c 0.15904,0 0.260146,-0.0433 0.31798,-0.14443 0.04337,-0.1012 0.05778,-0.18798 0.01442,-0.27473 l -4.221681,-9.83144 c -0.04337,-0.0867 -0.101214,-0.1592 -0.187963,-0.2315 -0.101207,-0.0578 -0.187944,-0.0868 -0.289152,-0.0868 z m -35.711897,2.67473 h 1.084541 c 0.274705,0 0.549171,0.0289 0.838335,0.10119 0.274705,0.0722 0.535186,0.18796 0.780975,0.37592 0.231331,0.18796 0.419265,0.46285 0.578305,0.79539 0.144581,0.347 0.21679,0.79516 0.21679,1.34458 0,0.5494 -0.07221,0.99762 -0.21679,1.33015 -0.15904,0.347 -0.346974,0.60714 -0.578305,0.79509 -0.231331,0.18796 -0.491811,0.31806 -0.780975,0.39035 -0.289164,0.0722 -0.56363,0.10118 -0.838335,0.10118 h -1.084541 c -0.101207,0 -0.173326,-0.0289 -0.245617,-0.10118 -0.07229,-0.0723 -0.101189,-0.14442 -0.101189,-0.24562 v -4.53995 c 0,-0.10121 0.0289,-0.17363 0.101189,-0.24591 0.07229,-0.0723 0.14441,-0.10119 0.245617,-0.10119 z m 58.801412,0 h 1.084539 c 0.274708,0 0.549466,0.0289 0.838624,0.10119 0.274708,0.0722 0.534899,0.18796 0.780691,0.37592 0.231324,0.18796 0.419257,0.46285 0.578299,0.79539 0.144583,0.347 0.216791,0.79516 0.216791,1.34458 0,0.5494 -0.07217,0.99762 -0.216791,1.33015 -0.159042,0.347 -0.346975,0.60714 -0.578299,0.79509 -0.231333,0.18796 -0.491525,0.31806 -0.780691,0.39035 -0.289158,0.0722 -0.563916,0.10118 -0.838624,0.10118 h -1.084539 c -0.101209,0 -0.173334,-0.0289 -0.245617,-0.10118 -0.07233,-0.0723 -0.101191,-0.14442 -0.101191,-0.24562 v -4.53995 c 0,-0.10121 0.02892,-0.17363 0.101191,-0.24591 0.07225,-0.0723 0.144408,-0.10119 0.245617,-0.10119 z m -22.092043,1.7352 c 0.04337,0 0.08693,0.0433 0.130309,0.13002 0.115666,0.27471 0.245804,0.57821 0.375927,0.89628 0.130124,0.33254 0.245599,0.60726 0.346806,0.85305 0.04337,0.0868 0.05779,0.15925 0.01442,0.21708 -0.04338,0.0722 -0.115583,0.10119 -0.216791,0.10119 h -1.286624 c -0.101207,0 -0.173709,-0.0289 -0.217084,-0.10119 -0.04337,-0.0578 -0.04337,-0.13033 0,-0.21708 l 0.723027,-1.74933 c 0.04337,-0.0867 0.08664,-0.13002 0.130016,-0.13002 z" style="font-size:25.4px;line-height:1;font-family:Heavitas;-inkscape-font-specification:Heavitas;letter-spacing:0;word-spacing:0;text-orientation:upright;fill:#fff;stroke-width:25.4;stroke-miterlimit:128"/><style id="style1" type="text/css">.st0{opacity:.2;fill:none;stroke:#000;stroke-width:2;stroke-linecap:round;stroke-linejoin:round;stroke-miterlimit:10}</style></svg>