<svg xmlns="http://www.w3.org/2000/svg" xml:space="preserve" id="svg3" width="512" height="512" version="1.1" viewBox="0 0 135.46666 135.46667"><path id="path3-3" d="M 33.866666,0 A 33.866665,33.866665 0 0 0 0,33.866666 V 101.6 a 33.866665,33.866665 0 0 0 33.866666,33.86666 H 101.6 A 33.866665,33.866665 0 0 0 135.46666,101.6 V 33.866666 A 33.866665,33.866665 0 0 0 101.6,0 Z" style="fill:#000;fill-opacity:1;stroke-width:4.23333;stroke-linecap:round;stroke-linejoin:round;stroke-miterlimit:128;stroke-opacity:0"/><path id="path4" d="M 33.866666 8.4666666 C 19.838648 8.4666669 8.4666669 19.838648 8.4666666 33.866666 L 8.4666666 101.6 L 127 101.6 L 127 33.866666 C 127 19.838648 115.62801 8.4666666 101.6 8.4666666 L 33.866666 8.4666666 z M 67.711112 16.93385 C 67.719552 16.933799 67.727993 16.933799 67.736433 16.93385 C 69.991388 16.937462 72.242176 17.141534 74.461087 17.543115 C 75.468081 17.725332 76.200547 18.601812 76.201033 19.625158 L 76.201033 24.511682 C 77.800866 24.954814 79.35639 25.521245 80.867414 26.208736 L 84.007791 22.466845 C 84.666293 21.681905 85.792422 21.48123 86.68153 21.990389 C 90.601526 24.236686 94.090917 27.162435 96.986327 30.630688 C 97.643093 31.417909 97.641351 32.562616 96.982193 33.347835 L 93.839749 37.093859 C 94.780896 38.46137 95.609883 39.895174 96.326419 41.392822 L 101.13698 40.544812 C 102.14622 40.366256 103.13842 40.936365 103.49239 41.898217 C 105.03927 46.104038 105.83237 50.551995 105.83437 55.033333 C 105.83437 55.093877 105.83179 55.154394 105.82661 55.214717 C 105.82661 55.209793 105.82435 55.243667 105.81835 55.318587 C 105.7365 56.274853 105.02155 57.056404 104.07633 57.222863 L 99.210997 58.082242 C 99.056407 59.724558 98.774663 61.344993 98.367121 62.943444 L 102.56066 65.365002 C 103.4452 65.875183 103.83946 66.944089 103.49807 67.906449 C 101.98539 72.163268 99.727529 76.117556 96.830264 79.583772 C 96.170133 80.373385 95.037733 80.573784 94.146707 80.058678 L 89.906139 77.609215 C 88.729345 78.77372 87.468755 79.839376 86.124975 80.806436 L 87.777587 85.343627 C 88.127639 86.306039 87.738554 87.381028 86.853612 87.896443 C 82.951289 90.172673 78.674445 91.73698 74.224409 92.515799 C 73.213623 92.692236 72.221835 92.118376 71.871064 91.154125 L 70.216902 86.605565 C 69.392877 86.674218 68.571448 86.779132 67.744185 86.783332 C 67.73695 86.783369 67.729715 86.783369 67.72248 86.783332 C 66.895801 86.779162 66.075225 86.676232 65.25183 86.607632 L 63.595601 91.156192 C 63.244638 92.120237 62.252902 92.69385 61.242256 92.517349 C 56.791809 91.738485 52.515674 90.172986 48.613053 87.896443 C 47.728306 87.380865 47.339452 86.305914 47.689595 85.343627 L 49.34169 80.806436 C 47.99791 79.839376 46.73732 78.77372 45.560526 77.609215 L 41.320475 80.058678 C 40.429449 80.573784 39.297049 80.373385 38.636918 79.583772 C 35.739654 76.117557 33.481284 72.163269 31.968591 67.906449 C 31.627205 66.944089 32.02147 65.875183 32.906001 65.365002 L 37.099544 62.943444 C 36.689744 61.336135 36.408141 59.706433 36.254117 58.054854 L 31.349507 57.111242 C 30.347534 56.918371 29.625732 56.038172 29.632816 55.01783 C 29.665769 50.536477 30.49042 46.095559 32.066259 41.900284 C 32.424643 40.947089 33.410932 40.384147 34.41392 40.560314 L 39.199157 41.404191 C 39.911452 39.920221 40.736344 38.500287 41.669807 37.144502 L 38.507727 33.376774 C 37.847475 32.589152 37.848347 31.441078 38.509794 30.654459 C 41.415527 27.19481 44.913224 24.279803 48.839912 22.045166 C 49.728172 21.539706 50.850733 21.741041 51.507966 22.52369 L 54.642659 26.259896 C 56.139755 25.580328 57.681456 25.019759 59.265632 24.579895 L 59.265632 19.683553 C 59.266395 18.667754 59.988595 17.795691 60.986458 17.605644 C 63.203499 17.183137 65.454308 16.95804 67.711112 16.93385 z M 67.744185 21.168217 C 66.319654 21.183988 64.9101 21.397317 63.499999 21.591963 L 63.499999 26.165844 C 63.499379 27.15995 62.807106 28.019701 61.836018 28.232385 C 59.463598 28.753456 57.171599 29.587768 55.01783 30.710787 C 54.137152 31.16945 53.056026 30.954343 52.417988 30.193505 L 49.49982 26.716715 C 47.108026 28.246445 44.930802 30.060381 42.994274 32.136539 L 45.931563 35.638651 C 46.571194 36.400576 46.59399 37.505086 45.98634 38.292753 C 44.500529 40.216493 43.276679 42.32864 42.345735 44.574023 C 41.965524 45.49118 40.99898 46.020867 40.021329 45.847847 L 35.564237 45.060298 C 34.711014 47.742975 34.198728 50.506438 34.033064 53.316642 L 38.587825 54.193591 C 39.554414 54.378885 40.265798 55.205907 40.304516 56.189334 C 40.399632 58.621631 40.815925 61.031271 41.54475 63.353755 C 41.841431 64.299439 41.442236 65.324374 40.584086 65.820271 L 36.685616 68.070263 C 37.772659 70.69254 39.176168 73.153962 40.880708 75.423819 L 44.82207 73.148506 C 45.685525 72.649945 46.779832 72.821496 47.4493 73.560367 C 49.086419 75.368223 50.957604 76.950595 53.011751 78.265506 C 53.846556 78.79994 54.198736 79.842093 53.859244 80.773363 L 52.326004 84.982409 C 54.84887 86.284241 57.510233 87.258829 60.277457 87.892825 L 61.818448 83.662076 C 62.15979 82.723706 63.110443 82.151462 64.099446 82.289033 C 65.304082 82.456272 66.518202 82.544433 67.734366 82.551033 C 68.950455 82.544407 70.164863 82.456238 71.369286 82.289033 C 72.357572 82.152507 73.307038 82.724556 73.648217 83.662076 L 75.189208 87.892825 C 77.956765 87.258895 80.617495 86.284326 83.140661 84.982409 L 81.607421 80.773363 C 81.267929 79.842093 81.620109 78.79994 82.454914 78.265506 C 84.509061 76.950595 86.380246 75.368223 88.017365 73.560367 C 88.686833 72.821496 89.78114 72.649945 90.644595 73.148506 L 94.585957 75.423819 C 96.290498 73.153962 97.694005 70.692541 98.781049 68.070263 L 94.882579 65.820271 C 94.024429 65.324374 93.625234 64.299439 93.921915 63.353755 C 94.65074 61.031271 95.067029 58.621631 95.162149 56.189334 C 95.201152 55.193762 95.929118 54.360142 96.910363 54.187389 L 101.45324 53.386922 C 101.31281 50.551176 100.81711 47.760585 99.976325 45.048929 L 95.50218 45.838028 C 94.52359 46.01054 93.556723 45.479171 93.177774 44.560587 C 92.245177 42.301265 91.016764 40.176672 89.523217 38.24211 C 88.914976 37.454924 88.936911 36.350423 89.575927 35.588008 L 92.498229 32.103466 C 90.568225 30.021462 88.396627 28.201044 86.009736 26.664005 L 83.091568 30.142346 C 82.452912 30.903429 81.370888 31.117942 80.490176 30.658077 C 78.324518 29.526245 76.017682 28.688922 73.630647 28.166239 C 72.658803 27.953389 71.966316 27.092511 71.966666 26.097632 L 71.966666 21.549072 C 70.563132 21.369339 69.160311 21.171017 67.744185 21.168217 z M 67.732299 33.867183 C 69.190413 33.867183 70.617477 34.015019 71.996121 34.297131 C 73.141877 34.530928 73.88097 35.649518 73.646667 36.79517 C 73.411657 37.939874 72.293452 38.677557 71.148628 38.443131 C 70.047064 38.217718 68.904432 38.099483 67.732299 38.099483 C 58.355242 38.099483 50.801032 45.656276 50.801033 55.033333 C 50.801033 64.410387 58.355242 71.966666 67.732299 71.966666 C 77.109356 71.966667 84.666149 64.410387 84.666149 55.033333 C 84.666149 53.8612 84.547911 52.720634 84.322501 51.619071 C 84.088173 50.473585 84.826984 49.355072 85.972529 49.121032 C 87.117519 48.886631 88.235801 49.624596 88.470568 50.76951 C 88.752678 52.148157 88.900516 53.575219 88.900516 55.033333 C 88.900516 66.69824 79.397206 76.198967 67.732299 76.198966 C 56.067392 76.198966 46.566149 66.69824 46.566149 55.033333 C 46.566148 43.368423 56.067392 33.867183 67.732299 33.867183 z M 78.397281 37.120214 C 78.811824 37.12282 79.219638 37.247069 79.568269 37.482466 C 80.694114 38.243072 81.744409 39.109286 82.701411 40.066288 C 83.658412 41.023289 84.522559 42.071514 85.283165 43.197363 C 85.93804 44.165979 85.683515 45.482102 84.714725 46.136718 C 83.745571 46.791186 82.429323 46.535712 81.775369 45.56621 C 81.166614 44.665133 80.473959 43.827097 79.707278 43.06042 C 78.940602 42.293744 78.1005 41.599022 77.199421 40.990262 C 76.231917 40.335744 75.977516 39.021191 76.630981 38.052974 C 76.944926 37.587343 77.431045 37.265557 77.982319 37.158455 C 78.119994 37.131858 78.2591 37.119346 78.397281 37.120214 z" style="fill:#ff0c57;fill-opacity:1;stroke-width:4.23333;stroke-linecap:round;stroke-linejoin:round;stroke-miterlimit:128;stroke-opacity:0"/><path id="path3" d="m 43.805673,112.18333 c -0.101205,0 -0.188075,0.0292 -0.245906,0.10147 -0.07229,0.0723 -0.101186,0.14441 -0.101186,0.24561 v 9.88916 c 0,0.1012 0.02889,0.17362 0.101186,0.2459 0.05783,0.0722 0.144701,0.10119 0.245906,0.10119 h 7.214492 c 0.101204,0 0.173322,-0.0288 0.245611,-0.10119 0.07229,-0.0722 0.101186,-0.1447 0.101186,-0.2459 v -1.96636 c 0,-0.10121 -0.0289,-0.17332 -0.101186,-0.24561 -0.07229,-0.0722 -0.144407,-0.10119 -0.245611,-0.10119 H 46.66829 c -0.101204,0 -0.188073,-0.0288 -0.245905,-0.10118 -0.07229,-0.0722 -0.101186,-0.1447 -0.101186,-0.24591 v -7.22891 c 0,-0.1012 -0.02889,-0.17331 -0.101185,-0.24561 -0.07229,-0.0722 -0.144407,-0.10147 -0.245611,-0.10147 z m 8.891412,0 c -0.101204,0 -0.173322,0.0292 -0.245611,0.10147 -0.07229,0.0723 -0.101186,0.14441 -0.101186,0.24561 v 9.88916 c 0,0.1012 0.02889,0.17362 0.101186,0.2459 0.07229,0.0722 0.144407,0.10119 0.245611,0.10119 h 7.359212 c 0.101205,0 0.173323,-0.0288 0.245611,-0.10119 0.07229,-0.0722 0.101187,-0.1447 0.101187,-0.2459 v -1.99518 c 0,-0.10121 -0.02889,-0.17333 -0.101187,-0.24562 -0.07229,-0.0723 -0.144406,-0.10147 -0.245611,-0.10147 h -4.496593 c -0.101205,0 -0.173322,-0.0288 -0.245611,-0.1012 -0.07229,-0.0723 -0.101186,-0.1444 -0.101186,-0.2456 v -0.54946 c 0,-0.10121 0.0289,-0.17362 0.101186,-0.24591 0.07229,-0.0723 0.144406,-0.10118 0.245611,-0.10118 h 3.91801 c 0.101205,0 0.173617,-0.0288 0.245905,-0.1012 0.07229,-0.0722 0.101187,-0.1444 0.101187,-0.2456 v -1.99519 c 0,-0.10121 -0.0289,-0.17361 -0.101187,-0.24591 -0.07229,-0.0722 -0.1447,-0.10118 -0.245905,-0.10118 h -3.91801 c -0.101205,0 -0.173322,-0.0288 -0.245611,-0.10118 -0.07229,-0.0722 -0.101186,-0.1447 -0.101186,-0.24591 v -0.60711 c 0,-0.10121 0.0289,-0.17362 0.101186,-0.24591 0.07229,-0.0723 0.144406,-0.10119 0.245611,-0.10119 h 4.496593 c 0.101205,0 0.173323,-0.0288 0.245611,-0.10118 0.07229,-0.0723 0.101187,-0.14441 0.101187,-0.24561 v -1.96637 c 0,-0.1012 -0.02889,-0.17331 -0.101187,-0.24561 -0.07229,-0.0722 -0.144406,-0.10147 -0.245611,-0.10147 z m 8.94936,0 c -0.13012,0 -0.202238,0.0436 -0.245611,0.13031 -0.04337,0.0867 -0.04337,0.18793 0,0.28914 l 4.366287,9.84562 c 0.04338,0.0868 0.11558,0.15925 0.216785,0.21707 0.08675,0.0722 0.173527,0.10119 0.274731,0.10119 h 1.922826 c 0.101205,0 0.18794,-0.0288 0.289144,-0.10119 0.08675,-0.0578 0.158999,-0.13032 0.202372,-0.21707 l 4.409821,-9.90357 c 0.04338,-0.0723 0.02867,-0.15887 -0.01471,-0.24561 -0.04337,-0.0723 -0.129994,-0.11589 -0.231198,-0.11589 h -2.399928 c -0.101205,0 -0.187985,0.0289 -0.274731,0.0868 -0.101204,0.0723 -0.173412,0.14474 -0.216785,0.23149 l -2.530235,5.81201 c -0.04338,0.0868 -0.115669,0.13001 -0.187958,0.13001 -0.07229,0 -0.144586,-0.0433 -0.187959,-0.13001 l -2.544648,-5.81201 c -0.04337,-0.0867 -0.115625,-0.1592 -0.202371,-0.23149 -0.101206,-0.0578 -0.187941,-0.0868 -0.289145,-0.0868 z m 12.925316,0 c -0.101204,0 -0.173321,0.0292 -0.245611,0.10147 -0.07229,0.0723 -0.101185,0.14441 -0.101185,0.24561 v 9.88916 c 0,0.1012 0.02889,0.17362 0.101185,0.2459 0.07229,0.0722 0.144407,0.10119 0.245611,0.10119 h 7.359212 c 0.101205,0 0.173322,-0.0288 0.245611,-0.10119 0.07229,-0.0722 0.101187,-0.1447 0.101187,-0.2459 v -1.99518 c 0,-0.10121 -0.0289,-0.17333 -0.101187,-0.24562 -0.07229,-0.0723 -0.144406,-0.10147 -0.245611,-0.10147 H 77.43438 c -0.101205,0 -0.173323,-0.0288 -0.245611,-0.1012 -0.07229,-0.0723 -0.101185,-0.1444 -0.101185,-0.2456 v -0.54946 c 0,-0.10121 0.02889,-0.17362 0.101185,-0.24591 0.07229,-0.0723 0.144406,-0.10118 0.245611,-0.10118 h 3.918011 c 0.101204,0 0.173616,-0.0288 0.245904,-0.1012 0.07229,-0.0722 0.101188,-0.1444 0.101188,-0.2456 v -1.99519 c 0,-0.10121 -0.0289,-0.17361 -0.101188,-0.24591 -0.07229,-0.0722 -0.1447,-0.10118 -0.245904,-0.10118 H 77.43438 c -0.101205,0 -0.173323,-0.0288 -0.245611,-0.10118 -0.07229,-0.0722 -0.101185,-0.1447 -0.101185,-0.24591 v -0.60711 c 0,-0.10121 0.02889,-0.17362 0.101185,-0.24591 0.07229,-0.0723 0.144406,-0.10119 0.245611,-0.10119 h 4.496593 c 0.101205,0 0.173322,-0.0288 0.245611,-0.10118 0.07229,-0.0723 0.101187,-0.14441 0.101187,-0.24561 v -1.96637 c 0,-0.1012 -0.0289,-0.17331 -0.101187,-0.24561 -0.07229,-0.0722 -0.144406,-0.10147 -0.245611,-0.10147 z m 9.87474,0 c -0.101204,0 -0.188073,0.0292 -0.245904,0.10147 -0.07229,0.0723 -0.101188,0.14441 -0.101188,0.24561 v 9.88916 c 0,0.1012 0.0289,0.17362 0.101188,0.2459 0.05783,0.0722 0.1447,0.10119 0.245904,0.10119 h 7.214497 c 0.1012,0 0.173318,-0.0288 0.245605,-0.10119 0.07229,-0.0722 0.101482,-0.1447 0.101482,-0.2459 v -1.96636 c 0,-0.10121 -0.02919,-0.17332 -0.101482,-0.24561 -0.07228,-0.0722 -0.144405,-0.10119 -0.245605,-0.10119 h -4.351879 c -0.101205,0 -0.18778,-0.0288 -0.24561,-0.10118 -0.07229,-0.0722 -0.101481,-0.1447 -0.101481,-0.24591 v -7.22891 c 0,-0.1012 -0.02889,-0.17331 -0.101185,-0.24561 -0.07229,-0.0722 -0.144406,-0.10147 -0.245611,-0.10147 z" style="font-size:96px;line-height:1;font-family:Northead;-inkscape-font-specification:Northead;letter-spacing:0;word-spacing:0;text-orientation:upright;white-space:pre;shape-inside:url(#a);fill:#fff;fill-opacity:1;stroke:none;stroke-width:25.4;stroke-miterlimit:128"/><style id="style1" type="text/css">.st0{opacity:.2;fill:none;stroke:#000;stroke-width:2;stroke-linecap:round;stroke-linejoin:round;stroke-miterlimit:10}</style></svg>