<svg xmlns="http://www.w3.org/2000/svg" xml:space="preserve" id="svg3" width="512" height="512" version="1.1" viewBox="0 0 135.46666 135.46667"><path id="path3-3" d="M 33.866666,0 A 33.866665,33.866665 0 0 0 0,33.866666 V 101.6 a 33.866665,33.866665 0 0 0 33.866666,33.86666 H 101.6 A 33.866665,33.866665 0 0 0 135.46666,101.6 V 33.866666 A 33.866665,33.866665 0 0 0 101.6,0 Z" style="fill:#000;fill-opacity:1;stroke-width:4.23333;stroke-linecap:round;stroke-linejoin:round;stroke-miterlimit:128;stroke-opacity:0"/><path id="path4" d="M 33.866666 8.4666666 C 19.838648 8.4666669 8.4666669 19.838648 8.4666666 33.866666 L 8.4666666 101.6 L 127 101.6 L 127 33.866666 C 127 19.838648 115.62801 8.4666666 101.6 8.4666666 L 33.866666 8.4666666 z M 100.54735 16.931266 C 101.71674 16.93099 102.66481 17.879055 102.66453 19.048449 C 102.66453 27.867898 100.62622 45.245503 89.344416 56.527298 L 81.496833 64.374881 L 81.496833 74.081782 C 81.49686 74.642791 81.274192 75.180872 80.87775 75.577815 L 63.943383 92.511665 C 62.610069 93.844004 60.331367 92.900533 60.330167 91.015632 L 60.330167 81.308731 L 58.63363 79.612194 L 53.67786 87.871121 C 52.968629 89.050174 51.340704 89.249916 50.367468 88.277298 L 31.316434 69.228332 C 30.342388 68.254338 30.543291 66.624222 31.724678 65.915872 L 39.983089 60.961653 L 38.287068 59.265632 L 28.580167 59.265632 C 26.692856 59.266242 25.748261 56.983537 27.084135 55.650349 L 44.017468 38.71805 C 44.414196 38.320721 44.952533 38.097284 45.514017 38.096899 L 55.220401 38.096899 L 63.066434 30.251383 C 74.348234 18.969582 91.727884 16.931265 100.54735 16.931266 z M 98.376423 21.217309 C 94.595667 21.376968 89.671972 21.962685 84.550394 23.340177 L 96.254072 35.043855 C 97.631448 29.922152 98.216873 24.997875 98.376423 21.217309 z M 79.9977 24.774198 C 74.936745 26.618208 69.979243 29.324771 66.060566 33.243448 L 42.156083 57.148449 L 62.44735 77.4392 L 65.804768 74.081782 L 56.096317 64.375398 C 55.269243 63.548708 55.269243 62.207957 56.096317 61.381266 C 56.923008 60.554188 58.263757 60.554189 59.090449 61.381266 L 68.797867 71.088683 L 86.350284 53.535233 C 90.269473 49.616042 92.976027 44.657675 94.820051 39.596032 L 79.9977 24.774198 z M 71.97235 38.097416 C 77.232824 38.097458 81.497308 42.361941 81.49735 47.622416 C 81.497593 52.883088 77.233024 57.147891 71.97235 57.147932 C 66.711471 57.148175 62.446591 52.883291 62.446834 47.622416 C 62.446877 42.36174 66.711673 38.097174 71.97235 38.097416 z M 71.97235 42.330749 C 69.049663 42.330488 66.680189 44.699728 66.680167 47.622416 C 66.679904 50.545304 69.049461 52.914862 71.97235 52.914599 C 74.895038 52.914577 77.264278 50.545102 77.264017 47.622416 C 77.263993 44.699931 74.894835 42.330773 71.97235 42.330749 z M 46.390966 42.331266 L 33.689416 55.031266 L 38.285001 55.031266 L 50.985518 42.331266 L 46.390966 42.331266 z M 50.85736 54.025642 C 51.419314 54.025452 51.958279 54.248735 52.35546 54.646276 L 54.599767 56.890584 C 55.426853 57.717274 55.426853 59.058026 54.599767 59.884716 C 53.773255 60.710768 52.433698 60.710768 51.607185 59.884716 L 49.361328 57.640409 C 48.534241 56.813718 48.534241 55.472966 49.361328 54.646276 C 49.758002 54.249242 50.296123 54.026001 50.85736 54.025642 z M 43.069205 64.047769 L 36.228796 68.152428 L 51.443371 83.36907 L 55.54803 76.526594 L 43.069205 64.047769 z M 77.264534 68.606664 L 64.562467 81.308731 L 64.562467 85.904316 L 77.264534 73.204833 L 77.264534 68.606664 z" style="fill:#894efa;fill-opacity:1;stroke-width:4.23333;stroke-linecap:round;stroke-linejoin:round;stroke-miterlimit:128;stroke-opacity:0"/><path id="path3" d="m 48.881429,112.18333 c -0.726038,0 -1.410092,0.13946 -2.052356,0.41871 -0.642263,0.27924 -1.200687,0.65642 -1.675403,1.13113 -0.474717,0.48868 -0.851894,1.04706 -1.131139,1.68933 -0.279245,0.64226 -0.418709,1.32631 -0.418709,2.05235 0,0.72604 0.139464,1.41038 0.418709,2.05264 0.279245,0.64227 0.656422,1.20069 1.131139,1.67541 0.474716,0.48868 1.03314,0.86553 1.675403,1.14477 0.642264,0.27925 1.326318,0.41899 2.052356,0.41899 0.726037,0 1.410091,-0.13974 2.052355,-0.41899 0.642263,-0.27924 1.200928,-0.65609 1.689606,-1.14477 0.474717,-0.47472 0.851611,-1.03314 1.130855,-1.67541 0.279245,-0.64226 0.418993,-1.3266 0.418993,-2.05264 0,-0.72604 -0.139748,-1.41009 -0.418993,-2.05235 -0.279244,-0.64227 -0.656138,-1.20065 -1.130855,-1.68933 -0.488678,-0.47471 -1.047343,-0.85189 -1.689606,-1.13113 -0.642264,-0.27925 -1.326318,-0.41871 -2.052355,-0.41871 z m -16.182218,0.18152 c -0.09774,0 -0.167665,0.0279 -0.237477,0.0977 -0.06981,0.0698 -0.09772,0.13945 -0.09772,0.23718 v 9.5502 c 0,0.0977 0.02791,0.16767 0.09772,0.23748 0.06981,0.0698 0.139741,0.0977 0.237477,0.0977 h 2.080478 c 0.09774,0 0.167381,-0.0279 0.237192,-0.0977 0.06981,-0.0698 0.09772,-0.13974 0.09772,-0.23748 v -4.99837 c 0,-0.0977 0.02791,-0.15364 0.09772,-0.1676 0.05585,-0.014 0.111749,0.0279 0.167598,0.0977 l 3.644244,5.12421 c 0.05585,0.0698 0.139457,0.13959 0.237193,0.19544 0.09774,0.0559 0.195701,0.0838 0.293437,0.0838 h 2.066274 c 0.09774,0 0.167666,-0.0279 0.237477,-0.0977 0.06981,-0.0698 0.09772,-0.13974 0.09772,-0.23748 v -9.5502 c 0,-0.0977 -0.02791,-0.16737 -0.09772,-0.23718 -0.06981,-0.0698 -0.139741,-0.0977 -0.237477,-0.0977 h -2.066274 c -0.09774,0 -0.167666,0.0279 -0.237477,0.0977 -0.06981,0.0698 -0.09772,0.13945 -0.09772,0.23718 v 4.99866 c 0,0.0977 -0.02795,0.13943 -0.0838,0.15339 -0.06981,0.014 -0.125668,-0.0279 -0.181517,-0.0977 l -3.630041,-5.12393 c -0.05585,-0.0698 -0.139741,-0.13959 -0.237476,-0.19543 -0.09774,-0.0419 -0.195418,-0.0699 -0.293154,-0.0699 z m 22.339567,0 c -0.12566,0 -0.195306,0.0418 -0.237192,0.12555 -0.04189,0.0838 -0.04189,0.1815 0,0.27923 l 4.216347,9.50844 c 0.04189,0.0838 0.111903,0.15351 0.209638,0.20936 0.08377,0.0698 0.16758,0.0977 0.265315,0.0977 h 1.85692 c 0.09774,0 0.181499,-0.0279 0.279234,-0.0977 0.08377,-0.0558 0.153548,-0.12558 0.195435,-0.20936 l 4.258389,-9.56411 c 0.04189,-0.0698 0.02797,-0.1537 -0.01392,-0.23748 -0.04189,-0.0698 -0.125538,-0.11163 -0.223274,-0.11163 H 63.528 c -0.09774,0 -0.181541,0.028 -0.265315,0.0838 -0.09774,0.0698 -0.167752,0.13949 -0.209638,0.22326 l -2.443226,5.61281 c -0.04189,0.0838 -0.111706,0.12583 -0.181517,0.12583 -0.06981,0 -0.139629,-0.0421 -0.181516,-0.12583 l -2.457429,-5.61281 c -0.04189,-0.0838 -0.111662,-0.15345 -0.195436,-0.22326 -0.09774,-0.0558 -0.181497,-0.0838 -0.279233,-0.0838 z m 12.482297,0 c -0.09774,0 -0.167665,0.0279 -0.237477,0.0977 -0.06981,0.0698 -0.09772,0.13945 -0.09772,0.23718 v 9.5502 c 0,0.0977 0.02791,0.16767 0.09772,0.23748 0.06981,0.0698 0.139741,0.0977 0.237477,0.0977 h 7.106691 c 0.09774,0 0.167662,-0.0279 0.237474,-0.0977 0.06981,-0.0698 0.09772,-0.13974 0.09772,-0.23748 v -1.9268 c 0,-0.0977 -0.02792,-0.16738 -0.09772,-0.23719 -0.06981,-0.0698 -0.139738,-0.0977 -0.237474,-0.0977 h -4.342188 c -0.09774,0 -0.167382,-0.0279 -0.237193,-0.0977 -0.06981,-0.0698 -0.09801,-0.13975 -0.09801,-0.23748 v -0.53063 c 0,-0.0977 0.0282,-0.16738 0.09801,-0.23719 0.06981,-0.0698 0.139457,-0.0977 0.237193,-0.0977 h 3.783719 c 0.09774,0 0.167663,-0.0279 0.237474,-0.0977 0.06981,-0.0698 0.09772,-0.13974 0.09772,-0.23748 v -1.92679 c 0,-0.0977 -0.02792,-0.16767 -0.09772,-0.23748 -0.06981,-0.0698 -0.139738,-0.0977 -0.237474,-0.0977 h -3.783719 c -0.09774,0 -0.167382,-0.0279 -0.237193,-0.0977 -0.06981,-0.0698 -0.09801,-0.13945 -0.09801,-0.23719 v -0.58659 c 0,-0.0977 0.0282,-0.16738 0.09801,-0.23719 0.06981,-0.0698 0.139457,-0.0977 0.237193,-0.0977 h 4.342188 c 0.09774,0 0.167662,-0.0279 0.237474,-0.0977 0.06981,-0.0698 0.09772,-0.13974 0.09772,-0.23748 v -1.89896 c 0,-0.0977 -0.02792,-0.16737 -0.09772,-0.23718 -0.06981,-0.0698 -0.139738,-0.0977 -0.237474,-0.0977 z m 9.536279,0 c -0.09774,0 -0.181625,0.0279 -0.237474,0.0977 -0.06981,0.0698 -0.09772,0.13945 -0.09772,0.23718 v 9.5502 c 0,0.0977 0.02792,0.16767 0.09772,0.23748 0.05585,0.0698 0.139738,0.0977 0.237474,0.0977 h 6.967214 c 0.09774,0 0.167382,-0.0279 0.237194,-0.0977 0.06981,-0.0698 0.09771,-0.13974 0.09771,-0.23748 v -1.89867 c 0,-0.0977 -0.02792,-0.16767 -0.09771,-0.23748 -0.06981,-0.0698 -0.139458,-0.0977 -0.237194,-0.0977 h -4.202713 c -0.09774,0 -0.181625,-0.0279 -0.237474,-0.0977 -0.06981,-0.0698 -0.09772,-0.13974 -0.09772,-0.23748 v -6.98113 c 0,-0.0977 -0.02793,-0.16737 -0.09772,-0.23718 -0.06981,-0.0698 -0.139458,-0.0977 -0.237193,-0.0977 z m 8.167947,0 c -0.09774,0 -0.167663,0.0279 -0.237474,0.0977 -0.06981,0.0698 -0.09772,0.13945 -0.09772,0.23718 v 1.89896 c 0,0.0977 0.02792,0.16767 0.09772,0.23748 0.06981,0.0698 0.139738,0.0977 0.237474,0.0977 h 1.982477 c 0.09774,0 0.181586,0.0279 0.251397,0.0977 0.05585,0.0698 0.0838,0.13945 0.0838,0.23719 v 6.98113 c 0,0.0977 0.02792,0.16767 0.09772,0.23748 0.06981,0.0698 0.139739,0.0977 0.237474,0.0977 h 2.094115 c 0.09774,0 0.181586,-0.0279 0.251398,-0.0977 0.05585,-0.0698 0.08379,-0.13974 0.08379,-0.23748 v -6.98113 c 0,-0.0977 0.02792,-0.16738 0.09772,-0.23719 0.06981,-0.0698 0.139739,-0.0977 0.237474,-0.0977 h 1.954641 c 0.09774,0 0.181586,-0.0279 0.251397,-0.0977 0.05585,-0.0698 0.0838,-0.13974 0.0838,-0.23748 v -1.89896 c 0,-0.0146 -0.0049,-0.0252 -0.0063,-0.0386 0.0067,0.0368 0.01622,0.0728 0.03408,0.10851 0.572453,0.97736 1.158874,1.9268 1.745284,2.8483 0.572452,0.92151 1.145037,1.85707 1.703528,2.82046 0.04189,0.0698 0.08367,0.1675 0.125556,0.29316 0.02792,0.12566 0.04178,0.23746 0.04178,0.33519 v 3.18321 c 0,0.0977 0.02792,0.16767 0.09772,0.23747 0.06981,0.0698 0.139744,0.0977 0.237479,0.0977 h 2.108305 c 0.0977,0 0.16767,-0.0279 0.23748,-0.0977 0.0698,-0.0698 0.0977,-0.13973 0.0977,-0.23747 v -3.19713 c 0,-0.0977 0.0138,-0.19561 0.0557,-0.32127 0.0419,-0.12566 0.0839,-0.22331 0.12583,-0.30708 l 3.490574,-5.65484 c 0.0698,-0.12566 0.0976,-0.22333 0.0557,-0.29315 -0.0419,-0.0698 -0.11162,-0.0977 -0.20935,-0.0977 h -2.51311 c -0.0977,0 -0.18178,0.0279 -0.27952,0.0838 -0.0977,0.0558 -0.181394,0.12558 -0.223274,0.20935 l -1.70325,2.98806 c -0.0419,0.0698 -0.0978,0.11164 -0.16759,0.11164 -0.0698,0 -0.12571,-0.0418 -0.1676,-0.11164 l -1.717441,-2.98806 c -0.04189,-0.0838 -0.111616,-0.1535 -0.209351,-0.20935 -0.09774,-0.0559 -0.195423,-0.0838 -0.293158,-0.0838 h -2.485267 c -0.09774,0 -0.153591,0.0418 -0.181515,0.12556 -0.01281,0.0448 -0.01457,0.0864 -0.0111,0.12669 -0.01094,-0.0622 -0.03177,-0.11724 -0.07272,-0.16845 -0.06981,-0.0698 -0.153662,-0.0977 -0.251398,-0.0977 z m -36.343872,2.48526 c 0.349056,0 0.67029,0.0697 0.97746,0.20935 0.30717,0.15359 0.572505,0.33504 0.809864,0.57239 0.237358,0.23736 0.418888,0.51657 0.544549,0.8377 0.12566,0.32113 0.195435,0.65624 0.195435,1.0053 0,0.34906 -0.06977,0.68417 -0.195435,1.0053 -0.125661,0.32113 -0.307191,0.60035 -0.544549,0.8377 -0.237359,0.23736 -0.502694,0.43305 -0.809864,0.57268 -0.30717,0.15358 -0.628404,0.22327 -0.97746,0.22327 -0.349057,0 -0.670008,-0.0697 -0.977177,-0.22327 -0.30717,-0.13963 -0.572549,-0.33532 -0.795945,-0.57268 -0.237358,-0.23735 -0.418888,-0.51657 -0.544549,-0.8377 -0.12566,-0.32113 -0.195435,-0.65624 -0.195435,-1.0053 0,-0.34906 0.06977,-0.68417 0.195435,-1.0053 0.125661,-0.32113 0.307191,-0.60034 0.544549,-0.8377 0.223396,-0.23735 0.488775,-0.4188 0.795945,-0.57239 0.307169,-0.13962 0.62812,-0.20935 0.977177,-0.20935 z" style="font-size:25.4px;line-height:1;font-family:Heavitas;-inkscape-font-specification:Heavitas;letter-spacing:0;word-spacing:0;text-orientation:upright;display:inline;fill:#fff;stroke-width:4.23333;stroke-linecap:round;stroke-linejoin:round;stroke-miterlimit:128;paint-order:stroke fill markers"/><style id="style1" type="text/css">.st0{opacity:.2;fill:none;stroke:#000;stroke-width:2;stroke-linecap:round;stroke-linejoin:round;stroke-miterlimit:10}</style></svg>