<svg xmlns="http://www.w3.org/2000/svg" xml:space="preserve" id="svg3" width="512" height="512" version="1.1" viewBox="0 0 135.46666 135.46667"><path id="path3-3" d="M 33.866666,0 A 33.866665,33.866665 0 0 0 0,33.866666 V 101.6 a 33.866665,33.866665 0 0 0 33.866666,33.86666 H 101.6 A 33.866665,33.866665 0 0 0 135.46666,101.6 V 33.866666 A 33.866665,33.866665 0 0 0 101.6,0 Z" style="fill:#000;fill-opacity:1;stroke-width:4.23333;stroke-linecap:round;stroke-linejoin:round;stroke-miterlimit:128;stroke-opacity:0"/><path id="path4" d="M 33.866666,8.4666666 C 19.838634,8.4666669 8.4666669,19.838634 8.4666666,33.866666 V 101.6 H 127 V 33.866666 C 127,19.838634 115.62803,8.4666666 101.6,8.4666666 Z" style="fill:#ff7b0a;fill-opacity:1;stroke-width:4.23333;stroke-linecap:round;stroke-linejoin:round;stroke-miterlimit:128;stroke-opacity:0"/><path id="path1" d="m 58.486869,16.938501 c -0.40679,-0.02873 -0.826402,0.05974 -1.206128,0.279052 l -7.332369,4.233334 c -1.012774,0.58453 -1.359453,1.879207 -0.77463,2.891813 l 1.663464,2.881478 -21.421948,3.782715 c -0.299832,0.05317 -0.584697,0.170358 -0.835091,0.343648 -0.506876,0.350657 -0.835746,0.904824 -0.90072,1.517737 -0.77163,7.266546 1.238034,15.371659 5.189864,22.489066 3.951829,7.117402 9.886104,13.28375 17.270264,16.349906 1.443852,0.598495 3.016249,-0.520247 2.923852,-2.080493 -0.249759,-4.161044 1.184229,-9.730289 3.382739,-14.492139 1.643677,-3.56011 3.805348,-6.679297 5.600692,-8.494571 l 9.351367,16.196944 c -1.011294,0.585133 -1.357301,1.878958 -0.773079,2.890779 l 12.699999,21.997624 c 0.584736,1.010741 1.877484,1.357107 2.88923,0.774113 l 2.117183,3.666959 c 0.585116,1.011506 1.879391,1.358018 2.891297,0.773596 l 7.332368,-4.233333 c 1.012076,-0.584125 1.359096,-1.878304 0.775664,-2.89078 L 97.213703,82.14899 c 1.01074,-0.584736 1.357107,-1.877483 0.774113,-2.889229 l -12.7,-21.997624 c -0.584234,-1.011922 -1.87788,-1.359099 -2.890262,-0.775663 l -9.525517,-16.498734 5.499406,-3.175 c 0.788679,-0.455565 1.197293,-1.364873 1.014925,-2.257227 -0.501201,-2.449282 0.481052,-4.232809 2.583305,-5.96346 2.102259,-1.730649 5.313459,-3.056783 8.315771,-3.671094 1.708867,-0.349927 2.284451,-2.500428 0.979268,-3.657658 -3.031918,-2.688555 -7.114894,-3.700014 -11.193631,-3.963065 -4.078731,-0.263049 -8.231371,0.242824 -11.648385,0.942061 -0.223058,0.04551 -0.436868,0.126553 -0.63407,0.240296 l -5.499406,3.175 -2.116149,-3.66541 C 59.807738,17.3592 59.164851,16.986392 58.486869,16.938501 Z m 20.011698,4.53409 c 0.436179,0.0083 0.869752,0.02605 1.299145,0.05374 1.649799,0.106407 3.184921,0.398187 4.58525,0.821139 -1.837647,0.768567 -3.594188,1.733049 -5.104081,2.976046 -2.474842,2.037374 -4.191271,5.034493 -4.108276,8.45013 l -11.747087,6.782015 -4.233333,-7.332369 c -0.584454,-1.012876 -1.879741,-1.359579 -2.89233,-0.77463 -1.012875,0.584453 -1.359579,1.879224 -0.77463,2.891813 l 4.331002,7.501868 c -2.81351,2.343137 -5.236913,6.156945 -7.25072,10.518737 -0.486396,1.053503 -0.938195,2.138398 -1.350305,3.240629 C 46.914335,54.373164 41.202865,47.203056 39.526269,33.519917 l 15.023889,-2.654101 c 0.242843,-0.04229 0.476588,-0.126415 0.690397,-0.249081 l 5.498889,-3.174999 4.2323,7.330818 c 0.584452,1.012876 1.879224,1.359579 2.891813,0.77463 1.012875,-0.584454 1.360096,-1.879224 0.775147,-2.891813 l -4.2323,-7.330819 5.158858,-2.978629 c 2.702782,-0.53631 5.880045,-0.931332 8.933305,-0.873332 z m -20.935156,0.468705 1.05885,1.83348 -3.665409,2.11615 -1.058851,-1.83348 z M 35.353397,34.256823 C 37.234,49.209506 43.458634,57.908491 49.95509,60.689835 49.464158,62.553329 49.107191,64.428156 48.940681,66.263138 43.91947,63.356538 39.587974,58.7374 36.56986,53.301655 33.281184,47.378624 31.628463,40.69422 31.874023,34.871773 Z m 33.85168,7.8481 9.525517,16.498734 -3.665409,2.11615 -9.525517,-16.498734 z m 13.475147,19.105294 10.58385,18.332214 -7.332369,4.233333 -0.535885,-0.928109 c 0.122763,-0.06576 0.238736,-0.143483 0.346232,-0.232027 l 4.052983,-3.562573 c 0.877765,-0.771788 0.963825,-2.108958 0.192236,-2.986898 -0.666534,-0.758101 -1.775654,-0.940034 -2.649451,-0.434599 -0.119979,0.06956 -0.232831,0.150733 -0.33693,0.242363 l -3.735689,3.283003 -1.043864,-1.808158 c 0.122763,-0.06576 0.238736,-0.143483 0.346232,-0.232027 l 4.052983,-3.562573 c 0.877765,-0.771788 0.963825,-2.108958 0.192236,-2.986898 -0.666194,-0.758893 -1.775696,-0.941502 -2.649968,-0.436149 -0.120337,0.0695 -0.233538,0.150677 -0.337963,0.242362 l -3.73569,3.282487 -1.043864,-1.807641 c 0.122785,-0.06593 0.238758,-0.14382 0.346232,-0.232544 l 4.054017,-3.560506 c 0.87847,-0.772225 0.964097,-2.110568 0.191202,-2.988448 -0.666534,-0.758101 -1.775654,-0.940034 -2.64945,-0.434599 -0.119979,0.06955 -0.232832,0.150732 -0.336931,0.242362 l -3.735689,3.283004 -1.566829,-2.714046 z m 10.86652,23.055956 1.05885,1.83348 -3.66541,2.11615 -1.05885,-1.83348 z" style="fill:#000;fill-opacity:1;stroke-width:4.23333;stroke-miterlimit:128;paint-order:stroke fill markers"/><path id="path3" d="m 100.00726,112.18333 c -0.741951,0 -1.441961,0.14012 -2.099921,0.4201 -0.65796,0.27998 -1.21805,0.65787 -1.70802,1.13384 -0.48997,0.47596 -0.88177,1.03586 -1.16175,1.67982 -0.27998,0.64395 -0.42009,1.3301 -0.42009,2.05805 0,0.72795 0.14011,1.41381 0.42009,2.05777 0.27998,0.64395 0.67178,1.20385 1.16175,1.67982 0.48997,0.47597 1.05006,0.85386 1.70802,1.13384 0.65796,0.27998 1.35797,0.42009 2.099921,0.42009 0.60196,0 1.1477,-0.0699 1.63767,-0.2099 0.48997,-0.13999 0.95201,-0.33616 1.35798,-0.58814 0.40598,-0.25198 0.77,-0.55995 1.09198,-0.92393 0.32197,-0.34998 0.63003,-0.75597 0.89601,-1.18994 0.042,-0.084 0.0559,-0.16778 0.0279,-0.25178 -0.028,-0.07 -0.084,-0.12604 -0.16804,-0.16804 l -1.9877,-0.78409 c -0.098,-0.042 -0.18202,-0.042 -0.26602,0 -0.098,0.042 -0.16819,0.0981 -0.21019,0.16804 -0.23798,0.39198 -0.57378,0.71386 -0.97975,0.95185 -0.41997,0.25198 -0.88189,0.37822 -1.39986,0.37822 -0.349971,0 -0.686011,-0.0702 -0.993991,-0.22414 -0.32198,-0.15399 -0.58797,-0.34987 -0.82595,-0.58785 -0.23799,-0.23799 -0.42,-0.53218 -0.54599,-0.85416 -0.12599,-0.32198 -0.19595,-0.65768 -0.19595,-1.00766 0,-0.34998 0.07,-0.68597 0.19595,-1.00795 0.12599,-0.32198 0.308,-0.61613 0.54599,-0.86811 0.23798,-0.23798 0.50397,-0.43386 0.82595,-0.58785 0.30798,-0.15399 0.64402,-0.22415 0.993991,-0.22415 0.54597,0 1.00793,0.1121 1.3859,0.33608 0.37798,0.23798 0.71377,0.56002 0.97976,0.994 0.042,0.07 0.11219,0.12604 0.21019,0.16803 0.098,0.042 0.18197,0.042 0.27997,0 l 1.9877,-0.78408 c 0.084,-0.042 0.14004,-0.098 0.16804,-0.182 0.028,-0.084 0.0141,-0.16782 -0.0279,-0.23781 -0.26598,-0.43398 -0.56008,-0.82598 -0.88206,-1.18995 -0.32198,-0.34998 -0.686,-0.65799 -1.09197,-0.90998 -0.40598,-0.25198 -0.85378,-0.44815 -1.34374,-0.58813 -0.48997,-0.13999 -1.04991,-0.20991 -1.66587,-0.20991 z m -75.525356,0.014 c -0.44797,0 -0.909928,0.0421 -1.385896,0.14013 -0.475968,0.098 -0.909946,0.2798 -1.287921,0.51778 -0.391973,0.25199 -0.713814,0.58798 -0.965798,1.00795 -0.251983,0.41997 -0.377945,0.95213 -0.377945,1.59609 0,0.43397 0.06992,0.81186 0.209906,1.13384 0.125992,0.32197 0.308045,0.60192 0.532029,0.83991 0.223986,0.23798 0.475867,0.4199 0.769848,0.57389 0.279981,0.15399 0.560171,0.266 0.854151,0.36399 0.293981,0.098 0.573886,0.18216 0.853868,0.22415 0.265982,0.056 0.504037,0.0979 0.714024,0.13984 0.209985,0.042 0.419733,0.0839 0.629719,0.11194 0.209986,0.028 0.391995,0.0702 0.545985,0.11221 0.15399,0.042 0.265997,0.0978 0.36399,0.16776 0.09799,0.07 0.140128,0.16821 0.140128,0.2942 0,0.23799 -0.112137,0.4058 -0.322123,0.51779 -0.209986,0.126 -0.531913,0.182 -0.937887,0.182 -0.433971,0 -0.895928,-0.098 -1.385896,-0.27997 -0.489967,-0.18199 -0.99386,-0.44787 -1.497826,-0.76985 -0.07,-0.042 -0.154066,-0.0562 -0.25206,-0.0422 -0.09799,0.014 -0.167866,0.0701 -0.223862,0.14013 l -1.078014,1.55393 c -0.056,0.07 -0.08406,0.15407 -0.07006,0.25206 0.014,0.098 0.05618,0.18182 0.126171,0.23782 0.265983,0.20999 0.545844,0.4201 0.867823,0.60209 0.307979,0.19599 0.643974,0.36384 1.00795,0.50383 0.363976,0.13999 0.756018,0.25213 1.17599,0.32212 0.419972,0.084 0.867731,0.12589 1.357699,0.12589 0.60196,0 1.147988,-0.07 1.637955,-0.19595 0.489968,-0.12599 0.910032,-0.30791 1.260009,-0.57389 0.349977,-0.26599 0.616013,-0.60198 0.811999,-1.00795 0.195988,-0.40598 0.293927,-0.88205 0.293927,-1.44201 0,-0.60196 -0.11205,-1.09185 -0.350034,-1.49783 -0.237985,-0.39197 -0.531802,-0.71409 -0.881779,-0.96608 -0.349977,-0.23798 -0.728149,-0.43395 -1.134122,-0.55994 -0.405973,-0.12599 -0.769948,-0.20997 -1.105926,-0.27997 -0.06999,-0.014 -0.210025,-0.0421 -0.448009,-0.084 -0.237985,-0.042 -0.475997,-0.098 -0.72798,-0.16804 -0.251983,-0.07 -0.475885,-0.16773 -0.671872,-0.26573 -0.195987,-0.098 -0.293926,-0.22404 -0.293926,-0.35003 0,-0.12599 0.04189,-0.23817 0.125887,-0.30817 0.06999,-0.07 0.168219,-0.12576 0.294211,-0.16775 0.125992,-0.028 0.251911,-0.0421 0.391901,-0.0561 h 0.350035 c 0.349976,0 0.727863,0.056 1.133837,0.18199 0.405973,0.12599 0.853819,0.34999 1.329788,0.64397 0.06999,0.056 0.154065,0.0701 0.252059,0.0561 0.09799,-0.014 0.167865,-0.0701 0.223862,-0.14013 l 1.09197,-1.55393 c 0.056,-0.07 0.08406,-0.15407 0.07006,-0.25206 -0.014,-0.098 -0.05589,-0.16782 -0.125887,-0.23782 -0.573962,-0.43397 -1.162124,-0.76996 -1.778083,-1.00795 -0.629958,-0.22398 -1.329928,-0.33607 -2.113876,-0.33607 z m 17.163067,0.14013 c -0.09799,0 -0.168108,0.028 -0.238103,0.098 -0.07,0.07 -0.09798,0.13982 -0.09798,0.23781 v 9.57539 c 0,0.098 0.02798,0.16811 0.09798,0.2381 0.06999,0.07 0.140109,0.098 0.238103,0.098 h 2.113876 c 0.09799,0 0.167822,-0.028 0.237818,-0.098 0.06999,-0.07 0.09797,-0.1401 0.09797,-0.2381 v -2.08568 c 0,-0.098 0.02826,-0.16811 0.09826,-0.2381 0.07,-0.07 0.139825,-0.098 0.237819,-0.098 h 1.217856 c 0.685955,0 1.274073,-0.0979 1.792038,-0.29392 0.503967,-0.18199 0.923989,-0.44811 1.273965,-0.78409 0.335978,-0.32198 0.587903,-0.71373 0.755892,-1.1757 0.167989,-0.44797 0.252059,-0.938 0.252059,-1.45596 0,-0.51797 -0.09822,-1.00795 -0.294212,-1.46992 -0.209985,-0.46197 -0.475736,-0.85393 -0.811714,-1.2039 -0.349977,-0.34998 -0.742216,-0.61601 -1.204186,-0.812 -0.46197,-0.19599 -0.965906,-0.29393 -1.483872,-0.29393 z m 9.519277,0 c -0.09799,0 -0.167823,0.028 -0.237818,0.098 -0.07,0.07 -0.09798,0.13982 -0.09798,0.23781 v 9.57539 c 0,0.098 0.02798,0.16811 0.09798,0.2381 0.07,0.07 0.139824,0.098 0.237818,0.098 h 2.085964 c 0.09799,0 0.167824,-0.028 0.237819,-0.098 0.06999,-0.07 0.09798,-0.1401 0.09798,-0.2381 v -2.26767 c 0,-0.098 0.02827,-0.16811 0.09826,-0.2381 0.07,-0.07 0.139826,-0.098 0.237819,-0.098 h 0.307881 c 0.09799,0 0.196219,0.0281 0.294212,0.0701 0.09799,0.056 0.181823,0.12596 0.23782,0.19595 l 0.882058,1.21786 c 0.293981,0.40597 0.587802,0.79797 0.881783,1.18994 0.056,0.07 0.140062,0.14001 0.252055,0.182 0.09799,0.056 0.195932,0.084 0.293926,0.084 h 2.604039 c 0.09799,0 0.153996,-0.0422 0.181994,-0.14013 0.028,-0.084 0.01383,-0.16782 -0.04216,-0.23781 -0.307979,-0.40598 -0.657841,-0.86802 -1.049815,-1.35799 -0.391975,-0.48997 -0.769906,-0.97975 -1.119883,-1.44172 -0.056,-0.07 -0.07015,-0.15411 -0.04216,-0.2381 0.014,-0.07 0.07013,-0.13996 0.140129,-0.19596 0.223985,-0.13999 0.419818,-0.32203 0.601806,-0.53202 0.181988,-0.20999 0.335973,-0.43409 0.461965,-0.70007 0.125991,-0.26598 0.238171,-0.54593 0.308167,-0.83991 0.06999,-0.29398 0.09798,-0.5878 0.09798,-0.88178 0,-0.54597 -0.08403,-1.0359 -0.266016,-1.48387 -0.181988,-0.44797 -0.434197,-0.84006 -0.756177,-1.16204 -0.321979,-0.32197 -0.713733,-0.58785 -1.175702,-0.76984 -0.46197,-0.18199 -0.952148,-0.26602 -1.498112,-0.26602 z m 10.051307,0 c -0.09799,0 -0.167824,0.028 -0.237819,0.098 -0.07,0.07 -0.09798,0.13982 -0.09798,0.23781 v 9.57539 c 0,0.098 0.028,0.16811 0.09798,0.2381 0.06999,0.07 0.139826,0.098 0.237819,0.098 h 7.125712 c 0.09799,0 0.167824,-0.028 0.23782,-0.098 0.07,-0.07 0.09798,-0.1401 0.09798,-0.2381 v -1.93188 c 0,-0.098 -0.028,-0.16782 -0.09798,-0.23782 -0.07,-0.07 -0.139826,-0.098 -0.23782,-0.098 h -4.35392 c -0.09799,0 -0.167824,-0.028 -0.237819,-0.098 -0.07,-0.07 -0.09798,-0.14011 -0.09798,-0.2381 v -0.53203 c 0,-0.098 0.028,-0.16782 0.09798,-0.23782 0.07,-0.07 0.139825,-0.098 0.237819,-0.098 h 3.793984 c 0.09799,0 0.167819,-0.028 0.237814,-0.098 0.07,-0.07 0.09798,-0.14011 0.09798,-0.2381 v -1.93188 c 0,-0.098 -0.028,-0.16811 -0.09798,-0.23811 -0.06999,-0.07 -0.13982,-0.098 -0.237814,-0.098 h -3.793984 c -0.09799,0 -0.167824,-0.028 -0.237819,-0.098 -0.07,-0.07 -0.09798,-0.13982 -0.09798,-0.23781 v -0.58814 c 0,-0.098 0.028,-0.16783 0.09798,-0.23782 0.07,-0.07 0.139825,-0.098 0.237819,-0.098 h 4.35392 c 0.09799,0 0.167824,-0.028 0.23782,-0.098 0.07,-0.07 0.09798,-0.14011 0.09798,-0.23811 v -1.90397 c 0,-0.098 -0.028,-0.16782 -0.09798,-0.23781 -0.07,-0.07 -0.139826,-0.098 -0.23782,-0.098 z m -30.587974,0.014 c -0.09799,0 -0.167822,0.028 -0.237818,0.098 -0.06999,0.07 -0.09797,0.1401 -0.09797,0.2381 v 5.66947 c 0,0.65795 0.111851,1.26003 0.321838,1.80599 0.209986,0.54596 0.518,1.00792 0.909974,1.3859 0.391975,0.37797 0.867844,0.67179 1.413808,0.88177 0.545964,0.20999 1.16195,0.32213 1.833906,0.32213 0.671955,0 1.287941,-0.11214 1.833905,-0.32213 0.545964,-0.20998 1.021834,-0.5038 1.413808,-0.88177 0.391974,-0.37798 0.699989,-0.83994 0.909974,-1.3859 0.209987,-0.54596 0.308167,-1.14804 0.308167,-1.80599 v -5.66947 c 0,-0.098 -0.02798,-0.1681 -0.09798,-0.2381 -0.06999,-0.07 -0.14011,-0.098 -0.238103,-0.098 h -2.113876 c -0.09799,0 -0.167823,0.028 -0.237818,0.098 -0.06999,0.07 -0.09826,0.1401 -0.09826,0.2381 v 5.66947 c 0,0.36397 -0.05576,0.65803 -0.167754,0.89601 -0.125992,0.23799 -0.266065,0.43395 -0.434054,0.55995 -0.167989,0.13999 -0.349998,0.23793 -0.545985,0.29392 -0.195987,0.056 -0.378039,0.084 -0.532029,0.084 -0.15399,0 -0.336042,-0.028 -0.53203,-0.084 -0.195986,-0.056 -0.377711,-0.15393 -0.5457,-0.29392 -0.181988,-0.126 -0.322061,-0.32196 -0.434053,-0.55995 -0.125992,-0.23798 -0.181995,-0.53204 -0.181995,-0.89601 v -5.66947 c 0,-0.098 -0.02798,-0.1681 -0.09798,-0.2381 -0.06999,-0.07 -0.140109,-0.098 -0.238103,-0.098 z m 40.205513,0 c -0.09799,0 -0.16811,0.028 -0.238106,0.098 -0.07,0.07 -0.09798,0.1401 -0.09798,0.2381 v 9.56114 c 0,0.098 0.028,0.16811 0.09798,0.2381 0.07,0.07 0.140112,0.098 0.238106,0.098 h 2.113873 c 0.09799,0 0.167824,-0.028 0.237819,-0.098 0.07,-0.07 0.09798,-0.14011 0.09798,-0.2381 v -4.50772 c 0,-0.098 0.04216,-0.1398 0.126168,-0.1538 0.08399,-0.014 0.153957,0.028 0.195954,0.098 l 2.351692,3.7937 c 0.056,0.07 0.140107,0.11192 0.238101,0.11192 0.09799,0 0.181866,-0.0419 0.223864,-0.11192 l 2.351973,-3.7937 c 0.056,-0.07 0.12592,-0.11198 0.20991,-0.098 0.084,0.014 0.12617,0.0558 0.12617,0.1538 v 4.50772 c 0,0.098 0.028,0.16811 0.098,0.2381 0.07,0.07 0.13982,0.098 0.23782,0.098 h 2.11387 c 0.098,0 0.16811,-0.028 0.23811,-0.098 0.07,-0.07 0.098,-0.14011 0.098,-0.2381 v -9.56114 c 0,-0.098 -0.028,-0.1681 -0.098,-0.2381 -0.07,-0.07 -0.14012,-0.098 -0.23811,-0.098 h -1.95979 c -0.098,0 -0.19593,0.028 -0.29392,0.084 -0.098,0.056 -0.18211,0.12595 -0.23811,0.19595 l -2.687768,3.94778 c -0.042,0.07 -0.112004,0.11193 -0.181999,0.11193 -0.07,0 -0.139953,-0.0419 -0.195949,-0.11193 l -2.68777,-3.94778 c -0.042,-0.07 -0.126157,-0.13995 -0.224151,-0.19595 -0.09799,-0.056 -0.195932,-0.084 -0.293925,-0.084 z m 16.770885,0 c -0.098,0 -0.195981,0.028 -0.279971,0.084 -0.098,0.07 -0.15396,0.13986 -0.19596,0.22386 l -4.05971,9.47741 c -0.042,0.07 -0.0562,0.13996 -0.0422,0.19595 0.014,0.056 0.0281,0.0981 0.0701,0.14013 0.028,0.042 0.0699,0.07 0.12589,0.084 0.042,0.014 0.0981,0.0279 0.14012,0.0279 h 2.40781 c 0.098,0 0.18197,-0.028 0.27997,-0.098 0.084,-0.056 0.13999,-0.12591 0.18199,-0.2099 l 0.3919,-0.83992 c 0.042,-0.084 0.098,-0.15415 0.19595,-0.22414 0.084,-0.056 0.18198,-0.084 0.27997,-0.084 h 2.953791 c 0.098,0 0.18198,0.028 0.27997,0.084 0.084,0.07 0.15424,0.14015 0.19624,0.22414 l 0.37794,0.83992 c 0.042,0.084 0.11192,0.15391 0.20991,0.2099 0.084,0.07 0.18198,0.098 0.27997,0.098 h 2.39385 c 0.15399,0 0.25188,-0.0422 0.30788,-0.14013 0.042,-0.098 0.0562,-0.18174 0.0142,-0.26573 l -4.08791,-9.51956 c -0.042,-0.084 -0.098,-0.15387 -0.182,-0.22386 -0.098,-0.056 -0.18197,-0.084 -0.27997,-0.084 z m 17.540721,0 c -0.098,0 -0.15399,0.0419 -0.18199,0.12589 -0.028,0.098 -0.0138,0.18202 0.0282,0.26601 0.57396,0.97994 1.16192,1.93187 1.74988,2.85581 0.57396,0.92394 1.14777,1.86197 1.70774,2.8279 0.042,0.07 0.0842,0.16794 0.12616,0.29393 0.028,0.12599 0.0419,0.23808 0.0419,0.33608 v 3.1916 c 0,0.098 0.028,0.16811 0.098,0.2381 0.07,0.07 0.14012,0.098 0.23811,0.098 h 2.11387 c 0.098,0 0.16783,-0.028 0.23782,-0.098 0.07,-0.07 0.098,-0.14011 0.098,-0.2381 v -3.20556 c 0,-0.098 0.0141,-0.19613 0.0561,-0.32212 0.042,-0.12599 0.0839,-0.22389 0.12588,-0.30789 l 3.49977,-5.66975 c 0.07,-0.12599 0.0981,-0.22393 0.0561,-0.29392 -0.042,-0.07 -0.11191,-0.098 -0.2099,-0.098 h -2.52002 c -0.098,0 -0.18198,0.028 -0.27997,0.084 -0.098,0.056 -0.18187,0.1259 -0.22387,0.20989 l -1.70801,2.99594 c -0.042,0.07 -0.0981,0.11193 -0.16805,0.11193 -0.07,0 -0.12604,-0.0419 -0.16803,-0.11193 l -1.72169,-2.99594 c -0.042,-0.084 -0.11191,-0.1539 -0.20991,-0.20989 -0.098,-0.056 -0.19622,-0.084 -0.29421,-0.084 z m -60.713981,2.56189 h 1.315832 c 0.195987,0 0.364083,0.028 0.518073,0.098 0.15399,0.07 0.279952,0.16798 0.377945,0.27997 0.09799,0.11199 0.182108,0.23796 0.238103,0.37795 0.042,0.15399 0.06978,0.29402 0.06978,0.44801 0,0.29398 -0.08383,0.54586 -0.237819,0.76984 -0.167988,0.23799 -0.43411,0.35004 -0.784088,0.35004 h -1.497826 c -0.09799,0 -0.167824,-0.028 -0.237819,-0.098 -0.06999,-0.07 -0.09826,-0.14011 -0.09826,-0.2381 v -1.65191 c 0,-0.098 0.02826,-0.16783 0.09826,-0.23782 0.07,-0.07 0.139825,-0.098 0.237819,-0.098 z m 9.491366,0 h 1.483871 c 0.195987,0 0.364125,0.0419 0.504116,0.11192 0.125991,0.084 0.237846,0.18194 0.321841,0.29393 0.06999,0.12599 0.126041,0.238 0.168039,0.36399 0.028,0.12599 0.04189,0.23809 0.04189,0.33608 0,0.18199 -0.028,0.33597 -0.09798,0.46196 -0.07,0.12599 -0.15378,0.23785 -0.251774,0.32184 -0.09799,0.098 -0.210085,0.15396 -0.336077,0.19595 -0.125992,0.042 -0.23804,0.0701 -0.350032,0.0701 h -1.483871 c -0.09799,0 -0.167823,-0.028 -0.237819,-0.098 -0.06999,-0.07 -0.09826,-0.14011 -0.09826,-0.2381 v -1.48387 c 0,-0.098 0.02827,-0.16783 0.09826,-0.23782 0.07,-0.07 0.139826,-0.098 0.237819,-0.098 z m 34.647684,1.70773 c 0.042,0 0.0842,0.0422 0.12617,0.12617 0.112,0.26598 0.238,0.55984 0.36399,0.86782 0.12599,0.32198 0.2378,0.58797 0.3358,0.82596 0.042,0.084 0.0559,0.15391 0.0139,0.2099 -0.042,0.07 -0.11191,0.098 -0.2099,0.098 h -1.24577 c -0.098,0 -0.1682,-0.028 -0.21019,-0.098 -0.042,-0.056 -0.042,-0.12591 0,-0.2099 l 0.70006,-1.69378 c 0.042,-0.084 0.0839,-0.12617 0.12589,-0.12617 z" style="font-size:25.4px;line-height:1;font-family:Heavitas;-inkscape-font-specification:Heavitas;letter-spacing:0;word-spacing:0;text-orientation:upright;fill:#fff;fill-opacity:1;stroke:none;stroke-width:4.23333;stroke-linecap:round;stroke-linejoin:round;stroke-miterlimit:128"/><style id="style1" type="text/css">.st0{opacity:.2;fill:none;stroke:#000;stroke-width:2;stroke-linecap:round;stroke-linejoin:round;stroke-miterlimit:10}</style></svg>