<svg xmlns="http://www.w3.org/2000/svg" xml:space="preserve" id="svg1" width="512" height="512" version="1.1" viewBox="0 0 135.46666 135.46667"><path id="path3-3" d="M 33.866666,0 A 33.866665,33.866665 0 0 0 0,33.866666 V 101.6 a 33.866665,33.866665 0 0 0 33.866666,33.86666 H 101.6 A 33.866665,33.866665 0 0 0 135.46666,101.6 V 33.866666 A 33.866665,33.866665 0 0 0 101.6,0 Z" style="fill:#000;fill-opacity:1;stroke-width:4.23333;stroke-linecap:round;stroke-linejoin:round;stroke-miterlimit:128;stroke-opacity:0"/><path id="path4" d="M 33.866666 8.4666666 C 19.838648 8.4666669 8.4666669 19.838648 8.4666666 33.866666 L 8.4666666 101.6 L 127 101.6 L 127 33.866666 C 127 19.838648 115.62801 8.4666666 101.6 8.4666666 L 33.866666 8.4666666 z M 82.421841 16.93385 C 90.091593 16.94115 97.555021 20.932769 101.65788 28.039115 C 107.45095 38.073026 104.41262 50.729158 95.093419 57.255936 C 97.315321 58.383426 99.259727 60.064811 100.5644 62.318159 L 100.5644 62.318676 L 100.5644 62.319193 L 100.5644 62.31971 L 100.5644 62.320226 C 104.18888 68.59799 102.02177 76.687945 95.744026 80.312409 C 91.63418 82.685226 86.844886 82.366355 82.943257 80.246264 C 82.828642 84.685383 80.707385 88.994126 76.597391 91.367032 C 70.319627 94.991498 62.229673 92.824936 58.605208 86.547171 L 58.605208 86.546654 L 58.605208 86.546137 L 58.605208 86.545621 L 58.605208 86.545104 C 57.304087 84.289631 56.816752 81.765387 56.948978 79.277331 C 46.638227 84.0801 34.160703 80.383635 28.368811 70.351777 C 22.246849 59.74822 25.898085 46.127793 36.501648 40.005826 C 41.578855 37.074496 47.335979 36.43984 52.642264 37.67987 L 44.233992 29.345495 C 43.403181 28.522522 43.397169 27.18176 44.220556 26.351363 C 45.043296 25.521928 46.382465 25.515919 47.212621 26.337927 L 57.978372 37.00756 L 54.120727 22.351607 C 53.823047 21.221133 54.498168 20.063386 55.628645 19.765718 C 56.759119 19.468039 57.916866 20.14316 58.214534 21.273637 L 61.23037 32.736503 C 61.721376 31.112867 62.331239 29.520055 63.183223 28.041182 C 63.766684 27.0281 65.060981 26.679885 66.074002 27.263452 C 67.086896 27.847091 67.434869 29.141345 66.851216 30.154231 C 63.751737 35.534325 63.51193 42.359089 66.847598 48.136596 L 66.847598 48.137113 L 66.847598 48.13763 L 66.847598 48.138146 L 66.847598 48.138663 L 81.419835 73.374849 C 83.900378 77.671269 89.330415 79.127028 93.626842 76.646483 C 97.922515 74.166378 99.37877 68.735543 96.900027 64.439477 L 96.898477 64.43741 C 95.479946 61.989239 93.026486 60.413187 90.318 60.060416 C 90.161686 60.016019 90.011004 59.953767 89.868932 59.874898 C 89.286284 60.080099 88.744782 60.418088 88.150174 60.57408 C 87.0199 60.87034 85.863358 60.194689 85.566352 59.064611 C 85.269763 57.934169 85.945487 56.777271 87.075821 56.480273 C 88.584795 56.084403 90.045871 55.496754 91.417675 54.715006 C 91.418975 54.714206 91.420509 54.713739 91.421809 54.712939 C 100.03626 49.732232 102.96806 38.773094 97.99195 30.154231 C 94.656315 24.376729 88.626764 21.17205 82.417707 21.16615 C 81.249108 21.165295 80.302304 20.217565 80.302591 19.048966 C 80.303446 17.87956 81.252437 16.93245 82.421841 16.93385 z M 74.470389 18.490861 C 74.653172 18.467844 74.83873 18.468666 75.02281 18.493961 C 75.772352 18.597017 76.409892 19.092313 76.695059 19.793107 C 77.136509 20.876062 76.616064 22.1118 75.532856 22.552628 C 74.807593 22.848035 74.102447 23.190562 73.421874 23.577889 C 73.420574 23.578689 73.41904 23.579156 73.41774 23.579956 C 72.74461 23.971301 72.097187 24.405422 71.480391 24.880652 C 70.554428 25.594372 69.225185 25.42223 68.51158 24.496179 C 67.797974 23.570082 67.970351 22.240816 68.896569 21.527368 C 69.66458 20.935577 70.469627 20.394794 71.308308 19.908345 C 71.313638 19.905645 71.318928 19.903194 71.324328 19.900594 C 72.166627 19.420954 73.037895 18.996523 73.935538 18.630904 C 74.107597 18.560732 74.287606 18.513877 74.470389 18.490861 z M 82.632165 29.001847 C 86.064281 29.083197 89.382358 30.894696 91.214586 34.068204 C 94.006552 38.904033 92.333846 45.149295 87.498017 47.941259 C 82.662188 50.733227 76.416933 49.060518 73.624962 44.22469 C 70.832998 39.388863 72.505703 33.141538 77.341531 30.349568 C 78.550489 29.651578 79.84865 29.234365 81.157836 29.074194 C 81.648778 29.014134 82.14186 28.990227 82.632165 29.001847 z M 82.553616 33.211926 C 82.268361 33.206226 81.9816 33.221528 81.695271 33.257918 C 80.931731 33.354938 80.172337 33.605553 79.458715 34.017561 C 76.604222 35.665606 75.642844 39.253014 77.290889 42.107507 C 78.938931 44.962002 82.526338 45.923376 85.380834 44.275333 C 88.235327 42.627293 89.196707 39.038337 87.54866 36.183837 C 86.467131 34.310576 84.550423 33.252146 82.553616 33.211926 z M 47.568155 41.249161 C 44.52877 41.256961 41.446442 42.038336 38.617281 43.671752 C 29.995059 48.649789 27.057216 59.612377 32.035254 68.234594 C 37.012248 76.854994 47.972057 79.791836 56.593444 74.818171 C 56.595244 74.817171 56.597745 74.817204 56.599645 74.816104 C 57.960174 74.019629 59.19727 73.050644 60.29296 71.943411 C 61.115128 71.113409 62.4543 71.106467 63.285025 71.927908 C 64.116404 72.75031 64.123349 74.091075 63.300528 74.922041 C 62.84613 75.381227 62.256432 75.698383 61.761604 76.118867 C 61.775914 76.260444 61.775914 76.403104 61.761604 76.544681 C 60.717142 79.067089 60.85962 81.979081 62.273201 84.429471 C 64.753739 88.725898 70.183785 90.181645 74.480207 87.701106 C 78.776591 85.220646 80.232386 79.788458 77.751842 75.492032 L 63.181672 50.253779 C 63.180872 50.252479 63.180405 50.251462 63.179605 50.250162 C 60.068054 44.863763 54.620192 41.696237 48.867301 41.293086 C 48.435716 41.262846 48.002355 41.248061 47.568155 41.249161 z M 47.819303 49.099845 C 51.251793 49.181195 54.572081 50.992688 56.404308 54.166202 C 59.196281 59.00203 57.52305 65.24729 52.687223 68.039257 C 47.851389 70.831224 41.604582 69.158 38.812618 64.322171 C 36.020646 59.486342 37.695423 53.241088 42.531254 50.449116 C 43.740208 49.751125 45.036305 49.331846 46.345491 49.171675 C 46.836433 49.111615 47.328945 49.088225 47.819303 49.099845 z M 47.743338 53.311991 C 47.458083 53.306291 47.170805 53.321086 46.884476 53.357466 C 46.120936 53.454486 45.359992 53.703034 44.64637 54.115042 C 41.791877 55.763089 40.830497 59.350494 42.478544 62.204988 C 44.126584 65.059483 47.715543 66.020861 50.570039 64.372814 C 53.424533 62.724771 54.38643 59.13788 52.738382 56.283386 C 51.656854 54.41012 49.740146 53.352211 47.743338 53.311991 z" style="fill:#ff0;fill-opacity:1;stroke-width:4.23333;stroke-linecap:round;stroke-linejoin:round;stroke-miterlimit:128;stroke-opacity:0"/><path id="text1" d="m 49.032704,112.18333 c -0.726037,0 -1.410091,0.13975 -2.052355,0.41899 -0.642263,0.27925 -1.200971,0.65614 -1.675687,1.13086 -0.474716,0.48868 -0.85161,1.04734 -1.130855,1.6896 -0.279244,0.64227 -0.418992,1.32632 -0.418992,2.05236 0,0.72604 0.139748,1.41009 0.418992,2.05235 0.279245,0.64226 0.656139,1.20069 1.130855,1.67541 0.474716,0.48868 1.033424,0.86581 1.675687,1.14506 0.642264,0.27924 1.326318,0.4187 2.052355,0.4187 0.726037,0 1.410091,-0.13946 2.052354,-0.4187 0.642264,-0.27925 1.200928,-0.65638 1.689606,-1.14506 0.474717,-0.47472 0.85161,-1.03315 1.130855,-1.67541 0.279245,-0.64226 0.418993,-1.32631 0.418993,-2.05235 0,-0.72604 -0.139748,-1.41009 -0.418993,-2.05236 -0.279245,-0.64226 -0.656138,-1.20092 -1.130855,-1.6896 -0.488678,-0.47472 -1.047342,-0.85161 -1.689606,-1.13086 -0.642263,-0.27924 -1.326317,-0.41899 -2.052354,-0.41899 z m 38.32634,0 c -0.726038,0 -1.410095,0.13975 -2.052359,0.41899 -0.642264,0.27925 -1.200683,0.65614 -1.6754,1.13086 -0.474717,0.48868 -0.851896,1.04734 -1.131141,1.6896 -0.279245,0.64227 -0.418708,1.32632 -0.418708,2.05236 0,0.72604 0.139463,1.41009 0.418708,2.05235 0.279245,0.64226 0.656424,1.20069 1.131141,1.67541 0.474717,0.48868 1.033136,0.86581 1.6754,1.14506 0.642264,0.27924 1.326321,0.4187 2.052359,0.4187 0.726032,0 1.410089,-0.13946 2.052353,-0.4187 0.642264,-0.27925 1.200925,-0.65638 1.689604,-1.14506 0.474717,-0.47472 0.85161,-1.03315 1.130855,-1.67541 0.279246,-0.64226 0.418995,-1.32631 0.418995,-2.05235 0,-0.72604 -0.139749,-1.41009 -0.418995,-2.05236 -0.279245,-0.64226 -0.656138,-1.20092 -1.130855,-1.6896 -0.488679,-0.47472 -1.04734,-0.85161 -1.689604,-1.13086 -0.642264,-0.27924 -1.326321,-0.41899 -2.052353,-0.41899 z m -55.318416,0.18152 c -0.12566,0 -0.19559,0.0421 -0.237477,0.12584 -0.04189,0.0838 -0.04189,0.1815 0,0.27923 l 4.216631,9.50815 c 0.04189,0.0838 0.111902,0.15351 0.209638,0.20936 0.08377,0.0698 0.167295,0.098 0.265031,0.098 h 1.857203 c 0.09774,0 0.181498,-0.0282 0.279234,-0.098 0.08377,-0.0559 0.153548,-0.12558 0.195435,-0.20936 l 4.258387,-9.56411 c 0.04189,-0.0698 0.02797,-0.1537 -0.01392,-0.23748 -0.04189,-0.0698 -0.125537,-0.11163 -0.223273,-0.11163 h -2.317954 c -0.09774,0 -0.181257,0.028 -0.26503,0.0838 -0.09774,0.0698 -0.167752,0.13978 -0.209639,0.22355 l -2.443225,5.6128 c -0.04189,0.0838 -0.111705,0.12556 -0.181516,0.12556 -0.06981,0 -0.13963,-0.0418 -0.181516,-0.12556 l -2.457429,-5.6128 c -0.04189,-0.0838 -0.111662,-0.15374 -0.195435,-0.22355 -0.09774,-0.0559 -0.181498,-0.0838 -0.279234,-0.0838 z m 24.043086,0 c -0.09774,0 -0.181628,0.0279 -0.237477,0.0977 -0.06981,0.0698 -0.09772,0.13974 -0.09772,0.23748 v 9.5502 c 0,0.0977 0.02791,0.16738 0.09772,0.23719 0.05585,0.0698 0.139741,0.098 0.237477,0.098 h 6.967211 c 0.09774,0 0.167381,-0.0282 0.237192,-0.098 0.06981,-0.0698 0.09772,-0.13946 0.09772,-0.23719 v -1.89896 c 0,-0.0977 -0.02791,-0.16739 -0.09772,-0.2372 -0.06981,-0.0698 -0.139456,-0.0977 -0.237192,-0.0977 h -4.202711 c -0.09774,0 -0.181628,-0.0282 -0.237477,-0.098 -0.06981,-0.0698 -0.09772,-0.13945 -0.09772,-0.23719 v -6.98113 c 0,-0.0977 -0.02791,-0.16766 -0.09772,-0.23748 -0.06981,-0.0698 -0.139741,-0.0977 -0.237477,-0.0977 z m 12.91492,0 c -0.09774,0 -0.167381,0.0279 -0.237192,0.0977 -0.06981,0.0698 -0.09772,0.13974 -0.09772,0.23748 v 1.89896 c 0,0.0977 0.02791,0.16738 0.09772,0.23719 0.06981,0.0698 0.139457,0.0977 0.237192,0.0977 h 1.982759 c 0.09774,0 0.181585,0.0279 0.251396,0.0977 0.05585,0.0698 0.08352,0.13974 0.08352,0.23748 v 6.98113 c 0,0.0977 0.02819,0.16738 0.098,0.23719 0.06981,0.0698 0.139457,0.098 0.237193,0.098 h 2.094396 c 0.09774,0 0.181587,-0.0282 0.251398,-0.098 0.05585,-0.0698 0.0838,-0.13946 0.0838,-0.23719 v -6.98113 c 0,-0.0977 0.02792,-0.16767 0.09772,-0.23748 0.06981,-0.0698 0.139458,-0.0977 0.237194,-0.0977 h 1.954919 c 0.09774,0 0.181301,-0.0279 0.251112,-0.0977 0.05585,-0.0698 0.0838,-0.13945 0.0838,-0.23719 v -1.89896 c 0,-0.0977 -0.02792,-0.16766 -0.0838,-0.23748 -0.06981,-0.0698 -0.153376,-0.0977 -0.251112,-0.0977 z m 25.439254,0 c -0.09774,0 -0.167382,0.0279 -0.237193,0.0977 -0.06981,0.0698 -0.09771,0.13974 -0.09771,0.23748 v 9.5502 c 0,0.0977 0.02792,0.16738 0.09771,0.23719 0.06981,0.0698 0.139457,0.098 0.237193,0.098 h 2.080476 c 0.09774,0 0.167382,-0.0282 0.237193,-0.098 0.06981,-0.0698 0.09772,-0.13946 0.09772,-0.23719 v -4.99866 c 0,-0.0977 0.0282,-0.15335 0.098,-0.16731 0.05585,-0.014 0.111467,0.0279 0.167316,0.0977 l 3.644247,5.12392 c 0.0559,0.0698 0.13973,0.13987 0.23747,0.19572 0.0977,0.0559 0.19542,0.0838 0.29315,0.0838 h 2.06628 c 0.0977,0 0.16766,-0.0282 0.23747,-0.098 0.0698,-0.0698 0.0977,-0.13946 0.0977,-0.23719 v -9.5502 c 0,-0.0977 -0.0279,-0.16766 -0.0977,-0.23748 -0.0698,-0.0698 -0.13973,-0.0977 -0.23747,-0.0977 h -2.06628 c -0.0977,0 -0.16766,0.0279 -0.23747,0.0977 -0.0698,0.0698 -0.0977,0.13974 -0.0977,0.23748 v 4.99837 c 0,0.0977 -0.0279,0.13972 -0.0838,0.15368 -0.0698,0.014 -0.12567,-0.0279 -0.18152,-0.0977 l -3.630035,-5.12421 c -0.05585,-0.0698 -0.139738,-0.13958 -0.237474,-0.19543 -0.09774,-0.0419 -0.195422,-0.0699 -0.293152,-0.0699 z m -29.641681,0.0139 c -0.09774,0 -0.181627,0.0279 -0.237476,0.0977 -0.06981,0.0698 -0.09772,0.13975 -0.09772,0.23748 v 9.53628 c 0,0.0977 0.02791,0.16738 0.09772,0.23719 0.05585,0.0698 0.13974,0.098 0.237476,0.098 h 2.108031 c 0.09774,0 0.167666,-0.0282 0.237477,-0.098 0.06981,-0.0698 0.09772,-0.13946 0.09772,-0.23719 v -9.53627 c 0,-0.0977 -0.02791,-0.16767 -0.09772,-0.23748 -0.06981,-0.0698 -0.139741,-0.0977 -0.237477,-0.0977 z m 13.431634,0 c -0.09774,0 -0.181631,0.0279 -0.23748,0.0977 -0.06981,0.0698 -0.09772,0.13975 -0.09772,0.23748 v 9.53628 c 0,0.0977 0.02792,0.16738 0.09772,0.23719 0.05585,0.0698 0.139744,0.098 0.23748,0.098 h 2.108312 c 0.09774,0 0.167382,-0.0282 0.237194,-0.098 0.06981,-0.0698 0.09772,-0.13946 0.09772,-0.23719 v -9.53627 c 0,-0.0977 -0.02792,-0.16767 -0.09772,-0.23748 -0.06981,-0.0698 -0.139458,-0.0977 -0.237194,-0.0977 z m -29.195137,2.47135 c 0.349056,0 0.670291,0.07 0.97746,0.20964 0.307169,0.15359 0.572222,0.33503 0.809579,0.57239 0.237359,0.23736 0.418889,0.51657 0.544549,0.8377 0.12566,0.32113 0.195435,0.65624 0.195435,1.0053 0,0.34905 -0.06977,0.68416 -0.195435,1.0053 -0.12566,0.32113 -0.30719,0.60034 -0.544549,0.8377 -0.237357,0.23736 -0.50241,0.43276 -0.809579,0.57239 -0.307169,0.15358 -0.628404,0.22355 -0.97746,0.22355 -0.349056,0 -0.670292,-0.07 -0.977461,-0.22355 -0.307169,-0.13963 -0.572264,-0.33503 -0.79566,-0.57239 -0.237358,-0.23736 -0.418888,-0.51657 -0.544549,-0.8377 -0.12566,-0.32114 -0.195435,-0.65625 -0.195435,-1.0053 0,-0.34906 0.06977,-0.68417 0.195435,-1.0053 0.125661,-0.32113 0.307191,-0.60034 0.544549,-0.8377 0.223396,-0.23736 0.488491,-0.4188 0.79566,-0.57239 0.307169,-0.13962 0.628405,-0.20964 0.977461,-0.20964 z m 38.32634,0 c 0.349051,0 0.670287,0.07 0.977457,0.20964 0.30717,0.15359 0.572508,0.33503 0.809866,0.57239 0.237359,0.23736 0.418885,0.51657 0.544545,0.8377 0.12566,0.32113 0.195439,0.65624 0.195439,1.0053 0,0.34905 -0.06978,0.68416 -0.195439,1.0053 -0.12566,0.32113 -0.307186,0.60034 -0.544545,0.8377 -0.237358,0.23736 -0.502696,0.43276 -0.809866,0.57239 -0.30717,0.15358 -0.628406,0.22355 -0.977457,0.22355 -0.349057,0 -0.670007,-0.07 -0.977177,-0.22355 -0.30717,-0.13963 -0.572552,-0.33503 -0.795948,-0.57239 -0.237358,-0.23736 -0.41889,-0.51657 -0.544544,-0.8377 -0.125661,-0.32114 -0.195439,-0.65625 -0.195439,-1.0053 0,-0.34906 0.06978,-0.68417 0.195439,-1.0053 0.125654,-0.32113 0.307186,-0.60034 0.544544,-0.8377 0.223396,-0.23736 0.488778,-0.4188 0.795948,-0.57239 0.30717,-0.13962 0.62812,-0.20964 0.977177,-0.20964 z" style="font-size:25.4px;line-height:1;font-family:Heavitas;-inkscape-font-specification:Heavitas;letter-spacing:0;word-spacing:0;text-orientation:upright;fill:#fff;stroke-width:8.46668;stroke-linecap:round;stroke-linejoin:round;stroke-miterlimit:128;paint-order:stroke fill markers"/><style id="style1" type="text/css">.st0{opacity:.2;fill:none;stroke:#000;stroke-width:2;stroke-linecap:round;stroke-linejoin:round;stroke-miterlimit:10}</style></svg>