<svg xmlns="http://www.w3.org/2000/svg" xml:space="preserve" width="512" height="512" viewBox="0 0 135.46666 135.46667"><path d="m 101.59999,0 c 18.70405,-5.5228478e-7 33.86667,15.162623 33.86667,33.866666 V 101.6 c 0,18.70404 -15.16263,33.86666 -33.86667,33.86666 H 0 V 0 Z" style="fill:#000;fill-opacity:1;stroke-width:4.23333;stroke-miterlimit:128;paint-order:stroke fill markers"/><path d="M 8.4666666,8.4666666 V 101.6 H 127 V 33.866666 C 127,19.838634 115.62803,8.4666666 101.6,8.4666666 Z M 63.499999,16.933333 c 6.810422,0.02199 12.944934,4.121913 15.570109,10.406083 l 2.089795,-2.089795 c 0.413304,-0.413301 0.954851,-0.620117 1.496549,-0.620117 0.541701,0 1.083244,0.206817 1.49655,0.620117 l 2.63033,2.630331 v -0.363286 c 0,-1.168997 0.94767,-2.116666 2.116667,-2.116666 h 14.816671 c 1.16895,0 2.11666,0.947669 2.11666,2.116666 V 38.1 h 4.23334 c 1.16895,4e-6 2.11666,0.947671 2.11666,2.116666 -7.8e-4,0.291665 -0.0618,0.580021 -0.17932,0.846977 l 0.002,0.001 -0.0139,0.03152 -14.802715,33.83566 -0.0021,-0.001 c -0.336519,0.770174 -1.096864,1.268281 -1.937349,1.269173 h -50.8 v 4.645195 c 1.797854,0.628938 3.218452,2.031705 3.870048,3.821472 h 34.609257 c 0.895021,-2.531534 3.285614,-4.226534 5.970695,-4.233334 3.506988,0 6.35,2.843012 6.35,6.35 0,3.506993 -2.843012,6.35 -6.35,6.35 -2.68508,-0.0068 -5.075674,-1.701805 -5.970695,-4.233333 H 48.304028 c -0.895021,2.531528 -3.285615,4.226533 -5.970695,4.233333 -3.506993,0 -6.35,-2.843007 -6.35,-6.35 0.02075,-2.672925 1.713172,-5.046701 4.233333,-5.937622 v -6.568074 l -8.116817,-44.64482 h -6.699333 c -1.168589,2.86e-4 -2.116328,-0.946522 -2.117183,-2.115116 -2.87e-4,-1.169402 0.947786,-2.11747 2.117183,-2.117184 h 8.466667 c 1.022855,3.5e-4 1.899169,0.732023 2.082043,1.738396 L 37.942386,38.1 h 4.390947 v -8.466667 c 0,-1.168999 0.94767,-2.116667 2.116666,-2.116667 h 3.395659 C 50.427264,21.1347 56.615678,16.950937 63.499999,16.933333 Z m 0,4.233333 c -4.51761,0.01959 -8.684735,2.437574 -10.943518,6.35 h 8.826852 c 1.168996,0 2.116666,0.947668 2.116666,2.116667 V 38.1 h 4.809009 l 7.447607,-7.447091 C 74.297761,25.075434 69.265092,21.180304 63.499999,21.166666 Z m 27.516667,8.466667 v 2.479952 L 97.003897,38.1 H 101.6 V 29.633333 Z M 82.656452,29.739786 74.296239,38.1 H 91.016666 Z M 46.566666,31.75 v 6.35 h 12.7 v -6.35 z m -7.854818,10.583333 0.769979,4.233333 h 47.301506 c 1.169003,0 2.116666,0.947664 2.116666,2.116667 0,1.169002 -0.947664,2.116666 -2.116666,2.116666 H 40.251289 l 0.769462,4.233334 h 36.237581 c 1.169003,0 2.116667,0.947663 2.116667,2.116666 10e-7,1.169003 -0.947664,2.116667 -2.116667,2.116667 H 41.79073 l 0.769462,4.233333 h 46.339807 c 1.169003,0 2.116667,0.947664 2.116667,2.116667 0,1.169003 -0.947664,2.116666 -2.116667,2.116666 H 43.330171 l 0.769462,4.233334 H 93.86507 l 12.96458,-29.633333 z m 54.421485,4.233333 h 4.233333 c 1.169003,0 2.116666,0.947664 2.116666,2.116667 0,1.169002 -0.947664,2.116666 -2.116666,2.116666 h -4.233333 c -1.169003,0 -2.116667,-0.947663 -2.116667,-2.116666 0,-1.169003 0.947664,-2.116667 2.116667,-2.116667 z m -9.525001,8.466667 h 4.233334 c 1.169003,0 2.116666,0.947664 2.116666,2.116666 10e-7,1.169003 -0.947663,2.116667 -2.116666,2.116667 h -4.233334 c -1.169002,0 -2.116666,-0.947664 -2.116666,-2.116667 1e-6,-1.169002 0.947664,-2.116666 2.116666,-2.116666 z M 42.333333,84.666666 c -1.168998,0 -2.116667,0.947668 -2.116667,2.116666 0,1.168998 0.947669,2.116667 2.116667,2.116667 1.168998,0 2.116666,-0.947669 2.116666,-2.116667 0,-1.168997 -0.947669,-2.116666 -2.116666,-2.116666 z m 46.566666,0 c -1.168998,0 -2.116667,0.947668 -2.116667,2.116666 0,1.168998 0.947669,2.116667 2.116667,2.116667 1.168998,0 2.116667,-0.947669 2.116667,-2.116667 0,-1.168998 -0.947669,-2.116666 -2.116667,-2.116666 z" style="fill:#ffc103;fill-opacity:1;stroke-width:4.23333;stroke-miterlimit:128;paint-order:stroke fill markers"/><path d="m 33.879298,112.18333 c -0.101207,0 -0.173326,0.0289 -0.245618,0.10118 -0.07229,0.0723 -0.101189,0.14471 -0.101189,0.24592 v 9.88942 c 0,0.1012 0.0289,0.17331 0.101189,0.24561 0.07229,0.0723 0.144411,0.10119 0.245618,0.10119 h 3.947234 c 0.751825,0 1.445603,-0.11552 2.067305,-0.33239 0.621701,-0.21688 1.171311,-0.54961 1.648431,-0.98336 0.520494,-0.47712 0.910731,-1.05537 1.185435,-1.73491 0.274706,-0.66508 0.404754,-1.41674 0.404754,-2.24085 0,-0.82412 -0.130048,-1.57607 -0.404754,-2.24116 -0.274704,-0.66507 -0.664941,-1.24338 -1.185435,-1.72049 -0.968697,-0.88195 -2.197627,-1.33016 -3.715736,-1.33016 z m 11.320759,0 c -0.101208,0 -0.173327,0.0289 -0.245618,0.10118 -0.07229,0.0723 -0.101483,0.14471 -0.101483,0.24592 v 9.88942 c 0,0.1012 0.02919,0.17331 0.101483,0.24561 0.07229,0.0723 0.14441,0.10119 0.245618,0.10119 h 7.359405 c 0.101207,0 0.173326,-0.0289 0.245617,-0.10119 0.07229,-0.0722 0.101189,-0.14441 0.101189,-0.24561 v -1.99525 c 0,-0.10121 -0.0289,-0.17362 -0.101189,-0.24591 -0.07229,-0.0723 -0.14441,-0.10119 -0.245617,-0.10119 H 48.06275 c -0.101207,0 -0.173327,-0.0289 -0.245618,-0.10119 -0.07229,-0.0722 -0.101188,-0.1447 -0.101188,-0.24591 v -0.54918 c 0,-0.10121 0.0289,-0.17362 0.101188,-0.24591 0.07229,-0.0723 0.144411,-0.10119 0.245618,-0.10119 h 3.918113 c 0.101208,0 0.173621,-0.0289 0.245912,-0.10119 0.07229,-0.0722 0.101189,-0.1447 0.101189,-0.24591 v -1.99524 c 0,-0.10121 -0.0289,-0.17332 -0.101189,-0.24561 -0.07229,-0.0722 -0.144704,-0.1012 -0.245912,-0.1012 H 48.06275 c -0.101207,0 -0.173327,-0.0289 -0.245618,-0.10119 -0.07229,-0.0722 -0.101188,-0.1447 -0.101188,-0.24591 v -0.60712 c 0,-0.10121 0.0289,-0.17362 0.101188,-0.24592 0.07229,-0.0722 0.144411,-0.10119 0.245618,-0.10119 h 4.496712 c 0.101207,0 0.173326,-0.0289 0.245617,-0.10118 0.07229,-0.0722 0.101189,-0.14471 0.101189,-0.24592 v -1.96611 c 0,-0.10121 -0.0289,-0.17362 -0.101189,-0.24592 -0.07229,-0.0722 -0.14441,-0.10118 -0.245617,-0.10118 z m 35.350383,0 c -0.101208,0 -0.173621,0.0289 -0.245912,0.10118 -0.07229,0.0723 -0.101189,0.14471 -0.101189,0.24592 v 9.88942 c 0,0.1012 0.0289,0.17331 0.101189,0.24561 0.07229,0.0723 0.144704,0.10119 0.245912,0.10119 h 2.15408 c 0.101207,0 0.17362,-0.0289 0.245912,-0.10119 0.07229,-0.0722 0.101188,-0.14441 0.101188,-0.24561 v -5.17622 c 0,-0.1012 0.0289,-0.15909 0.101188,-0.17355 0.05783,-0.0145 0.115717,0.0289 0.17355,0.10119 l 3.773682,5.30623 c 0.05783,0.0723 0.144411,0.14454 0.245618,0.20237 0.101207,0.0578 0.202358,0.0868 0.303565,0.0868 h 2.13996 c 0.101208,0 0.173624,-0.0289 0.245915,-0.10119 0.07229,-0.0722 0.101191,-0.14441 0.101191,-0.24561 v -9.88942 c 0,-0.10121 -0.02892,-0.17362 -0.101191,-0.24592 -0.07229,-0.0722 -0.144707,-0.10118 -0.245915,-0.10118 h -2.13996 c -0.101207,0 -0.173322,0.0289 -0.245613,0.10118 -0.07229,0.0723 -0.101189,0.14471 -0.101189,0.24592 v 5.17591 c 0,0.10121 -0.02892,0.14467 -0.08678,0.15913 -0.07229,0.0144 -0.130129,-0.0289 -0.187962,-0.10118 l -3.75927,-5.30622 c -0.05783,-0.0722 -0.144409,-0.14455 -0.245617,-0.20238 -0.101207,-0.0433 -0.202359,-0.0723 -0.303566,-0.0723 z m 12.130268,0 c -0.101207,0 -0.173327,0.0289 -0.245618,0.10118 -0.07229,0.0723 -0.101191,0.14471 -0.101191,0.24592 v 9.88942 c 0,0.1012 0.02892,0.17331 0.101191,0.24561 0.07229,0.0723 0.144411,0.10119 0.245618,0.10119 h 3.947234 c 0.751824,0 1.445898,-0.11552 2.067597,-0.33239 0.621699,-0.21688 1.171023,-0.54961 1.648141,-0.98336 0.52049,-0.47712 0.91073,-1.05537 1.18543,-1.73491 0.27471,-0.66508 0.40505,-1.41674 0.40505,-2.24085 0,-0.82412 -0.13034,-1.57607 -0.40505,-2.24116 -0.2747,-0.66507 -0.66494,-1.24338 -1.18543,-1.72049 -0.9687,-0.88195 -2.197632,-1.33016 -3.715738,-1.33016 z m -37.547705,0.0144 c -0.101207,0 -0.17362,0.0289 -0.245911,0.10119 -0.07229,0.0723 -0.101189,0.1447 -0.101189,0.24591 v 9.875 c 0,0.10121 0.0289,0.17332 0.101189,0.24561 0.07229,0.0722 0.144704,0.1012 0.245911,0.1012 h 2.183201 c 0.101207,0 0.173326,-0.0289 0.245618,-0.1012 0.07229,-0.0723 0.101188,-0.1444 0.101188,-0.24561 v -4.65555 c 0,-0.10121 0.04357,-0.14469 0.13031,-0.15914 0.08675,-0.0144 0.159002,0.0289 0.202376,0.10118 l 2.428819,3.91812 c 0.05783,0.0722 0.144705,0.1159 0.245912,0.1159 0.101207,0 0.18783,-0.0436 0.231204,-0.1159 l 2.429113,-3.91812 c 0.05783,-0.0722 0.130041,-0.11564 0.21679,-0.10118 0.08675,0.0145 0.130016,0.0579 0.130016,0.15914 v 4.65555 c 0,0.10121 0.0289,0.17332 0.101188,0.24561 0.07229,0.0722 0.144705,0.1012 0.245912,0.1012 h 2.1832 c 0.101207,0 0.173621,-0.0289 0.245912,-0.1012 0.07229,-0.0723 0.101188,-0.1444 0.101188,-0.24561 v -9.875 c 0,-0.10121 -0.0289,-0.17362 -0.101188,-0.24591 -0.07229,-0.0723 -0.144705,-0.10119 -0.245912,-0.10119 h -2.024063 c -0.101208,0 -0.202359,0.0289 -0.303567,0.0868 -0.101207,0.0578 -0.188079,0.13009 -0.245911,0.20238 l -2.775919,4.07725 c -0.04338,0.0722 -0.115672,0.11561 -0.187963,0.11561 -0.07229,0 -0.144545,-0.0433 -0.202377,-0.11561 l -2.776212,-4.07725 c -0.04337,-0.0722 -0.129998,-0.14454 -0.231205,-0.20238 -0.101207,-0.0578 -0.202358,-0.0868 -0.303565,-0.0868 z m 17.320885,0 c -0.101207,0 -0.202403,0.0289 -0.289153,0.0868 -0.101206,0.0722 -0.159002,0.14475 -0.202376,0.2315 l -4.193147,9.78793 c -0.04337,0.0722 -0.0577,0.14484 -0.04324,0.20267 0.01446,0.0578 0.02898,0.10105 0.07236,0.14443 0.02892,0.0434 0.07218,0.0723 0.130015,0.0868 0.04338,0.0145 0.101349,0.0288 0.144723,0.0288 h 2.486767 c 0.101207,0 0.187945,-0.0289 0.289152,-0.10119 0.08675,-0.0578 0.144589,-0.13004 0.187963,-0.21679 l 0.404754,-0.86746 c 0.04337,-0.0868 0.10117,-0.1592 0.202377,-0.23149 0.08675,-0.0578 0.187945,-0.0865 0.289153,-0.0865 h 3.050657 c 0.101208,0 0.187944,0.0287 0.289151,0.0865 0.08675,0.0723 0.159003,0.14474 0.202378,0.23149 l 0.390635,0.86746 c 0.04338,0.0867 0.115582,0.15896 0.216789,0.21679 0.08675,0.0723 0.187946,0.10119 0.289152,0.10119 h 2.472354 c 0.15904,0 0.260146,-0.0433 0.31798,-0.14443 0.04337,-0.1012 0.05778,-0.18798 0.01442,-0.27473 l -4.221681,-9.83144 c -0.04337,-0.0867 -0.101214,-0.1592 -0.187963,-0.2315 -0.101207,-0.0578 -0.187944,-0.0868 -0.289152,-0.0868 z m -35.711897,2.67473 h 1.084541 c 0.274705,0 0.549171,0.0289 0.838335,0.10119 0.274705,0.0722 0.535186,0.18796 0.780975,0.37592 0.231331,0.18796 0.419265,0.46285 0.578305,0.79539 0.144581,0.347 0.21679,0.79516 0.21679,1.34458 0,0.5494 -0.07221,0.99762 -0.21679,1.33015 -0.15904,0.347 -0.346974,0.60714 -0.578305,0.79509 -0.231331,0.18796 -0.491811,0.31806 -0.780975,0.39035 -0.289164,0.0722 -0.56363,0.10118 -0.838335,0.10118 h -1.084541 c -0.101207,0 -0.173326,-0.0289 -0.245617,-0.10118 -0.07229,-0.0723 -0.101189,-0.14442 -0.101189,-0.24562 v -4.53995 c 0,-0.10121 0.0289,-0.17363 0.101189,-0.24591 0.07229,-0.0723 0.14441,-0.10119 0.245617,-0.10119 z m 58.801412,0 h 1.084539 c 0.274708,0 0.549466,0.0289 0.838624,0.10119 0.274708,0.0722 0.534899,0.18796 0.780691,0.37592 0.231324,0.18796 0.419257,0.46285 0.578299,0.79539 0.144583,0.347 0.216791,0.79516 0.216791,1.34458 0,0.5494 -0.07217,0.99762 -0.216791,1.33015 -0.159042,0.347 -0.346975,0.60714 -0.578299,0.79509 -0.231333,0.18796 -0.491525,0.31806 -0.780691,0.39035 -0.289158,0.0722 -0.563916,0.10118 -0.838624,0.10118 h -1.084539 c -0.101209,0 -0.173334,-0.0289 -0.245617,-0.10118 -0.07233,-0.0723 -0.101191,-0.14442 -0.101191,-0.24562 v -4.53995 c 0,-0.10121 0.02892,-0.17363 0.101191,-0.24591 0.07225,-0.0723 0.144408,-0.10119 0.245617,-0.10119 z m -22.092043,1.7352 c 0.04337,0 0.08693,0.0433 0.130309,0.13002 0.115666,0.27471 0.245804,0.57821 0.375927,0.89628 0.130124,0.33254 0.245599,0.60726 0.346806,0.85305 0.04337,0.0868 0.05779,0.15925 0.01442,0.21708 -0.04338,0.0722 -0.115583,0.10119 -0.216791,0.10119 h -1.286624 c -0.101207,0 -0.173709,-0.0289 -0.217084,-0.10119 -0.04337,-0.0578 -0.04337,-0.13033 0,-0.21708 l 0.723027,-1.74933 c 0.04337,-0.0867 0.08664,-0.13002 0.130016,-0.13002 z" style="font-size:25.4px;line-height:1;font-family:Heavitas;-inkscape-font-specification:Heavitas;letter-spacing:0;word-spacing:0;text-orientation:upright;fill:#fff;stroke-width:25.4;stroke-miterlimit:128"/></svg>