<svg xmlns="http://www.w3.org/2000/svg" xml:space="preserve" width="512" height="512" viewBox="0 0 135.46666 135.46667"><path d="m 101.59999,0 c 18.70405,-5.5228478e-7 33.86667,15.162623 33.86667,33.866666 V 101.6 c 0,18.70404 -15.16263,33.86666 -33.86667,33.86666 H 0 V 0 Z" style="fill:#000;fill-opacity:1;stroke-width:4.23333;stroke-miterlimit:128;paint-order:stroke fill markers"/><path d="M 8.4666666 8.4666666 L 8.4666666 101.6 L 127 101.6 L 127 33.866666 A 25.4 25.4 0 0 0 101.6 8.4666666 L 8.4666666 8.4666666 z M 67.237239 14.380001 A 2.1166666 2.1166666 0 0 1 68.948762 15.252299 L 68.949279 15.251782 L 74.799568 23.293668 C 75.579849 23.118625 76.372039 22.994716 77.172033 22.937618 C 80.234534 22.719036 83.389388 23.378547 86.238146 25.023279 C 89.832032 27.098211 92.310275 30.380171 93.461478 34.066137 L 103.31411 35.108451 A 2.1166666 2.1166666 0 0 1 103.34356 35.111551 A 2.1166666 2.1166666 0 0 1 105.2375 37.215816 A 2.1166666 2.1166666 0 0 1 103.12084 39.332482 A 2.1166666 2.1166666 0 0 1 102.89914 39.316463 L 102.89863 39.32008 L 94.186498 38.398689 C 94.267582 41.244408 93.590887 44.143879 92.068281 46.781123 A 2.1168766 2.1168766 0 0 0 92.068281 46.78164 A 2.1168766 2.1168766 0 0 0 92.068281 46.782157 A 2.1168766 2.1168766 0 0 0 92.068281 46.782674 A 2.1168766 2.1168766 0 0 0 92.068281 46.78319 C 91.044149 48.556522 89.693708 50.09648 88.108316 51.340018 C 93.165658 55.006796 96.293279 62.477578 97.025601 70.847871 C 97.551899 76.863625 96.701815 82.447509 94.767341 86.781265 C 92.832867 91.115023 89.631068 94.414561 85.439228 94.781294 C 82.246932 95.060149 79.225292 93.508121 76.834069 90.990311 C 75.053978 89.115985 73.54754 86.680038 72.373359 83.807803 C 66.47124 87.155364 59.744714 87.894246 53.968281 85.149323 L 50.181432 91.70913 A 2.1166649 2.1166649 0 0 1 47.289103 92.482209 A 2.1166649 2.1166649 0 0 1 46.515506 89.591946 L 50.392272 82.876594 C 45.67291 78.987317 43.344403 72.836316 43.531709 66.215596 C 39.983997 66.8473 36.681195 66.836031 33.829976 66.154101 C 30.445177 65.344554 27.582454 63.503321 26.224756 60.593717 C 24.44642 56.780111 25.702276 52.357566 28.488183 48.515384 C 31.274091 44.673202 35.68733 41.145599 41.160278 38.593509 C 45.17145 36.723076 49.298597 35.551809 53.140425 35.234541 C 56.593261 34.949399 59.813953 35.356616 62.514013 36.562626 C 62.797615 34.568488 63.455716 32.629341 64.478751 30.855481 A 2.1168766 2.1168766 0 0 1 64.478751 30.853414 C 66.001477 28.215973 68.175269 26.181171 70.680956 24.828458 L 65.525199 17.742069 L 65.529849 17.738969 A 2.1166666 2.1166666 0 0 1 65.120572 16.496667 A 2.1166666 2.1166666 0 0 1 67.237239 14.380001 z M 78.016942 27.113073 C 74.071371 27.196982 70.274758 29.284727 68.146744 32.96853 L 68.144677 32.970597 C 67.114574 34.757621 66.584939 36.773919 66.585599 38.812101 C 67.675982 38.671675 68.76703 38.617285 69.849482 38.662239 C 72.633311 38.777853 75.361689 39.522625 77.873282 40.972692 C 80.975808 42.763937 83.30648 45.379641 84.849083 48.485412 C 86.295915 47.502842 87.515078 46.202366 88.402355 44.666007 C 91.644374 39.050663 89.736303 31.931224 84.120963 28.689205 C 82.190972 27.574925 80.08367 27.069121 78.016942 27.113073 z M 55.822949 39.506632 C 52.067555 39.417773 47.428289 40.340879 42.949316 42.429451 C 38.052339 44.71296 34.165184 47.899929 31.915881 51.002054 C 29.666577 54.104179 29.15257 56.857219 30.060697 58.804679 C 30.747221 60.27593 32.283686 61.431762 34.814412 62.037039 C 37.225254 62.613644 40.44261 62.592784 44.022635 61.800361 C 44.630154 58.645169 45.790959 55.475157 47.523197 52.474833 C 50.779329 46.835046 55.561119 42.642459 60.761148 40.425956 C 59.440655 39.867815 57.750684 39.552245 55.822949 39.506632 z M 69.55286 42.912109 C 66.738403 42.822416 63.787156 43.548001 60.983357 44.998286 L 73.269429 52.089843 A 2.1166649 2.1166649 0 0 1 74.043025 54.982173 A 2.1166649 2.1166649 0 0 1 71.152245 55.755769 L 57.045096 47.61208 C 55.215132 49.123049 53.526969 50.975767 52.084159 53.150243 L 80.218358 69.392146 C 81.47726 66.859289 82.269197 64.266395 82.62803 61.739383 A 2.1166649 2.1166649 0 0 1 81.119079 61.51149 L 77.132759 59.208788 A 2.1166649 2.1166649 0 0 1 76.357612 56.318526 A 2.1166649 2.1166649 0 0 1 77.642805 55.332022 A 2.1166649 2.1166649 0 0 1 79.249942 55.542862 L 82.832669 57.612503 C 82.572503 51.996963 80.073025 47.130997 75.756099 44.638618 C 73.863675 43.546029 71.749948 42.982129 69.55286 42.912109 z M 86.960066 55.998132 C 87.514202 61.483208 86.249004 67.527192 83.085884 73.005879 C 81.168518 76.326853 78.723068 79.149095 75.974173 81.360924 C 77.039505 84.216525 78.428204 86.52218 79.904166 88.076277 C 81.690851 89.957546 83.458189 90.705497 85.072326 90.564497 C 87.212317 90.376347 89.341034 88.554846 90.902461 85.056823 C 92.464328 81.557805 93.277649 76.599497 92.806737 71.216841 C 92.241239 64.753311 89.798344 59.058842 86.960066 55.998132 z M 50.027437 56.85131 C 48.931353 59.242812 48.243993 61.675785 47.939192 64.046219 L 51.791153 66.271406 A 2.1166649 2.1166649 0 0 1 52.5663 69.162186 A 2.1166649 2.1166649 0 0 1 49.67397 69.937332 L 47.847725 68.8821 C 48.345942 74.06643 50.79806 78.502236 54.853499 80.843643 C 58.908758 83.184949 63.976105 83.090964 68.714668 80.93046 L 55.654483 73.390868 A 2.1166649 2.1166649 0 0 1 54.880887 70.498022 A 2.1166649 2.1166649 0 0 1 57.771667 69.724425 L 72.453975 78.202461 A 2.1166649 2.1166649 0 0 1 72.708739 78.068102 A 2.1166649 2.1166649 0 0 1 73.409989 78.00299 C 75.101068 76.631132 76.670365 74.962235 78.045364 73.025516 L 50.027437 56.85131 z" style="fill:#2976ff;fill-opacity:1;stroke:none;stroke-width:4.23333;stroke-miterlimit:128;paint-order:stroke fill markers"/><path d="m 26.789062,112.18333 c -0.726037,0 -1.410375,0.13946 -2.052639,0.41871 -0.642263,0.27924 -1.200686,0.65642 -1.675403,1.13114 -0.474716,0.48868 -0.85161,1.04706 -1.130855,1.68932 -0.279244,0.64226 -0.418992,1.32632 -0.418992,2.05236 0,0.72603 0.139748,1.41037 0.418992,2.05263 0.279245,0.64227 0.656139,1.20069 1.130855,1.67541 0.474717,0.48868 1.03314,0.86552 1.675403,1.14477 0.642264,0.27924 1.326602,0.41899 2.052639,0.41899 0.726037,0 1.410092,-0.13975 2.052355,-0.41899 0.642264,-0.27925 1.200928,-0.65609 1.689607,-1.14477 0.474716,-0.47472 0.851609,-1.03314 1.130854,-1.67541 0.279245,-0.64226 0.418709,-1.3266 0.418709,-2.05263 0,-0.72604 -0.139464,-1.4101 -0.418709,-2.05236 -0.279245,-0.64226 -0.656138,-1.20064 -1.130854,-1.68932 -0.488679,-0.47472 -1.047343,-0.8519 -1.689607,-1.13114 -0.642263,-0.27925 -1.326318,-0.41871 -2.052355,-0.41871 z m 70.830531,0 c -0.726038,0 -1.41009,0.13946 -2.052354,0.41871 -0.642264,0.27924 -1.200969,0.65642 -1.675686,1.13114 -0.474717,0.48868 -0.85161,1.04706 -1.130855,1.68932 -0.279246,0.64226 -0.418995,1.32632 -0.418995,2.05236 0,0.72603 0.139749,1.41037 0.418995,2.05263 0.279245,0.64227 0.656138,1.20069 1.130855,1.67541 0.474717,0.48868 1.033422,0.86552 1.675686,1.14477 0.642264,0.27924 1.326316,0.41899 2.052354,0.41899 0.726037,0 1.410095,-0.13975 2.052353,-0.41899 0.642264,-0.27925 1.200934,-0.65609 1.689614,-1.14477 0.47471,-0.47472 0.85161,-1.03314 1.13085,-1.67541 0.27925,-0.64226 0.41871,-1.3266 0.41871,-2.05263 0,-0.72604 -0.13946,-1.4101 -0.41871,-2.05236 -0.27924,-0.64226 -0.65614,-1.20064 -1.13085,-1.68932 -0.48868,-0.47472 -1.04735,-0.8519 -1.689614,-1.13114 -0.642258,-0.27925 -1.326316,-0.41871 -2.052353,-0.41871 z m -36.064633,0.0139 c -0.739999,0 -1.438171,0.13946 -2.094396,0.41871 -0.656226,0.27924 -1.214563,0.65642 -1.703242,1.13114 -0.488679,0.48868 -0.879732,1.04706 -1.158977,1.68932 -0.293207,0.64226 -0.432627,1.3266 -0.432627,2.05264 0,0.72604 0.13942,1.41009 0.432627,2.05235 0.279245,0.64227 0.670298,1.20069 1.158977,1.67541 0.488679,0.47471 1.047016,0.8516 1.703242,1.13085 0.656225,0.27925 1.354397,0.41899 2.094396,0.41899 0.68415,0 1.326422,-0.11175 1.926799,-0.34911 0.600377,-0.22339 1.145011,-0.53051 1.619727,-0.93542 0.460754,-0.4049 0.851567,-0.87976 1.144774,-1.42429 0.293207,-0.54453 0.474737,-1.14478 0.544548,-1.78704 0.02792,-0.23736 0.04204,-0.47479 0.04204,-0.71215 0,-0.22339 -0.01416,-0.4188 -0.02812,-0.57238 -0.01396,-0.0977 -0.04183,-0.18159 -0.111638,-0.2514 -0.06981,-0.0558 -0.153659,-0.0838 -0.251395,-0.0838 H 61.63876 c -0.09774,0 -0.167382,0.0279 -0.237193,0.0977 -0.06981,0.0698 -0.09772,0.13974 -0.09772,0.23748 v 1.66148 c 0,0.0977 0.02791,0.16767 0.09772,0.23748 0.06981,0.0698 0.139457,0.0977 0.237193,0.0977 h 1.605808 c 0.09774,0 0.153548,0.028 0.195435,0.0838 0.04189,0.0698 0.02797,0.13954 -0.01392,0.20935 -0.209434,0.29321 -0.474726,0.51661 -0.823783,0.64227 -0.349056,0.12566 -0.698283,0.19544 -1.04734,0.19544 -0.349056,0 -0.68421,-0.0697 -0.991379,-0.22328 -0.321132,-0.13962 -0.586425,-0.33531 -0.823783,-0.57267 -0.237358,-0.23736 -0.418604,-0.50265 -0.544264,-0.82378 -0.139623,-0.32113 -0.209639,-0.65596 -0.209639,-1.00502 0,-0.34905 0.07002,-0.68416 0.209639,-1.00529 0.12566,-0.32114 0.306906,-0.60063 0.544264,-0.83799 0.237358,-0.23736 0.502651,-0.43272 0.823783,-0.58631 0.307169,-0.13962 0.642323,-0.20935 0.991379,-0.20935 0.488679,0 0.921515,0.11156 1.284533,0.32099 0.349056,0.20943 0.670335,0.50285 0.963542,0.85191 0.06981,0.0698 0.139457,0.11159 0.237192,0.12555 0.09774,0.014 0.181585,-1.5e-4 0.251396,-0.042 l 1.675404,-1.07489 c 0.06981,-0.0419 0.125753,-0.12582 0.153677,-0.22356 0.01396,-0.0977 -1.54e-4,-0.1813 -0.04204,-0.25111 -0.474717,-0.74 -1.089039,-1.3125 -1.843001,-1.73137 -0.767923,-0.41886 -1.661458,-0.62834 -2.680702,-0.62834 z m -27.700968,0.1676 c -0.09774,0 -0.167666,0.0279 -0.237476,0.0977 -0.06981,0.0698 -0.09772,0.13945 -0.09772,0.23719 v 9.5502 c 0,0.0977 0.02791,0.16766 0.09772,0.23747 0.06981,0.0698 0.13974,0.0977 0.237476,0.0977 h 4.425985 c 0.460755,0 0.907379,-0.0559 1.340209,-0.15368 0.418868,-0.0977 0.796088,-0.26515 1.117219,-0.50251 0.321133,-0.23735 0.58627,-0.54443 0.781742,-0.94933 0.181509,-0.39095 0.279234,-0.8938 0.279234,-1.49417 0,-0.29321 -0.04183,-0.55831 -0.111637,-0.79566 -0.08377,-0.23736 -0.181412,-0.43292 -0.307072,-0.61443 -0.12566,-0.18151 -0.265408,-0.32117 -0.418993,-0.44683 -0.153584,-0.12566 -0.293246,-0.2233 -0.446831,-0.30708 -0.181509,-0.0977 -0.195385,-0.19561 -0.02784,-0.32127 0.237358,-0.18151 0.47459,-0.4189 0.684024,-0.72607 0.209433,-0.30717 0.307356,-0.67023 0.307356,-1.08909 0,-0.51661 -0.09773,-0.96328 -0.279235,-1.32629 -0.195471,-0.34906 -0.447017,-0.64215 -0.754187,-0.86554 -0.321131,-0.2234 -0.683908,-0.39114 -1.088813,-0.48888 -0.404905,-0.0977 -0.837741,-0.13947 -1.284533,-0.13947 z m 9.773471,0 c -0.09774,0 -0.181628,0.0279 -0.237477,0.0977 -0.06981,0.0698 -0.09772,0.13945 -0.09772,0.23719 v 9.5502 c 0,0.0977 0.02791,0.16766 0.09772,0.23747 0.05585,0.0698 0.139741,0.0977 0.237477,0.0977 h 6.967212 c 0.09774,0 0.167665,-0.0279 0.237476,-0.0977 0.06981,-0.0698 0.09772,-0.13974 0.09772,-0.23747 v -1.89868 c 0,-0.0977 -0.02791,-0.16767 -0.09772,-0.23748 -0.06981,-0.0698 -0.139741,-0.0977 -0.237476,-0.0977 h -4.202712 c -0.09774,0 -0.181343,-0.0279 -0.237192,-0.0977 -0.06981,-0.0698 -0.09772,-0.13974 -0.09772,-0.23747 v -6.98113 c 0,-0.0977 -0.02819,-0.16739 -0.098,-0.2372 -0.06981,-0.0698 -0.139457,-0.0977 -0.237192,-0.0977 z m 35.631721,0 c -0.09774,0 -0.167663,0.0279 -0.237474,0.0977 -0.06981,0.0698 -0.09772,0.13945 -0.09772,0.23719 v 1.89896 c 0,0.0977 0.02792,0.16767 0.09772,0.23748 0.06981,0.0698 0.139738,0.0977 0.237474,0.0977 h 1.982762 c 0.09774,0 0.181301,0.0279 0.251112,0.0977 0.05584,0.0698 0.0838,0.13945 0.0838,0.23719 v 6.98113 c 0,0.0977 0.02792,0.16766 0.09772,0.23748 0.06981,0.0698 0.139738,0.0977 0.237474,0.0977 h 2.0944 c 0.09774,0 0.1813,-0.0279 0.251112,-0.0977 0.05585,-0.0698 0.0838,-0.13974 0.0838,-0.23748 v -6.98113 c 0,-0.0977 0.02792,-0.16738 0.09772,-0.23719 0.06981,-0.0698 0.139738,-0.0977 0.237474,-0.0977 h 1.95464 c 0.09774,0 0.181581,-0.0279 0.251392,-0.0977 0.05585,-0.0698 0.0838,-0.13974 0.0838,-0.23748 v -1.89896 c 0,-0.0977 -0.02792,-0.16738 -0.0838,-0.23719 -0.06981,-0.0698 -0.153656,-0.0977 -0.251392,-0.0977 z m 25.439256,0 c -0.0977,0 -0.16766,0.0279 -0.23748,0.0977 -0.0698,0.0698 -0.0977,0.13945 -0.0977,0.23719 v 9.5502 c 0,0.0977 0.0279,0.16766 0.0977,0.23747 0.0698,0.0698 0.13975,0.0977 0.23748,0.0977 h 2.08048 c 0.0977,0 0.16738,-0.0279 0.23719,-0.0977 0.0698,-0.0698 0.0977,-0.13974 0.0977,-0.23747 v -4.99838 c 0,-0.0977 0.0279,-0.15363 0.0977,-0.16759 0.0559,-0.014 0.11175,0.0279 0.1676,0.0977 l 3.64424,5.12421 c 0.0558,0.0698 0.13946,0.13958 0.2372,0.19543 0.0977,0.0559 0.1957,0.0838 0.29344,0.0838 h 2.06627 c 0.0977,0 0.16767,-0.0279 0.23748,-0.0977 0.0698,-0.0698 0.0977,-0.13974 0.0977,-0.23747 v -9.5502 c 0,-0.0977 -0.0279,-0.16738 -0.0977,-0.23719 -0.0698,-0.0698 -0.13975,-0.0977 -0.23748,-0.0977 h -2.06627 c -0.0977,0 -0.16767,0.0279 -0.23748,0.0977 -0.0698,0.0698 -0.0977,0.13945 -0.0977,0.23719 v 4.99866 c 0,0.0977 -0.0279,0.13943 -0.0838,0.15339 -0.0698,0.014 -0.12567,-0.0279 -0.18152,-0.0977 l -3.63032,-5.12393 c -0.0558,-0.0698 -0.13946,-0.13987 -0.2372,-0.19572 -0.0977,-0.0419 -0.19541,-0.0696 -0.29315,-0.0696 z m -52.358483,0.0139 c -0.09774,0 -0.181627,0.0279 -0.237476,0.0977 -0.06981,0.0698 -0.09772,0.13974 -0.09772,0.23747 v 9.536 c 0,0.0977 0.02791,0.16766 0.09772,0.23747 0.05585,0.0698 0.139741,0.0977 0.237476,0.0977 h 2.108316 c 0.09774,0 0.167381,-0.0279 0.237192,-0.0977 0.06981,-0.0698 0.098,-0.13974 0.098,-0.23747 v -9.536 c 0,-0.0977 -0.02819,-0.16766 -0.098,-0.23747 -0.06981,-0.0698 -0.139456,-0.0977 -0.237192,-0.0977 z m 19.547225,0 c -0.09774,0 -0.195461,0.028 -0.279234,0.0838 -0.09774,0.0698 -0.153548,0.1395 -0.195435,0.22327 l -4.049034,9.45248 c -0.04189,0.0698 -0.056,0.13958 -0.04204,0.19543 0.01396,0.0558 0.02799,0.0979 0.06988,0.13976 0.02792,0.0419 0.06971,0.0698 0.125556,0.0838 0.04189,0.014 0.09787,0.0278 0.139759,0.0278 h 2.401468 c 0.09774,0 0.181498,-0.0279 0.279234,-0.0977 0.08377,-0.0558 0.139629,-0.12557 0.181516,-0.20935 l 0.390871,-0.8377 c 0.04189,-0.0838 0.0977,-0.15375 0.195435,-0.22356 0.08377,-0.0559 0.181498,-0.0838 0.279234,-0.0838 h 2.946017 c 0.09774,0 0.181498,0.0279 0.279234,0.0838 0.08377,0.0698 0.153833,0.13978 0.19572,0.22356 l 0.376951,0.8377 c 0.04189,0.0838 0.111618,0.1535 0.209354,0.20935 0.08377,0.0698 0.181499,0.0977 0.279234,0.0977 h 2.387551 c 0.153585,0 0.251222,-0.042 0.307071,-0.13976 0.04189,-0.0977 0.0558,-0.18125 0.01391,-0.26503 l -4.076871,-9.49452 c -0.04189,-0.0838 -0.09774,-0.15346 -0.181517,-0.22327 -0.09774,-0.0559 -0.181497,-0.0838 -0.279233,-0.0838 z m 16.600926,0 c -0.09774,0 -0.181345,0.0279 -0.237194,0.0977 -0.06981,0.0698 -0.09772,0.13974 -0.09772,0.23747 v 9.536 c 0,0.0977 0.02792,0.16766 0.09772,0.23747 0.05585,0.0698 0.139458,0.0977 0.237194,0.0977 h 2.108312 c 0.09774,0 0.167668,-0.0279 0.23748,-0.0977 0.06981,-0.0698 0.09771,-0.13974 0.09771,-0.23747 v -9.536 c 0,-0.0977 -0.02792,-0.16766 -0.09771,-0.23747 -0.06981,-0.0698 -0.139744,-0.0977 -0.23748,-0.0977 z m -61.699046,2.47134 c 0.349057,0 0.670008,0.0697 0.977177,0.20936 0.30717,0.15358 0.572505,0.33503 0.809864,0.57238 0.237358,0.23736 0.418888,0.51657 0.544548,0.83771 0.125661,0.32113 0.195436,0.65624 0.195436,1.00529 0,0.34906 -0.06977,0.68417 -0.195436,1.0053 -0.12566,0.32114 -0.30719,0.60035 -0.544548,0.83771 -0.237359,0.23735 -0.502694,0.43304 -0.809864,0.57267 -0.307169,0.15358 -0.62812,0.22327 -0.977177,0.22327 -0.349056,0 -0.670291,-0.0697 -0.97746,-0.22327 -0.30717,-0.13963 -0.572549,-0.33532 -0.795945,-0.57267 -0.237358,-0.23736 -0.418604,-0.51657 -0.544264,-0.83771 -0.125661,-0.32113 -0.19572,-0.65624 -0.19572,-1.0053 0,-0.34905 0.07006,-0.68416 0.19572,-1.00529 0.12566,-0.32114 0.306906,-0.60035 0.544264,-0.83771 0.223396,-0.23735 0.488775,-0.4188 0.795945,-0.57238 0.307169,-0.13963 0.628404,-0.20936 0.97746,-0.20936 z m 70.830531,0 c 0.349056,0 0.670293,0.0697 0.977462,0.20936 0.30717,0.15358 0.572222,0.33503 0.809581,0.57238 0.237358,0.23736 0.418884,0.51657 0.544544,0.83771 0.12566,0.32113 0.19544,0.65624 0.19544,1.00529 0,0.34906 -0.0698,0.68417 -0.19544,1.0053 -0.12566,0.32114 -0.307186,0.60035 -0.544544,0.83771 -0.237359,0.23735 -0.502411,0.43304 -0.809581,0.57267 -0.307169,0.15358 -0.628406,0.22327 -0.977462,0.22327 -0.349057,0 -0.670288,-0.0697 -0.977458,-0.22327 -0.30717,-0.13963 -0.572266,-0.33532 -0.795662,-0.57267 -0.237358,-0.23736 -0.41889,-0.51657 -0.54455,-0.83771 -0.125661,-0.32113 -0.195433,-0.65624 -0.195433,-1.0053 0,-0.34905 0.06977,-0.68416 0.195433,-1.00529 0.12566,-0.32114 0.307192,-0.60035 0.54455,-0.83771 0.223396,-0.23735 0.488492,-0.4188 0.795662,-0.57238 0.30717,-0.13963 0.628401,-0.20936 0.977458,-0.20936 z m -61.0011,0.0838 h 1.326289 c 0.125661,0 0.251249,0.0559 0.390871,0.18152 0.125661,0.12566 0.19572,0.26508 0.19572,0.43263 0,0.18151 -0.0559,0.33533 -0.167597,0.47495 -0.111698,0.15358 -0.265322,0.22327 -0.446831,0.22327 h -1.298452 c -0.09774,0 -0.167666,-0.0279 -0.237477,-0.0977 -0.06981,-0.0698 -0.09772,-0.13974 -0.09772,-0.23747 v -0.64227 c 0,-0.0977 0.02791,-0.16738 0.09772,-0.23719 0.06981,-0.0698 0.139741,-0.0977 0.237477,-0.0977 z m 36.231947,1.70324 c 0.04189,0 0.08395,0.0421 0.125839,0.12584 0.111698,0.26529 0.237373,0.55837 0.363033,0.86554 0.12566,0.32114 0.237174,0.58643 0.33491,0.82379 0.04189,0.0838 0.05581,0.1535 0.01392,0.20935 -0.04189,0.0698 -0.111619,0.0977 -0.209354,0.0977 h -1.242492 c -0.09774,0 -0.167751,-0.0279 -0.209638,-0.0977 -0.04189,-0.0558 -0.04189,-0.12558 0,-0.20935 l 0.698227,-1.68933 c 0.04189,-0.0838 0.08367,-0.12584 0.125555,-0.12584 z m -36.231947,1.91288 h 1.466049 c 0.237358,0 0.432721,0.0838 0.586306,0.2514 0.139622,0.18151 0.209354,0.34888 0.209354,0.51643 0,0.18151 -0.06969,0.34925 -0.223273,0.48887 -0.153585,0.13962 -0.307123,0.20935 -0.47467,0.20935 h -1.563766 c -0.09774,0 -0.167666,-0.0279 -0.237477,-0.0977 -0.06981,-0.0698 -0.09772,-0.13974 -0.09772,-0.23747 v -0.79566 c 0,-0.0977 0.02791,-0.16767 0.09772,-0.23748 0.06981,-0.0698 0.139741,-0.0977 0.237477,-0.0977 z" style="font-size:25.4px;line-height:1;font-family:Heavitas;-inkscape-font-specification:Heavitas;letter-spacing:0;word-spacing:0;text-orientation:upright;fill:#fff;stroke-width:8.46668;stroke-linecap:round;stroke-linejoin:round;stroke-miterlimit:128;paint-order:stroke fill markers"/></svg>