<svg xmlns="http://www.w3.org/2000/svg" xml:space="preserve" width="512" height="512" viewBox="0 0 135.46666 135.46667"><path d="M 33.866666,0 C 15.162623,-5.5228478e-7 -5.5228478e-7,15.162623 0,33.866666 V 101.6 c 2.7614235e-6,18.70404 15.162625,33.86666 33.866666,33.86666 H 135.46666 V 0 Z" style="fill:#000;fill-opacity:1;stroke-width:4.23333;stroke-miterlimit:128;paint-order:stroke fill markers"/><path d="M 33.866666,8.4666666 C 19.838634,8.4666669 8.4666669,19.838634 8.4666666,33.866666 V 101.6 H 127 V 8.4666666 Z M 67.732299,16.93385 c 0.6179,-4.41e-4 1.205152,0.269119 1.607654,0.737939 l 12.701033,14.816667 c 1.175927,1.373086 0.200672,3.493248 -1.607137,3.493843 h -1.750281 l 9.706901,11.324374 c 1.176713,1.373109 0.2012,3.494143 -1.607137,3.49436 h -1.748213 l 9.70535,11.321789 c 1.176872,1.373296 0.200929,3.494586 -1.607654,3.494361 h -1.748213 l 9.705348,11.322306 c 1.17687,1.373293 0.20093,3.494582 -1.607651,3.49436 H 76.198966 v 10.58385 c -9.71e-4,1.167742 -0.947375,2.114146 -2.115117,2.115116 H 61.382816 c -1.167742,-9.7e-4 -2.114146,-0.947374 -2.115117,-2.115116 v -10.58385 h -23.2854 c -1.807608,-0.0015 -2.781825,-2.121805 -1.605586,-3.49436 l 9.70535,-11.322306 H 42.33385 c -1.80834,-2.16e-4 -2.783851,-2.12125 -1.607137,-3.494361 l 9.704833,-11.321789 h -1.747697 c -1.808579,2.24e-4 -2.784523,-2.121067 -1.607653,-3.49436 L 56.78103,35.982299 h -1.747697 c -1.808054,-1.54e-4 -2.783739,-2.120572 -1.607654,-3.493843 L 66.126712,17.671789 c 0.402032,-0.468272 0.988409,-0.737777 1.605587,-0.737939 z m 0.0021,5.368664 L 59.634602,31.75 h 8.098731 c 1.169,0 2.116666,0.947666 2.116666,2.116666 0,1.169001 -0.947665,2.116667 -2.116666,2.116667 h -5.376416 l -9.071798,10.582816 h 1.748214 l 0.0031,5.17e-4 h 25.395866 l 0.0015,-5.17e-4 h 1.747697 L 72.476712,35.24436 c -1.176713,-1.373111 -0.2012,-3.494143 1.607137,-3.49436 h 1.748214 z M 56.0064,50.799999 46.935636,61.382816 h 1.748213 l 0.0031,5.17e-4 h 21.163049 c 1.169001,0 2.116667,0.947665 2.116667,2.116666 0,1.169001 -0.947666,2.116667 -2.116667,2.116667 H 49.656917 l -9.070764,10.5823 h 54.294876 l -9.705351,-11.32179 c -1.176869,-1.373296 -0.200926,-3.494585 1.607654,-3.49436 h 1.748214 L 79.460265,50.799999 Z m 20.193599,10.583334 h 4.233333 c 1.169003,-2e-6 2.116668,0.947663 2.116667,2.116666 2e-6,1.169004 -0.947663,2.116669 -2.116667,2.116667 h -4.233333 c -1.169001,0 -2.116667,-0.947666 -2.116667,-2.116667 0,-1.169001 0.947666,-2.116666 2.116667,-2.116666 z m -12.7,19.050516 v 8.466667 h 8.466667 v -8.466667 z" style="fill:#9bf123;fill-opacity:1;stroke-width:4.23333;stroke-miterlimit:128;paint-order:stroke fill markers"/><path d="m 67.879159,112.18333 c -0.741951,0 -1.441966,0.14012 -2.099924,0.4201 -0.657957,0.27998 -1.218047,0.65787 -1.708015,1.13384 -0.489968,0.47596 -0.881766,1.03586 -1.161748,1.67982 -0.279982,0.64395 -0.4201,1.3301 -0.4201,2.05805 0,0.72795 0.140118,1.41381 0.4201,2.05777 0.279982,0.64395 0.67178,1.20385 1.161748,1.67982 0.489968,0.47597 1.050058,0.85386 1.708015,1.13384 0.657958,0.27998 1.357973,0.42009 2.099924,0.42009 0.601961,0 1.1477,-0.0699 1.637668,-0.2099 0.489968,-0.13999 0.952009,-0.33615 1.357983,-0.58814 0.405974,-0.25198 0.769994,-0.55995 1.091973,-0.92393 0.321979,-0.34997 0.630036,-0.75597 0.896019,-1.18994 0.042,-0.084 0.05591,-0.16778 0.02789,-0.25178 -0.028,-0.07 -0.08404,-0.12604 -0.168039,-0.16803 l -1.987705,-0.7841 c -0.09799,-0.042 -0.182021,-0.042 -0.266016,0 -0.09799,0.042 -0.168193,0.0981 -0.21019,0.16804 -0.237985,0.39198 -0.573781,0.71386 -0.979755,0.95185 -0.419972,0.25198 -0.881881,0.37822 -1.399848,0.37822 -0.349977,0 -0.686016,-0.0701 -0.993996,-0.22414 -0.321979,-0.15399 -0.587972,-0.34987 -0.825957,-0.58785 -0.237984,-0.23799 -0.419989,-0.53218 -0.545981,-0.85416 -0.125992,-0.32197 -0.195954,-0.65768 -0.195954,-1.00766 0,-0.34998 0.06996,-0.68597 0.195954,-1.00795 0.125992,-0.32198 0.307997,-0.61613 0.545981,-0.86811 0.237985,-0.23798 0.503978,-0.43386 0.825957,-0.58785 0.30798,-0.15399 0.644019,-0.22415 0.993996,-0.22415 0.545965,0 1.007918,0.1121 1.385894,0.33608 0.377975,0.23799 0.713771,0.56002 0.979754,0.994 0.042,0.07 0.112196,0.12604 0.21019,0.16804 0.09799,0.042 0.181977,0.042 0.279971,0 l 1.987705,-0.78409 c 0.08399,-0.042 0.140041,-0.098 0.168039,-0.182 0.028,-0.084 0.01411,-0.16782 -0.02789,-0.23781 -0.265983,-0.43398 -0.560085,-0.82598 -0.882064,-1.18995 -0.321979,-0.34998 -0.685999,-0.65799 -1.091968,-0.90998 -0.405973,-0.25198 -0.853779,-0.44815 -1.343747,-0.58814 -0.489968,-0.13999 -1.049904,-0.2099 -1.665864,-0.2099 z m -33.444073,0.0139 c -0.44797,0 -0.909927,0.0421 -1.385896,0.14013 -0.475968,0.098 -0.909945,0.27981 -1.28792,0.51779 -0.391975,0.25199 -0.713815,0.58798 -0.965798,1.00795 -0.251984,0.41997 -0.377946,0.95213 -0.377946,1.59609 0,0.43397 0.06991,0.81186 0.209906,1.13384 0.125992,0.32197 0.308044,0.60192 0.53203,0.83991 0.223984,0.23798 0.475866,0.4199 0.769847,0.57389 0.279981,0.15399 0.560171,0.266 0.854152,0.36399 0.29398,0.098 0.573885,0.18215 0.853866,0.22415 0.265983,0.056 0.504039,0.0978 0.714024,0.13984 0.209987,0.042 0.419734,0.0839 0.62972,0.11194 0.209987,0.028 0.391996,0.0702 0.545986,0.11221 0.153989,0.042 0.265996,0.0978 0.363989,0.16776 0.09799,0.07 0.140128,0.16821 0.140128,0.2942 0,0.23799 -0.112136,0.4058 -0.322123,0.51779 -0.209986,0.126 -0.531913,0.182 -0.937886,0.182 -0.433971,0 -0.895929,-0.098 -1.385896,-0.27997 -0.489968,-0.18199 -0.993861,-0.44787 -1.497828,-0.76985 -0.07,-0.042 -0.154065,-0.0562 -0.252058,-0.0422 -0.09799,0.014 -0.167866,0.0701 -0.223863,0.14013 l -1.078014,1.55393 c -0.056,0.07 -0.08406,0.15407 -0.07006,0.25206 0.014,0.098 0.05618,0.18182 0.126172,0.23782 0.265982,0.20999 0.545844,0.4201 0.867823,0.60209 0.307979,0.19599 0.643974,0.36384 1.00795,0.50383 0.363976,0.13999 0.756017,0.25213 1.175989,0.32212 0.419973,0.084 0.867733,0.12589 1.3577,0.12589 0.601961,0 1.147987,-0.07 1.637956,-0.19595 0.489967,-0.12599 0.910032,-0.30791 1.260009,-0.57389 0.349976,-0.26599 0.616012,-0.60198 0.811999,-1.00795 0.195987,-0.40598 0.293926,-0.88205 0.293926,-1.44201 0,-0.60196 -0.11205,-1.09185 -0.350034,-1.49783 -0.237984,-0.39197 -0.531802,-0.71409 -0.881779,-0.96608 -0.349976,-0.23798 -0.728148,-0.43395 -1.134121,-0.55994 -0.405974,-0.12599 -0.769949,-0.20997 -1.105926,-0.27997 -0.07,-0.014 -0.210026,-0.0421 -0.44801,-0.084 -0.237984,-0.042 -0.475997,-0.098 -0.72798,-0.16804 -0.251983,-0.07 -0.475885,-0.16773 -0.671872,-0.26573 -0.195987,-0.098 -0.293926,-0.22404 -0.293926,-0.35003 0,-0.12599 0.04189,-0.23817 0.125887,-0.30817 0.06999,-0.07 0.168219,-0.12576 0.294211,-0.16776 0.125992,-0.028 0.251911,-0.0421 0.391901,-0.0561 h 0.350034 c 0.349978,0 0.727865,0.056 1.133838,0.18199 0.405973,0.12599 0.85382,0.34998 1.329788,0.64397 0.07,0.056 0.154065,0.0701 0.252059,0.0561 0.09799,-0.014 0.167866,-0.0701 0.223862,-0.14013 l 1.09197,-1.55393 c 0.056,-0.07 0.08406,-0.15407 0.07006,-0.25206 -0.014,-0.098 -0.05589,-0.16782 -0.125887,-0.23782 -0.573962,-0.43397 -1.162123,-0.76997 -1.778082,-1.00795 -0.629959,-0.22399 -1.329928,-0.33608 -2.113877,-0.33608 z m 17.149112,0.14013 c -0.09799,0 -0.168108,0.028 -0.238103,0.098 -0.07,0.07 -0.09798,0.13982 -0.09798,0.23781 v 9.57539 c 0,0.098 0.02798,0.16811 0.09798,0.2381 0.07,0.07 0.140109,0.098 0.238103,0.098 h 2.085679 c 0.09799,0 0.168108,-0.028 0.238103,-0.098 0.07,-0.07 0.09798,-0.14011 0.09798,-0.2381 V 117.237 c 0,-0.098 0.02798,-0.15404 0.09797,-0.16804 0.056,-0.014 0.112043,0.028 0.16804,0.098 l 3.653855,5.13773 c 0.056,0.07 0.139825,0.13996 0.237818,0.19595 0.09799,0.056 0.195933,0.084 0.293926,0.084 h 2.072009 c 0.09799,0 0.167822,-0.028 0.237817,-0.098 0.07,-0.07 0.09798,-0.14011 0.09798,-0.2381 v -9.57539 c 0,-0.098 -0.028,-0.16781 -0.09798,-0.23781 -0.07,-0.07 -0.139825,-0.098 -0.237817,-0.098 h -2.072009 c -0.09799,0 -0.167822,0.028 -0.237818,0.098 -0.06999,0.07 -0.09797,0.13982 -0.09797,0.23781 v 5.01185 c 0,0.098 -0.02802,0.1398 -0.08402,0.1538 -0.07,0.014 -0.125999,-0.028 -0.181995,-0.098 l -3.6399,-5.13744 c -0.056,-0.07 -0.139824,-0.13996 -0.237818,-0.19596 -0.09799,-0.042 -0.196217,-0.0701 -0.29421,-0.0701 z m 22.230448,0 c -0.09799,0 -0.16811,0.028 -0.238106,0.098 -0.07,0.07 -0.09798,0.13982 -0.09798,0.23781 v 1.90397 c 0,0.098 0.028,0.16811 0.09798,0.23811 0.07,0.07 0.140113,0.098 0.238106,0.098 h 1.987987 c 0.09799,0 0.181778,0.028 0.251774,0.098 0.056,0.07 0.08402,0.13982 0.08402,0.23782 v 6.99954 c 0,0.098 0.028,0.16811 0.09797,0.2381 0.07,0.07 0.140113,0.098 0.238106,0.098 h 2.099919 c 0.09799,0 0.181778,-0.028 0.251774,-0.098 0.056,-0.07 0.08402,-0.14011 0.08402,-0.2381 v -6.99954 c 0,-0.098 0.028,-0.16783 0.09797,-0.23782 0.07,-0.07 0.140113,-0.098 0.238106,-0.098 h 1.95979 c 0.09799,0 0.182065,-0.028 0.252061,-0.098 0.056,-0.07 0.08402,-0.14011 0.08402,-0.23811 v -1.90397 c 0,-0.098 -0.028,-0.16781 -0.08402,-0.23781 -0.07,-0.07 -0.154067,-0.098 -0.252061,-0.098 z m 13.467057,0 c -0.098,0 -0.16782,0.028 -0.23782,0.098 -0.07,0.07 -0.098,0.13982 -0.098,0.23781 v 1.90397 c 0,0.098 0.028,0.16811 0.098,0.23811 0.07,0.07 0.13983,0.098 0.23782,0.098 h 1.98799 c 0.098,0 0.18206,0.028 0.25206,0.098 0.056,0.07 0.0837,0.13982 0.0837,0.23782 v 6.99954 c 0,0.098 0.0283,0.16811 0.0983,0.2381 0.07,0.07 0.13983,0.098 0.23782,0.098 h 2.09992 c 0.098,0 0.18206,-0.028 0.25206,-0.098 0.056,-0.07 0.084,-0.14011 0.084,-0.2381 v -6.99954 c 0,-0.098 0.028,-0.16783 0.098,-0.23782 0.07,-0.07 0.13983,-0.098 0.23782,-0.098 h 1.9598 c 0.098,0 0.18206,-0.028 0.25205,-0.098 0.056,-0.07 0.084,-0.14011 0.084,-0.23811 v -1.90397 c 0,-0.0147 -0.005,-0.0252 -0.006,-0.0387 0.007,0.0369 0.0163,0.073 0.0342,0.1088 0.57397,0.97994 1.16193,1.93187 1.74989,2.85581 0.57396,0.92394 1.14806,1.86197 1.70802,2.8279 0.042,0.07 0.0839,0.16794 0.12589,0.29393 0.028,0.12599 0.0422,0.23808 0.0422,0.33608 v 3.1916 c 0,0.098 0.028,0.16811 0.098,0.2381 0.07,0.07 0.13982,0.098 0.23781,0.098 h 2.113877 c 0.098,0 0.1681,-0.028 0.2381,-0.098 0.07,-0.07 0.098,-0.14011 0.098,-0.2381 v -3.20556 c 0,-0.098 0.0141,-0.19613 0.0561,-0.32212 0.042,-0.12599 0.0839,-0.22389 0.12589,-0.30789 l 3.49977,-5.66975 c 0.07,-0.12599 0.0981,-0.22393 0.0561,-0.29393 -0.042,-0.07 -0.1122,-0.098 -0.21019,-0.098 h -2.51973 c -0.098,0 -0.18198,0.028 -0.27997,0.084 -0.098,0.056 -0.18187,0.12591 -0.22387,0.2099 l -1.70801,2.99594 c -0.042,0.07 -0.0981,0.11193 -0.16804,0.11193 -0.07,0 -0.126037,-0.0419 -0.168037,-0.11193 l -1.72169,-2.99594 c -0.042,-0.084 -0.1122,-0.1539 -0.2102,-0.2099 -0.098,-0.056 -0.19593,-0.084 -0.29392,-0.084 h -2.49182 c -0.098,0 -0.154,0.0419 -0.182,0.12588 -0.0128,0.045 -0.0146,0.0866 -0.0111,0.12703 -0.0109,-0.0624 -0.0319,-0.11755 -0.0729,-0.16889 -0.07,-0.07 -0.15406,-0.098 -0.25206,-0.098 z m -43.536961,0.0139 c -0.09799,0 -0.195975,0.028 -0.27997,0.084 -0.09799,0.07 -0.154238,0.13986 -0.196236,0.22386 l -4.059712,9.47741 c -0.042,0.07 -0.05587,0.13996 -0.04187,0.19595 0.014,0.056 0.02806,0.0981 0.07006,0.14013 0.028,0.042 0.06989,0.07 0.125887,0.084 0.042,0.014 0.09813,0.0279 0.140128,0.0279 h 2.407802 c 0.09799,0 0.181977,-0.028 0.27997,-0.098 0.08399,-0.056 0.139998,-0.12591 0.181996,-0.20991 l 0.391901,-0.83991 c 0.042,-0.084 0.09796,-0.15415 0.195951,-0.22414 0.08399,-0.056 0.181977,-0.084 0.27997,-0.084 h 2.953787 c 0.09799,0 0.181977,0.028 0.279971,0.084 0.08399,0.07 0.153954,0.14015 0.19595,0.22414 l 0.377946,0.83991 c 0.042,0.084 0.112198,0.15391 0.210192,0.20991 0.08399,0.07 0.181976,0.098 0.27997,0.098 h 2.393846 c 0.15399,0 0.251886,-0.0421 0.307882,-0.14013 0.042,-0.098 0.05595,-0.18174 0.01395,-0.26573 l -4.087625,-9.51956 c -0.042,-0.084 -0.098,-0.15387 -0.181994,-0.22386 -0.09799,-0.056 -0.181978,-0.084 -0.279971,-0.084 z m 39.323164,0 c -0.09799,0 -0.181823,0.028 -0.237819,0.098 -0.07,0.07 -0.09797,0.14011 -0.09797,0.2381 v 9.56115 c 0,0.098 0.028,0.16811 0.09797,0.2381 0.056,0.07 0.139826,0.098 0.237819,0.098 h 2.113879 c 0.09799,0 0.168108,-0.028 0.238098,-0.098 0.07,-0.07 0.098,-0.14011 0.098,-0.2381 v -9.56115 c 0,-0.098 -0.028,-0.1681 -0.098,-0.2381 -0.07,-0.07 -0.140104,-0.098 -0.238098,-0.098 z m -38.357366,4.26961 c 0.042,0 0.08389,0.0422 0.125888,0.12618 0.111992,0.26598 0.237998,0.55984 0.36399,0.86782 0.125991,0.32198 0.238084,0.58797 0.336078,0.82596 0.042,0.084 0.05595,0.1539 0.01396,0.2099 -0.042,0.07 -0.111913,0.098 -0.209906,0.098 h -1.246054 c -0.09799,0 -0.167909,-0.028 -0.209906,-0.098 -0.042,-0.056 -0.042,-0.12591 0,-0.2099 l 0.700068,-1.69378 c 0.042,-0.084 0.08389,-0.12618 0.125887,-0.12618 z" style="font-size:25.4px;line-height:1;font-family:Heavitas;-inkscape-font-specification:Heavitas;letter-spacing:0;word-spacing:0;text-orientation:upright;fill:#fff;fill-opacity:1;stroke:none;stroke-width:8.46669;stroke-linecap:round;stroke-linejoin:round;stroke-miterlimit:128;stroke-dasharray:none;stroke-opacity:1;paint-order:stroke fill markers"/></svg>