<svg xmlns="http://www.w3.org/2000/svg" xml:space="preserve" width="512" height="512" viewBox="0 0 135.46666 135.46667"><path d="M 33.866666,0 C 15.162623,-5.5228478e-7 -5.5228478e-7,15.162623 0,33.866666 V 101.6 c 2.7614235e-6,18.70404 15.162625,33.86666 33.866666,33.86666 H 135.46666 V 0 Z" style="fill:#000;fill-opacity:1;stroke-width:4.23333;stroke-miterlimit:128;paint-order:stroke fill markers"/><path d="M 33.866666 8.4666666 C 19.83865 8.4666669 8.4666666 19.838648 8.4666666 33.866666 L 8.4666666 101.6 L 127 101.6 L 127 8.4666666 L 33.866666 8.4666666 z M 82.421841 16.93385 C 90.091607 16.94115 97.555021 20.932755 101.65788 28.039115 C 107.45097 38.073046 104.41264 50.729144 95.093419 57.255936 C 97.315325 58.383428 99.259723 60.064816 100.5644 62.318159 A 2.1168766 2.1168766 0 0 1 100.5644 62.318676 A 2.1168766 2.1168766 0 0 1 100.5644 62.319193 A 2.1168766 2.1168766 0 0 1 100.5644 62.31971 A 2.1168766 2.1168766 0 0 1 100.5644 62.320226 C 104.18888 68.598002 102.02179 76.687937 95.744026 80.312409 C 91.634172 82.685235 86.844894 82.366359 82.943257 80.246264 C 82.828642 84.685393 80.707393 88.994122 76.597391 91.367032 C 70.319615 94.991506 62.229681 92.824948 58.605208 86.547171 A 2.1168766 2.1168766 0 0 1 58.605208 86.546654 A 2.1168766 2.1168766 0 0 1 58.605208 86.546137 A 2.1168766 2.1168766 0 0 1 58.605208 86.545621 A 2.1168766 2.1168766 0 0 1 58.605208 86.545104 C 57.304085 84.289627 56.816752 81.765393 56.948978 79.277331 C 46.638207 84.08011 34.160715 80.383655 28.368811 70.351777 C 22.246837 59.748198 25.898065 46.127805 36.501648 40.005826 C 41.578867 37.07449 47.335969 36.439838 52.642264 37.67987 L 44.233992 29.345495 A 2.1166649 2.1166649 0 0 1 44.220556 26.351363 A 2.1166649 2.1166649 0 0 1 47.212621 26.337927 L 57.978372 37.00756 L 54.120727 22.351607 A 2.1166649 2.1166649 0 0 1 55.628645 19.765718 A 2.1166649 2.1166649 0 0 1 58.214534 21.273637 L 61.23037 32.736503 C 61.721376 31.112865 62.331237 29.520057 63.183223 28.041182 A 2.1166649 2.1166649 0 0 1 66.074002 27.263452 A 2.1166649 2.1166649 0 0 1 66.851216 30.154231 C 63.751713 35.534335 63.511922 42.359077 66.847598 48.136596 A 2.1166649 2.1166649 0 0 1 66.847598 48.137113 A 2.1166649 2.1166649 0 0 1 66.847598 48.13763 A 2.1166649 2.1166649 0 0 1 66.847598 48.138146 A 2.1166649 2.1166649 0 0 1 66.847598 48.138663 L 81.419835 73.374849 C 83.900382 77.671279 89.330407 79.127032 93.626842 76.646483 C 97.922523 74.166372 99.378774 68.735553 96.900027 64.439477 L 96.898477 64.43741 C 95.479944 61.989235 93.026492 60.413187 90.318 60.060416 A 2.1166649 2.1166649 0 0 1 89.868932 59.874898 C 89.286282 60.080101 88.744784 60.418088 88.150174 60.57408 A 2.1166649 2.1166649 0 0 1 85.566352 59.064611 A 2.1166649 2.1166649 0 0 1 87.075821 56.480273 C 88.584799 56.084403 90.045869 55.496756 91.417675 54.715006 C 91.418975 54.71428 91.420509 54.713739 91.421809 54.712939 C 100.03628 49.732222 102.96806 38.77311 97.99195 30.154231 C 94.656307 24.376717 88.626776 21.172055 82.417707 21.16615 A 2.1166649 2.1166649 0 0 1 80.302591 19.048966 A 2.1166649 2.1166649 0 0 1 82.421841 16.93385 z M 75.02281 18.493961 A 2.1166649 2.1166649 0 0 1 76.695059 19.793107 A 2.1166649 2.1166649 0 0 1 75.532856 22.552628 C 74.807591 22.848035 74.102449 23.190562 73.421874 23.577889 C 73.420574 23.57861 73.41904 23.579156 73.41774 23.579956 C 72.744608 23.971303 72.097189 24.405422 71.480391 24.880652 A 2.1166649 2.1166649 0 0 1 68.51158 24.496179 A 2.1166649 2.1166649 0 0 1 68.896569 21.527368 C 69.664582 20.935577 70.469625 20.394794 71.308308 19.908345 A 2.1168766 2.1168766 0 0 1 71.324328 19.900594 C 72.166629 19.420954 73.037893 18.996523 73.935538 18.630904 A 2.1166649 2.1166649 0 0 1 75.02281 18.493961 z M 82.632165 29.001847 C 86.064289 29.083197 89.382354 30.894688 91.214586 34.068204 C 94.006558 38.904043 92.333856 45.149289 87.498017 47.941259 C 82.662178 50.733233 76.416937 49.060528 73.624962 44.22469 C 70.832992 39.388853 72.505693 33.141542 77.341531 30.349568 C 78.550491 29.651576 79.848648 29.234365 81.157836 29.074194 C 81.64878 29.014134 82.14186 28.990227 82.632165 29.001847 z M 82.553616 33.211926 C 82.268359 33.206226 81.9816 33.221528 81.695271 33.257918 C 80.931729 33.354938 80.172339 33.605551 79.458715 34.017561 C 76.604216 35.665608 75.642842 39.253008 77.290889 42.107507 C 78.938935 44.962008 82.526332 45.92338 85.380834 44.275333 C 88.235333 42.627289 89.196709 39.038341 87.54866 36.183837 C 86.467129 34.310572 84.550427 33.252149 82.553616 33.211926 z M 47.568155 41.249161 C 44.528764 41.256961 41.446448 42.038332 38.617281 43.671752 C 29.995043 48.649799 27.057208 59.612359 32.035254 68.234594 C 37.012258 76.855012 47.972039 79.791846 56.593444 74.818171 C 56.595244 74.817171 56.597745 74.817232 56.599645 74.816104 C 57.960176 74.019627 59.197268 73.050646 60.29296 71.943411 A 2.1166649 2.1166649 0 0 1 63.285025 71.927908 A 2.1166649 2.1166649 0 0 1 63.300528 74.922041 C 62.846128 75.381229 62.256432 75.698383 61.761604 76.118867 A 2.1166649 2.1166649 0 0 1 61.761604 76.544681 C 60.71714 79.067095 60.859618 81.979077 62.273201 84.429471 C 64.753745 88.725906 70.183775 90.181651 74.480207 87.701106 C 78.776599 85.220642 80.23239 79.788466 77.751842 75.492032 L 63.181672 50.253779 C 63.180937 50.252479 63.180405 50.251462 63.179605 50.250162 C 60.068048 44.863751 54.620204 41.696237 48.867301 41.293086 C 48.435716 41.262856 48.002355 41.248051 47.568155 41.249161 z M 47.819303 49.099845 C 51.251801 49.181195 54.572077 50.992682 56.404308 54.166202 C 59.196285 59.00204 57.52306 65.247284 52.687223 68.039257 C 47.851381 70.83123 41.604588 69.15801 38.812618 64.322171 C 36.020642 59.486332 37.695415 53.241092 42.531254 50.449116 C 43.740212 49.751123 45.036303 49.331846 46.345491 49.171675 C 46.836435 49.111615 47.328945 49.088225 47.819303 49.099845 z M 47.743338 53.311991 C 47.458081 53.306291 47.170805 53.321086 46.884476 53.357466 C 46.120934 53.454486 45.359994 53.703032 44.64637 54.115042 C 41.791871 55.763091 40.830495 59.350488 42.478544 62.204988 C 44.126588 65.059489 47.715537 66.020863 50.570039 64.372814 C 53.424539 62.724767 54.386432 59.137886 52.738382 56.283386 C 51.656852 54.410118 49.74015 53.352214 47.743338 53.311991 z" style="fill:#ff0;fill-opacity:1;stroke-width:4.23333;stroke-miterlimit:128;paint-order:stroke fill markers"/><path d="m 49.032704,112.18333 c -0.726037,0 -1.410091,0.13975 -2.052355,0.41899 -0.642263,0.27925 -1.200971,0.65614 -1.675687,1.13086 -0.474716,0.48868 -0.85161,1.04734 -1.130855,1.6896 -0.279244,0.64227 -0.418992,1.32632 -0.418992,2.05236 0,0.72604 0.139748,1.41009 0.418992,2.05235 0.279245,0.64226 0.656139,1.20069 1.130855,1.67541 0.474716,0.48868 1.033424,0.86581 1.675687,1.14506 0.642264,0.27924 1.326318,0.4187 2.052355,0.4187 0.726037,0 1.410091,-0.13946 2.052354,-0.4187 0.642264,-0.27925 1.200928,-0.65638 1.689606,-1.14506 0.474717,-0.47472 0.85161,-1.03315 1.130855,-1.67541 0.279245,-0.64226 0.418993,-1.32631 0.418993,-2.05235 0,-0.72604 -0.139748,-1.41009 -0.418993,-2.05236 -0.279245,-0.64226 -0.656138,-1.20092 -1.130855,-1.6896 -0.488678,-0.47472 -1.047342,-0.85161 -1.689606,-1.13086 -0.642263,-0.27924 -1.326317,-0.41899 -2.052354,-0.41899 z m 38.32634,0 c -0.726038,0 -1.410095,0.13975 -2.052359,0.41899 -0.642264,0.27925 -1.200683,0.65614 -1.6754,1.13086 -0.474717,0.48868 -0.851896,1.04734 -1.131141,1.6896 -0.279245,0.64227 -0.418708,1.32632 -0.418708,2.05236 0,0.72604 0.139463,1.41009 0.418708,2.05235 0.279245,0.64226 0.656424,1.20069 1.131141,1.67541 0.474717,0.48868 1.033136,0.86581 1.6754,1.14506 0.642264,0.27924 1.326321,0.4187 2.052359,0.4187 0.726032,0 1.410089,-0.13946 2.052353,-0.4187 0.642264,-0.27925 1.200925,-0.65638 1.689604,-1.14506 0.474717,-0.47472 0.85161,-1.03315 1.130855,-1.67541 0.279246,-0.64226 0.418995,-1.32631 0.418995,-2.05235 0,-0.72604 -0.139749,-1.41009 -0.418995,-2.05236 -0.279245,-0.64226 -0.656138,-1.20092 -1.130855,-1.6896 -0.488679,-0.47472 -1.04734,-0.85161 -1.689604,-1.13086 -0.642264,-0.27924 -1.326321,-0.41899 -2.052353,-0.41899 z m -55.318416,0.18152 c -0.12566,0 -0.19559,0.0421 -0.237477,0.12584 -0.04189,0.0838 -0.04189,0.1815 0,0.27923 l 4.216631,9.50815 c 0.04189,0.0838 0.111902,0.15351 0.209638,0.20936 0.08377,0.0698 0.167295,0.098 0.265031,0.098 h 1.857203 c 0.09774,0 0.181498,-0.0282 0.279234,-0.098 0.08377,-0.0559 0.153548,-0.12558 0.195435,-0.20936 l 4.258387,-9.56411 c 0.04189,-0.0698 0.02797,-0.1537 -0.01392,-0.23748 -0.04189,-0.0698 -0.125537,-0.11163 -0.223273,-0.11163 h -2.317954 c -0.09774,0 -0.181257,0.028 -0.26503,0.0838 -0.09774,0.0698 -0.167752,0.13978 -0.209639,0.22355 l -2.443225,5.6128 c -0.04189,0.0838 -0.111705,0.12556 -0.181516,0.12556 -0.06981,0 -0.13963,-0.0418 -0.181516,-0.12556 l -2.457429,-5.6128 c -0.04189,-0.0838 -0.111662,-0.15374 -0.195435,-0.22355 -0.09774,-0.0559 -0.181498,-0.0838 -0.279234,-0.0838 z m 24.043086,0 c -0.09774,0 -0.181628,0.0279 -0.237477,0.0977 -0.06981,0.0698 -0.09772,0.13974 -0.09772,0.23748 v 9.5502 c 0,0.0977 0.02791,0.16738 0.09772,0.23719 0.05585,0.0698 0.139741,0.098 0.237477,0.098 h 6.967211 c 0.09774,0 0.167381,-0.0282 0.237192,-0.098 0.06981,-0.0698 0.09772,-0.13946 0.09772,-0.23719 v -1.89896 c 0,-0.0977 -0.02791,-0.16739 -0.09772,-0.2372 -0.06981,-0.0698 -0.139456,-0.0977 -0.237192,-0.0977 h -4.202711 c -0.09774,0 -0.181628,-0.0282 -0.237477,-0.098 -0.06981,-0.0698 -0.09772,-0.13945 -0.09772,-0.23719 v -6.98113 c 0,-0.0977 -0.02791,-0.16766 -0.09772,-0.23748 -0.06981,-0.0698 -0.139741,-0.0977 -0.237477,-0.0977 z m 12.91492,0 c -0.09774,0 -0.167381,0.0279 -0.237192,0.0977 -0.06981,0.0698 -0.09772,0.13974 -0.09772,0.23748 v 1.89896 c 0,0.0977 0.02791,0.16738 0.09772,0.23719 0.06981,0.0698 0.139457,0.0977 0.237192,0.0977 h 1.982759 c 0.09774,0 0.181585,0.0279 0.251396,0.0977 0.05585,0.0698 0.08352,0.13974 0.08352,0.23748 v 6.98113 c 0,0.0977 0.02819,0.16738 0.098,0.23719 0.06981,0.0698 0.139457,0.098 0.237193,0.098 h 2.094396 c 0.09774,0 0.181587,-0.0282 0.251398,-0.098 0.05585,-0.0698 0.0838,-0.13946 0.0838,-0.23719 v -6.98113 c 0,-0.0977 0.02792,-0.16767 0.09772,-0.23748 0.06981,-0.0698 0.139458,-0.0977 0.237194,-0.0977 h 1.954919 c 0.09774,0 0.181301,-0.0279 0.251112,-0.0977 0.05585,-0.0698 0.0838,-0.13945 0.0838,-0.23719 v -1.89896 c 0,-0.0977 -0.02792,-0.16766 -0.0838,-0.23748 -0.06981,-0.0698 -0.153376,-0.0977 -0.251112,-0.0977 z m 25.439254,0 c -0.09774,0 -0.167382,0.0279 -0.237193,0.0977 -0.06981,0.0698 -0.09771,0.13974 -0.09771,0.23748 v 9.5502 c 0,0.0977 0.02792,0.16738 0.09771,0.23719 0.06981,0.0698 0.139457,0.098 0.237193,0.098 h 2.080476 c 0.09774,0 0.167382,-0.0282 0.237193,-0.098 0.06981,-0.0698 0.09772,-0.13946 0.09772,-0.23719 v -4.99866 c 0,-0.0977 0.0282,-0.15335 0.098,-0.16731 0.05585,-0.014 0.111467,0.0279 0.167316,0.0977 l 3.644247,5.12392 c 0.0559,0.0698 0.13973,0.13987 0.23747,0.19572 0.0977,0.0559 0.19542,0.0838 0.29315,0.0838 h 2.06628 c 0.0977,0 0.16766,-0.0282 0.23747,-0.098 0.0698,-0.0698 0.0977,-0.13946 0.0977,-0.23719 v -9.5502 c 0,-0.0977 -0.0279,-0.16766 -0.0977,-0.23748 -0.0698,-0.0698 -0.13973,-0.0977 -0.23747,-0.0977 h -2.06628 c -0.0977,0 -0.16766,0.0279 -0.23747,0.0977 -0.0698,0.0698 -0.0977,0.13974 -0.0977,0.23748 v 4.99837 c 0,0.0977 -0.0279,0.13972 -0.0838,0.15368 -0.0698,0.014 -0.12567,-0.0279 -0.18152,-0.0977 l -3.630035,-5.12421 c -0.05585,-0.0698 -0.139738,-0.13958 -0.237474,-0.19543 -0.09774,-0.0419 -0.195422,-0.0699 -0.293152,-0.0699 z m -29.641681,0.0139 c -0.09774,0 -0.181627,0.0279 -0.237476,0.0977 -0.06981,0.0698 -0.09772,0.13975 -0.09772,0.23748 v 9.53628 c 0,0.0977 0.02791,0.16738 0.09772,0.23719 0.05585,0.0698 0.13974,0.098 0.237476,0.098 h 2.108031 c 0.09774,0 0.167666,-0.0282 0.237477,-0.098 0.06981,-0.0698 0.09772,-0.13946 0.09772,-0.23719 v -9.53627 c 0,-0.0977 -0.02791,-0.16767 -0.09772,-0.23748 -0.06981,-0.0698 -0.139741,-0.0977 -0.237477,-0.0977 z m 13.431634,0 c -0.09774,0 -0.181631,0.0279 -0.23748,0.0977 -0.06981,0.0698 -0.09772,0.13975 -0.09772,0.23748 v 9.53628 c 0,0.0977 0.02792,0.16738 0.09772,0.23719 0.05585,0.0698 0.139744,0.098 0.23748,0.098 h 2.108312 c 0.09774,0 0.167382,-0.0282 0.237194,-0.098 0.06981,-0.0698 0.09772,-0.13946 0.09772,-0.23719 v -9.53627 c 0,-0.0977 -0.02792,-0.16767 -0.09772,-0.23748 -0.06981,-0.0698 -0.139458,-0.0977 -0.237194,-0.0977 z m -29.195137,2.47135 c 0.349056,0 0.670291,0.07 0.97746,0.20964 0.307169,0.15359 0.572222,0.33503 0.809579,0.57239 0.237359,0.23736 0.418889,0.51657 0.544549,0.8377 0.12566,0.32113 0.195435,0.65624 0.195435,1.0053 0,0.34905 -0.06977,0.68416 -0.195435,1.0053 -0.12566,0.32113 -0.30719,0.60034 -0.544549,0.8377 -0.237357,0.23736 -0.50241,0.43276 -0.809579,0.57239 -0.307169,0.15358 -0.628404,0.22355 -0.97746,0.22355 -0.349056,0 -0.670292,-0.07 -0.977461,-0.22355 -0.307169,-0.13963 -0.572264,-0.33503 -0.79566,-0.57239 -0.237358,-0.23736 -0.418888,-0.51657 -0.544549,-0.8377 -0.12566,-0.32114 -0.195435,-0.65625 -0.195435,-1.0053 0,-0.34906 0.06977,-0.68417 0.195435,-1.0053 0.125661,-0.32113 0.307191,-0.60034 0.544549,-0.8377 0.223396,-0.23736 0.488491,-0.4188 0.79566,-0.57239 0.307169,-0.13962 0.628405,-0.20964 0.977461,-0.20964 z m 38.32634,0 c 0.349051,0 0.670287,0.07 0.977457,0.20964 0.30717,0.15359 0.572508,0.33503 0.809866,0.57239 0.237359,0.23736 0.418885,0.51657 0.544545,0.8377 0.12566,0.32113 0.195439,0.65624 0.195439,1.0053 0,0.34905 -0.06978,0.68416 -0.195439,1.0053 -0.12566,0.32113 -0.307186,0.60034 -0.544545,0.8377 -0.237358,0.23736 -0.502696,0.43276 -0.809866,0.57239 -0.30717,0.15358 -0.628406,0.22355 -0.977457,0.22355 -0.349057,0 -0.670007,-0.07 -0.977177,-0.22355 -0.30717,-0.13963 -0.572552,-0.33503 -0.795948,-0.57239 -0.237358,-0.23736 -0.41889,-0.51657 -0.544544,-0.8377 -0.125661,-0.32114 -0.195439,-0.65625 -0.195439,-1.0053 0,-0.34906 0.06978,-0.68417 0.195439,-1.0053 0.125654,-0.32113 0.307186,-0.60034 0.544544,-0.8377 0.223396,-0.23736 0.488778,-0.4188 0.795948,-0.57239 0.30717,-0.13962 0.62812,-0.20964 0.977177,-0.20964 z" style="font-size:25.4px;line-height:1;font-family:Heavitas;-inkscape-font-specification:Heavitas;letter-spacing:0;word-spacing:0;text-orientation:upright;fill:#fff;stroke-width:8.46668;stroke-linecap:round;stroke-linejoin:round;stroke-miterlimit:128;paint-order:stroke fill markers"/></svg>