<svg xmlns="http://www.w3.org/2000/svg" width="2048" height="2048" viewBox="0 0 541.86665 541.86668"><path d="M 270.93333,0 A 270.93332,270.93332 0 0 0 0,270.93333 270.93332,270.93332 0 0 0 270.93333,541.86666 270.93332,270.93332 0 0 0 541.86666,270.93333 270.93332,270.93332 0 0 0 270.93333,0 Z" style="fill:#000;fill-opacity:1;fill-rule:evenodd"/><path d="m 313.26667,491.06662 c -14.02795,0 -25.4,-11.37203 -25.4,-25.4 v -33.86667 c 0,-14.02797 11.37205,-25.4 25.4,-25.4 h 33.86667 c 14.02799,0 25.4,11.37204 25.4,25.4 v 33.86667 c 0,14.02796 -11.37201,25.4 -25.4,25.4 z" style="fill:#894efa;fill-opacity:1;stroke:none;stroke-width:33.8667;stroke-linecap:square;stroke-miterlimit:128"/><path d="m 194.73333,491.06668 c -14.02795,0 -25.4,-11.37202 -25.4,-25.4 v -33.86667 c 0,-14.02797 11.37205,-25.4 25.4,-25.4 H 228.6 c 14.02799,0 25.4,11.37204 25.4,25.4 v 33.86667 c 0,14.02797 -11.37201,25.4 -25.4,25.4 z" style="fill:#9bf123;fill-opacity:1;stroke:none;stroke-width:33.8667;stroke-linecap:square;stroke-miterlimit:128"/><path d="m 431.8,372.53327 c -14.02795,0 -25.4,-11.37202 -25.4,-25.4 v -33.86666 c 0,-14.02797 11.37205,-25.4 25.4,-25.4 h 33.86667 c 14.02799,0 25.4,11.37204 25.4,25.4 v 33.86666 c 0,14.02797 -11.37201,25.4 -25.4,25.4 z" style="fill:#ff7b0a;fill-opacity:1;stroke:none;stroke-width:33.8667;stroke-linecap:square;stroke-miterlimit:128"/><path d="m 313.26666,372.53334 c -14.02795,0 -25.4,-11.37202 -25.4,-25.4 v -33.86667 c 0,-14.02797 11.37205,-25.4 25.4,-25.4 h 33.86667 c 14.02799,0 25.4,11.37204 25.4,25.4 v 33.86667 c 0,14.02797 -11.37201,25.4 -25.4,25.4 z" style="fill:#ff16a8;fill-opacity:1;stroke:none;stroke-width:33.8667;stroke-linecap:square;stroke-miterlimit:128"/><path d="m 194.73337,372.53322 c -14.02795,0 -25.4,-11.37202 -25.4,-25.4 v -33.86666 c 0,-14.02797 11.37205,-25.4 25.4,-25.4 h 33.86667 c 14.02799,0 25.4,11.37204 25.4,25.4 v 33.86666 c 0,14.02797 -11.37201,25.4 -25.4,25.4 z" style="fill:#2976ff;fill-opacity:1;stroke:none;stroke-width:33.8667;stroke-linecap:square;stroke-miterlimit:128"/><path d="m 76.200037,372.53329 c -14.02795,0 -25.4,-11.37202 -25.4,-25.4 v -33.86667 c 0,-14.02797 11.37205,-25.4 25.4,-25.4 H 110.0667 c 14.02799,0 25.4,11.37204 25.4,25.4 v 33.86667 c 0,14.02797 -11.37201,25.4 -25.4,25.4 z" style="fill:#ff0;fill-opacity:1;stroke:none;stroke-width:33.8667;stroke-linecap:square;stroke-miterlimit:128"/><path d="m 431.8,169.33341 c -14.02795,0 -25.4,11.37202 -25.4,25.4 v 33.86666 c 0,14.02797 11.37205,25.4 25.4,25.4 h 33.86667 c 14.02799,0 25.4,-11.37204 25.4,-25.4 v -33.86666 c 0,-14.02797 -11.37201,-25.4 -25.4,-25.4 z" style="fill:#ff3a18;fill-opacity:1;stroke:none;stroke-width:33.8667;stroke-linecap:square;stroke-miterlimit:128"/><path d="m 313.26666,169.33334 c -14.02795,0 -25.4,11.37202 -25.4,25.4 v 33.86667 c 0,14.02797 11.37205,25.4 25.4,25.4 h 33.86667 c 14.02799,0 25.4,-11.37204 25.4,-25.4 v -33.86667 c 0,-14.02797 -11.37201,-25.4 -25.4,-25.4 z" style="fill:#0fd1a5;fill-opacity:1;stroke:none;stroke-width:33.8667;stroke-linecap:square;stroke-miterlimit:128"/><path d="m 194.73337,169.33346 c -14.02795,0 -25.4,11.37202 -25.4,25.4 v 33.86666 c 0,14.02797 11.37205,25.4 25.4,25.4 h 33.86667 c 14.02799,0 25.4,-11.37204 25.4,-25.4 v -33.86666 c 0,-14.02797 -11.37201,-25.4 -25.4,-25.4 z" style="fill:#ffc103;fill-opacity:1;stroke:none;stroke-width:33.8667;stroke-linecap:square;stroke-miterlimit:128"/><path d="m 76.200034,169.33339 c -14.02795,0 -25.4,11.37202 -25.4,25.4 v 33.86667 c 0,14.02797 11.37205,25.4 25.4,25.4 H 110.0667 c 14.02799,0 25.4,-11.37204 25.4,-25.4 v -33.86667 c 0,-14.02797 -11.37201,-25.4 -25.4,-25.4 z" style="fill:#b900d3;fill-opacity:1;stroke:none;stroke-width:33.8667;stroke-linecap:square;stroke-miterlimit:128"/><path d="m 313.26667,50.800065 c -14.02795,0 -25.4,11.372023 -25.4,25.4 v 33.866665 c 0,14.02797 11.37205,25.4 25.4,25.4 h 33.86667 c 14.02799,0 25.4,-11.37204 25.4,-25.4 V 76.200065 c 0,-14.027968 -11.37201,-25.4 -25.4,-25.4 z" style="fill:#20e546;fill-opacity:1;stroke:none;stroke-width:33.8667;stroke-linecap:square;stroke-miterlimit:128"/><path d="M 194.73333 50.8 C 180.70538 50.8 169.33333 62.172023 169.33333 76.2 L 169.33333 110.06667 C 169.33333 124.09464 180.70538 135.46667 194.73333 135.46667 L 228.6 135.46667 C 242.62799 135.46667 254 124.09463 254 110.06667 L 254 76.2 C 254 62.172032 242.62799 50.8 228.6 50.8 L 194.73333 50.8 z" style="fill:#ff0e57;fill-opacity:1;stroke:none;stroke-width:33.8667;stroke-linecap:square;stroke-miterlimit:128"/><path d="m 254,76.199996 v 33.866674 h 33.86667 V 76.199996 Z M 135.46667,194.73333 V 228.6 h 33.86666 v -33.86667 z m 237.06666,0 V 228.6 H 406.4 V 194.73333 Z M 135.46667,313.26667 v 33.86666 h 33.86666 v -33.86666 z m 237.06666,0 v 33.86666 H 406.4 V 313.26667 Z M 254,431.8 v 33.86667 h 33.86667 V 431.8 Z" style="fill:#404040;fill-opacity:1;stroke:none;stroke-width:33.8667;stroke-linecap:square;stroke-miterlimit:128"/></svg>