<svg xmlns="http://www.w3.org/2000/svg" xml:space="preserve" id="svg1" width="512" height="80" version="1.1" viewBox="0 0 135.46665 21.166666"><style id="style1" type="text/css">.st0{opacity:.2;fill:none;stroke:#000;stroke-width:5.000000e-02;stroke-miterlimit:10}</style><path id="path3" d="M 10.583984,0 A 2.1166649,2.1166649 0 0 0 9.0859375,0.61914062 L 0.61914062,9.0859375 A 2.1166649,2.1166649 0 0 0 0,10.583984 2.1166649,2.1166649 0 0 0 0.61914062,12.080078 l 8.46679688,8.466797 a 2.1166649,2.1166649 0 0 0 2.9941405,0 2.1166649,2.1166649 0 0 0 0,-2.994141 L 7.2265625,12.699219 H 128.24023 l -4.85351,4.853515 a 2.1166649,2.1166649 0 0 0 0,2.994141 2.1166649,2.1166649 0 0 0 2.99414,0 l 8.46484,-8.466797 a 2.1168766,2.1168766 0 0 0 0.6211,-1.496094 2.1166649,2.1166649 0 0 0 -0.16211,-0.8105465 2.1168766,2.1168766 0 0 0 -0.45899,-0.6875 l -8.46484,-8.46679688 a 2.1166649,2.1166649 0 0 0 -2.99414,0 2.1166649,2.1166649 0 0 0 0,2.99414068 l 4.85351,4.8535156 H 7.2265625 L 12.080078,3.6132813 a 2.1166649,2.1166649 0 0 0 0,-2.99414068 A 2.1166649,2.1166649 0 0 0 10.583984,0 Z" style="color:#000;fill:#404040;stroke-linecap:round;stroke-linejoin:round;stroke-miterlimit:128;-inkscape-stroke:none"/></svg>