<svg xmlns="http://www.w3.org/2000/svg" xml:space="preserve" id="svg1" width="256" height="256" version="1.1" viewBox="0 0 67.733325 67.73333"><style id="style1" type="text/css">.st0{opacity:.2;fill:none;stroke:#000;stroke-width:5.000000e-02;stroke-miterlimit:10}</style><path id="path1" d="M 29.633331 0 A 4.2333326 4.2333331 0 0 0 25.399998 4.233333 L 25.399998 25.399998 L 4.233333 25.399998 A 4.2333331 4.2333326 0 0 0 0 29.633331 L 0 38.099997 A 4.2333331 4.2333326 0 0 0 4.233333 42.33333 L 25.399998 42.33333 L 25.399998 63.499995 A 4.2333326 4.2333331 0 0 0 29.633331 67.733327 L 38.099997 67.733327 A 4.2333326 4.2333331 0 0 0 42.33333 63.499995 L 42.33333 42.33333 L 63.499995 42.33333 A 4.2333331 4.2333326 0 0 0 67.733327 38.099997 L 67.733327 29.633331 A 4.2333331 4.2333326 0 0 0 63.499995 25.399998 L 42.33333 25.399998 L 42.33333 4.233333 A 4.2333326 4.2333331 0 0 0 38.099997 0 L 29.633331 0 z" style="fill:#fff;stroke-width:67.7333;stroke-linecap:square;stroke-miterlimit:128"/></svg>