<svg xmlns="http://www.w3.org/2000/svg" xml:space="preserve" width="512" height="512" viewBox="0 0 135.46666 135.46667"><path d="m 101.59999,0 c 18.70405,-5.5228478e-7 33.86667,15.162623 33.86667,33.866666 V 101.6 c 0,18.70404 -15.16263,33.86666 -33.86667,33.86666 H 0 V 0 Z" style="fill:#000;fill-opacity:1;stroke-width:4.23333;stroke-miterlimit:128;paint-order:stroke fill markers"/><path d="M 8.4666666 8.4666666 L 8.4666666 101.6 L 127 101.6 L 127 33.866666 A 25.4 25.4 0 0 0 101.6 8.4666666 L 8.4666666 8.4666666 z M 63.499999 16.933333 A 16.933332 16.933332 0 0 1 79.070108 27.339416 L 81.159903 25.249621 C 81.573207 24.83632 82.114754 24.629504 82.656452 24.629504 C 83.198153 24.629504 83.739696 24.836321 84.153002 25.249621 L 86.783332 27.879952 L 86.783332 27.516666 C 86.783332 26.347669 87.731002 25.4 88.899999 25.4 L 103.71667 25.4 C 104.88562 25.4 105.83333 26.347669 105.83333 27.516666 L 105.83333 38.1 L 110.06667 38.1 C 111.23562 38.100004 112.18333 39.047671 112.18333 40.216666 C 112.18255 40.508331 112.1215 40.796687 112.00401 41.063643 L 112.00608 41.064676 L 111.99213 41.096199 L 97.189415 74.931859 L 97.187348 74.930826 C 96.850829 75.701 96.090484 76.199107 95.249999 76.199999 L 44.449999 76.199999 L 44.449999 80.845194 C 46.247853 81.474132 47.668451 82.876899 48.320047 84.666666 L 82.929304 84.666666 C 83.824325 82.135132 86.214918 80.440132 88.899999 80.433332 C 92.406987 80.433332 95.249999 83.276344 95.249999 86.783332 C 95.249999 90.290325 92.406987 93.133332 88.899999 93.133332 C 86.214919 93.126503 83.824325 91.431527 82.929304 88.899999 L 48.304028 88.899999 C 47.409007 91.431527 45.018413 93.126532 42.333333 93.133332 C 38.82634 93.133332 35.983333 90.290325 35.983333 86.783332 C 36.004079 84.110407 37.696505 81.736631 40.216666 80.84571 L 40.216666 74.277636 L 32.099849 29.632816 L 25.400516 29.632816 C 24.231927 29.633102 23.284188 28.686294 23.283333 27.5177 C 23.283046 26.348298 24.231119 25.40023 25.400516 25.400516 L 33.867183 25.400516 C 34.890038 25.400866 35.766352 26.132539 35.949226 27.138912 L 37.942386 38.1 L 42.333333 38.1 L 42.333333 29.633333 C 42.333333 28.464334 43.281003 27.516666 44.449999 27.516666 L 47.845658 27.516666 A 16.933332 16.933332 0 0 1 63.499999 16.933333 z M 63.499999 21.166666 A 12.699999 12.699999 0 0 0 52.556481 27.516666 L 61.383333 27.516666 C 62.552329 27.516666 63.499999 28.464334 63.499999 29.633333 L 63.499999 38.1 L 68.309008 38.1 L 75.756615 30.652909 A 12.699999 12.699999 0 0 0 63.499999 21.166666 z M 91.016666 29.633333 L 91.016666 32.113285 L 97.003897 38.1 L 101.6 38.1 L 101.6 29.633333 L 91.016666 29.633333 z M 82.656452 29.739786 L 74.296239 38.1 L 91.016666 38.1 L 82.656452 29.739786 z M 46.566666 31.75 L 46.566666 38.1 L 59.266666 38.1 L 59.266666 31.75 L 46.566666 31.75 z M 38.711848 42.333333 L 39.481827 46.566666 L 84.666666 46.566666 A 2.1166666 2.1166666 0 0 1 86.783332 48.683333 A 2.1166666 2.1166666 0 0 1 84.666666 50.799999 L 40.251289 50.799999 L 41.020751 55.033333 L 74.083332 55.033333 A 2.1166666 2.1166666 0 0 1 76.199999 57.149999 A 2.1166666 2.1166666 0 0 1 74.083332 59.266666 L 41.79073 59.266666 L 42.560192 63.499999 L 88.899999 63.499999 A 2.1166666 2.1166666 0 0 1 91.016666 65.616666 A 2.1166666 2.1166666 0 0 1 88.899999 67.733332 L 43.330171 67.733332 L 44.099633 71.966666 L 93.86507 71.966666 L 106.82965 42.333333 L 38.711848 42.333333 z M 91.016666 46.566666 L 95.249999 46.566666 A 2.1166666 2.1166666 0 0 1 97.366665 48.683333 A 2.1166666 2.1166666 0 0 1 95.249999 50.799999 L 91.016666 50.799999 A 2.1166666 2.1166666 0 0 1 88.899999 48.683333 A 2.1166666 2.1166666 0 0 1 91.016666 46.566666 z M 80.433332 55.033333 L 84.666666 55.033333 A 2.1166666 2.1166666 0 0 1 86.783332 57.149999 A 2.1166666 2.1166666 0 0 1 84.666666 59.266666 L 80.433332 59.266666 A 2.1166666 2.1166666 0 0 1 78.316666 57.149999 A 2.1166666 2.1166666 0 0 1 80.433332 55.033333 z M 42.333333 84.666666 C 41.164335 84.666666 40.216666 85.614334 40.216666 86.783332 C 40.216666 87.95233 41.164335 88.899999 42.333333 88.899999 C 43.502331 88.899999 44.449999 87.95233 44.449999 86.783332 C 44.449999 85.614335 43.50233 84.666666 42.333333 84.666666 z M 88.899999 84.666666 C 87.731001 84.666666 86.783332 85.614334 86.783332 86.783332 C 86.783332 87.95233 87.731001 88.899999 88.899999 88.899999 C 90.068997 88.899999 91.016666 87.95233 91.016666 86.783332 C 91.016666 85.614334 90.068997 84.666666 88.899999 84.666666 z" style="fill:#ffc103;stroke-width:4.23333;stroke-miterlimit:128;paint-order:stroke fill markers;fill-opacity:1"/><path d="m 33.879298,112.18333 c -0.101207,0 -0.173326,0.0289 -0.245618,0.10118 -0.07229,0.0723 -0.101189,0.14471 -0.101189,0.24592 v 9.88942 c 0,0.1012 0.0289,0.17331 0.101189,0.24561 0.07229,0.0723 0.144411,0.10119 0.245618,0.10119 h 3.947234 c 0.751825,0 1.445603,-0.11552 2.067305,-0.33239 0.621701,-0.21688 1.171311,-0.54961 1.648431,-0.98336 0.520494,-0.47712 0.910731,-1.05537 1.185435,-1.73491 0.274706,-0.66508 0.404754,-1.41674 0.404754,-2.24085 0,-0.82412 -0.130048,-1.57607 -0.404754,-2.24116 -0.274704,-0.66507 -0.664941,-1.24338 -1.185435,-1.72049 -0.968697,-0.88195 -2.197627,-1.33016 -3.715736,-1.33016 z m 11.320759,0 c -0.101208,0 -0.173327,0.0289 -0.245618,0.10118 -0.07229,0.0723 -0.101483,0.14471 -0.101483,0.24592 v 9.88942 c 0,0.1012 0.02919,0.17331 0.101483,0.24561 0.07229,0.0723 0.14441,0.10119 0.245618,0.10119 h 7.359405 c 0.101207,0 0.173326,-0.0289 0.245617,-0.10119 0.07229,-0.0722 0.101189,-0.14441 0.101189,-0.24561 v -1.99525 c 0,-0.10121 -0.0289,-0.17362 -0.101189,-0.24591 -0.07229,-0.0723 -0.14441,-0.10119 -0.245617,-0.10119 H 48.06275 c -0.101207,0 -0.173327,-0.0289 -0.245618,-0.10119 -0.07229,-0.0722 -0.101188,-0.1447 -0.101188,-0.24591 v -0.54918 c 0,-0.10121 0.0289,-0.17362 0.101188,-0.24591 0.07229,-0.0723 0.144411,-0.10119 0.245618,-0.10119 h 3.918113 c 0.101208,0 0.173621,-0.0289 0.245912,-0.10119 0.07229,-0.0722 0.101189,-0.1447 0.101189,-0.24591 v -1.99524 c 0,-0.10121 -0.0289,-0.17332 -0.101189,-0.24561 -0.07229,-0.0722 -0.144704,-0.1012 -0.245912,-0.1012 H 48.06275 c -0.101207,0 -0.173327,-0.0289 -0.245618,-0.10119 -0.07229,-0.0722 -0.101188,-0.1447 -0.101188,-0.24591 v -0.60712 c 0,-0.10121 0.0289,-0.17362 0.101188,-0.24592 0.07229,-0.0722 0.144411,-0.10119 0.245618,-0.10119 h 4.496712 c 0.101207,0 0.173326,-0.0289 0.245617,-0.10118 0.07229,-0.0722 0.101189,-0.14471 0.101189,-0.24592 v -1.96611 c 0,-0.10121 -0.0289,-0.17362 -0.101189,-0.24592 -0.07229,-0.0722 -0.14441,-0.10118 -0.245617,-0.10118 z m 35.350383,0 c -0.101208,0 -0.173621,0.0289 -0.245912,0.10118 -0.07229,0.0723 -0.101189,0.14471 -0.101189,0.24592 v 9.88942 c 0,0.1012 0.0289,0.17331 0.101189,0.24561 0.07229,0.0723 0.144704,0.10119 0.245912,0.10119 h 2.15408 c 0.101207,0 0.17362,-0.0289 0.245912,-0.10119 0.07229,-0.0722 0.101188,-0.14441 0.101188,-0.24561 v -5.17622 c 0,-0.1012 0.0289,-0.15909 0.101188,-0.17355 0.05783,-0.0145 0.115717,0.0289 0.17355,0.10119 l 3.773682,5.30623 c 0.05783,0.0723 0.144411,0.14454 0.245618,0.20237 0.101207,0.0578 0.202358,0.0868 0.303565,0.0868 h 2.13996 c 0.101208,0 0.173624,-0.0289 0.245915,-0.10119 0.07229,-0.0722 0.101191,-0.14441 0.101191,-0.24561 v -9.88942 c 0,-0.10121 -0.02892,-0.17362 -0.101191,-0.24592 -0.07229,-0.0722 -0.144707,-0.10118 -0.245915,-0.10118 h -2.13996 c -0.101207,0 -0.173322,0.0289 -0.245613,0.10118 -0.07229,0.0723 -0.101189,0.14471 -0.101189,0.24592 v 5.17591 c 0,0.10121 -0.02892,0.14467 -0.08678,0.15913 -0.07229,0.0144 -0.130129,-0.0289 -0.187962,-0.10118 l -3.75927,-5.30622 c -0.05783,-0.0722 -0.144409,-0.14455 -0.245617,-0.20238 -0.101207,-0.0433 -0.202359,-0.0723 -0.303566,-0.0723 z m 12.130268,0 c -0.101207,0 -0.173327,0.0289 -0.245618,0.10118 -0.07229,0.0723 -0.101191,0.14471 -0.101191,0.24592 v 9.88942 c 0,0.1012 0.02892,0.17331 0.101191,0.24561 0.07229,0.0723 0.144411,0.10119 0.245618,0.10119 h 3.947234 c 0.751824,0 1.445898,-0.11552 2.067597,-0.33239 0.621699,-0.21688 1.171023,-0.54961 1.648141,-0.98336 0.52049,-0.47712 0.91073,-1.05537 1.18543,-1.73491 0.27471,-0.66508 0.40505,-1.41674 0.40505,-2.24085 0,-0.82412 -0.13034,-1.57607 -0.40505,-2.24116 -0.2747,-0.66507 -0.66494,-1.24338 -1.18543,-1.72049 -0.9687,-0.88195 -2.197632,-1.33016 -3.715738,-1.33016 z m -37.547705,0.0144 c -0.101207,0 -0.17362,0.0289 -0.245911,0.10119 -0.07229,0.0723 -0.101189,0.1447 -0.101189,0.24591 v 9.875 c 0,0.10121 0.0289,0.17332 0.101189,0.24561 0.07229,0.0722 0.144704,0.1012 0.245911,0.1012 h 2.183201 c 0.101207,0 0.173326,-0.0289 0.245618,-0.1012 0.07229,-0.0723 0.101188,-0.1444 0.101188,-0.24561 v -4.65555 c 0,-0.10121 0.04357,-0.14469 0.13031,-0.15914 0.08675,-0.0144 0.159002,0.0289 0.202376,0.10118 l 2.428819,3.91812 c 0.05783,0.0722 0.144705,0.1159 0.245912,0.1159 0.101207,0 0.18783,-0.0436 0.231204,-0.1159 l 2.429113,-3.91812 c 0.05783,-0.0722 0.130041,-0.11564 0.21679,-0.10118 0.08675,0.0145 0.130016,0.0579 0.130016,0.15914 v 4.65555 c 0,0.10121 0.0289,0.17332 0.101188,0.24561 0.07229,0.0722 0.144705,0.1012 0.245912,0.1012 h 2.1832 c 0.101207,0 0.173621,-0.0289 0.245912,-0.1012 0.07229,-0.0723 0.101188,-0.1444 0.101188,-0.24561 v -9.875 c 0,-0.10121 -0.0289,-0.17362 -0.101188,-0.24591 -0.07229,-0.0723 -0.144705,-0.10119 -0.245912,-0.10119 h -2.024063 c -0.101208,0 -0.202359,0.0289 -0.303567,0.0868 -0.101207,0.0578 -0.188079,0.13009 -0.245911,0.20238 l -2.775919,4.07725 c -0.04338,0.0722 -0.115672,0.11561 -0.187963,0.11561 -0.07229,0 -0.144545,-0.0433 -0.202377,-0.11561 l -2.776212,-4.07725 c -0.04337,-0.0722 -0.129998,-0.14454 -0.231205,-0.20238 -0.101207,-0.0578 -0.202358,-0.0868 -0.303565,-0.0868 z m 17.320885,0 c -0.101207,0 -0.202403,0.0289 -0.289153,0.0868 -0.101206,0.0722 -0.159002,0.14475 -0.202376,0.2315 l -4.193147,9.78793 c -0.04337,0.0722 -0.0577,0.14484 -0.04324,0.20267 0.01446,0.0578 0.02898,0.10105 0.07236,0.14443 0.02892,0.0434 0.07218,0.0723 0.130015,0.0868 0.04338,0.0145 0.101349,0.0288 0.144723,0.0288 h 2.486767 c 0.101207,0 0.187945,-0.0289 0.289152,-0.10119 0.08675,-0.0578 0.144589,-0.13004 0.187963,-0.21679 l 0.404754,-0.86746 c 0.04337,-0.0868 0.10117,-0.1592 0.202377,-0.23149 0.08675,-0.0578 0.187945,-0.0865 0.289153,-0.0865 h 3.050657 c 0.101208,0 0.187944,0.0287 0.289151,0.0865 0.08675,0.0723 0.159003,0.14474 0.202378,0.23149 l 0.390635,0.86746 c 0.04338,0.0867 0.115582,0.15896 0.216789,0.21679 0.08675,0.0723 0.187946,0.10119 0.289152,0.10119 h 2.472354 c 0.15904,0 0.260146,-0.0433 0.31798,-0.14443 0.04337,-0.1012 0.05778,-0.18798 0.01442,-0.27473 l -4.221681,-9.83144 c -0.04337,-0.0867 -0.101214,-0.1592 -0.187963,-0.2315 -0.101207,-0.0578 -0.187944,-0.0868 -0.289152,-0.0868 z m -35.711897,2.67473 h 1.084541 c 0.274705,0 0.549171,0.0289 0.838335,0.10119 0.274705,0.0722 0.535186,0.18796 0.780975,0.37592 0.231331,0.18796 0.419265,0.46285 0.578305,0.79539 0.144581,0.347 0.21679,0.79516 0.21679,1.34458 0,0.5494 -0.07221,0.99762 -0.21679,1.33015 -0.15904,0.347 -0.346974,0.60714 -0.578305,0.79509 -0.231331,0.18796 -0.491811,0.31806 -0.780975,0.39035 -0.289164,0.0722 -0.56363,0.10118 -0.838335,0.10118 h -1.084541 c -0.101207,0 -0.173326,-0.0289 -0.245617,-0.10118 -0.07229,-0.0723 -0.101189,-0.14442 -0.101189,-0.24562 v -4.53995 c 0,-0.10121 0.0289,-0.17363 0.101189,-0.24591 0.07229,-0.0723 0.14441,-0.10119 0.245617,-0.10119 z m 58.801412,0 h 1.084539 c 0.274708,0 0.549466,0.0289 0.838624,0.10119 0.274708,0.0722 0.534899,0.18796 0.780691,0.37592 0.231324,0.18796 0.419257,0.46285 0.578299,0.79539 0.144583,0.347 0.216791,0.79516 0.216791,1.34458 0,0.5494 -0.07217,0.99762 -0.216791,1.33015 -0.159042,0.347 -0.346975,0.60714 -0.578299,0.79509 -0.231333,0.18796 -0.491525,0.31806 -0.780691,0.39035 -0.289158,0.0722 -0.563916,0.10118 -0.838624,0.10118 h -1.084539 c -0.101209,0 -0.173334,-0.0289 -0.245617,-0.10118 -0.07233,-0.0723 -0.101191,-0.14442 -0.101191,-0.24562 v -4.53995 c 0,-0.10121 0.02892,-0.17363 0.101191,-0.24591 0.07225,-0.0723 0.144408,-0.10119 0.245617,-0.10119 z m -22.092043,1.7352 c 0.04337,0 0.08693,0.0433 0.130309,0.13002 0.115666,0.27471 0.245804,0.57821 0.375927,0.89628 0.130124,0.33254 0.245599,0.60726 0.346806,0.85305 0.04337,0.0868 0.05779,0.15925 0.01442,0.21708 -0.04338,0.0722 -0.115583,0.10119 -0.216791,0.10119 h -1.286624 c -0.101207,0 -0.173709,-0.0289 -0.217084,-0.10119 -0.04337,-0.0578 -0.04337,-0.13033 0,-0.21708 l 0.723027,-1.74933 c 0.04337,-0.0867 0.08664,-0.13002 0.130016,-0.13002 z" style="font-size:25.4px;line-height:1;font-family:Heavitas;-inkscape-font-specification:Heavitas;letter-spacing:0;word-spacing:0;text-orientation:upright;fill:#fff;stroke-width:25.4;stroke-miterlimit:128"/></svg>