<?xml version="1.0" encoding="UTF-8" standalone="no"?>
<svg
   xml:space="preserve"
   id="svg1"
   width="512"
   height="512"
   version="1.1"
   viewBox="0 0 135.46665 135.46666"
   sodipodi:docname="horizontal.svg"
   inkscape:version="1.3 (0e150ed6c4, 2023-07-21)"
   xmlns:inkscape="http://www.inkscape.org/namespaces/inkscape"
   xmlns:sodipodi="http://sodipodi.sourceforge.net/DTD/sodipodi-0.dtd"
   xmlns="http://www.w3.org/2000/svg"
   xmlns:svg="http://www.w3.org/2000/svg"><defs
     id="defs1" /><sodipodi:namedview
     id="namedview1"
     pagecolor="#505050"
     bordercolor="#eeeeee"
     borderopacity="1"
     inkscape:showpageshadow="0"
     inkscape:pageopacity="0"
     inkscape:pagecheckerboard="0"
     inkscape:deskcolor="#505050"
     showgrid="true"
     inkscape:zoom="0.9106402"
     inkscape:cx="231.15606"
     inkscape:cy="226.21448"
     inkscape:window-width="1366"
     inkscape:window-height="705"
     inkscape:window-x="-8"
     inkscape:window-y="-8"
     inkscape:window-maximized="1"
     inkscape:current-layer="svg1"><inkscape:grid
       id="grid1"
       units="px"
       originx="0"
       originy="0"
       spacingx="0.2645833"
       spacingy="0.26458332"
       empcolor="#0099e5"
       empopacity="0.30196078"
       color="#0099e5"
       opacity="0.14902"
       empspacing="32"
       dotted="false"
       gridanglex="30"
       gridanglez="30"
       visible="true" /></sodipodi:namedview><style
     id="style1"
     type="text/css">.st0{opacity:.2;fill:none;stroke:#000;stroke-width:5.000000e-02;stroke-miterlimit:10}</style><path
     id="path1"
     style="fill:#ffffff;fill-opacity:1;stroke-width:4.23333;stroke-linecap:round;stroke-linejoin:round;stroke-miterlimit:128;stroke-opacity:0"
     d="m 118.53332,135.46665 a 16.933331,16.933332 0 0 0 16.93333,-16.93333 V 16.93333 A 16.933331,16.933332 0 0 0 118.53332,0 16.933331,16.933332 0 0 0 101.59999,16.93333 v 101.59999 a 16.933331,16.933332 0 0 0 16.93333,16.93333 z m -50.799997,0 A 16.933331,16.933332 0 0 0 84.666654,118.53332 V 16.93333 A 16.933331,16.933332 0 0 0 67.733323,0 16.933331,16.933332 0 0 0 50.799991,16.93333 v 101.59999 a 16.933331,16.933332 0 0 0 16.933332,16.93333 z m -50.799993,0 A 16.933331,16.933332 0 0 0 33.86666,118.53332 V 16.93333 A 16.933331,16.933332 0 0 0 16.93333,0 16.933331,16.933332 0 0 0 0,16.93333 v 101.59999 a 16.933331,16.933332 0 0 0 16.93333,16.93333 z" /></svg>
