<svg xmlns="http://www.w3.org/2000/svg" xml:space="preserve" width="512" height="512" viewBox="0 0 135.46666 135.46667"><defs/><path d="M 33.866666,0 C 15.162623,-5.5228478e-7 -5.5228478e-7,15.162623 0,33.866666 V 101.6 c 2.7614235e-6,18.70404 15.162625,33.86666 33.866666,33.86666 H 135.46666 V 0 Z" style="fill:#000;fill-opacity:1;stroke-width:4.23333;stroke-miterlimit:128;paint-order:stroke fill markers"/><path d="M 33.866666 8.4666666 A 25.4 25.4 0 0 0 8.4666666 33.866666 L 8.4666666 101.6 L 127 101.6 L 127 8.4666666 L 33.866666 8.4666666 z M 67.711112 16.93385 A 2.1168766 2.1168766 0 0 1 67.736433 16.93385 C 69.991392 16.937462 72.242172 17.141534 74.461087 17.543115 A 2.1168766 2.1168766 0 0 1 76.201033 19.625158 L 76.201033 24.511682 C 77.80087 24.954816 79.356386 25.521243 80.867414 26.208736 L 84.007791 22.466845 A 2.1168766 2.1168766 0 0 1 86.68153 21.990389 C 90.601534 24.236692 94.090911 27.162427 96.986327 30.630688 A 2.1168766 2.1168766 0 0 1 96.982193 33.347835 L 93.839749 37.093859 C 94.780898 38.461372 95.609881 39.895172 96.326419 41.392822 L 101.13698 40.544812 A 2.1168766 2.1168766 0 0 1 103.49239 41.898217 C 105.03927 46.104046 105.83237 50.551987 105.83437 55.033333 A 2.1168766 2.1168766 0 0 1 105.82661 55.214717 C 105.82661 55.209793 105.82435 55.243667 105.81835 55.318587 A 2.1168766 2.1168766 0 0 1 104.07633 57.222863 L 99.210997 58.082242 C 99.056407 59.724562 98.774663 61.344989 98.367121 62.943444 L 102.56066 65.365002 A 2.1168766 2.1168766 0 0 1 103.49807 67.906449 C 101.98537 72.163278 99.727535 76.11755 96.830264 79.583772 A 2.1168766 2.1168766 0 0 1 94.146707 80.058678 L 89.906139 77.609215 C 88.729343 78.773722 87.468759 79.839374 86.124975 80.806436 L 87.777587 85.343627 A 2.1168766 2.1168766 0 0 1 86.853612 87.896443 C 82.951281 90.172679 78.674453 91.736978 74.224409 92.515799 A 2.1168766 2.1168766 0 0 1 71.871064 91.154125 L 70.216902 86.605565 C 69.392875 86.674218 68.57145 86.779132 67.744185 86.783332 A 2.1168766 2.1168766 0 0 1 67.72248 86.783332 C 66.895799 86.779162 66.075227 86.676232 65.25183 86.607632 L 63.595601 91.156192 A 2.1168766 2.1168766 0 0 1 61.242256 92.517349 C 56.791801 91.738483 52.515682 90.172992 48.613053 87.896443 A 2.1168766 2.1168766 0 0 1 47.689595 85.343627 L 49.34169 80.806436 C 47.997906 79.839374 46.737322 78.773722 45.560526 77.609215 L 41.320475 80.058678 A 2.1168766 2.1168766 0 0 1 38.636918 79.583772 C 35.739648 76.117551 33.481288 72.163279 31.968591 67.906449 A 2.1168766 2.1168766 0 0 1 32.906001 65.365002 L 37.099544 62.943444 C 36.689744 61.336131 36.408141 59.706437 36.254117 58.054854 L 31.349507 57.111242 A 2.1168766 2.1168766 0 0 1 29.632816 55.01783 C 29.665769 50.536469 30.490416 46.095567 32.066259 41.900284 A 2.1168766 2.1168766 0 0 1 34.41392 40.560314 L 39.199157 41.404191 C 39.911452 39.920219 40.736342 38.500289 41.669807 37.144502 L 38.507727 33.376774 A 2.1168766 2.1168766 0 0 1 38.509794 30.654459 C 41.415533 27.194802 44.913216 24.279807 48.839912 22.045166 A 2.1168766 2.1168766 0 0 1 51.507966 22.52369 L 54.642659 26.259896 C 56.139759 25.580328 57.681452 25.019761 59.265632 24.579895 L 59.265632 19.683553 A 2.1168766 2.1168766 0 0 1 60.986458 17.605644 C 63.203505 17.183137 65.454304 16.95804 67.711112 16.93385 z M 67.744185 21.168217 C 66.319652 21.183988 64.910102 21.397315 63.499999 21.591963 L 63.499999 26.165844 A 2.1168766 2.1168766 0 0 1 61.836018 28.232385 C 59.463594 28.753458 57.171603 29.587766 55.01783 30.710787 A 2.1168766 2.1168766 0 0 1 52.417988 30.193505 L 49.49982 26.716715 C 47.10802 28.246447 44.930806 30.060377 42.994274 32.136539 L 45.931563 35.638651 A 2.1168766 2.1168766 0 0 1 45.98634 38.292753 C 44.500527 40.216497 43.276681 42.328636 42.345735 44.574023 A 2.1168766 2.1168766 0 0 1 40.021329 45.847847 L 35.564237 45.060298 C 34.711012 47.742981 34.198728 50.506434 34.033064 53.316642 L 38.587825 54.193591 A 2.1168766 2.1168766 0 0 1 40.304516 56.189334 C 40.399632 58.621635 40.815923 61.031267 41.54475 63.353755 A 2.1168766 2.1168766 0 0 1 40.584086 65.820271 L 36.685616 68.070263 C 37.772661 70.692546 39.176164 73.153958 40.880708 75.423819 L 44.82207 73.148506 A 2.1168766 2.1168766 0 0 1 47.4493 73.560367 C 49.086423 75.368227 50.9576 76.950593 53.011751 78.265506 A 2.1168766 2.1168766 0 0 1 53.859244 80.773363 L 52.326004 84.982409 C 54.848874 86.284245 57.510227 87.258827 60.277457 87.892825 L 61.818448 83.662076 A 2.1168766 2.1168766 0 0 1 64.099446 82.289033 C 65.304084 82.456272 66.5182 82.544433 67.734366 82.551033 C 68.950457 82.544407 70.164861 82.456238 71.369286 82.289033 A 2.1168766 2.1168766 0 0 1 73.648217 83.662076 L 75.189208 87.892825 C 77.956771 87.258893 80.617491 86.28433 83.140661 84.982409 L 81.607421 80.773363 A 2.1168766 2.1168766 0 0 1 82.454914 78.265506 C 84.509065 76.950593 86.380242 75.368227 88.017365 73.560367 A 2.1168766 2.1168766 0 0 1 90.644595 73.148506 L 94.585957 75.423819 C 96.290502 73.153958 97.694003 70.692547 98.781049 68.070263 L 94.882579 65.820271 A 2.1168766 2.1168766 0 0 1 93.921915 63.353755 C 94.650742 61.031267 95.067029 58.621635 95.162149 56.189334 A 2.1168766 2.1168766 0 0 1 96.910363 54.187389 L 101.45324 53.386922 C 101.31281 50.551172 100.81711 47.760589 99.976325 45.048929 L 95.50218 45.838028 A 2.1168766 2.1168766 0 0 1 93.177774 44.560587 C 92.245175 42.301261 91.016768 40.176676 89.523217 38.24211 A 2.1168766 2.1168766 0 0 1 89.575927 35.588008 L 92.498229 32.103466 C 90.568221 30.021458 88.396631 28.201046 86.009736 26.664005 L 83.091568 30.142346 A 2.1168766 2.1168766 0 0 1 80.490176 30.658077 C 78.324512 29.526243 76.017688 28.688922 73.630647 28.166239 A 2.1168766 2.1168766 0 0 1 71.966666 26.097632 L 71.966666 21.549072 C 70.56313 21.369339 69.160315 21.171017 67.744185 21.168217 z M 67.732299 33.867183 C 69.190415 33.867183 70.617473 34.015019 71.996121 34.297131 A 2.1166649 2.1166649 0 0 1 73.646667 36.79517 A 2.1166649 2.1166649 0 0 1 71.148628 38.443131 C 70.047062 38.217718 68.904434 38.099483 67.732299 38.099483 C 58.355224 38.099483 50.801032 45.656258 50.801033 55.033333 C 50.801033 64.410407 58.355224 71.966666 67.732299 71.966666 C 77.109374 71.966667 84.666149 64.410407 84.666149 55.033333 C 84.666149 53.861198 84.547913 52.720636 84.322501 51.619071 A 2.1166649 2.1166649 0 0 1 85.972529 49.121032 A 2.1166649 2.1166649 0 0 1 88.470568 50.76951 C 88.75268 52.148159 88.900516 53.575217 88.900516 55.033333 C 88.900516 66.698264 79.39723 76.198967 67.732299 76.198966 C 56.067368 76.198966 46.566149 66.698264 46.566149 55.033333 C 46.566148 43.368401 56.067368 33.867183 67.732299 33.867183 z M 77.982319 37.158455 A 2.1166649 2.1166649 0 0 1 79.568269 37.482466 C 80.694116 38.243074 81.744407 39.109284 82.701411 40.066288 C 83.658414 41.023291 84.522557 42.071512 85.283165 43.197363 A 2.1166649 2.1166649 0 0 1 84.714725 46.136718 A 2.1166649 2.1166649 0 0 1 81.775369 45.56621 C 81.166612 44.665131 80.473959 43.827099 79.707278 43.06042 C 78.9406 42.293742 78.100502 41.599022 77.199421 40.990262 A 2.1166649 2.1166649 0 0 1 76.630981 38.052974 A 2.1166649 2.1166649 0 0 1 77.982319 37.158455 z" style="fill:#ff0c57;stroke-width:4.23333;stroke-miterlimit:128;paint-order:stroke fill markers"/><path d="m 43.805673,112.18333 c -0.101205,0 -0.188075,0.0292 -0.245906,0.10147 -0.07229,0.0723 -0.101186,0.14441 -0.101186,0.24561 v 9.88916 c 0,0.1012 0.02889,0.17362 0.101186,0.2459 0.05783,0.0722 0.144701,0.10119 0.245906,0.10119 h 7.214492 c 0.101204,0 0.173322,-0.0288 0.245611,-0.10119 0.07229,-0.0722 0.101186,-0.1447 0.101186,-0.2459 v -1.96636 c 0,-0.10121 -0.0289,-0.17332 -0.101186,-0.24561 -0.07229,-0.0722 -0.144407,-0.10119 -0.245611,-0.10119 H 46.66829 c -0.101204,0 -0.188073,-0.0288 -0.245905,-0.10118 -0.07229,-0.0722 -0.101186,-0.1447 -0.101186,-0.24591 v -7.22891 c 0,-0.1012 -0.02889,-0.17331 -0.101185,-0.24561 -0.07229,-0.0722 -0.144407,-0.10147 -0.245611,-0.10147 z m 8.891412,0 c -0.101204,0 -0.173322,0.0292 -0.245611,0.10147 -0.07229,0.0723 -0.101186,0.14441 -0.101186,0.24561 v 9.88916 c 0,0.1012 0.02889,0.17362 0.101186,0.2459 0.07229,0.0722 0.144407,0.10119 0.245611,0.10119 h 7.359212 c 0.101205,0 0.173323,-0.0288 0.245611,-0.10119 0.07229,-0.0722 0.101187,-0.1447 0.101187,-0.2459 v -1.99518 c 0,-0.10121 -0.02889,-0.17333 -0.101187,-0.24562 -0.07229,-0.0723 -0.144406,-0.10147 -0.245611,-0.10147 h -4.496593 c -0.101205,0 -0.173322,-0.0288 -0.245611,-0.1012 -0.07229,-0.0723 -0.101186,-0.1444 -0.101186,-0.2456 v -0.54946 c 0,-0.10121 0.0289,-0.17362 0.101186,-0.24591 0.07229,-0.0723 0.144406,-0.10118 0.245611,-0.10118 h 3.91801 c 0.101205,0 0.173617,-0.0288 0.245905,-0.1012 0.07229,-0.0722 0.101187,-0.1444 0.101187,-0.2456 v -1.99519 c 0,-0.10121 -0.0289,-0.17361 -0.101187,-0.24591 -0.07229,-0.0722 -0.1447,-0.10118 -0.245905,-0.10118 h -3.91801 c -0.101205,0 -0.173322,-0.0288 -0.245611,-0.10118 -0.07229,-0.0722 -0.101186,-0.1447 -0.101186,-0.24591 v -0.60711 c 0,-0.10121 0.0289,-0.17362 0.101186,-0.24591 0.07229,-0.0723 0.144406,-0.10119 0.245611,-0.10119 h 4.496593 c 0.101205,0 0.173323,-0.0288 0.245611,-0.10118 0.07229,-0.0723 0.101187,-0.14441 0.101187,-0.24561 v -1.96637 c 0,-0.1012 -0.02889,-0.17331 -0.101187,-0.24561 -0.07229,-0.0722 -0.144406,-0.10147 -0.245611,-0.10147 z m 8.94936,0 c -0.13012,0 -0.202238,0.0436 -0.245611,0.13031 -0.04337,0.0867 -0.04337,0.18793 0,0.28914 l 4.366287,9.84562 c 0.04338,0.0868 0.11558,0.15925 0.216785,0.21707 0.08675,0.0722 0.173527,0.10119 0.274731,0.10119 h 1.922826 c 0.101205,0 0.18794,-0.0288 0.289144,-0.10119 0.08675,-0.0578 0.158999,-0.13032 0.202372,-0.21707 l 4.409821,-9.90357 c 0.04338,-0.0723 0.02867,-0.15887 -0.01471,-0.24561 -0.04337,-0.0723 -0.129994,-0.11589 -0.231198,-0.11589 h -2.399928 c -0.101205,0 -0.187985,0.0289 -0.274731,0.0868 -0.101204,0.0723 -0.173412,0.14474 -0.216785,0.23149 l -2.530235,5.81201 c -0.04338,0.0868 -0.115669,0.13001 -0.187958,0.13001 -0.07229,0 -0.144586,-0.0433 -0.187959,-0.13001 l -2.544648,-5.81201 c -0.04337,-0.0867 -0.115625,-0.1592 -0.202371,-0.23149 -0.101206,-0.0578 -0.187941,-0.0868 -0.289145,-0.0868 z m 12.925316,0 c -0.101204,0 -0.173321,0.0292 -0.245611,0.10147 -0.07229,0.0723 -0.101185,0.14441 -0.101185,0.24561 v 9.88916 c 0,0.1012 0.02889,0.17362 0.101185,0.2459 0.07229,0.0722 0.144407,0.10119 0.245611,0.10119 h 7.359212 c 0.101205,0 0.173322,-0.0288 0.245611,-0.10119 0.07229,-0.0722 0.101187,-0.1447 0.101187,-0.2459 v -1.99518 c 0,-0.10121 -0.0289,-0.17333 -0.101187,-0.24562 -0.07229,-0.0723 -0.144406,-0.10147 -0.245611,-0.10147 H 77.43438 c -0.101205,0 -0.173323,-0.0288 -0.245611,-0.1012 -0.07229,-0.0723 -0.101185,-0.1444 -0.101185,-0.2456 v -0.54946 c 0,-0.10121 0.02889,-0.17362 0.101185,-0.24591 0.07229,-0.0723 0.144406,-0.10118 0.245611,-0.10118 h 3.918011 c 0.101204,0 0.173616,-0.0288 0.245904,-0.1012 0.07229,-0.0722 0.101188,-0.1444 0.101188,-0.2456 v -1.99519 c 0,-0.10121 -0.0289,-0.17361 -0.101188,-0.24591 -0.07229,-0.0722 -0.1447,-0.10118 -0.245904,-0.10118 H 77.43438 c -0.101205,0 -0.173323,-0.0288 -0.245611,-0.10118 -0.07229,-0.0722 -0.101185,-0.1447 -0.101185,-0.24591 v -0.60711 c 0,-0.10121 0.02889,-0.17362 0.101185,-0.24591 0.07229,-0.0723 0.144406,-0.10119 0.245611,-0.10119 h 4.496593 c 0.101205,0 0.173322,-0.0288 0.245611,-0.10118 0.07229,-0.0723 0.101187,-0.14441 0.101187,-0.24561 v -1.96637 c 0,-0.1012 -0.0289,-0.17331 -0.101187,-0.24561 -0.07229,-0.0722 -0.144406,-0.10147 -0.245611,-0.10147 z m 9.87474,0 c -0.101204,0 -0.188073,0.0292 -0.245904,0.10147 -0.07229,0.0723 -0.101188,0.14441 -0.101188,0.24561 v 9.88916 c 0,0.1012 0.0289,0.17362 0.101188,0.2459 0.05783,0.0722 0.1447,0.10119 0.245904,0.10119 h 7.214497 c 0.1012,0 0.173318,-0.0288 0.245605,-0.10119 0.07229,-0.0722 0.101482,-0.1447 0.101482,-0.2459 v -1.96636 c 0,-0.10121 -0.02919,-0.17332 -0.101482,-0.24561 -0.07228,-0.0722 -0.144405,-0.10119 -0.245605,-0.10119 h -4.351879 c -0.101205,0 -0.18778,-0.0288 -0.24561,-0.10118 -0.07229,-0.0722 -0.101481,-0.1447 -0.101481,-0.24591 v -7.22891 c 0,-0.1012 -0.02889,-0.17331 -0.101185,-0.24561 -0.07229,-0.0722 -0.144406,-0.10147 -0.245611,-0.10147 z" style="font-size:96px;line-height:1;font-family:Northead;-inkscape-font-specification:Northead;letter-spacing:0;word-spacing:0;text-orientation:upright;white-space:pre;shape-inside:url(#a);fill:#fff;fill-opacity:1;stroke:none;stroke-width:25.4;stroke-miterlimit:128"/></svg>