<?xml version="1.0" encoding="UTF-8" standalone="no"?>
<!-- Created with Inkscape (http://www.inkscape.org/) -->

<svg
   width="512"
   height="512"
   viewBox="0 0 135.46666 135.46667"
   version="1.1"
   id="svg1"
   inkscape:version="1.3 (0e150ed6c4, 2023-07-21)"
   sodipodi:docname="obligation.svg"
   xml:space="preserve"
   xmlns:inkscape="http://www.inkscape.org/namespaces/inkscape"
   xmlns:sodipodi="http://sodipodi.sourceforge.net/DTD/sodipodi-0.dtd"
   xmlns="http://www.w3.org/2000/svg"
   xmlns:svg="http://www.w3.org/2000/svg"><sodipodi:namedview
     id="namedview1"
     pagecolor="#505050"
     bordercolor="#eeeeee"
     borderopacity="1"
     inkscape:showpageshadow="0"
     inkscape:pageopacity="0"
     inkscape:pagecheckerboard="0"
     inkscape:deskcolor="#505050"
     inkscape:document-units="px"
     showgrid="true"
     inkscape:zoom="1.1017831"
     inkscape:cx="266.38637"
     inkscape:cy="229.62777"
     inkscape:window-width="1366"
     inkscape:window-height="705"
     inkscape:window-x="-8"
     inkscape:window-y="-8"
     inkscape:window-maximized="1"
     inkscape:current-layer="svg1"><inkscape:grid
       id="grid1"
       units="px"
       originx="0"
       originy="0"
       spacingx="0.26458332"
       spacingy="0.26458334"
       empcolor="#0099e5"
       empopacity="0.30196078"
       color="#0099e5"
       opacity="0.14901961"
       empspacing="8"
       dotted="false"
       gridanglex="30"
       gridanglez="30"
       visible="true"
       enabled="true" /></sodipodi:namedview><defs
     id="defs1">&#10;	&#10;&#10;	&#10;&#10;		&#10;	&#10;		&#10;	</defs><path
     id="rect1"
     style="fill:#000000;fill-opacity:1;stroke-width:4.23333;stroke-miterlimit:128;paint-order:stroke fill markers"
     d="m 101.59999,0 c 18.70405,-5.5228478e-7 33.86667,15.162623 33.86667,33.866666 V 101.6 c 0,18.70404 -15.16263,33.86666 -33.86667,33.86666 H 0 V 0 Z"
     sodipodi:nodetypes="ssssccs" /><path
     id="path4"
     style="fill:#2976ff;fill-opacity:1;stroke:none;stroke-width:4.23333;stroke-miterlimit:128;paint-order:stroke fill markers"
     d="m 101.59999,8.4666666 a 25.4,25.4 0 0 1 25.4,25.3999994 V 101.6 H 8.46666 V 8.4666666 Z" /><path
     id="text1"
     style="font-size:25.4px;line-height:1;font-family:Heavitas;-inkscape-font-specification:Heavitas;letter-spacing:0px;word-spacing:0px;text-orientation:upright;fill:#ffffff;stroke-width:8.46668;stroke-linecap:round;stroke-linejoin:round;stroke-miterlimit:128;paint-order:stroke fill markers"
     d="m 26.789062,112.18333 c -0.726037,0 -1.410375,0.13946 -2.052639,0.41871 -0.642263,0.27924 -1.200686,0.65642 -1.675403,1.13114 -0.474716,0.48868 -0.85161,1.04706 -1.130855,1.68932 -0.279244,0.64226 -0.418992,1.32632 -0.418992,2.05236 0,0.72603 0.139748,1.41037 0.418992,2.05263 0.279245,0.64227 0.656139,1.20069 1.130855,1.67541 0.474717,0.48868 1.03314,0.86552 1.675403,1.14477 0.642264,0.27924 1.326602,0.41899 2.052639,0.41899 0.726037,0 1.410092,-0.13975 2.052355,-0.41899 0.642264,-0.27925 1.200928,-0.65609 1.689607,-1.14477 0.474716,-0.47472 0.851609,-1.03314 1.130854,-1.67541 0.279245,-0.64226 0.418709,-1.3266 0.418709,-2.05263 0,-0.72604 -0.139464,-1.4101 -0.418709,-2.05236 -0.279245,-0.64226 -0.656138,-1.20064 -1.130854,-1.68932 -0.488679,-0.47472 -1.047343,-0.8519 -1.689607,-1.13114 -0.642263,-0.27925 -1.326318,-0.41871 -2.052355,-0.41871 z m 70.830531,0 c -0.726038,0 -1.41009,0.13946 -2.052354,0.41871 -0.642264,0.27924 -1.200969,0.65642 -1.675686,1.13114 -0.474717,0.48868 -0.85161,1.04706 -1.130855,1.68932 -0.279246,0.64226 -0.418995,1.32632 -0.418995,2.05236 0,0.72603 0.139749,1.41037 0.418995,2.05263 0.279245,0.64227 0.656138,1.20069 1.130855,1.67541 0.474717,0.48868 1.033422,0.86552 1.675686,1.14477 0.642264,0.27924 1.326316,0.41899 2.052354,0.41899 0.726037,0 1.410095,-0.13975 2.052353,-0.41899 0.642264,-0.27925 1.200934,-0.65609 1.689614,-1.14477 0.47471,-0.47472 0.85161,-1.03314 1.13085,-1.67541 0.27925,-0.64226 0.41871,-1.3266 0.41871,-2.05263 0,-0.72604 -0.13946,-1.4101 -0.41871,-2.05236 -0.27924,-0.64226 -0.65614,-1.20064 -1.13085,-1.68932 -0.48868,-0.47472 -1.04735,-0.8519 -1.689614,-1.13114 -0.642258,-0.27925 -1.326316,-0.41871 -2.052353,-0.41871 z m -36.064633,0.0139 c -0.739999,0 -1.438171,0.13946 -2.094396,0.41871 -0.656226,0.27924 -1.214563,0.65642 -1.703242,1.13114 -0.488679,0.48868 -0.879732,1.04706 -1.158977,1.68932 -0.293207,0.64226 -0.432627,1.3266 -0.432627,2.05264 0,0.72604 0.13942,1.41009 0.432627,2.05235 0.279245,0.64227 0.670298,1.20069 1.158977,1.67541 0.488679,0.47471 1.047016,0.8516 1.703242,1.13085 0.656225,0.27925 1.354397,0.41899 2.094396,0.41899 0.68415,0 1.326422,-0.11175 1.926799,-0.34911 0.600377,-0.22339 1.145011,-0.53051 1.619727,-0.93542 0.460754,-0.4049 0.851567,-0.87976 1.144774,-1.42429 0.293207,-0.54453 0.474737,-1.14478 0.544548,-1.78704 0.02792,-0.23736 0.04204,-0.47479 0.04204,-0.71215 0,-0.22339 -0.01416,-0.4188 -0.02812,-0.57238 -0.01396,-0.0977 -0.04183,-0.18159 -0.111638,-0.2514 -0.06981,-0.0558 -0.153659,-0.0838 -0.251395,-0.0838 H 61.63876 c -0.09774,0 -0.167382,0.0279 -0.237193,0.0977 -0.06981,0.0698 -0.09772,0.13974 -0.09772,0.23748 v 1.66148 c 0,0.0977 0.02791,0.16767 0.09772,0.23748 0.06981,0.0698 0.139457,0.0977 0.237193,0.0977 h 1.605808 c 0.09774,0 0.153548,0.028 0.195435,0.0838 0.04189,0.0698 0.02797,0.13954 -0.01392,0.20935 -0.209434,0.29321 -0.474726,0.51661 -0.823783,0.64227 -0.349056,0.12566 -0.698283,0.19544 -1.04734,0.19544 -0.349056,0 -0.68421,-0.0697 -0.991379,-0.22328 -0.321132,-0.13962 -0.586425,-0.33531 -0.823783,-0.57267 -0.237358,-0.23736 -0.418604,-0.50265 -0.544264,-0.82378 -0.139623,-0.32113 -0.209639,-0.65596 -0.209639,-1.00502 0,-0.34905 0.07002,-0.68416 0.209639,-1.00529 0.12566,-0.32114 0.306906,-0.60063 0.544264,-0.83799 0.237358,-0.23736 0.502651,-0.43272 0.823783,-0.58631 0.307169,-0.13962 0.642323,-0.20935 0.991379,-0.20935 0.488679,0 0.921515,0.11156 1.284533,0.32099 0.349056,0.20943 0.670335,0.50285 0.963542,0.85191 0.06981,0.0698 0.139457,0.11159 0.237192,0.12555 0.09774,0.014 0.181585,-1.5e-4 0.251396,-0.042 l 1.675404,-1.07489 c 0.06981,-0.0419 0.125753,-0.12582 0.153677,-0.22356 0.01396,-0.0977 -1.54e-4,-0.1813 -0.04204,-0.25111 -0.474717,-0.74 -1.089039,-1.3125 -1.843001,-1.73137 -0.767923,-0.41886 -1.661458,-0.62834 -2.680702,-0.62834 z m -27.700968,0.1676 c -0.09774,0 -0.167666,0.0279 -0.237476,0.0977 -0.06981,0.0698 -0.09772,0.13945 -0.09772,0.23719 v 9.5502 c 0,0.0977 0.02791,0.16766 0.09772,0.23747 0.06981,0.0698 0.13974,0.0977 0.237476,0.0977 h 4.425985 c 0.460755,0 0.907379,-0.0559 1.340209,-0.15368 0.418868,-0.0977 0.796088,-0.26515 1.117219,-0.50251 0.321133,-0.23735 0.58627,-0.54443 0.781742,-0.94933 0.181509,-0.39095 0.279234,-0.8938 0.279234,-1.49417 0,-0.29321 -0.04183,-0.55831 -0.111637,-0.79566 -0.08377,-0.23736 -0.181412,-0.43292 -0.307072,-0.61443 -0.12566,-0.18151 -0.265408,-0.32117 -0.418993,-0.44683 -0.153584,-0.12566 -0.293246,-0.2233 -0.446831,-0.30708 -0.181509,-0.0977 -0.195385,-0.19561 -0.02784,-0.32127 0.237358,-0.18151 0.47459,-0.4189 0.684024,-0.72607 0.209433,-0.30717 0.307356,-0.67023 0.307356,-1.08909 0,-0.51661 -0.09773,-0.96328 -0.279235,-1.32629 -0.195471,-0.34906 -0.447017,-0.64215 -0.754187,-0.86554 -0.321131,-0.2234 -0.683908,-0.39114 -1.088813,-0.48888 -0.404905,-0.0977 -0.837741,-0.13947 -1.284533,-0.13947 z m 9.773471,0 c -0.09774,0 -0.181628,0.0279 -0.237477,0.0977 -0.06981,0.0698 -0.09772,0.13945 -0.09772,0.23719 v 9.5502 c 0,0.0977 0.02791,0.16766 0.09772,0.23747 0.05585,0.0698 0.139741,0.0977 0.237477,0.0977 h 6.967212 c 0.09774,0 0.167665,-0.0279 0.237476,-0.0977 0.06981,-0.0698 0.09772,-0.13974 0.09772,-0.23747 v -1.89868 c 0,-0.0977 -0.02791,-0.16767 -0.09772,-0.23748 -0.06981,-0.0698 -0.139741,-0.0977 -0.237476,-0.0977 h -4.202712 c -0.09774,0 -0.181343,-0.0279 -0.237192,-0.0977 -0.06981,-0.0698 -0.09772,-0.13974 -0.09772,-0.23747 v -6.98113 c 0,-0.0977 -0.02819,-0.16739 -0.098,-0.2372 -0.06981,-0.0698 -0.139457,-0.0977 -0.237192,-0.0977 z m 35.631721,0 c -0.09774,0 -0.167663,0.0279 -0.237474,0.0977 -0.06981,0.0698 -0.09772,0.13945 -0.09772,0.23719 v 1.89896 c 0,0.0977 0.02792,0.16767 0.09772,0.23748 0.06981,0.0698 0.139738,0.0977 0.237474,0.0977 h 1.982762 c 0.09774,0 0.181301,0.0279 0.251112,0.0977 0.05584,0.0698 0.0838,0.13945 0.0838,0.23719 v 6.98113 c 0,0.0977 0.02792,0.16766 0.09772,0.23748 0.06981,0.0698 0.139738,0.0977 0.237474,0.0977 h 2.0944 c 0.09774,0 0.1813,-0.0279 0.251112,-0.0977 0.05585,-0.0698 0.0838,-0.13974 0.0838,-0.23748 v -6.98113 c 0,-0.0977 0.02792,-0.16738 0.09772,-0.23719 0.06981,-0.0698 0.139738,-0.0977 0.237474,-0.0977 h 1.95464 c 0.09774,0 0.181581,-0.0279 0.251392,-0.0977 0.05585,-0.0698 0.0838,-0.13974 0.0838,-0.23748 v -1.89896 c 0,-0.0977 -0.02792,-0.16738 -0.0838,-0.23719 -0.06981,-0.0698 -0.153656,-0.0977 -0.251392,-0.0977 z m 25.439256,0 c -0.0977,0 -0.16766,0.0279 -0.23748,0.0977 -0.0698,0.0698 -0.0977,0.13945 -0.0977,0.23719 v 9.5502 c 0,0.0977 0.0279,0.16766 0.0977,0.23747 0.0698,0.0698 0.13975,0.0977 0.23748,0.0977 h 2.08048 c 0.0977,0 0.16738,-0.0279 0.23719,-0.0977 0.0698,-0.0698 0.0977,-0.13974 0.0977,-0.23747 v -4.99838 c 0,-0.0977 0.0279,-0.15363 0.0977,-0.16759 0.0559,-0.014 0.11175,0.0279 0.1676,0.0977 l 3.64424,5.12421 c 0.0558,0.0698 0.13946,0.13958 0.2372,0.19543 0.0977,0.0559 0.1957,0.0838 0.29344,0.0838 h 2.06627 c 0.0977,0 0.16767,-0.0279 0.23748,-0.0977 0.0698,-0.0698 0.0977,-0.13974 0.0977,-0.23747 v -9.5502 c 0,-0.0977 -0.0279,-0.16738 -0.0977,-0.23719 -0.0698,-0.0698 -0.13975,-0.0977 -0.23748,-0.0977 h -2.06627 c -0.0977,0 -0.16767,0.0279 -0.23748,0.0977 -0.0698,0.0698 -0.0977,0.13945 -0.0977,0.23719 v 4.99866 c 0,0.0977 -0.0279,0.13943 -0.0838,0.15339 -0.0698,0.014 -0.12567,-0.0279 -0.18152,-0.0977 l -3.63032,-5.12393 c -0.0558,-0.0698 -0.13946,-0.13987 -0.2372,-0.19572 -0.0977,-0.0419 -0.19541,-0.0696 -0.29315,-0.0696 z m -52.358483,0.0139 c -0.09774,0 -0.181627,0.0279 -0.237476,0.0977 -0.06981,0.0698 -0.09772,0.13974 -0.09772,0.23747 v 9.536 c 0,0.0977 0.02791,0.16766 0.09772,0.23747 0.05585,0.0698 0.139741,0.0977 0.237476,0.0977 h 2.108316 c 0.09774,0 0.167381,-0.0279 0.237192,-0.0977 0.06981,-0.0698 0.098,-0.13974 0.098,-0.23747 v -9.536 c 0,-0.0977 -0.02819,-0.16766 -0.098,-0.23747 -0.06981,-0.0698 -0.139456,-0.0977 -0.237192,-0.0977 z m 19.547225,0 c -0.09774,0 -0.195461,0.028 -0.279234,0.0838 -0.09774,0.0698 -0.153548,0.1395 -0.195435,0.22327 l -4.049034,9.45248 c -0.04189,0.0698 -0.056,0.13958 -0.04204,0.19543 0.01396,0.0558 0.02799,0.0979 0.06988,0.13976 0.02792,0.0419 0.06971,0.0698 0.125556,0.0838 0.04189,0.014 0.09787,0.0278 0.139759,0.0278 h 2.401468 c 0.09774,0 0.181498,-0.0279 0.279234,-0.0977 0.08377,-0.0558 0.139629,-0.12557 0.181516,-0.20935 l 0.390871,-0.8377 c 0.04189,-0.0838 0.0977,-0.15375 0.195435,-0.22356 0.08377,-0.0559 0.181498,-0.0838 0.279234,-0.0838 h 2.946017 c 0.09774,0 0.181498,0.0279 0.279234,0.0838 0.08377,0.0698 0.153833,0.13978 0.19572,0.22356 l 0.376951,0.8377 c 0.04189,0.0838 0.111618,0.1535 0.209354,0.20935 0.08377,0.0698 0.181499,0.0977 0.279234,0.0977 h 2.387551 c 0.153585,0 0.251222,-0.042 0.307071,-0.13976 0.04189,-0.0977 0.0558,-0.18125 0.01391,-0.26503 l -4.076871,-9.49452 c -0.04189,-0.0838 -0.09774,-0.15346 -0.181517,-0.22327 -0.09774,-0.0559 -0.181497,-0.0838 -0.279233,-0.0838 z m 16.600926,0 c -0.09774,0 -0.181345,0.0279 -0.237194,0.0977 -0.06981,0.0698 -0.09772,0.13974 -0.09772,0.23747 v 9.536 c 0,0.0977 0.02792,0.16766 0.09772,0.23747 0.05585,0.0698 0.139458,0.0977 0.237194,0.0977 h 2.108312 c 0.09774,0 0.167668,-0.0279 0.23748,-0.0977 0.06981,-0.0698 0.09771,-0.13974 0.09771,-0.23747 v -9.536 c 0,-0.0977 -0.02792,-0.16766 -0.09771,-0.23747 -0.06981,-0.0698 -0.139744,-0.0977 -0.23748,-0.0977 z m -61.699046,2.47134 c 0.349057,0 0.670008,0.0697 0.977177,0.20936 0.30717,0.15358 0.572505,0.33503 0.809864,0.57238 0.237358,0.23736 0.418888,0.51657 0.544548,0.83771 0.125661,0.32113 0.195436,0.65624 0.195436,1.00529 0,0.34906 -0.06977,0.68417 -0.195436,1.0053 -0.12566,0.32114 -0.30719,0.60035 -0.544548,0.83771 -0.237359,0.23735 -0.502694,0.43304 -0.809864,0.57267 -0.307169,0.15358 -0.62812,0.22327 -0.977177,0.22327 -0.349056,0 -0.670291,-0.0697 -0.97746,-0.22327 -0.30717,-0.13963 -0.572549,-0.33532 -0.795945,-0.57267 -0.237358,-0.23736 -0.418604,-0.51657 -0.544264,-0.83771 -0.125661,-0.32113 -0.19572,-0.65624 -0.19572,-1.0053 0,-0.34905 0.07006,-0.68416 0.19572,-1.00529 0.12566,-0.32114 0.306906,-0.60035 0.544264,-0.83771 0.223396,-0.23735 0.488775,-0.4188 0.795945,-0.57238 0.307169,-0.13963 0.628404,-0.20936 0.97746,-0.20936 z m 70.830531,0 c 0.349056,0 0.670293,0.0697 0.977462,0.20936 0.30717,0.15358 0.572222,0.33503 0.809581,0.57238 0.237358,0.23736 0.418884,0.51657 0.544544,0.83771 0.12566,0.32113 0.19544,0.65624 0.19544,1.00529 0,0.34906 -0.0698,0.68417 -0.19544,1.0053 -0.12566,0.32114 -0.307186,0.60035 -0.544544,0.83771 -0.237359,0.23735 -0.502411,0.43304 -0.809581,0.57267 -0.307169,0.15358 -0.628406,0.22327 -0.977462,0.22327 -0.349057,0 -0.670288,-0.0697 -0.977458,-0.22327 -0.30717,-0.13963 -0.572266,-0.33532 -0.795662,-0.57267 -0.237358,-0.23736 -0.41889,-0.51657 -0.54455,-0.83771 -0.125661,-0.32113 -0.195433,-0.65624 -0.195433,-1.0053 0,-0.34905 0.06977,-0.68416 0.195433,-1.00529 0.12566,-0.32114 0.307192,-0.60035 0.54455,-0.83771 0.223396,-0.23735 0.488492,-0.4188 0.795662,-0.57238 0.30717,-0.13963 0.628401,-0.20936 0.977458,-0.20936 z m -61.0011,0.0838 h 1.326289 c 0.125661,0 0.251249,0.0559 0.390871,0.18152 0.125661,0.12566 0.19572,0.26508 0.19572,0.43263 0,0.18151 -0.0559,0.33533 -0.167597,0.47495 -0.111698,0.15358 -0.265322,0.22327 -0.446831,0.22327 h -1.298452 c -0.09774,0 -0.167666,-0.0279 -0.237477,-0.0977 -0.06981,-0.0698 -0.09772,-0.13974 -0.09772,-0.23747 v -0.64227 c 0,-0.0977 0.02791,-0.16738 0.09772,-0.23719 0.06981,-0.0698 0.139741,-0.0977 0.237477,-0.0977 z m 36.231947,1.70324 c 0.04189,0 0.08395,0.0421 0.125839,0.12584 0.111698,0.26529 0.237373,0.55837 0.363033,0.86554 0.12566,0.32114 0.237174,0.58643 0.33491,0.82379 0.04189,0.0838 0.05581,0.1535 0.01392,0.20935 -0.04189,0.0698 -0.111619,0.0977 -0.209354,0.0977 h -1.242492 c -0.09774,0 -0.167751,-0.0279 -0.209638,-0.0977 -0.04189,-0.0558 -0.04189,-0.12558 0,-0.20935 l 0.698227,-1.68933 c 0.04189,-0.0838 0.08367,-0.12584 0.125555,-0.12584 z m -36.231947,1.91288 h 1.466049 c 0.237358,0 0.432721,0.0838 0.586306,0.2514 0.139622,0.18151 0.209354,0.34888 0.209354,0.51643 0,0.18151 -0.06969,0.34925 -0.223273,0.48887 -0.153585,0.13962 -0.307123,0.20935 -0.47467,0.20935 h -1.563766 c -0.09774,0 -0.167666,-0.0279 -0.237477,-0.0977 -0.06981,-0.0698 -0.09772,-0.13974 -0.09772,-0.23747 v -0.79566 c 0,-0.0977 0.02791,-0.16767 0.09772,-0.23748 0.06981,-0.0698 0.139741,-0.0977 0.237477,-0.0977 z" /><path
     id="path22"
     style="fill:none;fill-opacity:1;stroke:#0b0701;stroke-width:4.23333;stroke-linecap:round;stroke-linejoin:round;stroke-miterlimit:128;stroke-dasharray:none;stroke-opacity:1"
     d="m 98.298242,44.485951 v 0 m -3.99212,-1.901217 c -2.99927,-1.083571 -6.432789,-1.657945 -9.933792,-1.661774 -5.125369,6.3e-5 -10.040788,1.221706 -13.665001,3.396197 -3.624344,2.174444 -5.660646,5.123663 -5.66096,8.198907 0,6.404059 8.652528,11.595576 19.325962,11.595576 10.673434,2e-6 19.325949,-5.191508 19.325949,-11.59557 -0.01,-1.628051 -0.59039,-3.236643 -1.70469,-4.721087 M 53.640315,21.166667 56.09076,33.141319 m -15.839852,-4.244275 9.145143,8.109468 m 14.304929,36.37244 16.736772,-9.66298 M 65.892496,81.039958 85.976622,69.444383 m -23.898473,7.540565 c -0.08718,0.147812 -0.175529,0.294894 -0.265019,0.441217 4.665532,5.894661 12.266083,7.80074 17.986619,4.510713 5.722392,-3.306355 7.877287,-10.854236 5.096375,-17.850761 -0.174476,0.01057 -0.349182,0.01972 -0.524071,0.02744 M 51.767849,55.253279 a 11.595576,19.325962 30 0 0 -9.773611,10.136446 11.595576,19.325962 30 0 0 0.378724,22.534528 11.595576,19.325962 30 0 0 19.705195,-10.939312 11.595576,19.325962 30 0 0 -0.379143,-22.534286 11.595576,19.325962 30 0 0 -9.931165,0.802624 z m 0.975555,-20.179364 a 9.6629799,9.6629799 0 0 0 -3.536895,13.199876 9.6629799,9.6629799 0 0 0 13.199875,3.536896 9.6629799,9.6629799 0 0 0 3.536898,-13.199876 9.6629799,9.6629799 0 0 0 -13.199878,-3.536896 z" /></svg>
