<?xml version="1.0" encoding="UTF-8" standalone="no"?>
<svg
   xml:space="preserve"
   width="512"
   height="512"
   viewBox="0 0 135.46666 135.46667"
   version="1.1"
   id="svg3"
   sodipodi:docname="strata.svg"
   inkscape:version="1.3 (0e150ed6c4, 2023-07-21)"
   xmlns:inkscape="http://www.inkscape.org/namespaces/inkscape"
   xmlns:sodipodi="http://sodipodi.sourceforge.net/DTD/sodipodi-0.dtd"
   xmlns="http://www.w3.org/2000/svg"
   xmlns:svg="http://www.w3.org/2000/svg"><defs
     id="defs3" /><sodipodi:namedview
     id="namedview3"
     pagecolor="#505050"
     bordercolor="#eeeeee"
     borderopacity="1"
     inkscape:showpageshadow="0"
     inkscape:pageopacity="0"
     inkscape:pagecheckerboard="0"
     inkscape:deskcolor="#505050"
     inkscape:zoom="2.0601368"
     inkscape:cx="255.56555"
     inkscape:cy="222.31533"
     inkscape:window-width="1366"
     inkscape:window-height="705"
     inkscape:window-x="-8"
     inkscape:window-y="-8"
     inkscape:window-maximized="1"
     inkscape:current-layer="svg3" /><path
     d="m 101.59999,0 c 18.70405,-5.5228478e-7 33.86667,15.162623 33.86667,33.866666 V 101.6 c 0,18.70404 -15.16263,33.86666 -33.86667,33.86666 H 0 V 0 Z"
     style="fill:#000;fill-opacity:1;stroke-width:4.23333;stroke-miterlimit:128;paint-order:stroke fill markers"
     id="path1" /><path
     d="M 8.4666666 8.4666666 L 8.4666666 101.6 L 127 101.6 L 127 33.866666 A 25.4 25.4 0 0 0 101.6 8.4666666 L 8.4666666 8.4666666 z M 38.101033 16.93385 C 38.74383 16.934201 39.351665 17.22662 39.753129 17.728633 L 48.219795 28.310416 C 48.513966 28.688197 48.67138 29.154554 48.66628 29.633333 L 48.683333 29.633333 L 48.683333 40.216666 L 57.149999 40.216666 L 57.149999 29.668473 C 57.149956 29.660673 57.149956 29.652919 57.149999 29.645219 L 57.149999 29.633333 L 57.150516 29.633333 C 57.149994 29.152636 57.313107 28.686078 57.61302 28.310416 L 66.080203 17.728633 C 66.482115 17.226055 67.090843 16.933573 67.734366 16.93385 C 68.377166 16.934201 68.985003 17.226621 69.386462 17.728633 L 77.853128 28.310416 C 78.147296 28.688197 78.304692 29.154554 78.299612 29.633333 L 78.316666 29.633333 L 78.316666 40.216666 L 86.79005 40.216666 L 86.783332 29.633333 L 86.800385 29.633333 C 86.795302 29.154554 86.952699 28.688197 87.24687 28.310416 L 95.713536 17.728633 C 96.115001 17.22662 96.722835 16.934199 97.365632 16.93385 C 98.009151 16.933574 98.617878 17.226056 99.019795 17.728633 L 107.48698 28.310416 C 107.7869 28.686077 107.95 29.152635 107.94948 29.633333 L 107.95 29.633333 L 107.95 29.645219 C 107.95004 29.652969 107.95004 29.660773 107.95 29.668473 L 107.95 91.016666 C 107.95 92.185645 107.00232 93.133332 105.83333 93.133332 L 88.899999 93.133332 C 87.731009 93.133332 86.780432 92.18564 86.783332 91.016666 L 86.80452 82.549999 L 78.316666 82.549999 L 78.316666 91.016666 C 78.316666 92.185642 77.368986 93.133332 76.199999 93.133332 L 59.266666 93.133332 C 58.097677 93.133332 57.15 92.185643 57.149999 91.016666 L 57.149999 82.549999 L 48.683333 82.549999 L 48.683333 91.016666 C 48.683333 92.185644 47.735656 93.133332 46.566666 93.133332 L 29.633333 93.133332 C 28.464343 93.133332 27.516667 92.185645 27.516666 91.016666 L 27.516666 29.668473 C 27.516623 29.660723 27.516623 29.653019 27.516666 29.645219 L 27.516666 29.633333 L 27.517183 29.633333 C 27.516661 29.152636 27.679774 28.686078 27.979687 28.310416 L 36.44687 17.728633 C 36.848787 17.226054 37.457512 16.933573 38.101033 16.93385 z M 38.098966 22.439457 L 31.75 30.375923 L 31.75 88.899999 L 44.449999 88.899999 L 44.449999 76.199999 C 44.449999 75.031 45.397667 74.083332 46.566666 74.083332 C 47.735665 74.083332 48.683333 75.031 48.683333 76.199999 L 48.683333 78.316666 L 59.266666 78.316666 C 60.435667 78.316666 61.383333 79.264333 61.383333 80.433332 L 61.383333 88.899999 L 74.083332 88.899999 L 74.083332 76.199999 C 74.083332 75.031 75.031001 74.083332 76.199999 74.083332 C 77.368997 74.083332 78.316666 75.031 78.316666 76.199999 L 78.316666 78.316666 C 81.853119 78.317535 85.390166 78.321066 88.926354 78.316666 C 90.095346 78.316666 91.046721 79.264357 91.043021 80.433332 L 91.016666 88.899999 L 103.71667 88.899999 L 103.71667 30.375923 L 97.367699 22.439457 L 91.016666 30.375923 L 91.016666 46.566666 C 91.016666 47.735665 90.068998 48.683333 88.899999 48.683333 C 87.421019 48.683333 86.694052 47.326329 86.794701 46.410603 L 86.793151 44.449999 L 76.199999 44.449999 C 75.030999 44.449999 74.083333 43.502333 74.083332 42.333333 L 74.083332 30.375923 L 67.732299 22.439457 L 61.383333 30.375923 L 61.383333 46.566666 C 61.383333 47.735665 60.435665 48.683333 59.266666 48.683333 C 58.097667 48.683333 57.149999 47.735665 57.149999 46.566666 L 57.149999 44.449999 L 46.566666 44.449999 C 45.397673 44.449999 44.449999 43.502326 44.449999 42.333333 L 44.449999 30.375923 L 38.098966 22.439457 z M 38.1 44.449999 C 39.268983 44.449999 40.216666 45.397673 40.216666 46.566666 L 40.216666 48.683333 C 40.216666 49.852325 39.268982 50.799999 38.1 50.799999 C 36.931007 50.799999 35.983333 49.852326 35.983333 48.683333 L 35.983333 46.566666 C 35.983333 45.397673 36.931007 44.449999 38.1 44.449999 z M 67.733332 44.449999 C 68.902322 44.449999 69.849999 45.397674 69.849999 46.566666 L 69.849999 48.683333 C 69.849999 49.852325 68.902322 50.799999 67.733332 50.799999 C 66.564344 50.799999 65.616666 49.852324 65.616666 48.683333 L 65.616666 46.566666 C 65.616666 45.397674 66.564343 44.449999 67.733332 44.449999 z M 97.366665 44.449999 C 98.535658 44.449997 99.483332 45.397673 99.483332 46.566666 L 99.483332 48.683333 C 99.483332 49.852326 98.535658 50.800001 97.366665 50.799999 C 96.197672 50.800017 95.249999 49.852337 95.249999 48.683333 L 95.249999 46.566666 C 95.249999 45.397673 96.197683 44.449997 97.366665 44.449999 z M 46.566666 46.566666 C 47.478415 46.566666 48.683333 47.286488 48.683333 48.683333 L 48.683333 50.799999 L 59.266666 50.799999 C 60.435667 50.799999 61.383333 51.747665 61.383333 52.916666 L 61.383333 74.083332 C 61.383333 75.252331 60.435665 76.199999 59.266666 76.199999 C 58.097667 76.199999 57.149999 75.252331 57.149999 74.083332 L 57.149999 71.966666 L 46.566666 71.966666 C 45.397665 71.966666 44.449999 71.019 44.449999 69.849999 L 44.449999 48.683333 C 44.449999 47.514339 45.397672 46.566666 46.566666 46.566666 z M 76.199999 46.566666 C 77.368997 46.566666 78.316666 47.514334 78.316666 48.683333 L 78.316666 50.799999 L 88.899999 50.799999 A 2.1166666 2.1166666 0 0 1 91.016666 52.916666 L 91.016666 71.966666 L 91.016666 74.083332 C 91.016666 75.252327 90.068994 76.199999 88.899999 76.199999 C 87.731004 76.199999 86.783332 75.252327 86.783332 74.083332 L 86.783332 71.966666 L 76.199999 71.966666 C 75.030998 71.966666 74.083399 71.019 74.083332 69.849999 L 74.083332 48.683333 C 74.083332 47.514334 75.031001 46.566666 76.199999 46.566666 z M 48.683333 55.033333 L 48.683333 67.733332 L 57.149999 67.733332 L 57.149999 55.033333 L 48.683333 55.033333 z M 78.316666 55.033333 L 78.316666 67.733332 L 86.808137 67.733332 L 86.799869 55.033333 L 78.316666 55.033333 z M 38.1 71.966666 C 39.268982 71.966666 40.216666 72.91435 40.216666 74.083332 L 40.216666 76.199999 C 40.216666 77.368992 39.268983 78.316666 38.1 78.316666 C 36.931007 78.316666 35.983333 77.368992 35.983333 76.199999 L 35.983333 74.083332 C 35.983333 72.914349 36.931007 71.966666 38.1 71.966666 z M 67.733332 71.966666 C 68.902322 71.966666 69.849999 72.914351 69.849999 74.083332 L 69.849999 76.199999 C 69.849999 77.368991 68.902322 78.316666 67.733332 78.316666 C 66.564343 78.316666 65.616666 77.368991 65.616666 76.199999 L 65.616666 74.083332 C 65.616666 72.914352 66.564344 71.966666 67.733332 71.966666 z M 97.366665 71.966666 C 98.535658 71.966664 99.483332 72.91435 99.483332 74.083332 L 99.483332 76.199999 C 99.483332 77.368992 98.535658 78.316668 97.366665 78.316666 C 96.197671 78.316684 95.249999 77.369004 95.249999 76.199999 L 95.249999 74.083332 C 95.249999 72.91435 96.197683 71.966664 97.366665 71.966666 z"
     style="fill:#1fe545;fill-opacity:1;stroke-width:4.23333;stroke-miterlimit:128;paint-order:stroke fill markers"
     id="path2" /><path
     d="m 42.623857,112.18333 c -0.448562,0 -0.911129,0.0422 -1.387726,0.14032 -0.476597,0.0981 -0.911147,0.28016 -1.289621,0.51846 -0.392492,0.25232 -0.714757,0.58875 -0.967073,1.00929 -0.252317,0.42052 -0.378445,0.95338 -0.378445,1.59819 0,0.43454 0.07001,0.81293 0.210184,1.13533 0.126158,0.32241 0.30845,0.60273 0.532732,0.84103 0.22428,0.2383 0.476494,0.42046 0.770863,0.57465 0.280351,0.1542 0.560911,0.26635 0.855279,0.36447 0.294369,0.0981 0.574644,0.18239 0.854994,0.22444 0.266335,0.0561 0.504705,0.098 0.714968,0.14003 0.210263,0.0421 0.420287,0.084 0.630551,0.11207 0.210263,0.028 0.392513,0.0703 0.546706,0.11237 0.154193,0.0421 0.266347,0.0979 0.36447,0.16798 0.09812,0.0701 0.140313,0.16844 0.140313,0.2946 0,0.2383 -0.112285,0.40633 -0.322548,0.51847 -0.210264,0.12616 -0.532615,0.18223 -0.939125,0.18223 -0.434544,0 -0.897111,-0.0981 -1.387725,-0.28034 -0.490615,-0.18222 -0.995174,-0.44846 -1.499805,-0.77086 -0.07009,-0.0421 -0.154269,-0.0562 -0.252392,-0.0422 -0.09812,0.014 -0.168088,0.0703 -0.224158,0.14031 l -1.079438,1.55599 c -0.05607,0.0701 -0.08417,0.15427 -0.07016,0.2524 0.01402,0.0981 0.05625,0.18205 0.126338,0.23812 0.266333,0.21027 0.546564,0.42066 0.868968,0.60288 0.308387,0.19625 0.644825,0.36433 1.009281,0.5045 0.364457,0.14019 0.757016,0.25247 1.177543,0.32255 0.420526,0.0841 0.868878,0.12606 1.359492,0.12606 0.602755,0 1.149503,-0.0701 1.640118,-0.19621 0.490614,-0.12615 0.911233,-0.30832 1.261672,-0.57465 0.350439,-0.26634 0.616826,-0.60277 0.813072,-1.00929 0.196246,-0.40651 0.294315,-0.8832 0.294315,-1.44391 0,-0.60275 -0.112199,-1.09329 -0.350498,-1.4998 -0.238297,-0.39249 -0.532503,-0.71504 -0.882942,-0.96735 -0.350438,-0.2383 -0.72911,-0.43453 -1.135619,-0.56069 -0.406509,-0.12616 -0.770965,-0.21025 -1.107386,-0.28034 -0.07009,-0.014 -0.210303,-0.0421 -0.448602,-0.0841 -0.238298,-0.0421 -0.476625,-0.0982 -0.728941,-0.16827 -0.252315,-0.0701 -0.476513,-0.16795 -0.672758,-0.26608 -0.196247,-0.0981 -0.294315,-0.22434 -0.294315,-0.3505 0,-0.12615 0.04195,-0.23849 0.126053,-0.30857 0.07009,-0.0701 0.168441,-0.12593 0.2946,-0.16798 0.126158,-0.028 0.252243,-0.0422 0.392419,-0.0562 h 0.350499 c 0.350439,0 0.728825,0.0561 1.135334,0.18224 0.406509,0.12615 0.854947,0.35043 1.331544,0.64481 0.07009,0.0561 0.154269,0.0702 0.252391,0.0562 0.09812,-0.014 0.168373,-0.0703 0.224444,-0.14031 l 1.093126,-1.55599 c 0.05607,-0.0701 0.08417,-0.15426 0.07016,-0.25239 -0.01402,-0.0981 -0.05597,-0.16804 -0.126052,-0.23813 -0.57472,-0.43454 -1.163658,-0.77098 -1.78043,-1.00928 -0.63079,-0.22429 -1.331684,-0.33652 -2.116668,-0.33652 z m 5.71945,0.14032 c -0.09812,0 -0.16833,0.028 -0.238418,0.0981 -0.07009,0.0701 -0.0981,0.14001 -0.0981,0.23813 v 1.90648 c 0,0.0981 0.02802,0.16833 0.0981,0.23841 0.07009,0.0701 0.140295,0.0981 0.238418,0.0981 h 1.990329 c 0.09812,0 0.182303,0.028 0.252391,0.0981 0.05607,0.0701 0.08413,0.14001 0.08413,0.23813 v 7.00879 c 0,0.0981 0.02802,0.16833 0.09811,0.23841 0.07009,0.0701 0.140009,0.0981 0.238132,0.0981 h 2.102693 c 0.09812,0 0.182303,-0.028 0.25239,-0.0981 0.05607,-0.0701 0.08413,-0.14029 0.08413,-0.23841 v -7.00879 c 0,-0.0981 0.02802,-0.16804 0.0981,-0.23813 0.07009,-0.0701 0.140009,-0.0981 0.238133,-0.0981 h 1.962665 c 0.09812,0 0.182303,-0.028 0.252391,-0.0981 0.05607,-0.0701 0.08385,-0.14029 0.08385,-0.23841 v -1.90648 c 0,-0.0981 -0.02778,-0.16805 -0.08385,-0.23813 -0.07009,-0.0701 -0.154268,-0.0981 -0.252391,-0.0981 z m 9.167375,0 c -0.09812,0 -0.16833,0.028 -0.238417,0.0981 -0.07009,0.0701 -0.09811,0.14001 -0.09811,0.23813 v 9.58803 c 0,0.0981 0.02802,0.16833 0.09811,0.23841 0.07009,0.0701 0.140294,0.0981 0.238417,0.0981 h 2.088719 c 0.09812,0 0.168044,-0.028 0.238132,-0.0981 0.07009,-0.0701 0.0981,-0.14029 0.0981,-0.23841 v -2.27067 c 0,-0.0981 0.02802,-0.16833 0.0981,-0.23843 0.07009,-0.0701 0.140295,-0.0981 0.238418,-0.0981 h 0.308288 c 0.09812,0 0.196192,0.0281 0.294314,0.0702 0.09812,0.0561 0.182348,0.12613 0.238418,0.19621 l 0.883228,1.21947 c 0.294369,0.4065 0.588574,0.79902 0.882943,1.19151 0.05607,0.0701 0.140251,0.14019 0.252391,0.18224 0.09812,0.0561 0.196192,0.0841 0.294315,0.0841 h 2.60719 c 0.09812,0 0.1542,-0.0422 0.182236,-0.14032 0.0027,-0.008 6.3e-5,-0.0161 0.002,-0.0242 0.0094,0.0164 0.01051,0.0367 0.02623,0.0525 0.02803,0.0421 0.06998,0.0701 0.126053,0.0841 0.04205,0.014 0.09797,0.0279 0.140027,0.0279 h 2.411278 c 0.09812,0 0.182216,-0.028 0.280339,-0.0981 0.08411,-0.0561 0.140182,-0.12607 0.182235,-0.21018 l 0.392419,-0.84102 c 0.04205,-0.0841 0.09809,-0.15435 0.19621,-0.22445 0.0841,-0.0561 0.182217,-0.0841 0.28034,-0.0841 h 2.957687 c 0.09812,0 0.182217,0.028 0.28034,0.0841 0.08411,0.0701 0.154157,0.14035 0.19621,0.22445 l 0.378444,0.84102 c 0.04205,0.0841 0.112347,0.15412 0.210469,0.21018 0.08411,0.0701 0.182218,0.0981 0.280341,0.0981 h 2.397007 c 0.154193,0 0.252218,-0.0422 0.308288,-0.14031 0.04205,-0.0981 0.05603,-0.18198 0.01398,-0.26608 L 73.18235,112.6459 c -0.04205,-0.0841 -0.09813,-0.15408 -0.182235,-0.22416 -0.09812,-0.0561 -0.182217,-0.0841 -0.280341,-0.0841 h -1.96238 c -0.09812,0 -0.19652,0.0281 -0.280625,0.0841 -0.09812,0.0701 -0.154156,0.14005 -0.19621,0.22416 l -4.065072,9.48992 c -0.01744,0.0291 -0.027,0.0577 -0.0348,0.0858 -0.0035,-0.005 -0.0032,-0.0108 -0.0072,-0.0157 -0.308386,-0.40652 -0.658997,-0.86917 -1.051489,-1.35978 -0.392491,-0.49061 -0.770921,-0.98105 -1.12136,-1.44362 -0.05607,-0.0701 -0.06996,-0.15432 -0.04192,-0.23843 0.01402,-0.0701 0.06994,-0.14013 0.140028,-0.1962 0.224281,-0.14018 0.42066,-0.32247 0.602888,-0.53274 0.182229,-0.21026 0.336417,-0.43465 0.462575,-0.70098 0.126159,-0.26633 0.238201,-0.54666 0.308289,-0.84103 0.07008,-0.29436 0.0981,-0.58857 0.0981,-0.88294 0,-0.54668 -0.08414,-1.03727 -0.266366,-1.48582 -0.182229,-0.44857 -0.434486,-0.84117 -0.756889,-1.16358 -0.322405,-0.3224 -0.714964,-0.58863 -1.177543,-0.77086 -0.462579,-0.18223 -0.95312,-0.26636 -1.499805,-0.26636 z m 20.647912,0 c -0.09812,0 -0.168327,0.028 -0.238415,0.0981 -0.07008,0.0701 -0.09811,0.14001 -0.09811,0.23813 v 1.90648 c 0,0.0981 0.02803,0.16833 0.09811,0.23841 0.07009,0.0701 0.140291,0.0981 0.238415,0.0981 h 1.99033 c 0.09812,0 0.182305,0.028 0.252393,0.0981 0.05607,0.0701 0.08413,0.14001 0.08413,0.23813 v 7.00879 c 0,0.0981 0.02803,0.16833 0.09811,0.23841 0.07008,0.0701 0.140291,0.0981 0.238414,0.0981 h 2.10241 c 0.09812,0 0.182305,-0.028 0.252394,-0.0981 0.05607,-0.0701 0.08413,-0.14029 0.08413,-0.23841 v -7.00879 c 0,-0.0981 0.02803,-0.16804 0.09811,-0.23813 0.07009,-0.0701 0.140297,-0.0981 0.238414,-0.0981 h 1.962383 c 0.09812,0 0.182305,-0.028 0.252394,-0.0981 0.05607,-0.0701 0.08413,-0.14029 0.08413,-0.23841 v -1.90648 c 0,-0.0981 -0.02803,-0.16805 -0.08413,-0.23813 -0.07009,-0.0701 -0.154271,-0.0981 -0.252394,-0.0981 z m 12.321275,0.014 c -0.09812,0 -0.196235,0.028 -0.280341,0.0841 -0.09812,0.0701 -0.15416,0.14006 -0.196213,0.22417 l -4.065068,9.48992 c -0.04205,0.0701 -0.05594,0.14014 -0.04194,0.1962 0.01402,0.0561 0.02782,0.0983 0.06988,0.14032 0.02803,0.0421 0.07027,0.0701 0.12634,0.0841 0.04205,0.014 0.09797,0.0279 0.140027,0.0279 h 2.410978 c 0.09812,0 0.182218,-0.028 0.280341,-0.0981 0.0841,-0.0561 0.140181,-0.12607 0.182234,-0.21018 l 0.392707,-0.84102 c 0.04205,-0.0841 0.09808,-0.15436 0.196207,-0.22445 0.08411,-0.0561 0.182218,-0.0841 0.280341,-0.0841 h 2.957685 c 0.09812,0 0.182218,0.028 0.280341,0.0841 0.08411,0.0701 0.15416,0.14034 0.196213,0.22445 l 0.378441,0.84102 c 0.04205,0.0841 0.11235,0.15412 0.210474,0.21018 0.08411,0.0701 0.182217,0.0981 0.28034,0.0981 h 2.397001 c 0.1542,0 0.252217,-0.0422 0.308292,-0.14032 0.04208,-0.0981 0.056,-0.18197 0.014,-0.26607 l -4.093022,-9.53213 c -0.04205,-0.0841 -0.09813,-0.15408 -0.182234,-0.22416 -0.09812,-0.0561 -0.182217,-0.0841 -0.28034,-0.0841 z m -30.207709,2.56526 h 1.485831 c 0.196246,0 0.364322,0.042 0.504497,0.11209 0.126159,0.0841 0.238444,0.18216 0.322549,0.29431 0.07009,0.12615 0.126208,0.23831 0.16826,0.36447 0.02803,0.12616 0.04192,0.2384 0.04192,0.33653 0,0.18222 -0.02802,0.3364 -0.0981,0.46256 -0.07009,0.12616 -0.154268,0.23816 -0.252392,0.32227 -0.09812,0.0981 -0.210079,0.15416 -0.336236,0.19621 -0.126159,0.0421 -0.238356,0.0702 -0.350497,0.0702 h -1.485831 c -0.09812,0 -0.168329,-0.028 -0.238417,-0.0981 -0.07009,-0.0701 -0.0981,-0.1403 -0.0981,-0.23842 v -1.48583 c 0,-0.0981 0.02802,-0.16805 0.0981,-0.23813 0.07009,-0.0701 0.140295,-0.0981 0.238417,-0.0981 z m 11.452304,1.71 c 0.04205,0 0.084,0.0422 0.126053,0.12633 0.11214,0.26634 0.238313,0.56058 0.36447,0.86897 0.126159,0.3224 0.238399,0.58875 0.336522,0.82705 0.04205,0.0841 0.05602,0.15411 0.01397,0.21018 -0.04205,0.0701 -0.112062,0.0981 -0.210184,0.0981 h -1.247699 c -0.09812,0 -0.168131,-0.028 -0.210184,-0.0981 -0.04205,-0.0561 -0.04205,-0.12608 0,-0.21018 l 0.700993,-1.69602 c 0.04205,-0.0841 0.084,-0.12633 0.126053,-0.12633 z m 19.72276,0 c 0.04205,0 0.084,0.0422 0.126054,0.12633 0.11214,0.26634 0.238315,0.56058 0.364473,0.86897 0.126158,0.3224 0.238398,0.58875 0.336521,0.82705 0.04205,0.0841 0.05602,0.15411 0.01397,0.21018 -0.04205,0.0701 -0.112058,0.0981 -0.210181,0.0981 h -1.247702 c -0.09812,0 -0.168128,-0.028 -0.210181,-0.0981 -0.04205,-0.0561 -0.04205,-0.12608 0,-0.21018 l 0.700708,-1.69602 c 0.04205,-0.0841 0.08428,-0.12633 0.126335,-0.12633 z"
     style="font-size:25.4px;line-height:1;font-family:Heavitas;-inkscape-font-specification:Heavitas;letter-spacing:0;word-spacing:0;text-orientation:upright;fill:#fff;stroke-width:25.4;stroke-miterlimit:128"
     id="path3" /></svg>
