<svg xmlns="http://www.w3.org/2000/svg" xml:space="preserve" width="512" height="512" viewBox="0 0 135.46666 135.46667"><path d="m 101.59999,0 c 18.70405,-5.5228478e-7 33.86667,15.162623 33.86667,33.866666 V 101.6 c 0,18.70404 -15.16263,33.86666 -33.86667,33.86666 H 0 V 0 Z" style="fill:#000;fill-opacity:1;stroke-width:4.23333;stroke-miterlimit:128;paint-order:stroke fill markers"/><path d="M 8.4666666 8.4666666 L 8.4666666 101.6 L 127 101.6 L 127 33.866666 A 25.4 25.4 0 0 0 101.6 8.4666666 L 8.4666666 8.4666666 z M 58.486869 16.938501 C 59.164852 16.986392 59.807738 17.359199 60.173071 17.992183 L 62.28922 21.657593 L 67.788626 18.482593 C 67.985828 18.36885 68.199638 18.287807 68.422696 18.242297 C 71.839713 17.543059 75.992346 17.037187 80.071081 17.300236 C 84.149823 17.563287 88.232791 18.574743 91.264712 21.263301 C 92.569896 22.420532 91.994313 24.571031 90.285444 24.920959 C 87.283129 25.53527 84.071934 26.861402 81.969673 28.592053 C 79.867418 30.322706 78.885167 32.106228 79.386368 34.555513 C 79.568736 35.447868 79.160123 36.357175 78.371443 36.81274 L 72.872037 39.98774 L 82.397554 56.486474 A 2.1168766 2.1168766 0 0 1 85.287816 57.262137 L 97.987816 79.259761 A 2.1168766 2.1168766 0 0 1 97.213703 82.14899 L 99.330887 85.815949 C 99.91432 86.828426 99.5673 88.122603 98.555223 88.706729 L 91.222855 92.940062 C 90.210948 93.524484 88.916674 93.177973 88.331558 92.166466 L 86.214375 88.499507 A 2.1168766 2.1168766 0 0 1 83.325145 87.725394 L 70.625146 65.72777 A 2.1168766 2.1168766 0 0 1 71.398225 62.836991 L 62.046858 46.640047 C 60.251512 48.455323 58.089844 51.574504 56.446166 55.134618 C 54.247654 59.896472 52.813668 65.465709 53.063427 69.626757 C 53.155824 71.187005 51.583429 72.305746 50.139575 71.70725 C 42.755408 68.641091 36.821144 62.474753 32.869311 55.357344 C 28.917477 48.23993 26.907816 40.134832 27.679447 32.868278 C 27.744421 32.255365 28.07329 31.701199 28.580167 31.350541 C 28.830561 31.177251 29.115425 31.060062 29.415258 31.006893 L 50.837206 27.224178 L 49.173742 24.3427 C 48.588918 23.330093 48.935597 22.035418 49.948372 21.450887 L 57.280741 17.217553 C 57.660468 16.998244 58.080079 16.909766 58.486869 16.938501 z M 78.498567 21.472591 C 75.445304 21.414591 72.268047 21.809613 69.565262 22.345923 L 64.406404 25.324552 L 68.638704 32.655371 C 69.223654 33.667961 68.876433 34.96273 67.863557 35.547184 C 66.850967 36.132134 65.556197 35.785431 64.971744 34.772554 L 60.739444 27.441736 L 55.240555 30.616735 C 55.026746 30.739401 54.793001 30.823526 54.550158 30.865816 L 39.526269 33.519917 C 41.202867 47.203069 46.914331 54.373161 51.253202 56.601712 C 51.665313 55.49948 52.117111 54.414587 52.603507 53.361083 C 54.617316 48.999286 57.040714 45.185486 59.854227 42.842346 L 55.523225 35.340478 C 54.938275 34.327888 55.284979 33.033119 56.297855 32.448665 C 57.310445 31.863715 58.605731 32.210418 59.190185 33.223295 L 63.423518 40.555664 L 75.170605 33.773649 C 75.08761 30.358009 76.804037 27.360895 79.278881 25.323519 C 80.788776 24.080521 82.545313 23.116041 84.382962 22.347473 C 82.982632 21.924521 81.447512 21.632741 79.797712 21.526334 C 79.368318 21.498641 78.934747 21.480877 78.498567 21.472591 z M 57.563411 21.941296 L 53.898001 24.057446 L 54.956852 25.890926 L 58.622261 23.774776 L 57.563411 21.941296 z M 35.353397 34.256823 L 31.874023 34.871773 C 31.628463 40.694226 33.28118 47.378618 36.56986 53.301655 C 39.587977 58.737405 43.919465 63.356535 48.940681 66.263138 C 49.107191 64.428154 49.464158 62.553331 49.95509 60.689835 C 43.458628 57.908488 37.234002 49.209521 35.353397 34.256823 z M 69.205077 42.104923 L 65.539668 44.221073 L 75.065185 60.719807 L 78.730594 58.603657 L 69.205077 42.104923 z M 82.680224 61.210217 L 75.347855 65.44355 L 76.914684 68.157596 L 80.650373 64.874592 A 2.1166649 2.1166649 0 0 1 80.987304 64.63223 A 2.1166649 2.1166649 0 0 1 83.636754 65.066829 A 2.1166649 2.1166649 0 0 1 83.445552 68.055277 L 79.391535 71.615783 A 2.1166649 2.1166649 0 0 1 79.045303 71.848327 L 80.089167 73.655968 L 83.824857 70.373481 A 2.1166649 2.1166649 0 0 1 84.16282 70.131119 A 2.1166649 2.1166649 0 0 1 86.812788 70.567268 A 2.1166649 2.1166649 0 0 1 86.620552 73.554166 L 82.567569 77.116739 A 2.1166649 2.1166649 0 0 1 82.221337 77.348766 L 83.265201 79.156924 L 87.00089 75.873921 A 2.1166649 2.1166649 0 0 1 87.33782 75.631558 A 2.1166649 2.1166649 0 0 1 89.987271 76.066157 A 2.1166649 2.1166649 0 0 1 89.795035 79.053055 L 85.742052 82.615628 A 2.1166649 2.1166649 0 0 1 85.39582 82.847655 L 85.931705 83.775764 L 93.264074 79.542431 L 82.680224 61.210217 z M 93.546744 84.266173 L 89.881334 86.382323 L 90.940184 88.215803 L 94.605594 86.099653 L 93.546744 84.266173 z" style="fill:#ff7b0a;stroke-width:4.23333;stroke-miterlimit:128;paint-order:stroke fill markers;fill-opacity:1"/><path d="m 100.00726,112.18333 c -0.741951,0 -1.441961,0.14012 -2.099921,0.4201 -0.65796,0.27998 -1.21805,0.65787 -1.70802,1.13384 -0.48997,0.47596 -0.88177,1.03586 -1.16175,1.67982 -0.27998,0.64395 -0.42009,1.3301 -0.42009,2.05805 0,0.72795 0.14011,1.41381 0.42009,2.05777 0.27998,0.64395 0.67178,1.20385 1.16175,1.67982 0.48997,0.47597 1.05006,0.85386 1.70802,1.13384 0.65796,0.27998 1.35797,0.42009 2.099921,0.42009 0.60196,0 1.1477,-0.0699 1.63767,-0.2099 0.48997,-0.13999 0.95201,-0.33616 1.35798,-0.58814 0.40598,-0.25198 0.77,-0.55995 1.09198,-0.92393 0.32197,-0.34998 0.63003,-0.75597 0.89601,-1.18994 0.042,-0.084 0.0559,-0.16778 0.0279,-0.25178 -0.028,-0.07 -0.084,-0.12604 -0.16804,-0.16804 l -1.9877,-0.78409 c -0.098,-0.042 -0.18202,-0.042 -0.26602,0 -0.098,0.042 -0.16819,0.0981 -0.21019,0.16804 -0.23798,0.39198 -0.57378,0.71386 -0.97975,0.95185 -0.41997,0.25198 -0.88189,0.37822 -1.39986,0.37822 -0.349971,0 -0.686011,-0.0702 -0.993991,-0.22414 -0.32198,-0.15399 -0.58797,-0.34987 -0.82595,-0.58785 -0.23799,-0.23799 -0.42,-0.53218 -0.54599,-0.85416 -0.12599,-0.32198 -0.19595,-0.65768 -0.19595,-1.00766 0,-0.34998 0.07,-0.68597 0.19595,-1.00795 0.12599,-0.32198 0.308,-0.61613 0.54599,-0.86811 0.23798,-0.23798 0.50397,-0.43386 0.82595,-0.58785 0.30798,-0.15399 0.64402,-0.22415 0.993991,-0.22415 0.54597,0 1.00793,0.1121 1.3859,0.33608 0.37798,0.23798 0.71377,0.56002 0.97976,0.994 0.042,0.07 0.11219,0.12604 0.21019,0.16803 0.098,0.042 0.18197,0.042 0.27997,0 l 1.9877,-0.78408 c 0.084,-0.042 0.14004,-0.098 0.16804,-0.182 0.028,-0.084 0.0141,-0.16782 -0.0279,-0.23781 -0.26598,-0.43398 -0.56008,-0.82598 -0.88206,-1.18995 -0.32198,-0.34998 -0.686,-0.65799 -1.09197,-0.90998 -0.40598,-0.25198 -0.85378,-0.44815 -1.34374,-0.58813 -0.48997,-0.13999 -1.04991,-0.20991 -1.66587,-0.20991 z m -75.525356,0.014 c -0.44797,0 -0.909928,0.0421 -1.385896,0.14013 -0.475968,0.098 -0.909946,0.2798 -1.287921,0.51778 -0.391973,0.25199 -0.713814,0.58798 -0.965798,1.00795 -0.251983,0.41997 -0.377945,0.95213 -0.377945,1.59609 0,0.43397 0.06992,0.81186 0.209906,1.13384 0.125992,0.32197 0.308045,0.60192 0.532029,0.83991 0.223986,0.23798 0.475867,0.4199 0.769848,0.57389 0.279981,0.15399 0.560171,0.266 0.854151,0.36399 0.293981,0.098 0.573886,0.18216 0.853868,0.22415 0.265982,0.056 0.504037,0.0979 0.714024,0.13984 0.209985,0.042 0.419733,0.0839 0.629719,0.11194 0.209986,0.028 0.391995,0.0702 0.545985,0.11221 0.15399,0.042 0.265997,0.0978 0.36399,0.16776 0.09799,0.07 0.140128,0.16821 0.140128,0.2942 0,0.23799 -0.112137,0.4058 -0.322123,0.51779 -0.209986,0.126 -0.531913,0.182 -0.937887,0.182 -0.433971,0 -0.895928,-0.098 -1.385896,-0.27997 -0.489967,-0.18199 -0.99386,-0.44787 -1.497826,-0.76985 -0.07,-0.042 -0.154066,-0.0562 -0.25206,-0.0422 -0.09799,0.014 -0.167866,0.0701 -0.223862,0.14013 l -1.078014,1.55393 c -0.056,0.07 -0.08406,0.15407 -0.07006,0.25206 0.014,0.098 0.05618,0.18182 0.126171,0.23782 0.265983,0.20999 0.545844,0.4201 0.867823,0.60209 0.307979,0.19599 0.643974,0.36384 1.00795,0.50383 0.363976,0.13999 0.756018,0.25213 1.17599,0.32212 0.419972,0.084 0.867731,0.12589 1.357699,0.12589 0.60196,0 1.147988,-0.07 1.637955,-0.19595 0.489968,-0.12599 0.910032,-0.30791 1.260009,-0.57389 0.349977,-0.26599 0.616013,-0.60198 0.811999,-1.00795 0.195988,-0.40598 0.293927,-0.88205 0.293927,-1.44201 0,-0.60196 -0.11205,-1.09185 -0.350034,-1.49783 -0.237985,-0.39197 -0.531802,-0.71409 -0.881779,-0.96608 -0.349977,-0.23798 -0.728149,-0.43395 -1.134122,-0.55994 -0.405973,-0.12599 -0.769948,-0.20997 -1.105926,-0.27997 -0.06999,-0.014 -0.210025,-0.0421 -0.448009,-0.084 -0.237985,-0.042 -0.475997,-0.098 -0.72798,-0.16804 -0.251983,-0.07 -0.475885,-0.16773 -0.671872,-0.26573 -0.195987,-0.098 -0.293926,-0.22404 -0.293926,-0.35003 0,-0.12599 0.04189,-0.23817 0.125887,-0.30817 0.06999,-0.07 0.168219,-0.12576 0.294211,-0.16775 0.125992,-0.028 0.251911,-0.0421 0.391901,-0.0561 h 0.350035 c 0.349976,0 0.727863,0.056 1.133837,0.18199 0.405973,0.12599 0.853819,0.34999 1.329788,0.64397 0.06999,0.056 0.154065,0.0701 0.252059,0.0561 0.09799,-0.014 0.167865,-0.0701 0.223862,-0.14013 l 1.09197,-1.55393 c 0.056,-0.07 0.08406,-0.15407 0.07006,-0.25206 -0.014,-0.098 -0.05589,-0.16782 -0.125887,-0.23782 -0.573962,-0.43397 -1.162124,-0.76996 -1.778083,-1.00795 -0.629958,-0.22398 -1.329928,-0.33607 -2.113876,-0.33607 z m 17.163067,0.14013 c -0.09799,0 -0.168108,0.028 -0.238103,0.098 -0.07,0.07 -0.09798,0.13982 -0.09798,0.23781 v 9.57539 c 0,0.098 0.02798,0.16811 0.09798,0.2381 0.06999,0.07 0.140109,0.098 0.238103,0.098 h 2.113876 c 0.09799,0 0.167822,-0.028 0.237818,-0.098 0.06999,-0.07 0.09797,-0.1401 0.09797,-0.2381 v -2.08568 c 0,-0.098 0.02826,-0.16811 0.09826,-0.2381 0.07,-0.07 0.139825,-0.098 0.237819,-0.098 h 1.217856 c 0.685955,0 1.274073,-0.0979 1.792038,-0.29392 0.503967,-0.18199 0.923989,-0.44811 1.273965,-0.78409 0.335978,-0.32198 0.587903,-0.71373 0.755892,-1.1757 0.167989,-0.44797 0.252059,-0.938 0.252059,-1.45596 0,-0.51797 -0.09822,-1.00795 -0.294212,-1.46992 -0.209985,-0.46197 -0.475736,-0.85393 -0.811714,-1.2039 -0.349977,-0.34998 -0.742216,-0.61601 -1.204186,-0.812 -0.46197,-0.19599 -0.965906,-0.29393 -1.483872,-0.29393 z m 9.519277,0 c -0.09799,0 -0.167823,0.028 -0.237818,0.098 -0.07,0.07 -0.09798,0.13982 -0.09798,0.23781 v 9.57539 c 0,0.098 0.02798,0.16811 0.09798,0.2381 0.07,0.07 0.139824,0.098 0.237818,0.098 h 2.085964 c 0.09799,0 0.167824,-0.028 0.237819,-0.098 0.06999,-0.07 0.09798,-0.1401 0.09798,-0.2381 v -2.26767 c 0,-0.098 0.02827,-0.16811 0.09826,-0.2381 0.07,-0.07 0.139826,-0.098 0.237819,-0.098 h 0.307881 c 0.09799,0 0.196219,0.0281 0.294212,0.0701 0.09799,0.056 0.181823,0.12596 0.23782,0.19595 l 0.882058,1.21786 c 0.293981,0.40597 0.587802,0.79797 0.881783,1.18994 0.056,0.07 0.140062,0.14001 0.252055,0.182 0.09799,0.056 0.195932,0.084 0.293926,0.084 h 2.604039 c 0.09799,0 0.153996,-0.0422 0.181994,-0.14013 0.028,-0.084 0.01383,-0.16782 -0.04216,-0.23781 -0.307979,-0.40598 -0.657841,-0.86802 -1.049815,-1.35799 -0.391975,-0.48997 -0.769906,-0.97975 -1.119883,-1.44172 -0.056,-0.07 -0.07015,-0.15411 -0.04216,-0.2381 0.014,-0.07 0.07013,-0.13996 0.140129,-0.19596 0.223985,-0.13999 0.419818,-0.32203 0.601806,-0.53202 0.181988,-0.20999 0.335973,-0.43409 0.461965,-0.70007 0.125991,-0.26598 0.238171,-0.54593 0.308167,-0.83991 0.06999,-0.29398 0.09798,-0.5878 0.09798,-0.88178 0,-0.54597 -0.08403,-1.0359 -0.266016,-1.48387 -0.181988,-0.44797 -0.434197,-0.84006 -0.756177,-1.16204 -0.321979,-0.32197 -0.713733,-0.58785 -1.175702,-0.76984 -0.46197,-0.18199 -0.952148,-0.26602 -1.498112,-0.26602 z m 10.051307,0 c -0.09799,0 -0.167824,0.028 -0.237819,0.098 -0.07,0.07 -0.09798,0.13982 -0.09798,0.23781 v 9.57539 c 0,0.098 0.028,0.16811 0.09798,0.2381 0.06999,0.07 0.139826,0.098 0.237819,0.098 h 7.125712 c 0.09799,0 0.167824,-0.028 0.23782,-0.098 0.07,-0.07 0.09798,-0.1401 0.09798,-0.2381 v -1.93188 c 0,-0.098 -0.028,-0.16782 -0.09798,-0.23782 -0.07,-0.07 -0.139826,-0.098 -0.23782,-0.098 h -4.35392 c -0.09799,0 -0.167824,-0.028 -0.237819,-0.098 -0.07,-0.07 -0.09798,-0.14011 -0.09798,-0.2381 v -0.53203 c 0,-0.098 0.028,-0.16782 0.09798,-0.23782 0.07,-0.07 0.139825,-0.098 0.237819,-0.098 h 3.793984 c 0.09799,0 0.167819,-0.028 0.237814,-0.098 0.07,-0.07 0.09798,-0.14011 0.09798,-0.2381 v -1.93188 c 0,-0.098 -0.028,-0.16811 -0.09798,-0.23811 -0.06999,-0.07 -0.13982,-0.098 -0.237814,-0.098 h -3.793984 c -0.09799,0 -0.167824,-0.028 -0.237819,-0.098 -0.07,-0.07 -0.09798,-0.13982 -0.09798,-0.23781 v -0.58814 c 0,-0.098 0.028,-0.16783 0.09798,-0.23782 0.07,-0.07 0.139825,-0.098 0.237819,-0.098 h 4.35392 c 0.09799,0 0.167824,-0.028 0.23782,-0.098 0.07,-0.07 0.09798,-0.14011 0.09798,-0.23811 v -1.90397 c 0,-0.098 -0.028,-0.16782 -0.09798,-0.23781 -0.07,-0.07 -0.139826,-0.098 -0.23782,-0.098 z m -30.587974,0.014 c -0.09799,0 -0.167822,0.028 -0.237818,0.098 -0.06999,0.07 -0.09797,0.1401 -0.09797,0.2381 v 5.66947 c 0,0.65795 0.111851,1.26003 0.321838,1.80599 0.209986,0.54596 0.518,1.00792 0.909974,1.3859 0.391975,0.37797 0.867844,0.67179 1.413808,0.88177 0.545964,0.20999 1.16195,0.32213 1.833906,0.32213 0.671955,0 1.287941,-0.11214 1.833905,-0.32213 0.545964,-0.20998 1.021834,-0.5038 1.413808,-0.88177 0.391974,-0.37798 0.699989,-0.83994 0.909974,-1.3859 0.209987,-0.54596 0.308167,-1.14804 0.308167,-1.80599 v -5.66947 c 0,-0.098 -0.02798,-0.1681 -0.09798,-0.2381 -0.06999,-0.07 -0.14011,-0.098 -0.238103,-0.098 h -2.113876 c -0.09799,0 -0.167823,0.028 -0.237818,0.098 -0.06999,0.07 -0.09826,0.1401 -0.09826,0.2381 v 5.66947 c 0,0.36397 -0.05576,0.65803 -0.167754,0.89601 -0.125992,0.23799 -0.266065,0.43395 -0.434054,0.55995 -0.167989,0.13999 -0.349998,0.23793 -0.545985,0.29392 -0.195987,0.056 -0.378039,0.084 -0.532029,0.084 -0.15399,0 -0.336042,-0.028 -0.53203,-0.084 -0.195986,-0.056 -0.377711,-0.15393 -0.5457,-0.29392 -0.181988,-0.126 -0.322061,-0.32196 -0.434053,-0.55995 -0.125992,-0.23798 -0.181995,-0.53204 -0.181995,-0.89601 v -5.66947 c 0,-0.098 -0.02798,-0.1681 -0.09798,-0.2381 -0.06999,-0.07 -0.140109,-0.098 -0.238103,-0.098 z m 40.205513,0 c -0.09799,0 -0.16811,0.028 -0.238106,0.098 -0.07,0.07 -0.09798,0.1401 -0.09798,0.2381 v 9.56114 c 0,0.098 0.028,0.16811 0.09798,0.2381 0.07,0.07 0.140112,0.098 0.238106,0.098 h 2.113873 c 0.09799,0 0.167824,-0.028 0.237819,-0.098 0.07,-0.07 0.09798,-0.14011 0.09798,-0.2381 v -4.50772 c 0,-0.098 0.04216,-0.1398 0.126168,-0.1538 0.08399,-0.014 0.153957,0.028 0.195954,0.098 l 2.351692,3.7937 c 0.056,0.07 0.140107,0.11192 0.238101,0.11192 0.09799,0 0.181866,-0.0419 0.223864,-0.11192 l 2.351973,-3.7937 c 0.056,-0.07 0.12592,-0.11198 0.20991,-0.098 0.084,0.014 0.12617,0.0558 0.12617,0.1538 v 4.50772 c 0,0.098 0.028,0.16811 0.098,0.2381 0.07,0.07 0.13982,0.098 0.23782,0.098 h 2.11387 c 0.098,0 0.16811,-0.028 0.23811,-0.098 0.07,-0.07 0.098,-0.14011 0.098,-0.2381 v -9.56114 c 0,-0.098 -0.028,-0.1681 -0.098,-0.2381 -0.07,-0.07 -0.14012,-0.098 -0.23811,-0.098 h -1.95979 c -0.098,0 -0.19593,0.028 -0.29392,0.084 -0.098,0.056 -0.18211,0.12595 -0.23811,0.19595 l -2.687768,3.94778 c -0.042,0.07 -0.112004,0.11193 -0.181999,0.11193 -0.07,0 -0.139953,-0.0419 -0.195949,-0.11193 l -2.68777,-3.94778 c -0.042,-0.07 -0.126157,-0.13995 -0.224151,-0.19595 -0.09799,-0.056 -0.195932,-0.084 -0.293925,-0.084 z m 16.770885,0 c -0.098,0 -0.195981,0.028 -0.279971,0.084 -0.098,0.07 -0.15396,0.13986 -0.19596,0.22386 l -4.05971,9.47741 c -0.042,0.07 -0.0562,0.13996 -0.0422,0.19595 0.014,0.056 0.0281,0.0981 0.0701,0.14013 0.028,0.042 0.0699,0.07 0.12589,0.084 0.042,0.014 0.0981,0.0279 0.14012,0.0279 h 2.40781 c 0.098,0 0.18197,-0.028 0.27997,-0.098 0.084,-0.056 0.13999,-0.12591 0.18199,-0.2099 l 0.3919,-0.83992 c 0.042,-0.084 0.098,-0.15415 0.19595,-0.22414 0.084,-0.056 0.18198,-0.084 0.27997,-0.084 h 2.953791 c 0.098,0 0.18198,0.028 0.27997,0.084 0.084,0.07 0.15424,0.14015 0.19624,0.22414 l 0.37794,0.83992 c 0.042,0.084 0.11192,0.15391 0.20991,0.2099 0.084,0.07 0.18198,0.098 0.27997,0.098 h 2.39385 c 0.15399,0 0.25188,-0.0422 0.30788,-0.14013 0.042,-0.098 0.0562,-0.18174 0.0142,-0.26573 l -4.08791,-9.51956 c -0.042,-0.084 -0.098,-0.15387 -0.182,-0.22386 -0.098,-0.056 -0.18197,-0.084 -0.27997,-0.084 z m 17.540721,0 c -0.098,0 -0.15399,0.0419 -0.18199,0.12589 -0.028,0.098 -0.0138,0.18202 0.0282,0.26601 0.57396,0.97994 1.16192,1.93187 1.74988,2.85581 0.57396,0.92394 1.14777,1.86197 1.70774,2.8279 0.042,0.07 0.0842,0.16794 0.12616,0.29393 0.028,0.12599 0.0419,0.23808 0.0419,0.33608 v 3.1916 c 0,0.098 0.028,0.16811 0.098,0.2381 0.07,0.07 0.14012,0.098 0.23811,0.098 h 2.11387 c 0.098,0 0.16783,-0.028 0.23782,-0.098 0.07,-0.07 0.098,-0.14011 0.098,-0.2381 v -3.20556 c 0,-0.098 0.0141,-0.19613 0.0561,-0.32212 0.042,-0.12599 0.0839,-0.22389 0.12588,-0.30789 l 3.49977,-5.66975 c 0.07,-0.12599 0.0981,-0.22393 0.0561,-0.29392 -0.042,-0.07 -0.11191,-0.098 -0.2099,-0.098 h -2.52002 c -0.098,0 -0.18198,0.028 -0.27997,0.084 -0.098,0.056 -0.18187,0.1259 -0.22387,0.20989 l -1.70801,2.99594 c -0.042,0.07 -0.0981,0.11193 -0.16805,0.11193 -0.07,0 -0.12604,-0.0419 -0.16803,-0.11193 l -1.72169,-2.99594 c -0.042,-0.084 -0.11191,-0.1539 -0.20991,-0.20989 -0.098,-0.056 -0.19622,-0.084 -0.29421,-0.084 z m -60.713981,2.56189 h 1.315832 c 0.195987,0 0.364083,0.028 0.518073,0.098 0.15399,0.07 0.279952,0.16798 0.377945,0.27997 0.09799,0.11199 0.182108,0.23796 0.238103,0.37795 0.042,0.15399 0.06978,0.29402 0.06978,0.44801 0,0.29398 -0.08383,0.54586 -0.237819,0.76984 -0.167988,0.23799 -0.43411,0.35004 -0.784088,0.35004 h -1.497826 c -0.09799,0 -0.167824,-0.028 -0.237819,-0.098 -0.06999,-0.07 -0.09826,-0.14011 -0.09826,-0.2381 v -1.65191 c 0,-0.098 0.02826,-0.16783 0.09826,-0.23782 0.07,-0.07 0.139825,-0.098 0.237819,-0.098 z m 9.491366,0 h 1.483871 c 0.195987,0 0.364125,0.0419 0.504116,0.11192 0.125991,0.084 0.237846,0.18194 0.321841,0.29393 0.06999,0.12599 0.126041,0.238 0.168039,0.36399 0.028,0.12599 0.04189,0.23809 0.04189,0.33608 0,0.18199 -0.028,0.33597 -0.09798,0.46196 -0.07,0.12599 -0.15378,0.23785 -0.251774,0.32184 -0.09799,0.098 -0.210085,0.15396 -0.336077,0.19595 -0.125992,0.042 -0.23804,0.0701 -0.350032,0.0701 h -1.483871 c -0.09799,0 -0.167823,-0.028 -0.237819,-0.098 -0.06999,-0.07 -0.09826,-0.14011 -0.09826,-0.2381 v -1.48387 c 0,-0.098 0.02827,-0.16783 0.09826,-0.23782 0.07,-0.07 0.139826,-0.098 0.237819,-0.098 z m 34.647684,1.70773 c 0.042,0 0.0842,0.0422 0.12617,0.12617 0.112,0.26598 0.238,0.55984 0.36399,0.86782 0.12599,0.32198 0.2378,0.58797 0.3358,0.82596 0.042,0.084 0.0559,0.15391 0.0139,0.2099 -0.042,0.07 -0.11191,0.098 -0.2099,0.098 h -1.24577 c -0.098,0 -0.1682,-0.028 -0.21019,-0.098 -0.042,-0.056 -0.042,-0.12591 0,-0.2099 l 0.70006,-1.69378 c 0.042,-0.084 0.0839,-0.12617 0.12589,-0.12617 z" style="font-size:25.4px;line-height:1;font-family:Heavitas;-inkscape-font-specification:Heavitas;letter-spacing:0;word-spacing:0;text-orientation:upright;fill:#fff;fill-opacity:1;stroke:none;stroke-width:4.23333;stroke-linecap:round;stroke-linejoin:round;stroke-miterlimit:128"/></svg>