<svg xmlns="http://www.w3.org/2000/svg" xml:space="preserve" id="svg1" width="512" height="512" version="1.1" viewBox="0 0 135.46665 135.46666"><style id="style1" type="text/css">.st0{opacity:.2;fill:none;stroke:#000;stroke-width:5.000000e-02;stroke-miterlimit:10}</style><path id="path1" d="M 135.46665,16.933332 A 16.933332,16.933331 0 0 0 118.53332,0 H 16.93333 A 16.933332,16.933331 0 0 0 0,16.933332 16.933332,16.933331 0 0 0 16.93333,33.866664 h 101.59999 a 16.933332,16.933331 0 0 0 16.93333,-16.933332 z m 0,50.799995 A 16.933332,16.933331 0 0 0 118.53332,50.799996 H 16.93333 A 16.933332,16.933331 0 0 0 0,67.733327 16.933332,16.933331 0 0 0 16.93333,84.666659 h 101.59999 a 16.933332,16.933331 0 0 0 16.93333,-16.933332 z m 0,50.799993 A 16.933332,16.933331 0 0 0 118.53332,101.59999 H 16.93333 A 16.933332,16.933331 0 0 0 0,118.53332 16.933332,16.933331 0 0 0 16.93333,135.46665 h 101.59999 a 16.933332,16.933331 0 0 0 16.93333,-16.93333 z" style="fill:#fff;fill-opacity:1;stroke-width:4.23333;stroke-linecap:round;stroke-linejoin:round;stroke-miterlimit:128;stroke-opacity:0"/></svg>