<?xml version="1.0" encoding="UTF-8" standalone="no"?>
<svg
   xml:space="preserve"
   id="svg1"
   width="512"
   height="512"
   version="1.1"
   viewBox="0 0 135.46666 135.46667"
   sodipodi:docname="volition.svg"
   inkscape:version="1.3 (0e150ed6c4, 2023-07-21)"
   xmlns:inkscape="http://www.inkscape.org/namespaces/inkscape"
   xmlns:sodipodi="http://sodipodi.sourceforge.net/DTD/sodipodi-0.dtd"
   xmlns="http://www.w3.org/2000/svg"
   xmlns:svg="http://www.w3.org/2000/svg"><defs
     id="defs1" /><sodipodi:namedview
     id="namedview1"
     pagecolor="#505050"
     bordercolor="#eeeeee"
     borderopacity="1"
     inkscape:showpageshadow="0"
     inkscape:pageopacity="0"
     inkscape:pagecheckerboard="0"
     inkscape:deskcolor="#505050"
     inkscape:zoom="1.1054688"
     inkscape:cx="255.5477"
     inkscape:cy="186.34629"
     inkscape:window-width="1366"
     inkscape:window-height="705"
     inkscape:window-x="-8"
     inkscape:window-y="-8"
     inkscape:window-maximized="1"
     inkscape:current-layer="svg1" /><path
     id="rect1"
     d="M 33.866666,0 C 15.162623,-5.5228478e-7 -5.5228478e-7,15.162623 0,33.866666 V 101.6 c 2.7614235e-6,18.70404 15.162625,33.86666 33.866666,33.86666 H 135.46666 V 0 Z"
     style="fill:#000;fill-opacity:1;stroke-width:4.23333;stroke-miterlimit:128;paint-order:stroke fill markers" /><path
     id="path4"
     d="M 33.866667,8.4666666 C 19.838637,8.4666669 8.4666666,19.838634 8.4666666,33.866666 V 101.6 H 127 V 8.4666666 Z"
     style="fill:#ffff00;fill-opacity:1;stroke-width:4.23333;stroke-miterlimit:128;paint-order:stroke fill markers"
     sodipodi:nodetypes="sscccs" /><path
     id="text1"
     d="m 49.032704,112.18333 c -0.726037,0 -1.410091,0.13975 -2.052355,0.41899 -0.642263,0.27925 -1.200971,0.65614 -1.675687,1.13086 -0.474716,0.48868 -0.85161,1.04734 -1.130855,1.6896 -0.279244,0.64227 -0.418992,1.32632 -0.418992,2.05236 0,0.72604 0.139748,1.41009 0.418992,2.05235 0.279245,0.64226 0.656139,1.20069 1.130855,1.67541 0.474716,0.48868 1.033424,0.86581 1.675687,1.14506 0.642264,0.27924 1.326318,0.4187 2.052355,0.4187 0.726037,0 1.410091,-0.13946 2.052354,-0.4187 0.642264,-0.27925 1.200928,-0.65638 1.689606,-1.14506 0.474717,-0.47472 0.85161,-1.03315 1.130855,-1.67541 0.279245,-0.64226 0.418993,-1.32631 0.418993,-2.05235 0,-0.72604 -0.139748,-1.41009 -0.418993,-2.05236 -0.279245,-0.64226 -0.656138,-1.20092 -1.130855,-1.6896 -0.488678,-0.47472 -1.047342,-0.85161 -1.689606,-1.13086 -0.642263,-0.27924 -1.326317,-0.41899 -2.052354,-0.41899 z m 38.32634,0 c -0.726038,0 -1.410095,0.13975 -2.052359,0.41899 -0.642264,0.27925 -1.200683,0.65614 -1.6754,1.13086 -0.474717,0.48868 -0.851896,1.04734 -1.131141,1.6896 -0.279245,0.64227 -0.418708,1.32632 -0.418708,2.05236 0,0.72604 0.139463,1.41009 0.418708,2.05235 0.279245,0.64226 0.656424,1.20069 1.131141,1.67541 0.474717,0.48868 1.033136,0.86581 1.6754,1.14506 0.642264,0.27924 1.326321,0.4187 2.052359,0.4187 0.726032,0 1.410089,-0.13946 2.052353,-0.4187 0.642264,-0.27925 1.200925,-0.65638 1.689604,-1.14506 0.474717,-0.47472 0.85161,-1.03315 1.130855,-1.67541 0.279246,-0.64226 0.418995,-1.32631 0.418995,-2.05235 0,-0.72604 -0.139749,-1.41009 -0.418995,-2.05236 -0.279245,-0.64226 -0.656138,-1.20092 -1.130855,-1.6896 -0.488679,-0.47472 -1.04734,-0.85161 -1.689604,-1.13086 -0.642264,-0.27924 -1.326321,-0.41899 -2.052353,-0.41899 z m -55.318416,0.18152 c -0.12566,0 -0.19559,0.0421 -0.237477,0.12584 -0.04189,0.0838 -0.04189,0.1815 0,0.27923 l 4.216631,9.50815 c 0.04189,0.0838 0.111902,0.15351 0.209638,0.20936 0.08377,0.0698 0.167295,0.098 0.265031,0.098 h 1.857203 c 0.09774,0 0.181498,-0.0282 0.279234,-0.098 0.08377,-0.0559 0.153548,-0.12558 0.195435,-0.20936 l 4.258387,-9.56411 c 0.04189,-0.0698 0.02797,-0.1537 -0.01392,-0.23748 -0.04189,-0.0698 -0.125537,-0.11163 -0.223273,-0.11163 h -2.317954 c -0.09774,0 -0.181257,0.028 -0.26503,0.0838 -0.09774,0.0698 -0.167752,0.13978 -0.209639,0.22355 l -2.443225,5.6128 c -0.04189,0.0838 -0.111705,0.12556 -0.181516,0.12556 -0.06981,0 -0.13963,-0.0418 -0.181516,-0.12556 l -2.457429,-5.6128 c -0.04189,-0.0838 -0.111662,-0.15374 -0.195435,-0.22355 -0.09774,-0.0559 -0.181498,-0.0838 -0.279234,-0.0838 z m 24.043086,0 c -0.09774,0 -0.181628,0.0279 -0.237477,0.0977 -0.06981,0.0698 -0.09772,0.13974 -0.09772,0.23748 v 9.5502 c 0,0.0977 0.02791,0.16738 0.09772,0.23719 0.05585,0.0698 0.139741,0.098 0.237477,0.098 h 6.967211 c 0.09774,0 0.167381,-0.0282 0.237192,-0.098 0.06981,-0.0698 0.09772,-0.13946 0.09772,-0.23719 v -1.89896 c 0,-0.0977 -0.02791,-0.16739 -0.09772,-0.2372 -0.06981,-0.0698 -0.139456,-0.0977 -0.237192,-0.0977 h -4.202711 c -0.09774,0 -0.181628,-0.0282 -0.237477,-0.098 -0.06981,-0.0698 -0.09772,-0.13945 -0.09772,-0.23719 v -6.98113 c 0,-0.0977 -0.02791,-0.16766 -0.09772,-0.23748 -0.06981,-0.0698 -0.139741,-0.0977 -0.237477,-0.0977 z m 12.91492,0 c -0.09774,0 -0.167381,0.0279 -0.237192,0.0977 -0.06981,0.0698 -0.09772,0.13974 -0.09772,0.23748 v 1.89896 c 0,0.0977 0.02791,0.16738 0.09772,0.23719 0.06981,0.0698 0.139457,0.0977 0.237192,0.0977 h 1.982759 c 0.09774,0 0.181585,0.0279 0.251396,0.0977 0.05585,0.0698 0.08352,0.13974 0.08352,0.23748 v 6.98113 c 0,0.0977 0.02819,0.16738 0.098,0.23719 0.06981,0.0698 0.139457,0.098 0.237193,0.098 h 2.094396 c 0.09774,0 0.181587,-0.0282 0.251398,-0.098 0.05585,-0.0698 0.0838,-0.13946 0.0838,-0.23719 v -6.98113 c 0,-0.0977 0.02792,-0.16767 0.09772,-0.23748 0.06981,-0.0698 0.139458,-0.0977 0.237194,-0.0977 h 1.954919 c 0.09774,0 0.181301,-0.0279 0.251112,-0.0977 0.05585,-0.0698 0.0838,-0.13945 0.0838,-0.23719 v -1.89896 c 0,-0.0977 -0.02792,-0.16766 -0.0838,-0.23748 -0.06981,-0.0698 -0.153376,-0.0977 -0.251112,-0.0977 z m 25.439254,0 c -0.09774,0 -0.167382,0.0279 -0.237193,0.0977 -0.06981,0.0698 -0.09771,0.13974 -0.09771,0.23748 v 9.5502 c 0,0.0977 0.02792,0.16738 0.09771,0.23719 0.06981,0.0698 0.139457,0.098 0.237193,0.098 h 2.080476 c 0.09774,0 0.167382,-0.0282 0.237193,-0.098 0.06981,-0.0698 0.09772,-0.13946 0.09772,-0.23719 v -4.99866 c 0,-0.0977 0.0282,-0.15335 0.098,-0.16731 0.05585,-0.014 0.111467,0.0279 0.167316,0.0977 l 3.644247,5.12392 c 0.0559,0.0698 0.13973,0.13987 0.23747,0.19572 0.0977,0.0559 0.19542,0.0838 0.29315,0.0838 h 2.06628 c 0.0977,0 0.16766,-0.0282 0.23747,-0.098 0.0698,-0.0698 0.0977,-0.13946 0.0977,-0.23719 v -9.5502 c 0,-0.0977 -0.0279,-0.16766 -0.0977,-0.23748 -0.0698,-0.0698 -0.13973,-0.0977 -0.23747,-0.0977 h -2.06628 c -0.0977,0 -0.16766,0.0279 -0.23747,0.0977 -0.0698,0.0698 -0.0977,0.13974 -0.0977,0.23748 v 4.99837 c 0,0.0977 -0.0279,0.13972 -0.0838,0.15368 -0.0698,0.014 -0.12567,-0.0279 -0.18152,-0.0977 l -3.630035,-5.12421 c -0.05585,-0.0698 -0.139738,-0.13958 -0.237474,-0.19543 -0.09774,-0.0419 -0.195422,-0.0699 -0.293152,-0.0699 z m -29.641681,0.0139 c -0.09774,0 -0.181627,0.0279 -0.237476,0.0977 -0.06981,0.0698 -0.09772,0.13975 -0.09772,0.23748 v 9.53628 c 0,0.0977 0.02791,0.16738 0.09772,0.23719 0.05585,0.0698 0.13974,0.098 0.237476,0.098 h 2.108031 c 0.09774,0 0.167666,-0.0282 0.237477,-0.098 0.06981,-0.0698 0.09772,-0.13946 0.09772,-0.23719 v -9.53627 c 0,-0.0977 -0.02791,-0.16767 -0.09772,-0.23748 -0.06981,-0.0698 -0.139741,-0.0977 -0.237477,-0.0977 z m 13.431634,0 c -0.09774,0 -0.181631,0.0279 -0.23748,0.0977 -0.06981,0.0698 -0.09772,0.13975 -0.09772,0.23748 v 9.53628 c 0,0.0977 0.02792,0.16738 0.09772,0.23719 0.05585,0.0698 0.139744,0.098 0.23748,0.098 h 2.108312 c 0.09774,0 0.167382,-0.0282 0.237194,-0.098 0.06981,-0.0698 0.09772,-0.13946 0.09772,-0.23719 v -9.53627 c 0,-0.0977 -0.02792,-0.16767 -0.09772,-0.23748 -0.06981,-0.0698 -0.139458,-0.0977 -0.237194,-0.0977 z m -29.195137,2.47135 c 0.349056,0 0.670291,0.07 0.97746,0.20964 0.307169,0.15359 0.572222,0.33503 0.809579,0.57239 0.237359,0.23736 0.418889,0.51657 0.544549,0.8377 0.12566,0.32113 0.195435,0.65624 0.195435,1.0053 0,0.34905 -0.06977,0.68416 -0.195435,1.0053 -0.12566,0.32113 -0.30719,0.60034 -0.544549,0.8377 -0.237357,0.23736 -0.50241,0.43276 -0.809579,0.57239 -0.307169,0.15358 -0.628404,0.22355 -0.97746,0.22355 -0.349056,0 -0.670292,-0.07 -0.977461,-0.22355 -0.307169,-0.13963 -0.572264,-0.33503 -0.79566,-0.57239 -0.237358,-0.23736 -0.418888,-0.51657 -0.544549,-0.8377 -0.12566,-0.32114 -0.195435,-0.65625 -0.195435,-1.0053 0,-0.34906 0.06977,-0.68417 0.195435,-1.0053 0.125661,-0.32113 0.307191,-0.60034 0.544549,-0.8377 0.223396,-0.23736 0.488491,-0.4188 0.79566,-0.57239 0.307169,-0.13962 0.628405,-0.20964 0.977461,-0.20964 z m 38.32634,0 c 0.349051,0 0.670287,0.07 0.977457,0.20964 0.30717,0.15359 0.572508,0.33503 0.809866,0.57239 0.237359,0.23736 0.418885,0.51657 0.544545,0.8377 0.12566,0.32113 0.195439,0.65624 0.195439,1.0053 0,0.34905 -0.06978,0.68416 -0.195439,1.0053 -0.12566,0.32113 -0.307186,0.60034 -0.544545,0.8377 -0.237358,0.23736 -0.502696,0.43276 -0.809866,0.57239 -0.30717,0.15358 -0.628406,0.22355 -0.977457,0.22355 -0.349057,0 -0.670007,-0.07 -0.977177,-0.22355 -0.30717,-0.13963 -0.572552,-0.33503 -0.795948,-0.57239 -0.237358,-0.23736 -0.41889,-0.51657 -0.544544,-0.8377 -0.125661,-0.32114 -0.195439,-0.65625 -0.195439,-1.0053 0,-0.34906 0.06978,-0.68417 0.195439,-1.0053 0.125654,-0.32113 0.307186,-0.60034 0.544544,-0.8377 0.223396,-0.23736 0.488778,-0.4188 0.795948,-0.57239 0.30717,-0.13962 0.62812,-0.20964 0.977177,-0.20964 z"
     style="font-size:25.4px;line-height:1;font-family:Heavitas;-inkscape-font-specification:Heavitas;letter-spacing:0;word-spacing:0;text-orientation:upright;fill:#fff;stroke-width:8.46668;stroke-linecap:round;stroke-linejoin:round;stroke-miterlimit:128;paint-order:stroke fill markers" /><path
     id="rect2"
     style="fill:#000000;fill-opacity:1;stroke-width:16.9333;stroke-linecap:round;stroke-linejoin:round;stroke-miterlimit:128"
     d="m 82.421843,16.93385 c 7.669773,0.0073 15.133178,3.998898 19.236037,11.105265 5.7931,10.033941 2.75477,22.690022 -6.564459,29.216821 2.221908,1.127493 4.166298,2.808878 5.470979,5.062223 a 2.1168766,2.1168766 0 0 1 0,0.0021 c 3.62448,6.277782 1.4574,14.367707 -4.820372,17.992183 -4.109858,2.372828 -8.899128,2.053947 -12.800769,-0.06615 -0.114615,4.439134 -2.23586,8.747856 -6.345866,11.120768 -6.277782,3.624478 -14.367706,1.457922 -17.992183,-4.819861 a 2.1168766,2.1168766 0 0 1 0,-5.17e-4 2.1168766,2.1168766 0 0 1 0,-5.17e-4 2.1168766,2.1168766 0 0 1 0,-5.16e-4 2.1168766,2.1168766 0 0 1 0,-5.17e-4 C 57.304086,84.289653 56.816754,81.765396 56.94898,79.277331 46.638199,84.080115 34.160727,80.383665 28.368817,70.351777 22.246837,59.748187 25.898057,46.127811 36.50165,40.005826 41.578875,37.074487 47.335966,36.439837 52.642266,37.67987 l -8.408272,-8.334375 a 2.1166649,2.1166649 0 0 1 -0.01344,-2.994132 2.1166649,2.1166649 0 0 1 2.992065,-0.01344 L 57.978374,37.00756 54.120729,22.351607 a 2.1166649,2.1166649 0 0 1 1.507918,-2.585889 2.1166649,2.1166649 0 0 1 2.585889,1.507919 l 3.015836,11.462866 c 0.491006,-1.623639 1.100866,-3.216445 1.952853,-4.695321 a 2.1166649,2.1166649 0 0 1 2.890779,-0.77773 2.1166649,2.1166649 0 0 1 0.777214,2.890779 c -3.099506,5.380109 -3.33928,12.20484 -0.0036,17.982365 a 2.1166649,2.1166649 0 0 1 0,0.0021 l 14.572237,25.236186 c 2.480549,4.296435 7.910568,5.752185 12.207007,3.271634 4.295685,-2.480114 5.751934,-7.910925 3.273185,-12.207006 l -0.0016,-0.0021 c -1.418534,-2.448177 -3.871982,-4.024223 -6.580477,-4.376994 a 2.1166649,2.1166649 0 0 1 -0.449068,-0.185518 c -0.582651,0.205204 -1.124147,0.54319 -1.718758,0.699182 a 2.1166649,2.1166649 0 0 1 -2.583822,-1.509469 2.1166649,2.1166649 0 0 1 1.509469,-2.584338 c 1.50898,-0.39587 2.970047,-0.983516 4.341854,-1.765267 0.0013,-7.26e-4 0.0028,-0.0013 0.0041,-0.0021 8.614479,-4.980722 11.546259,-15.939821 6.570141,-24.558708 -3.335647,-5.77752 -9.365168,-8.982176 -15.574243,-8.988081 a 2.1166649,2.1166649 0 0 1 -2.115116,-2.117184 2.1166649,2.1166649 0 0 1 2.11925,-2.115116 z m -7.399031,1.560111 a 2.1166649,2.1166649 0 0 1 1.672249,1.299146 2.1166649,2.1166649 0 0 1 -1.162203,2.759521 c -0.725266,0.295407 -1.430406,0.637934 -2.110982,1.025261 -0.0013,7.21e-4 -0.0028,0.0013 -0.0041,0.0021 -0.673133,0.391348 -1.32055,0.825466 -1.937349,1.300696 a 2.1166649,2.1166649 0 0 1 -2.968811,-0.384473 2.1166649,2.1166649 0 0 1 0.384989,-2.968811 c 0.768014,-0.591791 1.573055,-1.132574 2.411739,-1.619023 a 2.1168766,2.1168766 0 0 1 0.01602,-0.0078 c 0.842302,-0.47964 1.713564,-0.904071 2.61121,-1.26969 a 2.1166649,2.1166649 0 0 1 1.087272,-0.136943 z m 7.609355,10.507886 c 3.432128,0.08135 6.750187,1.892837 8.582421,5.066357 2.791975,4.835844 1.119275,11.081082 -3.716569,13.873055 -4.835844,2.791977 -11.081078,1.119274 -13.873055,-3.716569 -2.791973,-4.835842 -1.119274,-11.083146 3.716569,-13.875122 1.208961,-0.697993 2.507116,-1.115203 3.816305,-1.275374 0.490945,-0.06006 0.984024,-0.08397 1.474329,-0.07235 z m -0.07855,4.210079 c -0.285258,-0.0057 -0.572016,0.0096 -0.858345,0.04599 -0.763543,0.09702 -1.522931,0.347632 -2.236556,0.759643 -2.854502,1.648048 -3.815874,5.235444 -2.167826,8.089946 1.648048,2.854504 5.23544,3.815875 8.089945,2.167826 2.854502,-1.648046 3.815876,-5.23699 2.167826,-8.091496 -1.081532,-1.873267 -2.998231,-2.931688 -4.995044,-2.971911 z m -34.985461,8.037235 c -3.039394,0.0078 -6.121704,0.789169 -8.950874,2.422591 -8.622246,4.978052 -11.560076,15.940598 -6.582026,24.562842 4.977009,8.620427 15.936775,11.557257 24.558189,6.583577 0.0018,-0.001 0.0043,-9.72e-4 0.0062,-0.0021 1.360532,-0.796478 2.597622,-1.765457 3.693315,-2.872693 a 2.1166649,2.1166649 0 0 1 2.992065,-0.0155 2.1166649,2.1166649 0 0 1 0.0155,2.994133 c -0.454401,0.459189 -1.044096,0.776342 -1.538924,1.196826 a 2.1166649,2.1166649 0 0 1 0,0.425814 c -1.044465,2.522417 -0.901987,5.434394 0.511597,7.88479 2.480547,4.296439 7.910569,5.752183 12.207006,3.271635 C 78.7766,85.22061 80.232394,79.78847 77.751844,75.492032 L 63.181674,50.253779 c -7.35e-4,-0.0013 -0.0013,-0.0023 -0.0021,-0.0036 -3.11156,-5.386417 -8.559395,-8.553925 -14.312304,-8.957076 -0.431585,-0.03023 -0.864946,-0.04504 -1.299146,-0.04393 z m 0.251148,7.850684 c 3.432502,0.08135 6.752772,1.892834 8.585005,5.066357 2.791979,4.835843 1.118757,11.081079 -3.717085,13.873055 -4.835846,2.791976 -11.082632,1.118758 -13.874605,-3.717086 -2.791978,-4.835844 -1.117207,-11.081077 3.718636,-13.873055 1.20896,-0.697994 2.505048,-1.11727 3.814237,-1.277441 0.490945,-0.06006 0.983454,-0.08345 1.473812,-0.07183 z m -0.07596,4.212146 c -0.285258,-0.0057 -0.572533,0.0091 -0.858862,0.04548 -0.763543,0.09702 -1.524481,0.345565 -2.238106,0.757576 -2.854502,1.64805 -3.815876,5.235443 -2.167826,8.089946 1.648046,2.854504 5.23699,3.815876 8.091495,2.167826 2.854503,-1.648049 3.816394,-5.234925 2.168343,-8.089428 -1.081531,-1.873269 -2.99823,-2.931172 -4.995044,-2.971395 z" /><style
     id="style1"
     type="text/css">.st0{opacity:.2;fill:none;stroke:#000;stroke-width:5.000000e-02;stroke-miterlimit:10}</style></svg>
