<svg xmlns="http://www.w3.org/2000/svg" xml:space="preserve" width="512" height="512" viewBox="0 0 135.46665 135.46666"><path d="M 67.732294 0.0020670571 A 16.935043 16.935043 0 0 0 52.588 9.3611849 L 1.7869709 110.96118 A 16.93335 16.93335 0 0 0 9.3611849 133.67968 A 16.93335 16.93335 0 0 0 32.078143 126.10547 L 35.863958 118.53332 L 99.60063 118.53332 L 103.38696 126.10547 A 16.93335 16.93335 0 0 0 126.10547 133.67968 A 16.93335 16.93335 0 0 0 133.67968 110.96118 L 82.878655 9.3611849 A 16.935043 16.935043 0 0 0 67.732294 0.0020670571 z M 67.732294 54.796651 L 82.667298 84.666143 L 52.797806 84.666143 L 67.732294 54.796651 z" style="color:#000;fill:#fff;stroke-linecap:round;stroke-linejoin:round;stroke-miterlimit:128;-inkscape-stroke:none;paint-order:stroke fill markers"/></svg>