<svg xmlns="http://www.w3.org/2000/svg" xml:space="preserve" width="512" height="512" viewBox="0 0 135.46665 135.46666"><path d="m 118.53332,135.46665 a 16.933331,16.933332 0 0 0 16.93333,-16.93333 V 16.93333 A 16.933331,16.933332 0 0 0 118.53332,0 16.933331,16.933332 0 0 0 101.59999,16.93333 v 101.59999 a 16.933331,16.933332 0 0 0 16.93333,16.93333 z m -50.799997,0 A 16.933331,16.933332 0 0 0 84.666654,118.53332 V 16.93333 A 16.933331,16.933332 0 0 0 67.733323,0 16.933331,16.933332 0 0 0 50.799991,16.93333 v 101.59999 a 16.933331,16.933332 0 0 0 16.933332,16.93333 z m -50.799993,0 A 16.933331,16.933332 0 0 0 33.86666,118.53332 V 16.93333 A 16.933331,16.933332 0 0 0 16.93333,0 16.933331,16.933332 0 0 0 0,16.93333 v 101.59999 a 16.933331,16.933332 0 0 0 16.93333,16.93333 z" style="fill:#fff;fill-opacity:1;stroke-width:4.23333;stroke-linecap:round;stroke-linejoin:round;stroke-miterlimit:128;stroke-opacity:0"/></svg>