<svg xmlns="http://www.w3.org/2000/svg" xml:space="preserve" width="512" height="512" viewBox="0 0 135.46665 135.46666"><path d="M 25.399998,0 C 16.047779,9.8820349e-6 8.4663903,7.5816302 8.4666659,16.933849 V 118.53332 c 1.1e-5,9.35222 7.5816311,16.93361 16.9338491,16.93333 9.352016,-10e-6 16.93332,-7.58131 16.933331,-16.93333 v -16.93333 h 26.852106 l 28.907794,28.90779 c 6.612884,6.61289 17.334494,6.61289 23.947374,0 6.61288,-6.61288 6.61288,-17.33449 0,-23.94737 L 106.74386,91.263155 C 119.01127,81.951377 126.99999,67.233365 126.99999,50.801029 126.99999,22.945783 104.05518,2.8525507e-4 76.199993,0 Z m 16.933848,33.866664 33.866147,5.17e-4 c 9.552296,2.69e-4 16.932816,7.38147 16.932816,16.933848 0,9.55238 -7.38052,16.930995 -16.932816,16.931265 l -33.866147,0.001 z" style="color:#000;fill:#fff;stroke-linecap:round;stroke-linejoin:round;stroke-miterlimit:128;-inkscape-stroke:none;paint-order:stroke fill markers"/></svg>